<?xml version="1.0" encoding="utf-8" standalone="no"?>
<!DOCTYPE svg PUBLIC "-//W3C//DTD SVG 1.1//EN"
  "http://www.w3.org/Graphics/SVG/1.1/DTD/svg11.dtd">
<svg xmlns:xlink="http://www.w3.org/1999/xlink" width="720pt" height="432pt" viewBox="0 0 720 432" xmlns="http://www.w3.org/2000/svg" version="1.1">
 <metadata>
  <rdf:RDF xmlns:dc="http://purl.org/dc/elements/1.1/" xmlns:cc="http://creativecommons.org/ns#" xmlns:rdf="http://www.w3.org/1999/02/22-rdf-syntax-ns#">
   <cc:Work>
    <dc:type rdf:resource="http://purl.org/dc/dcmitype/StillImage"/>
    <dc:date>2026-03-03T12:11:32.421165</dc:date>
    <dc:format>image/svg+xml</dc:format>
    <dc:creator>
     <cc:Agent>
      <dc:title>Matplotlib v3.10.8, https://matplotlib.org/</dc:title>
     </cc:Agent>
    </dc:creator>
   </cc:Work>
  </rdf:RDF>
 </metadata>
 <defs>
  <style type="text/css">*{stroke-linejoin: round; stroke-linecap: butt}</style>
 </defs>
 <g id="figure_1">
  <g id="patch_1">
   <path d="M 0 432 
L 720 432 
L 720 0 
L 0 0 
z
" style="fill: #ffffff"/>
  </g>
  <g id="axes_1">
   <g id="patch_2">
    <path d="M 47.72 390.04 
L 709.2 390.04 
L 709.2 26.88 
L 47.72 26.88 
z
" style="fill: #ffffff"/>
   </g>
   <g id="patch_3">
    <path d="M 46.353306 390.04 
L 49.086694 390.04 
L 49.086694 44.173333 
L 46.353306 44.173333 
z
" clip-path="url(#p8156ab6684)" style="fill: #008000"/>
   </g>
   <g id="patch_4">
    <path d="M 49.086694 390.04 
L 51.820083 390.04 
L 51.820083 44.173333 
L 49.086694 44.173333 
z
" clip-path="url(#p8156ab6684)" style="fill: #008000"/>
   </g>
   <g id="patch_5">
    <path d="M 51.820083 390.04 
L 54.553471 390.04 
L 54.553471 47.918753 
L 51.820083 47.918753 
z
" clip-path="url(#p8156ab6684)" style="fill: #008000"/>
   </g>
   <g id="patch_6">
    <path d="M 54.553471 390.04 
L 57.28686 390.04 
L 57.28686 44.173333 
L 54.553471 44.173333 
z
" clip-path="url(#p8156ab6684)" style="fill: #008000"/>
   </g>
   <g id="patch_7">
    <path d="M 57.28686 390.04 
L 60.020248 390.04 
L 60.020248 44.173333 
L 57.28686 44.173333 
z
" clip-path="url(#p8156ab6684)" style="fill: #008000"/>
   </g>
   <g id="patch_8">
    <path d="M 60.020248 390.04 
L 62.753636 390.04 
L 62.753636 44.173333 
L 60.020248 44.173333 
z
" clip-path="url(#p8156ab6684)" style="fill: #008000"/>
   </g>
   <g id="patch_9">
    <path d="M 62.753636 390.04 
L 65.487025 390.04 
L 65.487025 44.173333 
L 62.753636 44.173333 
z
" clip-path="url(#p8156ab6684)" style="fill: #008000"/>
   </g>
   <g id="patch_10">
    <path d="M 65.487025 390.04 
L 68.220413 390.04 
L 68.220413 115.23242 
L 65.487025 115.23242 
z
" clip-path="url(#p8156ab6684)" style="fill: #ffa500"/>
   </g>
   <g id="patch_11">
    <path d="M 68.220413 390.04 
L 70.953802 390.04 
L 70.953802 44.173333 
L 68.220413 44.173333 
z
" clip-path="url(#p8156ab6684)" style="fill: #008000"/>
   </g>
   <g id="patch_12">
    <path d="M 70.953802 390.04 
L 73.68719 390.04 
L 73.68719 44.173333 
L 70.953802 44.173333 
z
" clip-path="url(#p8156ab6684)" style="fill: #008000"/>
   </g>
   <g id="patch_13">
    <path d="M 73.68719 390.04 
L 76.420579 390.04 
L 76.420579 52.977035 
L 73.68719 52.977035 
z
" clip-path="url(#p8156ab6684)" style="fill: #008000"/>
   </g>
   <g id="patch_14">
    <path d="M 76.420579 390.04 
L 79.153967 390.04 
L 79.153967 44.173333 
L 76.420579 44.173333 
z
" clip-path="url(#p8156ab6684)" style="fill: #008000"/>
   </g>
   <g id="patch_15">
    <path d="M 79.153967 390.04 
L 81.887355 390.04 
L 81.887355 44.173333 
L 79.153967 44.173333 
z
" clip-path="url(#p8156ab6684)" style="fill: #008000"/>
   </g>
   <g id="patch_16">
    <path d="M 81.887355 390.04 
L 84.620744 390.04 
L 84.620744 44.173333 
L 81.887355 44.173333 
z
" clip-path="url(#p8156ab6684)" style="fill: #008000"/>
   </g>
   <g id="patch_17">
    <path d="M 84.620744 390.04 
L 87.354132 390.04 
L 87.354132 112.973862 
L 84.620744 112.973862 
z
" clip-path="url(#p8156ab6684)" style="fill: #008000"/>
   </g>
   <g id="patch_18">
    <path d="M 87.354132 390.04 
L 90.087521 390.04 
L 90.087521 44.173333 
L 87.354132 44.173333 
z
" clip-path="url(#p8156ab6684)" style="fill: #008000"/>
   </g>
   <g id="patch_19">
    <path d="M 90.087521 390.04 
L 92.820909 390.04 
L 92.820909 63.324686 
L 90.087521 63.324686 
z
" clip-path="url(#p8156ab6684)" style="fill: #008000"/>
   </g>
   <g id="patch_20">
    <path d="M 92.820909 390.04 
L 95.554298 390.04 
L 95.554298 124.161063 
L 92.820909 124.161063 
z
" clip-path="url(#p8156ab6684)" style="fill: #ffa500"/>
   </g>
   <g id="patch_21">
    <path d="M 95.554298 390.04 
L 98.287686 390.04 
L 98.287686 62.450952 
L 95.554298 62.450952 
z
" clip-path="url(#p8156ab6684)" style="fill: #008000"/>
   </g>
   <g id="patch_22">
    <path d="M 98.287686 390.04 
L 101.021074 390.04 
L 101.021074 44.173333 
L 98.287686 44.173333 
z
" clip-path="url(#p8156ab6684)" style="fill: #008000"/>
   </g>
   <g id="patch_23">
    <path d="M 101.021074 390.04 
L 103.754463 390.04 
L 103.754463 44.173333 
L 101.021074 44.173333 
z
" clip-path="url(#p8156ab6684)" style="fill: #008000"/>
   </g>
   <g id="patch_24">
    <path d="M 103.754463 390.04 
L 106.487851 390.04 
L 106.487851 44.173333 
L 103.754463 44.173333 
z
" clip-path="url(#p8156ab6684)" style="fill: #008000"/>
   </g>
   <g id="patch_25">
    <path d="M 106.487851 390.04 
L 109.22124 390.04 
L 109.22124 44.173333 
L 106.487851 44.173333 
z
" clip-path="url(#p8156ab6684)" style="fill: #008000"/>
   </g>
   <g id="patch_26">
    <path d="M 109.22124 390.04 
L 111.954628 390.04 
L 111.954628 127.06206 
L 109.22124 127.06206 
z
" clip-path="url(#p8156ab6684)" style="fill: #ffa500"/>
   </g>
   <g id="patch_27">
    <path d="M 111.954628 390.04 
L 114.688017 390.04 
L 114.688017 68.972842 
L 111.954628 68.972842 
z
" clip-path="url(#p8156ab6684)" style="fill: #008000"/>
   </g>
   <g id="patch_28">
    <path d="M 114.688017 390.04 
L 117.421405 390.04 
L 117.421405 223.956395 
L 114.688017 223.956395 
z
" clip-path="url(#p8156ab6684)" style="fill: #ff0000"/>
   </g>
   <g id="patch_29">
    <path d="M 117.421405 390.04 
L 120.154793 390.04 
L 120.154793 79.165035 
L 117.421405 79.165035 
z
" clip-path="url(#p8156ab6684)" style="fill: #008000"/>
   </g>
   <g id="patch_30">
    <path d="M 120.154793 390.04 
L 122.888182 390.04 
L 122.888182 113.940957 
L 120.154793 113.940957 
z
" clip-path="url(#p8156ab6684)" style="fill: #ffa500"/>
   </g>
   <g id="patch_31">
    <path d="M 122.888182 390.04 
L 125.62157 390.04 
L 125.62157 44.173333 
L 122.888182 44.173333 
z
" clip-path="url(#p8156ab6684)" style="fill: #008000"/>
   </g>
   <g id="patch_32">
    <path d="M 125.62157 390.04 
L 128.354959 390.04 
L 128.354959 44.173333 
L 125.62157 44.173333 
z
" clip-path="url(#p8156ab6684)" style="fill: #008000"/>
   </g>
   <g id="patch_33">
    <path d="M 128.354959 390.04 
L 131.088347 390.04 
L 131.088347 44.736571 
L 128.354959 44.736571 
z
" clip-path="url(#p8156ab6684)" style="fill: #008000"/>
   </g>
   <g id="patch_34">
    <path d="M 131.088347 390.04 
L 133.821736 390.04 
L 133.821736 65.520578 
L 131.088347 65.520578 
z
" clip-path="url(#p8156ab6684)" style="fill: #008000"/>
   </g>
   <g id="patch_35">
    <path d="M 133.821736 390.04 
L 136.555124 390.04 
L 136.555124 44.173333 
L 133.821736 44.173333 
z
" clip-path="url(#p8156ab6684)" style="fill: #008000"/>
   </g>
   <g id="patch_36">
    <path d="M 136.555124 390.04 
L 139.288512 390.04 
L 139.288512 182.032717 
L 136.555124 182.032717 
z
" clip-path="url(#p8156ab6684)" style="fill: #ff0000"/>
   </g>
   <g id="patch_37">
    <path d="M 139.288512 390.04 
L 142.021901 390.04 
L 142.021901 128.835521 
L 139.288512 128.835521 
z
" clip-path="url(#p8156ab6684)" style="fill: #ffa500"/>
   </g>
   <g id="patch_38">
    <path d="M 142.021901 390.04 
L 144.755289 390.04 
L 144.755289 49.80076 
L 142.021901 49.80076 
z
" clip-path="url(#p8156ab6684)" style="fill: #008000"/>
   </g>
   <g id="patch_39">
    <path d="M 144.755289 390.04 
L 147.488678 390.04 
L 147.488678 44.173333 
L 144.755289 44.173333 
z
" clip-path="url(#p8156ab6684)" style="fill: #008000"/>
   </g>
   <g id="patch_40">
    <path d="M 147.488678 390.04 
L 150.222066 390.04 
L 150.222066 44.173333 
L 147.488678 44.173333 
z
" clip-path="url(#p8156ab6684)" style="fill: #008000"/>
   </g>
   <g id="patch_41">
    <path d="M 150.222066 390.04 
L 152.955455 390.04 
L 152.955455 72.892809 
L 150.222066 72.892809 
z
" clip-path="url(#p8156ab6684)" style="fill: #008000"/>
   </g>
   <g id="patch_42">
    <path d="M 152.955455 390.04 
L 155.688843 390.04 
L 155.688843 44.173333 
L 152.955455 44.173333 
z
" clip-path="url(#p8156ab6684)" style="fill: #008000"/>
   </g>
   <g id="patch_43">
    <path d="M 155.688843 390.04 
L 158.422231 390.04 
L 158.422231 44.173333 
L 155.688843 44.173333 
z
" clip-path="url(#p8156ab6684)" style="fill: #008000"/>
   </g>
   <g id="patch_44">
    <path d="M 158.422231 390.04 
L 161.15562 390.04 
L 161.15562 49.355829 
L 158.422231 49.355829 
z
" clip-path="url(#p8156ab6684)" style="fill: #008000"/>
   </g>
   <g id="patch_45">
    <path d="M 161.15562 390.04 
L 163.889008 390.04 
L 163.889008 74.41248 
L 161.15562 74.41248 
z
" clip-path="url(#p8156ab6684)" style="fill: #008000"/>
   </g>
   <g id="patch_46">
    <path d="M 163.889008 390.04 
L 166.622397 390.04 
L 166.622397 62.956641 
L 163.889008 62.956641 
z
" clip-path="url(#p8156ab6684)" style="fill: #008000"/>
   </g>
   <g id="patch_47">
    <path d="M 166.622397 390.04 
L 169.355785 390.04 
L 169.355785 106.434246 
L 166.622397 106.434246 
z
" clip-path="url(#p8156ab6684)" style="fill: #008000"/>
   </g>
   <g id="patch_48">
    <path d="M 169.355785 390.04 
L 172.089174 390.04 
L 172.089174 44.173333 
L 169.355785 44.173333 
z
" clip-path="url(#p8156ab6684)" style="fill: #008000"/>
   </g>
   <g id="patch_49">
    <path d="M 172.089174 390.04 
L 174.822562 390.04 
L 174.822562 88.060866 
L 172.089174 88.060866 
z
" clip-path="url(#p8156ab6684)" style="fill: #008000"/>
   </g>
   <g id="patch_50">
    <path d="M 174.822562 390.04 
L 177.55595 390.04 
L 177.55595 61.28341 
L 174.822562 61.28341 
z
" clip-path="url(#p8156ab6684)" style="fill: #008000"/>
   </g>
   <g id="patch_51">
    <path d="M 177.55595 390.04 
L 180.289339 390.04 
L 180.289339 44.173333 
L 177.55595 44.173333 
z
" clip-path="url(#p8156ab6684)" style="fill: #008000"/>
   </g>
   <g id="patch_52">
    <path d="M 180.289339 390.04 
L 183.022727 390.04 
L 183.022727 77.7276 
L 180.289339 77.7276 
z
" clip-path="url(#p8156ab6684)" style="fill: #008000"/>
   </g>
   <g id="patch_53">
    <path d="M 183.022727 390.04 
L 185.756116 390.04 
L 185.756116 44.173333 
L 183.022727 44.173333 
z
" clip-path="url(#p8156ab6684)" style="fill: #008000"/>
   </g>
   <g id="patch_54">
    <path d="M 185.756116 390.04 
L 188.489504 390.04 
L 188.489504 51.334925 
L 185.756116 51.334925 
z
" clip-path="url(#p8156ab6684)" style="fill: #008000"/>
   </g>
   <g id="patch_55">
    <path d="M 188.489504 390.04 
L 191.222893 390.04 
L 191.222893 44.173333 
L 188.489504 44.173333 
z
" clip-path="url(#p8156ab6684)" style="fill: #008000"/>
   </g>
   <g id="patch_56">
    <path d="M 191.222893 390.04 
L 193.956281 390.04 
L 193.956281 100.955784 
L 191.222893 100.955784 
z
" clip-path="url(#p8156ab6684)" style="fill: #008000"/>
   </g>
   <g id="patch_57">
    <path d="M 193.956281 390.04 
L 196.689669 390.04 
L 196.689669 44.173333 
L 193.956281 44.173333 
z
" clip-path="url(#p8156ab6684)" style="fill: #008000"/>
   </g>
   <g id="patch_58">
    <path d="M 196.689669 390.04 
L 199.423058 390.04 
L 199.423058 44.173333 
L 196.689669 44.173333 
z
" clip-path="url(#p8156ab6684)" style="fill: #008000"/>
   </g>
   <g id="patch_59">
    <path d="M 199.423058 390.04 
L 202.156446 390.04 
L 202.156446 76.541216 
L 199.423058 76.541216 
z
" clip-path="url(#p8156ab6684)" style="fill: #008000"/>
   </g>
   <g id="patch_60">
    <path d="M 202.156446 390.04 
L 204.889835 390.04 
L 204.889835 191.911359 
L 202.156446 191.911359 
z
" clip-path="url(#p8156ab6684)" style="fill: #ff0000"/>
   </g>
   <g id="patch_61">
    <path d="M 204.889835 390.04 
L 207.623223 390.04 
L 207.623223 71.504308 
L 204.889835 71.504308 
z
" clip-path="url(#p8156ab6684)" style="fill: #008000"/>
   </g>
   <g id="patch_62">
    <path d="M 207.623223 390.04 
L 210.356612 390.04 
L 210.356612 63.575587 
L 207.623223 63.575587 
z
" clip-path="url(#p8156ab6684)" style="fill: #008000"/>
   </g>
   <g id="patch_63">
    <path d="M 210.356612 390.04 
L 213.09 390.04 
L 213.09 67.556808 
L 210.356612 67.556808 
z
" clip-path="url(#p8156ab6684)" style="fill: #008000"/>
   </g>
   <g id="patch_64">
    <path d="M 213.09 390.04 
L 215.823388 390.04 
L 215.823388 45.31497 
L 213.09 45.31497 
z
" clip-path="url(#p8156ab6684)" style="fill: #008000"/>
   </g>
   <g id="patch_65">
    <path d="M 215.823388 390.04 
L 218.556777 390.04 
L 218.556777 211.188714 
L 215.823388 211.188714 
z
" clip-path="url(#p8156ab6684)" style="fill: #ff0000"/>
   </g>
   <g id="patch_66">
    <path d="M 218.556777 390.04 
L 221.290165 390.04 
L 221.290165 44.173333 
L 218.556777 44.173333 
z
" clip-path="url(#p8156ab6684)" style="fill: #008000"/>
   </g>
   <g id="patch_67">
    <path d="M 221.290165 390.04 
L 224.023554 390.04 
L 224.023554 48.60841 
L 221.290165 48.60841 
z
" clip-path="url(#p8156ab6684)" style="fill: #008000"/>
   </g>
   <g id="patch_68">
    <path d="M 224.023554 390.04 
L 226.756942 390.04 
L 226.756942 56.612248 
L 224.023554 56.612248 
z
" clip-path="url(#p8156ab6684)" style="fill: #008000"/>
   </g>
   <g id="patch_69">
    <path d="M 226.756942 390.04 
L 229.490331 390.04 
L 229.490331 64.917486 
L 226.756942 64.917486 
z
" clip-path="url(#p8156ab6684)" style="fill: #008000"/>
   </g>
   <g id="patch_70">
    <path d="M 229.490331 390.04 
L 232.223719 390.04 
L 232.223719 67.454285 
L 229.490331 67.454285 
z
" clip-path="url(#p8156ab6684)" style="fill: #008000"/>
   </g>
   <g id="patch_71">
    <path d="M 232.223719 390.04 
L 234.957107 390.04 
L 234.957107 44.173333 
L 232.223719 44.173333 
z
" clip-path="url(#p8156ab6684)" style="fill: #008000"/>
   </g>
   <g id="patch_72">
    <path d="M 234.957107 390.04 
L 237.690496 390.04 
L 237.690496 44.173333 
L 234.957107 44.173333 
z
" clip-path="url(#p8156ab6684)" style="fill: #008000"/>
   </g>
   <g id="patch_73">
    <path d="M 237.690496 390.04 
L 240.423884 390.04 
L 240.423884 188.760635 
L 237.690496 188.760635 
z
" clip-path="url(#p8156ab6684)" style="fill: #ff0000"/>
   </g>
   <g id="patch_74">
    <path d="M 240.423884 390.04 
L 243.157273 390.04 
L 243.157273 169.356915 
L 240.423884 169.356915 
z
" clip-path="url(#p8156ab6684)" style="fill: #ffa500"/>
   </g>
   <g id="patch_75">
    <path d="M 243.157273 390.04 
L 245.890661 390.04 
L 245.890661 85.710091 
L 243.157273 85.710091 
z
" clip-path="url(#p8156ab6684)" style="fill: #008000"/>
   </g>
   <g id="patch_76">
    <path d="M 245.890661 390.04 
L 248.62405 390.04 
L 248.62405 83.785901 
L 245.890661 83.785901 
z
" clip-path="url(#p8156ab6684)" style="fill: #008000"/>
   </g>
   <g id="patch_77">
    <path d="M 248.62405 390.04 
L 251.357438 390.04 
L 251.357438 44.173333 
L 248.62405 44.173333 
z
" clip-path="url(#p8156ab6684)" style="fill: #008000"/>
   </g>
   <g id="patch_78">
    <path d="M 251.357438 390.04 
L 254.090826 390.04 
L 254.090826 44.173333 
L 251.357438 44.173333 
z
" clip-path="url(#p8156ab6684)" style="fill: #008000"/>
   </g>
   <g id="patch_79">
    <path d="M 254.090826 390.04 
L 256.824215 390.04 
L 256.824215 44.173333 
L 254.090826 44.173333 
z
" clip-path="url(#p8156ab6684)" style="fill: #008000"/>
   </g>
   <g id="patch_80">
    <path d="M 256.824215 390.04 
L 259.557603 390.04 
L 259.557603 44.173333 
L 256.824215 44.173333 
z
" clip-path="url(#p8156ab6684)" style="fill: #008000"/>
   </g>
   <g id="patch_81">
    <path d="M 259.557603 390.04 
L 262.290992 390.04 
L 262.290992 112.34901 
L 259.557603 112.34901 
z
" clip-path="url(#p8156ab6684)" style="fill: #008000"/>
   </g>
   <g id="patch_82">
    <path d="M 262.290992 390.04 
L 265.02438 390.04 
L 265.02438 87.721625 
L 262.290992 87.721625 
z
" clip-path="url(#p8156ab6684)" style="fill: #008000"/>
   </g>
   <g id="patch_83">
    <path d="M 265.02438 390.04 
L 267.757769 390.04 
L 267.757769 57.193754 
L 265.02438 57.193754 
z
" clip-path="url(#p8156ab6684)" style="fill: #008000"/>
   </g>
   <g id="patch_84">
    <path d="M 267.757769 390.04 
L 270.491157 390.04 
L 270.491157 48.493513 
L 267.757769 48.493513 
z
" clip-path="url(#p8156ab6684)" style="fill: #008000"/>
   </g>
   <g id="patch_85">
    <path d="M 270.491157 390.04 
L 273.224545 390.04 
L 273.224545 52.526632 
L 270.491157 52.526632 
z
" clip-path="url(#p8156ab6684)" style="fill: #008000"/>
   </g>
   <g id="patch_86">
    <path d="M 273.224545 390.04 
L 275.957934 390.04 
L 275.957934 44.173333 
L 273.224545 44.173333 
z
" clip-path="url(#p8156ab6684)" style="fill: #008000"/>
   </g>
   <g id="patch_87">
    <path d="M 275.957934 390.04 
L 278.691322 390.04 
L 278.691322 56.74726 
L 275.957934 56.74726 
z
" clip-path="url(#p8156ab6684)" style="fill: #008000"/>
   </g>
   <g id="patch_88">
    <path d="M 278.691322 390.04 
L 281.424711 390.04 
L 281.424711 51.852194 
L 278.691322 51.852194 
z
" clip-path="url(#p8156ab6684)" style="fill: #008000"/>
   </g>
   <g id="patch_89">
    <path d="M 281.424711 390.04 
L 284.158099 390.04 
L 284.158099 45.455782 
L 281.424711 45.455782 
z
" clip-path="url(#p8156ab6684)" style="fill: #008000"/>
   </g>
   <g id="patch_90">
    <path d="M 284.158099 390.04 
L 286.891488 390.04 
L 286.891488 73.114329 
L 284.158099 73.114329 
z
" clip-path="url(#p8156ab6684)" style="fill: #008000"/>
   </g>
   <g id="patch_91">
    <path d="M 286.891488 390.04 
L 289.624876 390.04 
L 289.624876 45.720893 
L 286.891488 45.720893 
z
" clip-path="url(#p8156ab6684)" style="fill: #008000"/>
   </g>
   <g id="patch_92">
    <path d="M 289.624876 390.04 
L 292.358264 390.04 
L 292.358264 44.173333 
L 289.624876 44.173333 
z
" clip-path="url(#p8156ab6684)" style="fill: #008000"/>
   </g>
   <g id="patch_93">
    <path d="M 292.358264 390.04 
L 295.091653 390.04 
L 295.091653 44.173333 
L 292.358264 44.173333 
z
" clip-path="url(#p8156ab6684)" style="fill: #008000"/>
   </g>
   <g id="patch_94">
    <path d="M 295.091653 390.04 
L 297.825041 390.04 
L 297.825041 44.173333 
L 295.091653 44.173333 
z
" clip-path="url(#p8156ab6684)" style="fill: #008000"/>
   </g>
   <g id="patch_95">
    <path d="M 297.825041 390.04 
L 300.55843 390.04 
L 300.55843 69.311312 
L 297.825041 69.311312 
z
" clip-path="url(#p8156ab6684)" style="fill: #008000"/>
   </g>
   <g id="patch_96">
    <path d="M 300.55843 390.04 
L 303.291818 390.04 
L 303.291818 161.216341 
L 300.55843 161.216341 
z
" clip-path="url(#p8156ab6684)" style="fill: #ffa500"/>
   </g>
   <g id="patch_97">
    <path d="M 303.291818 390.04 
L 306.025207 390.04 
L 306.025207 57.566299 
L 303.291818 57.566299 
z
" clip-path="url(#p8156ab6684)" style="fill: #008000"/>
   </g>
   <g id="patch_98">
    <path d="M 306.025207 390.04 
L 308.758595 390.04 
L 308.758595 65.263627 
L 306.025207 65.263627 
z
" clip-path="url(#p8156ab6684)" style="fill: #008000"/>
   </g>
   <g id="patch_99">
    <path d="M 308.758595 390.04 
L 311.491983 390.04 
L 311.491983 44.173333 
L 308.758595 44.173333 
z
" clip-path="url(#p8156ab6684)" style="fill: #008000"/>
   </g>
   <g id="patch_100">
    <path d="M 311.491983 390.04 
L 314.225372 390.04 
L 314.225372 44.173333 
L 311.491983 44.173333 
z
" clip-path="url(#p8156ab6684)" style="fill: #008000"/>
   </g>
   <g id="patch_101">
    <path d="M 314.225372 390.04 
L 316.95876 390.04 
L 316.95876 82.981501 
L 314.225372 82.981501 
z
" clip-path="url(#p8156ab6684)" style="fill: #008000"/>
   </g>
   <g id="patch_102">
    <path d="M 316.95876 390.04 
L 319.692149 390.04 
L 319.692149 187.209433 
L 316.95876 187.209433 
z
" clip-path="url(#p8156ab6684)" style="fill: #ff0000"/>
   </g>
   <g id="patch_103">
    <path d="M 319.692149 390.04 
L 322.425537 390.04 
L 322.425537 44.173333 
L 319.692149 44.173333 
z
" clip-path="url(#p8156ab6684)" style="fill: #008000"/>
   </g>
   <g id="patch_104">
    <path d="M 322.425537 390.04 
L 325.158926 390.04 
L 325.158926 75.606469 
L 322.425537 75.606469 
z
" clip-path="url(#p8156ab6684)" style="fill: #008000"/>
   </g>
   <g id="patch_105">
    <path d="M 325.158926 390.04 
L 327.892314 390.04 
L 327.892314 44.173333 
L 325.158926 44.173333 
z
" clip-path="url(#p8156ab6684)" style="fill: #008000"/>
   </g>
   <g id="patch_106">
    <path d="M 327.892314 390.04 
L 330.625702 390.04 
L 330.625702 61.02134 
L 327.892314 61.02134 
z
" clip-path="url(#p8156ab6684)" style="fill: #008000"/>
   </g>
   <g id="patch_107">
    <path d="M 330.625702 390.04 
L 333.359091 390.04 
L 333.359091 44.173333 
L 330.625702 44.173333 
z
" clip-path="url(#p8156ab6684)" style="fill: #008000"/>
   </g>
   <g id="patch_108">
    <path d="M 333.359091 390.04 
L 336.092479 390.04 
L 336.092479 44.173333 
L 333.359091 44.173333 
z
" clip-path="url(#p8156ab6684)" style="fill: #008000"/>
   </g>
   <g id="patch_109">
    <path d="M 336.092479 390.04 
L 338.825868 390.04 
L 338.825868 133.173978 
L 336.092479 133.173978 
z
" clip-path="url(#p8156ab6684)" style="fill: #ffa500"/>
   </g>
   <g id="patch_110">
    <path d="M 338.825868 390.04 
L 341.559256 390.04 
L 341.559256 44.173333 
L 338.825868 44.173333 
z
" clip-path="url(#p8156ab6684)" style="fill: #008000"/>
   </g>
   <g id="patch_111">
    <path d="M 341.559256 390.04 
L 344.292645 390.04 
L 344.292645 142.288752 
L 341.559256 142.288752 
z
" clip-path="url(#p8156ab6684)" style="fill: #ffa500"/>
   </g>
   <g id="patch_112">
    <path d="M 344.292645 390.04 
L 347.026033 390.04 
L 347.026033 44.173333 
L 344.292645 44.173333 
z
" clip-path="url(#p8156ab6684)" style="fill: #008000"/>
   </g>
   <g id="patch_113">
    <path d="M 347.026033 390.04 
L 349.759421 390.04 
L 349.759421 57.590524 
L 347.026033 57.590524 
z
" clip-path="url(#p8156ab6684)" style="fill: #008000"/>
   </g>
   <g id="patch_114">
    <path d="M 349.759421 390.04 
L 352.49281 390.04 
L 352.49281 44.173333 
L 349.759421 44.173333 
z
" clip-path="url(#p8156ab6684)" style="fill: #008000"/>
   </g>
   <g id="patch_115">
    <path d="M 352.49281 390.04 
L 355.226198 390.04 
L 355.226198 44.173333 
L 352.49281 44.173333 
z
" clip-path="url(#p8156ab6684)" style="fill: #008000"/>
   </g>
   <g id="patch_116">
    <path d="M 355.226198 390.04 
L 357.959587 390.04 
L 357.959587 44.173333 
L 355.226198 44.173333 
z
" clip-path="url(#p8156ab6684)" style="fill: #008000"/>
   </g>
   <g id="patch_117">
    <path d="M 357.959587 390.04 
L 360.692975 390.04 
L 360.692975 44.173333 
L 357.959587 44.173333 
z
" clip-path="url(#p8156ab6684)" style="fill: #008000"/>
   </g>
   <g id="patch_118">
    <path d="M 360.692975 390.04 
L 363.426364 390.04 
L 363.426364 93.280434 
L 360.692975 93.280434 
z
" clip-path="url(#p8156ab6684)" style="fill: #008000"/>
   </g>
   <g id="patch_119">
    <path d="M 363.426364 390.04 
L 366.159752 390.04 
L 366.159752 62.858532 
L 363.426364 62.858532 
z
" clip-path="url(#p8156ab6684)" style="fill: #008000"/>
   </g>
   <g id="patch_120">
    <path d="M 366.159752 390.04 
L 368.89314 390.04 
L 368.89314 44.173333 
L 366.159752 44.173333 
z
" clip-path="url(#p8156ab6684)" style="fill: #008000"/>
   </g>
   <g id="patch_121">
    <path d="M 368.89314 390.04 
L 371.626529 390.04 
L 371.626529 49.885721 
L 368.89314 49.885721 
z
" clip-path="url(#p8156ab6684)" style="fill: #008000"/>
   </g>
   <g id="patch_122">
    <path d="M 371.626529 390.04 
L 374.359917 390.04 
L 374.359917 44.173333 
L 371.626529 44.173333 
z
" clip-path="url(#p8156ab6684)" style="fill: #008000"/>
   </g>
   <g id="patch_123">
    <path d="M 374.359917 390.04 
L 377.093306 390.04 
L 377.093306 195.217993 
L 374.359917 195.217993 
z
" clip-path="url(#p8156ab6684)" style="fill: #ff0000"/>
   </g>
   <g id="patch_124">
    <path d="M 377.093306 390.04 
L 379.826694 390.04 
L 379.826694 69.81779 
L 377.093306 69.81779 
z
" clip-path="url(#p8156ab6684)" style="fill: #008000"/>
   </g>
   <g id="patch_125">
    <path d="M 379.826694 390.04 
L 382.560083 390.04 
L 382.560083 44.173333 
L 379.826694 44.173333 
z
" clip-path="url(#p8156ab6684)" style="fill: #008000"/>
   </g>
   <g id="patch_126">
    <path d="M 382.560083 390.04 
L 385.293471 390.04 
L 385.293471 44.173333 
L 382.560083 44.173333 
z
" clip-path="url(#p8156ab6684)" style="fill: #008000"/>
   </g>
   <g id="patch_127">
    <path d="M 385.293471 390.04 
L 388.02686 390.04 
L 388.02686 52.366339 
L 385.293471 52.366339 
z
" clip-path="url(#p8156ab6684)" style="fill: #008000"/>
   </g>
   <g id="patch_128">
    <path d="M 388.02686 390.04 
L 390.760248 390.04 
L 390.760248 44.173333 
L 388.02686 44.173333 
z
" clip-path="url(#p8156ab6684)" style="fill: #008000"/>
   </g>
   <g id="patch_129">
    <path d="M 390.760248 390.04 
L 393.493636 390.04 
L 393.493636 44.173333 
L 390.760248 44.173333 
z
" clip-path="url(#p8156ab6684)" style="fill: #008000"/>
   </g>
   <g id="patch_130">
    <path d="M 393.493636 390.04 
L 396.227025 390.04 
L 396.227025 44.173333 
L 393.493636 44.173333 
z
" clip-path="url(#p8156ab6684)" style="fill: #008000"/>
   </g>
   <g id="patch_131">
    <path d="M 396.227025 390.04 
L 398.960413 390.04 
L 398.960413 46.33324 
L 396.227025 46.33324 
z
" clip-path="url(#p8156ab6684)" style="fill: #008000"/>
   </g>
   <g id="patch_132">
    <path d="M 398.960413 390.04 
L 401.693802 390.04 
L 401.693802 44.173333 
L 398.960413 44.173333 
z
" clip-path="url(#p8156ab6684)" style="fill: #008000"/>
   </g>
   <g id="patch_133">
    <path d="M 401.693802 390.04 
L 404.42719 390.04 
L 404.42719 81.718333 
L 401.693802 81.718333 
z
" clip-path="url(#p8156ab6684)" style="fill: #008000"/>
   </g>
   <g id="patch_134">
    <path d="M 404.42719 390.04 
L 407.160579 390.04 
L 407.160579 56.355933 
L 404.42719 56.355933 
z
" clip-path="url(#p8156ab6684)" style="fill: #008000"/>
   </g>
   <g id="patch_135">
    <path d="M 407.160579 390.04 
L 409.893967 390.04 
L 409.893967 69.166808 
L 407.160579 69.166808 
z
" clip-path="url(#p8156ab6684)" style="fill: #008000"/>
   </g>
   <g id="patch_136">
    <path d="M 409.893967 390.04 
L 412.627355 390.04 
L 412.627355 58.069116 
L 409.893967 58.069116 
z
" clip-path="url(#p8156ab6684)" style="fill: #008000"/>
   </g>
   <g id="patch_137">
    <path d="M 412.627355 390.04 
L 415.360744 390.04 
L 415.360744 53.489394 
L 412.627355 53.489394 
z
" clip-path="url(#p8156ab6684)" style="fill: #008000"/>
   </g>
   <g id="patch_138">
    <path d="M 415.360744 390.04 
L 418.094132 390.04 
L 418.094132 57.15551 
L 415.360744 57.15551 
z
" clip-path="url(#p8156ab6684)" style="fill: #008000"/>
   </g>
   <g id="patch_139">
    <path d="M 418.094132 390.04 
L 420.827521 390.04 
L 420.827521 44.173333 
L 418.094132 44.173333 
z
" clip-path="url(#p8156ab6684)" style="fill: #008000"/>
   </g>
   <g id="patch_140">
    <path d="M 420.827521 390.04 
L 423.560909 390.04 
L 423.560909 44.173333 
L 420.827521 44.173333 
z
" clip-path="url(#p8156ab6684)" style="fill: #008000"/>
   </g>
   <g id="patch_141">
    <path d="M 423.560909 390.04 
L 426.294298 390.04 
L 426.294298 80.713735 
L 423.560909 80.713735 
z
" clip-path="url(#p8156ab6684)" style="fill: #008000"/>
   </g>
   <g id="patch_142">
    <path d="M 426.294298 390.04 
L 429.027686 390.04 
L 429.027686 85.07863 
L 426.294298 85.07863 
z
" clip-path="url(#p8156ab6684)" style="fill: #008000"/>
   </g>
   <g id="patch_143">
    <path d="M 429.027686 390.04 
L 431.761074 390.04 
L 431.761074 44.173333 
L 429.027686 44.173333 
z
" clip-path="url(#p8156ab6684)" style="fill: #008000"/>
   </g>
   <g id="patch_144">
    <path d="M 431.761074 390.04 
L 434.494463 390.04 
L 434.494463 55.057341 
L 431.761074 55.057341 
z
" clip-path="url(#p8156ab6684)" style="fill: #008000"/>
   </g>
   <g id="patch_145">
    <path d="M 434.494463 390.04 
L 437.227851 390.04 
L 437.227851 44.173333 
L 434.494463 44.173333 
z
" clip-path="url(#p8156ab6684)" style="fill: #008000"/>
   </g>
   <g id="patch_146">
    <path d="M 437.227851 390.04 
L 439.96124 390.04 
L 439.96124 99.343519 
L 437.227851 99.343519 
z
" clip-path="url(#p8156ab6684)" style="fill: #008000"/>
   </g>
   <g id="patch_147">
    <path d="M 439.96124 390.04 
L 442.694628 390.04 
L 442.694628 44.173333 
L 439.96124 44.173333 
z
" clip-path="url(#p8156ab6684)" style="fill: #008000"/>
   </g>
   <g id="patch_148">
    <path d="M 442.694628 390.04 
L 445.428017 390.04 
L 445.428017 49.490786 
L 442.694628 49.490786 
z
" clip-path="url(#p8156ab6684)" style="fill: #008000"/>
   </g>
   <g id="patch_149">
    <path d="M 445.428017 390.04 
L 448.161405 390.04 
L 448.161405 56.858424 
L 445.428017 56.858424 
z
" clip-path="url(#p8156ab6684)" style="fill: #008000"/>
   </g>
   <g id="patch_150">
    <path d="M 448.161405 390.04 
L 450.894793 390.04 
L 450.894793 55.39088 
L 448.161405 55.39088 
z
" clip-path="url(#p8156ab6684)" style="fill: #008000"/>
   </g>
   <g id="patch_151">
    <path d="M 450.894793 390.04 
L 453.628182 390.04 
L 453.628182 71.023886 
L 450.894793 71.023886 
z
" clip-path="url(#p8156ab6684)" style="fill: #008000"/>
   </g>
   <g id="patch_152">
    <path d="M 453.628182 390.04 
L 456.36157 390.04 
L 456.36157 46.363416 
L 453.628182 46.363416 
z
" clip-path="url(#p8156ab6684)" style="fill: #008000"/>
   </g>
   <g id="patch_153">
    <path d="M 456.36157 390.04 
L 459.094959 390.04 
L 459.094959 62.474924 
L 456.36157 62.474924 
z
" clip-path="url(#p8156ab6684)" style="fill: #008000"/>
   </g>
   <g id="patch_154">
    <path d="M 459.094959 390.04 
L 461.828347 390.04 
L 461.828347 81.583958 
L 459.094959 81.583958 
z
" clip-path="url(#p8156ab6684)" style="fill: #008000"/>
   </g>
   <g id="patch_155">
    <path d="M 461.828347 390.04 
L 464.561736 390.04 
L 464.561736 65.833473 
L 461.828347 65.833473 
z
" clip-path="url(#p8156ab6684)" style="fill: #008000"/>
   </g>
   <g id="patch_156">
    <path d="M 464.561736 390.04 
L 467.295124 390.04 
L 467.295124 44.173333 
L 464.561736 44.173333 
z
" clip-path="url(#p8156ab6684)" style="fill: #008000"/>
   </g>
   <g id="patch_157">
    <path d="M 467.295124 390.04 
L 470.028512 390.04 
L 470.028512 169.467954 
L 467.295124 169.467954 
z
" clip-path="url(#p8156ab6684)" style="fill: #ffa500"/>
   </g>
   <g id="patch_158">
    <path d="M 470.028512 390.04 
L 472.761901 390.04 
L 472.761901 44.173333 
L 470.028512 44.173333 
z
" clip-path="url(#p8156ab6684)" style="fill: #008000"/>
   </g>
   <g id="patch_159">
    <path d="M 472.761901 390.04 
L 475.495289 390.04 
L 475.495289 44.173333 
L 472.761901 44.173333 
z
" clip-path="url(#p8156ab6684)" style="fill: #008000"/>
   </g>
   <g id="patch_160">
    <path d="M 475.495289 390.04 
L 478.228678 390.04 
L 478.228678 69.9288 
L 475.495289 69.9288 
z
" clip-path="url(#p8156ab6684)" style="fill: #008000"/>
   </g>
   <g id="patch_161">
    <path d="M 478.228678 390.04 
L 480.962066 390.04 
L 480.962066 70.252588 
L 478.228678 70.252588 
z
" clip-path="url(#p8156ab6684)" style="fill: #008000"/>
   </g>
   <g id="patch_162">
    <path d="M 480.962066 390.04 
L 483.695455 390.04 
L 483.695455 81.797245 
L 480.962066 81.797245 
z
" clip-path="url(#p8156ab6684)" style="fill: #008000"/>
   </g>
   <g id="patch_163">
    <path d="M 483.695455 390.04 
L 486.428843 390.04 
L 486.428843 44.173333 
L 483.695455 44.173333 
z
" clip-path="url(#p8156ab6684)" style="fill: #008000"/>
   </g>
   <g id="patch_164">
    <path d="M 486.428843 390.04 
L 489.162231 390.04 
L 489.162231 83.743382 
L 486.428843 83.743382 
z
" clip-path="url(#p8156ab6684)" style="fill: #008000"/>
   </g>
   <g id="patch_165">
    <path d="M 489.162231 390.04 
L 491.89562 390.04 
L 491.89562 44.173333 
L 489.162231 44.173333 
z
" clip-path="url(#p8156ab6684)" style="fill: #008000"/>
   </g>
   <g id="patch_166">
    <path d="M 491.89562 390.04 
L 494.629008 390.04 
L 494.629008 44.173333 
L 491.89562 44.173333 
z
" clip-path="url(#p8156ab6684)" style="fill: #008000"/>
   </g>
   <g id="patch_167">
    <path d="M 494.629008 390.04 
L 497.362397 390.04 
L 497.362397 44.173333 
L 494.629008 44.173333 
z
" clip-path="url(#p8156ab6684)" style="fill: #008000"/>
   </g>
   <g id="patch_168">
    <path d="M 497.362397 390.04 
L 500.095785 390.04 
L 500.095785 44.173333 
L 497.362397 44.173333 
z
" clip-path="url(#p8156ab6684)" style="fill: #008000"/>
   </g>
   <g id="patch_169">
    <path d="M 500.095785 390.04 
L 502.829174 390.04 
L 502.829174 44.173333 
L 500.095785 44.173333 
z
" clip-path="url(#p8156ab6684)" style="fill: #008000"/>
   </g>
   <g id="patch_170">
    <path d="M 502.829174 390.04 
L 505.562562 390.04 
L 505.562562 44.173333 
L 502.829174 44.173333 
z
" clip-path="url(#p8156ab6684)" style="fill: #008000"/>
   </g>
   <g id="patch_171">
    <path d="M 505.562562 390.04 
L 508.29595 390.04 
L 508.29595 48.083287 
L 505.562562 48.083287 
z
" clip-path="url(#p8156ab6684)" style="fill: #008000"/>
   </g>
   <g id="patch_172">
    <path d="M 508.29595 390.04 
L 511.029339 390.04 
L 511.029339 79.349954 
L 508.29595 79.349954 
z
" clip-path="url(#p8156ab6684)" style="fill: #008000"/>
   </g>
   <g id="patch_173">
    <path d="M 511.029339 390.04 
L 513.762727 390.04 
L 513.762727 71.392191 
L 511.029339 71.392191 
z
" clip-path="url(#p8156ab6684)" style="fill: #008000"/>
   </g>
   <g id="patch_174">
    <path d="M 513.762727 390.04 
L 516.496116 390.04 
L 516.496116 51.701184 
L 513.762727 51.701184 
z
" clip-path="url(#p8156ab6684)" style="fill: #008000"/>
   </g>
   <g id="patch_175">
    <path d="M 516.496116 390.04 
L 519.229504 390.04 
L 519.229504 58.667068 
L 516.496116 58.667068 
z
" clip-path="url(#p8156ab6684)" style="fill: #008000"/>
   </g>
   <g id="patch_176">
    <path d="M 519.229504 390.04 
L 521.962893 390.04 
L 521.962893 70.273447 
L 519.229504 70.273447 
z
" clip-path="url(#p8156ab6684)" style="fill: #008000"/>
   </g>
   <g id="patch_177">
    <path d="M 521.962893 390.04 
L 524.696281 390.04 
L 524.696281 179.734918 
L 521.962893 179.734918 
z
" clip-path="url(#p8156ab6684)" style="fill: #ff0000"/>
   </g>
   <g id="patch_178">
    <path d="M 524.696281 390.04 
L 527.429669 390.04 
L 527.429669 44.173333 
L 524.696281 44.173333 
z
" clip-path="url(#p8156ab6684)" style="fill: #008000"/>
   </g>
   <g id="patch_179">
    <path d="M 527.429669 390.04 
L 530.163058 390.04 
L 530.163058 71.525038 
L 527.429669 71.525038 
z
" clip-path="url(#p8156ab6684)" style="fill: #008000"/>
   </g>
   <g id="patch_180">
    <path d="M 530.163058 390.04 
L 532.896446 390.04 
L 532.896446 56.949175 
L 530.163058 56.949175 
z
" clip-path="url(#p8156ab6684)" style="fill: #008000"/>
   </g>
   <g id="patch_181">
    <path d="M 532.896446 390.04 
L 535.629835 390.04 
L 535.629835 44.173333 
L 532.896446 44.173333 
z
" clip-path="url(#p8156ab6684)" style="fill: #008000"/>
   </g>
   <g id="patch_182">
    <path d="M 535.629835 390.04 
L 538.363223 390.04 
L 538.363223 44.173333 
L 535.629835 44.173333 
z
" clip-path="url(#p8156ab6684)" style="fill: #008000"/>
   </g>
   <g id="patch_183">
    <path d="M 538.363223 390.04 
L 541.096612 390.04 
L 541.096612 44.173333 
L 538.363223 44.173333 
z
" clip-path="url(#p8156ab6684)" style="fill: #008000"/>
   </g>
   <g id="patch_184">
    <path d="M 541.096612 390.04 
L 543.83 390.04 
L 543.83 44.173333 
L 541.096612 44.173333 
z
" clip-path="url(#p8156ab6684)" style="fill: #008000"/>
   </g>
   <g id="patch_185">
    <path d="M 543.83 390.04 
L 546.563388 390.04 
L 546.563388 44.173333 
L 543.83 44.173333 
z
" clip-path="url(#p8156ab6684)" style="fill: #008000"/>
   </g>
   <g id="patch_186">
    <path d="M 546.563388 390.04 
L 549.296777 390.04 
L 549.296777 44.173333 
L 546.563388 44.173333 
z
" clip-path="url(#p8156ab6684)" style="fill: #008000"/>
   </g>
   <g id="patch_187">
    <path d="M 549.296777 390.04 
L 552.030165 390.04 
L 552.030165 44.173333 
L 549.296777 44.173333 
z
" clip-path="url(#p8156ab6684)" style="fill: #008000"/>
   </g>
   <g id="patch_188">
    <path d="M 552.030165 390.04 
L 554.763554 390.04 
L 554.763554 44.173333 
L 552.030165 44.173333 
z
" clip-path="url(#p8156ab6684)" style="fill: #008000"/>
   </g>
   <g id="patch_189">
    <path d="M 554.763554 390.04 
L 557.496942 390.04 
L 557.496942 44.173333 
L 554.763554 44.173333 
z
" clip-path="url(#p8156ab6684)" style="fill: #008000"/>
   </g>
   <g id="patch_190">
    <path d="M 557.496942 390.04 
L 560.230331 390.04 
L 560.230331 44.173333 
L 557.496942 44.173333 
z
" clip-path="url(#p8156ab6684)" style="fill: #008000"/>
   </g>
   <g id="patch_191">
    <path d="M 560.230331 390.04 
L 562.963719 390.04 
L 562.963719 44.173333 
L 560.230331 44.173333 
z
" clip-path="url(#p8156ab6684)" style="fill: #008000"/>
   </g>
   <g id="patch_192">
    <path d="M 562.963719 390.04 
L 565.697107 390.04 
L 565.697107 44.173333 
L 562.963719 44.173333 
z
" clip-path="url(#p8156ab6684)" style="fill: #008000"/>
   </g>
   <g id="patch_193">
    <path d="M 565.697107 390.04 
L 568.430496 390.04 
L 568.430496 44.173333 
L 565.697107 44.173333 
z
" clip-path="url(#p8156ab6684)" style="fill: #008000"/>
   </g>
   <g id="patch_194">
    <path d="M 568.430496 390.04 
L 571.163884 390.04 
L 571.163884 44.173333 
L 568.430496 44.173333 
z
" clip-path="url(#p8156ab6684)" style="fill: #008000"/>
   </g>
   <g id="patch_195">
    <path d="M 571.163884 390.04 
L 573.897273 390.04 
L 573.897273 44.173333 
L 571.163884 44.173333 
z
" clip-path="url(#p8156ab6684)" style="fill: #008000"/>
   </g>
   <g id="patch_196">
    <path d="M 573.897273 390.04 
L 576.630661 390.04 
L 576.630661 44.173333 
L 573.897273 44.173333 
z
" clip-path="url(#p8156ab6684)" style="fill: #008000"/>
   </g>
   <g id="patch_197">
    <path d="M 576.630661 390.04 
L 579.36405 390.04 
L 579.36405 58.715771 
L 576.630661 58.715771 
z
" clip-path="url(#p8156ab6684)" style="fill: #008000"/>
   </g>
   <g id="patch_198">
    <path d="M 579.36405 390.04 
L 582.097438 390.04 
L 582.097438 44.173333 
L 579.36405 44.173333 
z
" clip-path="url(#p8156ab6684)" style="fill: #008000"/>
   </g>
   <g id="patch_199">
    <path d="M 582.097438 390.04 
L 584.830826 390.04 
L 584.830826 44.173333 
L 582.097438 44.173333 
z
" clip-path="url(#p8156ab6684)" style="fill: #008000"/>
   </g>
   <g id="patch_200">
    <path d="M 584.830826 390.04 
L 587.564215 390.04 
L 587.564215 44.173333 
L 584.830826 44.173333 
z
" clip-path="url(#p8156ab6684)" style="fill: #008000"/>
   </g>
   <g id="patch_201">
    <path d="M 587.564215 390.04 
L 590.297603 390.04 
L 590.297603 44.173333 
L 587.564215 44.173333 
z
" clip-path="url(#p8156ab6684)" style="fill: #008000"/>
   </g>
   <g id="patch_202">
    <path d="M 590.297603 390.04 
L 593.030992 390.04 
L 593.030992 44.173333 
L 590.297603 44.173333 
z
" clip-path="url(#p8156ab6684)" style="fill: #008000"/>
   </g>
   <g id="patch_203">
    <path d="M 593.030992 390.04 
L 595.76438 390.04 
L 595.76438 44.173333 
L 593.030992 44.173333 
z
" clip-path="url(#p8156ab6684)" style="fill: #008000"/>
   </g>
   <g id="patch_204">
    <path d="M 595.76438 390.04 
L 598.497769 390.04 
L 598.497769 44.173333 
L 595.76438 44.173333 
z
" clip-path="url(#p8156ab6684)" style="fill: #008000"/>
   </g>
   <g id="patch_205">
    <path d="M 598.497769 390.04 
L 601.231157 390.04 
L 601.231157 52.509134 
L 598.497769 52.509134 
z
" clip-path="url(#p8156ab6684)" style="fill: #008000"/>
   </g>
   <g id="patch_206">
    <path d="M 601.231157 390.04 
L 603.964545 390.04 
L 603.964545 63.99334 
L 601.231157 63.99334 
z
" clip-path="url(#p8156ab6684)" style="fill: #008000"/>
   </g>
   <g id="patch_207">
    <path d="M 603.964545 390.04 
L 606.697934 390.04 
L 606.697934 46.895463 
L 603.964545 46.895463 
z
" clip-path="url(#p8156ab6684)" style="fill: #008000"/>
   </g>
   <g id="patch_208">
    <path d="M 606.697934 390.04 
L 609.431322 390.04 
L 609.431322 44.173333 
L 606.697934 44.173333 
z
" clip-path="url(#p8156ab6684)" style="fill: #008000"/>
   </g>
   <g id="patch_209">
    <path d="M 609.431322 390.04 
L 612.164711 390.04 
L 612.164711 44.173333 
L 609.431322 44.173333 
z
" clip-path="url(#p8156ab6684)" style="fill: #008000"/>
   </g>
   <g id="patch_210">
    <path d="M 612.164711 390.04 
L 614.898099 390.04 
L 614.898099 44.173333 
L 612.164711 44.173333 
z
" clip-path="url(#p8156ab6684)" style="fill: #008000"/>
   </g>
   <g id="patch_211">
    <path d="M 614.898099 390.04 
L 617.631488 390.04 
L 617.631488 44.173333 
L 614.898099 44.173333 
z
" clip-path="url(#p8156ab6684)" style="fill: #008000"/>
   </g>
   <g id="patch_212">
    <path d="M 617.631488 390.04 
L 620.364876 390.04 
L 620.364876 44.173333 
L 617.631488 44.173333 
z
" clip-path="url(#p8156ab6684)" style="fill: #008000"/>
   </g>
   <g id="patch_213">
    <path d="M 620.364876 390.04 
L 623.098264 390.04 
L 623.098264 44.173333 
L 620.364876 44.173333 
z
" clip-path="url(#p8156ab6684)" style="fill: #008000"/>
   </g>
   <g id="patch_214">
    <path d="M 623.098264 390.04 
L 625.831653 390.04 
L 625.831653 44.173333 
L 623.098264 44.173333 
z
" clip-path="url(#p8156ab6684)" style="fill: #008000"/>
   </g>
   <g id="patch_215">
    <path d="M 625.831653 390.04 
L 628.565041 390.04 
L 628.565041 44.173333 
L 625.831653 44.173333 
z
" clip-path="url(#p8156ab6684)" style="fill: #008000"/>
   </g>
   <g id="patch_216">
    <path d="M 628.565041 390.04 
L 631.29843 390.04 
L 631.29843 73.4707 
L 628.565041 73.4707 
z
" clip-path="url(#p8156ab6684)" style="fill: #008000"/>
   </g>
   <g id="patch_217">
    <path d="M 631.29843 390.04 
L 634.031818 390.04 
L 634.031818 44.173333 
L 631.29843 44.173333 
z
" clip-path="url(#p8156ab6684)" style="fill: #008000"/>
   </g>
   <g id="patch_218">
    <path d="M 634.031818 390.04 
L 636.765207 390.04 
L 636.765207 44.173333 
L 634.031818 44.173333 
z
" clip-path="url(#p8156ab6684)" style="fill: #008000"/>
   </g>
   <g id="patch_219">
    <path d="M 636.765207 390.04 
L 639.498595 390.04 
L 639.498595 66.326529 
L 636.765207 66.326529 
z
" clip-path="url(#p8156ab6684)" style="fill: #008000"/>
   </g>
   <g id="patch_220">
    <path d="M 639.498595 390.04 
L 642.231983 390.04 
L 642.231983 70.212028 
L 639.498595 70.212028 
z
" clip-path="url(#p8156ab6684)" style="fill: #008000"/>
   </g>
   <g id="patch_221">
    <path d="M 642.231983 390.04 
L 644.965372 390.04 
L 644.965372 44.173333 
L 642.231983 44.173333 
z
" clip-path="url(#p8156ab6684)" style="fill: #008000"/>
   </g>
   <g id="patch_222">
    <path d="M 644.965372 390.04 
L 647.69876 390.04 
L 647.69876 44.173333 
L 644.965372 44.173333 
z
" clip-path="url(#p8156ab6684)" style="fill: #008000"/>
   </g>
   <g id="patch_223">
    <path d="M 647.69876 390.04 
L 650.432149 390.04 
L 650.432149 59.261842 
L 647.69876 59.261842 
z
" clip-path="url(#p8156ab6684)" style="fill: #008000"/>
   </g>
   <g id="patch_224">
    <path d="M 650.432149 390.04 
L 653.165537 390.04 
L 653.165537 56.490813 
L 650.432149 56.490813 
z
" clip-path="url(#p8156ab6684)" style="fill: #008000"/>
   </g>
   <g id="patch_225">
    <path d="M 653.165537 390.04 
L 655.898926 390.04 
L 655.898926 70.54074 
L 653.165537 70.54074 
z
" clip-path="url(#p8156ab6684)" style="fill: #008000"/>
   </g>
   <g id="patch_226">
    <path d="M 655.898926 390.04 
L 658.632314 390.04 
L 658.632314 60.877669 
L 655.898926 60.877669 
z
" clip-path="url(#p8156ab6684)" style="fill: #008000"/>
   </g>
   <g id="patch_227">
    <path d="M 658.632314 390.04 
L 661.365702 390.04 
L 661.365702 46.489284 
L 658.632314 46.489284 
z
" clip-path="url(#p8156ab6684)" style="fill: #008000"/>
   </g>
   <g id="patch_228">
    <path d="M 661.365702 390.04 
L 664.099091 390.04 
L 664.099091 44.173333 
L 661.365702 44.173333 
z
" clip-path="url(#p8156ab6684)" style="fill: #008000"/>
   </g>
   <g id="patch_229">
    <path d="M 664.099091 390.04 
L 666.832479 390.04 
L 666.832479 44.173333 
L 664.099091 44.173333 
z
" clip-path="url(#p8156ab6684)" style="fill: #008000"/>
   </g>
   <g id="patch_230">
    <path d="M 666.832479 390.04 
L 669.565868 390.04 
L 669.565868 88.384468 
L 666.832479 88.384468 
z
" clip-path="url(#p8156ab6684)" style="fill: #008000"/>
   </g>
   <g id="patch_231">
    <path d="M 669.565868 390.04 
L 672.299256 390.04 
L 672.299256 74.010351 
L 669.565868 74.010351 
z
" clip-path="url(#p8156ab6684)" style="fill: #008000"/>
   </g>
   <g id="patch_232">
    <path d="M 672.299256 390.04 
L 675.032645 390.04 
L 675.032645 44.173333 
L 672.299256 44.173333 
z
" clip-path="url(#p8156ab6684)" style="fill: #008000"/>
   </g>
   <g id="patch_233">
    <path d="M 675.032645 390.04 
L 677.766033 390.04 
L 677.766033 109.989752 
L 675.032645 109.989752 
z
" clip-path="url(#p8156ab6684)" style="fill: #008000"/>
   </g>
   <g id="patch_234">
    <path d="M 677.766033 390.04 
L 680.499421 390.04 
L 680.499421 59.853205 
L 677.766033 59.853205 
z
" clip-path="url(#p8156ab6684)" style="fill: #008000"/>
   </g>
   <g id="patch_235">
    <path d="M 680.499421 390.04 
L 683.23281 390.04 
L 683.23281 44.173333 
L 680.499421 44.173333 
z
" clip-path="url(#p8156ab6684)" style="fill: #008000"/>
   </g>
   <g id="patch_236">
    <path d="M 683.23281 390.04 
L 685.966198 390.04 
L 685.966198 87.215262 
L 683.23281 87.215262 
z
" clip-path="url(#p8156ab6684)" style="fill: #008000"/>
   </g>
   <g id="patch_237">
    <path d="M 685.966198 390.04 
L 688.699587 390.04 
L 688.699587 44.173333 
L 685.966198 44.173333 
z
" clip-path="url(#p8156ab6684)" style="fill: #008000"/>
   </g>
   <g id="patch_238">
    <path d="M 688.699587 390.04 
L 691.432975 390.04 
L 691.432975 66.815069 
L 688.699587 66.815069 
z
" clip-path="url(#p8156ab6684)" style="fill: #008000"/>
   </g>
   <g id="patch_239">
    <path d="M 691.432975 390.04 
L 694.166364 390.04 
L 694.166364 44.173333 
L 691.432975 44.173333 
z
" clip-path="url(#p8156ab6684)" style="fill: #008000"/>
   </g>
   <g id="patch_240">
    <path d="M 694.166364 390.04 
L 696.899752 390.04 
L 696.899752 66.224493 
L 694.166364 66.224493 
z
" clip-path="url(#p8156ab6684)" style="fill: #008000"/>
   </g>
   <g id="patch_241">
    <path d="M 696.899752 390.04 
L 699.63314 390.04 
L 699.63314 44.173333 
L 696.899752 44.173333 
z
" clip-path="url(#p8156ab6684)" style="fill: #008000"/>
   </g>
   <g id="patch_242">
    <path d="M 699.63314 390.04 
L 702.366529 390.04 
L 702.366529 44.173333 
L 699.63314 44.173333 
z
" clip-path="url(#p8156ab6684)" style="fill: #008000"/>
   </g>
   <g id="patch_243">
    <path d="M 702.366529 390.04 
L 705.099917 390.04 
L 705.099917 44.173333 
L 702.366529 44.173333 
z
" clip-path="url(#p8156ab6684)" style="fill: #008000"/>
   </g>
   <g id="patch_244">
    <path d="M 705.099917 390.04 
L 707.833306 390.04 
L 707.833306 44.173333 
L 705.099917 44.173333 
z
" clip-path="url(#p8156ab6684)" style="fill: #008000"/>
   </g>
   <g id="matplotlib.axis_1">
    <g id="xtick_1">
     <g id="line2d_1">
      <defs>
       <path id="mf578769d0c" d="M 0 0 
L 0 3.5 
" style="stroke: #000000; stroke-width: 0.8"/>
      </defs>
      <g>
       <use xlink:href="#mf578769d0c" x="47.72" y="390.04" style="stroke: #000000; stroke-width: 0.8"/>
      </g>
     </g>
     <g id="text_1">
      <!-- 0 -->
      <g transform="translate(44.53875 404.638438) scale(0.1 -0.1)">
       <defs>
        <path id="DejaVuSans-30" d="M 2034 4250 
Q 1547 4250 1301 3770 
Q 1056 3291 1056 2328 
Q 1056 1369 1301 889 
Q 1547 409 2034 409 
Q 2525 409 2770 889 
Q 3016 1369 3016 2328 
Q 3016 3291 2770 3770 
Q 2525 4250 2034 4250 
z
M 2034 4750 
Q 2819 4750 3233 4129 
Q 3647 3509 3647 2328 
Q 3647 1150 3233 529 
Q 2819 -91 2034 -91 
Q 1250 -91 836 529 
Q 422 1150 422 2328 
Q 422 3509 836 4129 
Q 1250 4750 2034 4750 
z
" transform="scale(0.015625)"/>
       </defs>
       <use xlink:href="#DejaVuSans-30"/>
      </g>
     </g>
    </g>
    <g id="xtick_2">
     <g id="line2d_2">
      <g>
       <use xlink:href="#mf578769d0c" x="184.389421" y="390.04" style="stroke: #000000; stroke-width: 0.8"/>
      </g>
     </g>
     <g id="text_2">
      <!-- 50 -->
      <g transform="translate(178.026921 404.638438) scale(0.1 -0.1)">
       <defs>
        <path id="DejaVuSans-35" d="M 691 4666 
L 3169 4666 
L 3169 4134 
L 1269 4134 
L 1269 2991 
Q 1406 3038 1543 3061 
Q 1681 3084 1819 3084 
Q 2600 3084 3056 2656 
Q 3513 2228 3513 1497 
Q 3513 744 3044 326 
Q 2575 -91 1722 -91 
Q 1428 -91 1123 -41 
Q 819 9 494 109 
L 494 744 
Q 775 591 1075 516 
Q 1375 441 1709 441 
Q 2250 441 2565 725 
Q 2881 1009 2881 1497 
Q 2881 1984 2565 2268 
Q 2250 2553 1709 2553 
Q 1456 2553 1204 2497 
Q 953 2441 691 2322 
L 691 4666 
z
" transform="scale(0.015625)"/>
       </defs>
       <use xlink:href="#DejaVuSans-35"/>
       <use xlink:href="#DejaVuSans-30" transform="translate(63.623047 0)"/>
      </g>
     </g>
    </g>
    <g id="xtick_3">
     <g id="line2d_3">
      <g>
       <use xlink:href="#mf578769d0c" x="321.058843" y="390.04" style="stroke: #000000; stroke-width: 0.8"/>
      </g>
     </g>
     <g id="text_3">
      <!-- 100 -->
      <g transform="translate(311.515093 404.638438) scale(0.1 -0.1)">
       <defs>
        <path id="DejaVuSans-31" d="M 794 531 
L 1825 531 
L 1825 4091 
L 703 3866 
L 703 4441 
L 1819 4666 
L 2450 4666 
L 2450 531 
L 3481 531 
L 3481 0 
L 794 0 
L 794 531 
z
" transform="scale(0.015625)"/>
       </defs>
       <use xlink:href="#DejaVuSans-31"/>
       <use xlink:href="#DejaVuSans-30" transform="translate(63.623047 0)"/>
       <use xlink:href="#DejaVuSans-30" transform="translate(127.246094 0)"/>
      </g>
     </g>
    </g>
    <g id="xtick_4">
     <g id="line2d_4">
      <g>
       <use xlink:href="#mf578769d0c" x="457.728264" y="390.04" style="stroke: #000000; stroke-width: 0.8"/>
      </g>
     </g>
     <g id="text_4">
      <!-- 150 -->
      <g transform="translate(448.184514 404.638438) scale(0.1 -0.1)">
       <use xlink:href="#DejaVuSans-31"/>
       <use xlink:href="#DejaVuSans-35" transform="translate(63.623047 0)"/>
       <use xlink:href="#DejaVuSans-30" transform="translate(127.246094 0)"/>
      </g>
     </g>
    </g>
    <g id="xtick_5">
     <g id="line2d_5">
      <g>
       <use xlink:href="#mf578769d0c" x="594.397686" y="390.04" style="stroke: #000000; stroke-width: 0.8"/>
      </g>
     </g>
     <g id="text_5">
      <!-- 200 -->
      <g transform="translate(584.853936 404.638438) scale(0.1 -0.1)">
       <defs>
        <path id="DejaVuSans-32" d="M 1228 531 
L 3431 531 
L 3431 0 
L 469 0 
L 469 531 
Q 828 903 1448 1529 
Q 2069 2156 2228 2338 
Q 2531 2678 2651 2914 
Q 2772 3150 2772 3378 
Q 2772 3750 2511 3984 
Q 2250 4219 1831 4219 
Q 1534 4219 1204 4116 
Q 875 4013 500 3803 
L 500 4441 
Q 881 4594 1212 4672 
Q 1544 4750 1819 4750 
Q 2544 4750 2975 4387 
Q 3406 4025 3406 3419 
Q 3406 3131 3298 2873 
Q 3191 2616 2906 2266 
Q 2828 2175 2409 1742 
Q 1991 1309 1228 531 
z
" transform="scale(0.015625)"/>
       </defs>
       <use xlink:href="#DejaVuSans-32"/>
       <use xlink:href="#DejaVuSans-30" transform="translate(63.623047 0)"/>
       <use xlink:href="#DejaVuSans-30" transform="translate(127.246094 0)"/>
      </g>
     </g>
    </g>
    <g id="text_6">
     <!-- Peak ID -->
     <g transform="translate(359.676406 418.316562) scale(0.1 -0.1)">
      <defs>
       <path id="DejaVuSans-50" d="M 1259 4147 
L 1259 2394 
L 2053 2394 
Q 2494 2394 2734 2622 
Q 2975 2850 2975 3272 
Q 2975 3691 2734 3919 
Q 2494 4147 2053 4147 
L 1259 4147 
z
M 628 4666 
L 2053 4666 
Q 2838 4666 3239 4311 
Q 3641 3956 3641 3272 
Q 3641 2581 3239 2228 
Q 2838 1875 2053 1875 
L 1259 1875 
L 1259 0 
L 628 0 
L 628 4666 
z
" transform="scale(0.015625)"/>
       <path id="DejaVuSans-65" d="M 3597 1894 
L 3597 1613 
L 953 1613 
Q 991 1019 1311 708 
Q 1631 397 2203 397 
Q 2534 397 2845 478 
Q 3156 559 3463 722 
L 3463 178 
Q 3153 47 2828 -22 
Q 2503 -91 2169 -91 
Q 1331 -91 842 396 
Q 353 884 353 1716 
Q 353 2575 817 3079 
Q 1281 3584 2069 3584 
Q 2775 3584 3186 3129 
Q 3597 2675 3597 1894 
z
M 3022 2063 
Q 3016 2534 2758 2815 
Q 2500 3097 2075 3097 
Q 1594 3097 1305 2825 
Q 1016 2553 972 2059 
L 3022 2063 
z
" transform="scale(0.015625)"/>
       <path id="DejaVuSans-61" d="M 2194 1759 
Q 1497 1759 1228 1600 
Q 959 1441 959 1056 
Q 959 750 1161 570 
Q 1363 391 1709 391 
Q 2188 391 2477 730 
Q 2766 1069 2766 1631 
L 2766 1759 
L 2194 1759 
z
M 3341 1997 
L 3341 0 
L 2766 0 
L 2766 531 
Q 2569 213 2275 61 
Q 1981 -91 1556 -91 
Q 1019 -91 701 211 
Q 384 513 384 1019 
Q 384 1609 779 1909 
Q 1175 2209 1959 2209 
L 2766 2209 
L 2766 2266 
Q 2766 2663 2505 2880 
Q 2244 3097 1772 3097 
Q 1472 3097 1187 3025 
Q 903 2953 641 2809 
L 641 3341 
Q 956 3463 1253 3523 
Q 1550 3584 1831 3584 
Q 2591 3584 2966 3190 
Q 3341 2797 3341 1997 
z
" transform="scale(0.015625)"/>
       <path id="DejaVuSans-6b" d="M 581 4863 
L 1159 4863 
L 1159 1991 
L 2875 3500 
L 3609 3500 
L 1753 1863 
L 3688 0 
L 2938 0 
L 1159 1709 
L 1159 0 
L 581 0 
L 581 4863 
z
" transform="scale(0.015625)"/>
       <path id="DejaVuSans-20" transform="scale(0.015625)"/>
       <path id="DejaVuSans-49" d="M 628 4666 
L 1259 4666 
L 1259 0 
L 628 0 
L 628 4666 
z
" transform="scale(0.015625)"/>
       <path id="DejaVuSans-44" d="M 1259 4147 
L 1259 519 
L 2022 519 
Q 2988 519 3436 956 
Q 3884 1394 3884 2338 
Q 3884 3275 3436 3711 
Q 2988 4147 2022 4147 
L 1259 4147 
z
M 628 4666 
L 1925 4666 
Q 3281 4666 3915 4102 
Q 4550 3538 4550 2338 
Q 4550 1131 3912 565 
Q 3275 0 1925 0 
L 628 0 
L 628 4666 
z
" transform="scale(0.015625)"/>
      </defs>
      <use xlink:href="#DejaVuSans-50"/>
      <use xlink:href="#DejaVuSans-65" transform="translate(56.677734 0)"/>
      <use xlink:href="#DejaVuSans-61" transform="translate(118.201172 0)"/>
      <use xlink:href="#DejaVuSans-6b" transform="translate(179.480469 0)"/>
      <use xlink:href="#DejaVuSans-20" transform="translate(237.390625 0)"/>
      <use xlink:href="#DejaVuSans-49" transform="translate(269.177734 0)"/>
      <use xlink:href="#DejaVuSans-44" transform="translate(298.669922 0)"/>
     </g>
    </g>
   </g>
   <g id="matplotlib.axis_2">
    <g id="ytick_1">
     <g id="line2d_6">
      <defs>
       <path id="mc47c218e95" d="M 0 0 
L -3.5 0 
" style="stroke: #000000; stroke-width: 0.8"/>
      </defs>
      <g>
       <use xlink:href="#mc47c218e95" x="47.72" y="390.04" style="stroke: #000000; stroke-width: 0.8"/>
      </g>
     </g>
     <g id="text_7">
      <!-- 0.0 -->
      <g transform="translate(24.816875 393.839219) scale(0.1 -0.1)">
       <defs>
        <path id="DejaVuSans-2e" d="M 684 794 
L 1344 794 
L 1344 0 
L 684 0 
L 684 794 
z
" transform="scale(0.015625)"/>
       </defs>
       <use xlink:href="#DejaVuSans-30"/>
       <use xlink:href="#DejaVuSans-2e" transform="translate(63.623047 0)"/>
       <use xlink:href="#DejaVuSans-30" transform="translate(95.410156 0)"/>
      </g>
     </g>
    </g>
    <g id="ytick_2">
     <g id="line2d_7">
      <g>
       <use xlink:href="#mc47c218e95" x="47.72" y="320.866667" style="stroke: #000000; stroke-width: 0.8"/>
      </g>
     </g>
     <g id="text_8">
      <!-- 0.2 -->
      <g transform="translate(24.816875 324.665885) scale(0.1 -0.1)">
       <use xlink:href="#DejaVuSans-30"/>
       <use xlink:href="#DejaVuSans-2e" transform="translate(63.623047 0)"/>
       <use xlink:href="#DejaVuSans-32" transform="translate(95.410156 0)"/>
      </g>
     </g>
    </g>
    <g id="ytick_3">
     <g id="line2d_8">
      <g>
       <use xlink:href="#mc47c218e95" x="47.72" y="251.693333" style="stroke: #000000; stroke-width: 0.8"/>
      </g>
     </g>
     <g id="text_9">
      <!-- 0.4 -->
      <g transform="translate(24.816875 255.492552) scale(0.1 -0.1)">
       <defs>
        <path id="DejaVuSans-34" d="M 2419 4116 
L 825 1625 
L 2419 1625 
L 2419 4116 
z
M 2253 4666 
L 3047 4666 
L 3047 1625 
L 3713 1625 
L 3713 1100 
L 3047 1100 
L 3047 0 
L 2419 0 
L 2419 1100 
L 313 1100 
L 313 1709 
L 2253 4666 
z
" transform="scale(0.015625)"/>
       </defs>
       <use xlink:href="#DejaVuSans-30"/>
       <use xlink:href="#DejaVuSans-2e" transform="translate(63.623047 0)"/>
       <use xlink:href="#DejaVuSans-34" transform="translate(95.410156 0)"/>
      </g>
     </g>
    </g>
    <g id="ytick_4">
     <g id="line2d_9">
      <g>
       <use xlink:href="#mc47c218e95" x="47.72" y="182.52" style="stroke: #000000; stroke-width: 0.8"/>
      </g>
     </g>
     <g id="text_10">
      <!-- 0.6 -->
      <g transform="translate(24.816875 186.319219) scale(0.1 -0.1)">
       <defs>
        <path id="DejaVuSans-36" d="M 2113 2584 
Q 1688 2584 1439 2293 
Q 1191 2003 1191 1497 
Q 1191 994 1439 701 
Q 1688 409 2113 409 
Q 2538 409 2786 701 
Q 3034 994 3034 1497 
Q 3034 2003 2786 2293 
Q 2538 2584 2113 2584 
z
M 3366 4563 
L 3366 3988 
Q 3128 4100 2886 4159 
Q 2644 4219 2406 4219 
Q 1781 4219 1451 3797 
Q 1122 3375 1075 2522 
Q 1259 2794 1537 2939 
Q 1816 3084 2150 3084 
Q 2853 3084 3261 2657 
Q 3669 2231 3669 1497 
Q 3669 778 3244 343 
Q 2819 -91 2113 -91 
Q 1303 -91 875 529 
Q 447 1150 447 2328 
Q 447 3434 972 4092 
Q 1497 4750 2381 4750 
Q 2619 4750 2861 4703 
Q 3103 4656 3366 4563 
z
" transform="scale(0.015625)"/>
       </defs>
       <use xlink:href="#DejaVuSans-30"/>
       <use xlink:href="#DejaVuSans-2e" transform="translate(63.623047 0)"/>
       <use xlink:href="#DejaVuSans-36" transform="translate(95.410156 0)"/>
      </g>
     </g>
    </g>
    <g id="ytick_5">
     <g id="line2d_10">
      <g>
       <use xlink:href="#mc47c218e95" x="47.72" y="113.346667" style="stroke: #000000; stroke-width: 0.8"/>
      </g>
     </g>
     <g id="text_11">
      <!-- 0.8 -->
      <g transform="translate(24.816875 117.145885) scale(0.1 -0.1)">
       <defs>
        <path id="DejaVuSans-38" d="M 2034 2216 
Q 1584 2216 1326 1975 
Q 1069 1734 1069 1313 
Q 1069 891 1326 650 
Q 1584 409 2034 409 
Q 2484 409 2743 651 
Q 3003 894 3003 1313 
Q 3003 1734 2745 1975 
Q 2488 2216 2034 2216 
z
M 1403 2484 
Q 997 2584 770 2862 
Q 544 3141 544 3541 
Q 544 4100 942 4425 
Q 1341 4750 2034 4750 
Q 2731 4750 3128 4425 
Q 3525 4100 3525 3541 
Q 3525 3141 3298 2862 
Q 3072 2584 2669 2484 
Q 3125 2378 3379 2068 
Q 3634 1759 3634 1313 
Q 3634 634 3220 271 
Q 2806 -91 2034 -91 
Q 1263 -91 848 271 
Q 434 634 434 1313 
Q 434 1759 690 2068 
Q 947 2378 1403 2484 
z
M 1172 3481 
Q 1172 3119 1398 2916 
Q 1625 2713 2034 2713 
Q 2441 2713 2670 2916 
Q 2900 3119 2900 3481 
Q 2900 3844 2670 4047 
Q 2441 4250 2034 4250 
Q 1625 4250 1398 4047 
Q 1172 3844 1172 3481 
z
" transform="scale(0.015625)"/>
       </defs>
       <use xlink:href="#DejaVuSans-30"/>
       <use xlink:href="#DejaVuSans-2e" transform="translate(63.623047 0)"/>
       <use xlink:href="#DejaVuSans-38" transform="translate(95.410156 0)"/>
      </g>
     </g>
    </g>
    <g id="ytick_6">
     <g id="line2d_11">
      <g>
       <use xlink:href="#mc47c218e95" x="47.72" y="44.173333" style="stroke: #000000; stroke-width: 0.8"/>
      </g>
     </g>
     <g id="text_12">
      <!-- 1.0 -->
      <g transform="translate(24.816875 47.972552) scale(0.1 -0.1)">
       <use xlink:href="#DejaVuSans-31"/>
       <use xlink:href="#DejaVuSans-2e" transform="translate(63.623047 0)"/>
       <use xlink:href="#DejaVuSans-30" transform="translate(95.410156 0)"/>
      </g>
     </g>
    </g>
    <g id="text_13">
     <!-- Phe-Reverse Labelled height / Control height -->
     <g transform="translate(18.737188 320.327969) rotate(-90) scale(0.1 -0.1)">
      <defs>
       <path id="DejaVuSans-68" d="M 3513 2113 
L 3513 0 
L 2938 0 
L 2938 2094 
Q 2938 2591 2744 2837 
Q 2550 3084 2163 3084 
Q 1697 3084 1428 2787 
Q 1159 2491 1159 1978 
L 1159 0 
L 581 0 
L 581 4863 
L 1159 4863 
L 1159 2956 
Q 1366 3272 1645 3428 
Q 1925 3584 2291 3584 
Q 2894 3584 3203 3211 
Q 3513 2838 3513 2113 
z
" transform="scale(0.015625)"/>
       <path id="DejaVuSans-2d" d="M 313 2009 
L 1997 2009 
L 1997 1497 
L 313 1497 
L 313 2009 
z
" transform="scale(0.015625)"/>
       <path id="DejaVuSans-52" d="M 2841 2188 
Q 3044 2119 3236 1894 
Q 3428 1669 3622 1275 
L 4263 0 
L 3584 0 
L 2988 1197 
Q 2756 1666 2539 1819 
Q 2322 1972 1947 1972 
L 1259 1972 
L 1259 0 
L 628 0 
L 628 4666 
L 2053 4666 
Q 2853 4666 3247 4331 
Q 3641 3997 3641 3322 
Q 3641 2881 3436 2590 
Q 3231 2300 2841 2188 
z
M 1259 4147 
L 1259 2491 
L 2053 2491 
Q 2509 2491 2742 2702 
Q 2975 2913 2975 3322 
Q 2975 3731 2742 3939 
Q 2509 4147 2053 4147 
L 1259 4147 
z
" transform="scale(0.015625)"/>
       <path id="DejaVuSans-76" d="M 191 3500 
L 800 3500 
L 1894 563 
L 2988 3500 
L 3597 3500 
L 2284 0 
L 1503 0 
L 191 3500 
z
" transform="scale(0.015625)"/>
       <path id="DejaVuSans-72" d="M 2631 2963 
Q 2534 3019 2420 3045 
Q 2306 3072 2169 3072 
Q 1681 3072 1420 2755 
Q 1159 2438 1159 1844 
L 1159 0 
L 581 0 
L 581 3500 
L 1159 3500 
L 1159 2956 
Q 1341 3275 1631 3429 
Q 1922 3584 2338 3584 
Q 2397 3584 2469 3576 
Q 2541 3569 2628 3553 
L 2631 2963 
z
" transform="scale(0.015625)"/>
       <path id="DejaVuSans-73" d="M 2834 3397 
L 2834 2853 
Q 2591 2978 2328 3040 
Q 2066 3103 1784 3103 
Q 1356 3103 1142 2972 
Q 928 2841 928 2578 
Q 928 2378 1081 2264 
Q 1234 2150 1697 2047 
L 1894 2003 
Q 2506 1872 2764 1633 
Q 3022 1394 3022 966 
Q 3022 478 2636 193 
Q 2250 -91 1575 -91 
Q 1294 -91 989 -36 
Q 684 19 347 128 
L 347 722 
Q 666 556 975 473 
Q 1284 391 1588 391 
Q 1994 391 2212 530 
Q 2431 669 2431 922 
Q 2431 1156 2273 1281 
Q 2116 1406 1581 1522 
L 1381 1569 
Q 847 1681 609 1914 
Q 372 2147 372 2553 
Q 372 3047 722 3315 
Q 1072 3584 1716 3584 
Q 2034 3584 2315 3537 
Q 2597 3491 2834 3397 
z
" transform="scale(0.015625)"/>
       <path id="DejaVuSans-4c" d="M 628 4666 
L 1259 4666 
L 1259 531 
L 3531 531 
L 3531 0 
L 628 0 
L 628 4666 
z
" transform="scale(0.015625)"/>
       <path id="DejaVuSans-62" d="M 3116 1747 
Q 3116 2381 2855 2742 
Q 2594 3103 2138 3103 
Q 1681 3103 1420 2742 
Q 1159 2381 1159 1747 
Q 1159 1113 1420 752 
Q 1681 391 2138 391 
Q 2594 391 2855 752 
Q 3116 1113 3116 1747 
z
M 1159 2969 
Q 1341 3281 1617 3432 
Q 1894 3584 2278 3584 
Q 2916 3584 3314 3078 
Q 3713 2572 3713 1747 
Q 3713 922 3314 415 
Q 2916 -91 2278 -91 
Q 1894 -91 1617 61 
Q 1341 213 1159 525 
L 1159 0 
L 581 0 
L 581 4863 
L 1159 4863 
L 1159 2969 
z
" transform="scale(0.015625)"/>
       <path id="DejaVuSans-6c" d="M 603 4863 
L 1178 4863 
L 1178 0 
L 603 0 
L 603 4863 
z
" transform="scale(0.015625)"/>
       <path id="DejaVuSans-64" d="M 2906 2969 
L 2906 4863 
L 3481 4863 
L 3481 0 
L 2906 0 
L 2906 525 
Q 2725 213 2448 61 
Q 2172 -91 1784 -91 
Q 1150 -91 751 415 
Q 353 922 353 1747 
Q 353 2572 751 3078 
Q 1150 3584 1784 3584 
Q 2172 3584 2448 3432 
Q 2725 3281 2906 2969 
z
M 947 1747 
Q 947 1113 1208 752 
Q 1469 391 1925 391 
Q 2381 391 2643 752 
Q 2906 1113 2906 1747 
Q 2906 2381 2643 2742 
Q 2381 3103 1925 3103 
Q 1469 3103 1208 2742 
Q 947 2381 947 1747 
z
" transform="scale(0.015625)"/>
       <path id="DejaVuSans-69" d="M 603 3500 
L 1178 3500 
L 1178 0 
L 603 0 
L 603 3500 
z
M 603 4863 
L 1178 4863 
L 1178 4134 
L 603 4134 
L 603 4863 
z
" transform="scale(0.015625)"/>
       <path id="DejaVuSans-67" d="M 2906 1791 
Q 2906 2416 2648 2759 
Q 2391 3103 1925 3103 
Q 1463 3103 1205 2759 
Q 947 2416 947 1791 
Q 947 1169 1205 825 
Q 1463 481 1925 481 
Q 2391 481 2648 825 
Q 2906 1169 2906 1791 
z
M 3481 434 
Q 3481 -459 3084 -895 
Q 2688 -1331 1869 -1331 
Q 1566 -1331 1297 -1286 
Q 1028 -1241 775 -1147 
L 775 -588 
Q 1028 -725 1275 -790 
Q 1522 -856 1778 -856 
Q 2344 -856 2625 -561 
Q 2906 -266 2906 331 
L 2906 616 
Q 2728 306 2450 153 
Q 2172 0 1784 0 
Q 1141 0 747 490 
Q 353 981 353 1791 
Q 353 2603 747 3093 
Q 1141 3584 1784 3584 
Q 2172 3584 2450 3431 
Q 2728 3278 2906 2969 
L 2906 3500 
L 3481 3500 
L 3481 434 
z
" transform="scale(0.015625)"/>
       <path id="DejaVuSans-74" d="M 1172 4494 
L 1172 3500 
L 2356 3500 
L 2356 3053 
L 1172 3053 
L 1172 1153 
Q 1172 725 1289 603 
Q 1406 481 1766 481 
L 2356 481 
L 2356 0 
L 1766 0 
Q 1100 0 847 248 
Q 594 497 594 1153 
L 594 3053 
L 172 3053 
L 172 3500 
L 594 3500 
L 594 4494 
L 1172 4494 
z
" transform="scale(0.015625)"/>
       <path id="DejaVuSans-2f" d="M 1625 4666 
L 2156 4666 
L 531 -594 
L 0 -594 
L 1625 4666 
z
" transform="scale(0.015625)"/>
       <path id="DejaVuSans-43" d="M 4122 4306 
L 4122 3641 
Q 3803 3938 3442 4084 
Q 3081 4231 2675 4231 
Q 1875 4231 1450 3742 
Q 1025 3253 1025 2328 
Q 1025 1406 1450 917 
Q 1875 428 2675 428 
Q 3081 428 3442 575 
Q 3803 722 4122 1019 
L 4122 359 
Q 3791 134 3420 21 
Q 3050 -91 2638 -91 
Q 1578 -91 968 557 
Q 359 1206 359 2328 
Q 359 3453 968 4101 
Q 1578 4750 2638 4750 
Q 3056 4750 3426 4639 
Q 3797 4528 4122 4306 
z
" transform="scale(0.015625)"/>
       <path id="DejaVuSans-6f" d="M 1959 3097 
Q 1497 3097 1228 2736 
Q 959 2375 959 1747 
Q 959 1119 1226 758 
Q 1494 397 1959 397 
Q 2419 397 2687 759 
Q 2956 1122 2956 1747 
Q 2956 2369 2687 2733 
Q 2419 3097 1959 3097 
z
M 1959 3584 
Q 2709 3584 3137 3096 
Q 3566 2609 3566 1747 
Q 3566 888 3137 398 
Q 2709 -91 1959 -91 
Q 1206 -91 779 398 
Q 353 888 353 1747 
Q 353 2609 779 3096 
Q 1206 3584 1959 3584 
z
" transform="scale(0.015625)"/>
       <path id="DejaVuSans-6e" d="M 3513 2113 
L 3513 0 
L 2938 0 
L 2938 2094 
Q 2938 2591 2744 2837 
Q 2550 3084 2163 3084 
Q 1697 3084 1428 2787 
Q 1159 2491 1159 1978 
L 1159 0 
L 581 0 
L 581 3500 
L 1159 3500 
L 1159 2956 
Q 1366 3272 1645 3428 
Q 1925 3584 2291 3584 
Q 2894 3584 3203 3211 
Q 3513 2838 3513 2113 
z
" transform="scale(0.015625)"/>
      </defs>
      <use xlink:href="#DejaVuSans-50"/>
      <use xlink:href="#DejaVuSans-68" transform="translate(60.302734 0)"/>
      <use xlink:href="#DejaVuSans-65" transform="translate(123.681641 0)"/>
      <use xlink:href="#DejaVuSans-2d" transform="translate(185.205078 0)"/>
      <use xlink:href="#DejaVuSans-52" transform="translate(221.289062 0)"/>
      <use xlink:href="#DejaVuSans-65" transform="translate(286.271484 0)"/>
      <use xlink:href="#DejaVuSans-76" transform="translate(347.794922 0)"/>
      <use xlink:href="#DejaVuSans-65" transform="translate(406.974609 0)"/>
      <use xlink:href="#DejaVuSans-72" transform="translate(468.498047 0)"/>
      <use xlink:href="#DejaVuSans-73" transform="translate(509.611328 0)"/>
      <use xlink:href="#DejaVuSans-65" transform="translate(561.710938 0)"/>
      <use xlink:href="#DejaVuSans-20" transform="translate(623.234375 0)"/>
      <use xlink:href="#DejaVuSans-4c" transform="translate(655.021484 0)"/>
      <use xlink:href="#DejaVuSans-61" transform="translate(710.734375 0)"/>
      <use xlink:href="#DejaVuSans-62" transform="translate(772.013672 0)"/>
      <use xlink:href="#DejaVuSans-65" transform="translate(835.490234 0)"/>
      <use xlink:href="#DejaVuSans-6c" transform="translate(897.013672 0)"/>
      <use xlink:href="#DejaVuSans-6c" transform="translate(924.796875 0)"/>
      <use xlink:href="#DejaVuSans-65" transform="translate(952.580078 0)"/>
      <use xlink:href="#DejaVuSans-64" transform="translate(1014.103516 0)"/>
      <use xlink:href="#DejaVuSans-20" transform="translate(1077.580078 0)"/>
      <use xlink:href="#DejaVuSans-68" transform="translate(1109.367188 0)"/>
      <use xlink:href="#DejaVuSans-65" transform="translate(1172.746094 0)"/>
      <use xlink:href="#DejaVuSans-69" transform="translate(1234.269531 0)"/>
      <use xlink:href="#DejaVuSans-67" transform="translate(1262.052734 0)"/>
      <use xlink:href="#DejaVuSans-68" transform="translate(1325.529297 0)"/>
      <use xlink:href="#DejaVuSans-74" transform="translate(1388.908203 0)"/>
      <use xlink:href="#DejaVuSans-20" transform="translate(1428.117188 0)"/>
      <use xlink:href="#DejaVuSans-2f" transform="translate(1459.904297 0)"/>
      <use xlink:href="#DejaVuSans-20" transform="translate(1493.595703 0)"/>
      <use xlink:href="#DejaVuSans-43" transform="translate(1525.382812 0)"/>
      <use xlink:href="#DejaVuSans-6f" transform="translate(1595.207031 0)"/>
      <use xlink:href="#DejaVuSans-6e" transform="translate(1656.388672 0)"/>
      <use xlink:href="#DejaVuSans-74" transform="translate(1719.767578 0)"/>
      <use xlink:href="#DejaVuSans-72" transform="translate(1758.976562 0)"/>
      <use xlink:href="#DejaVuSans-6f" transform="translate(1797.839844 0)"/>
      <use xlink:href="#DejaVuSans-6c" transform="translate(1859.021484 0)"/>
      <use xlink:href="#DejaVuSans-20" transform="translate(1886.804688 0)"/>
      <use xlink:href="#DejaVuSans-68" transform="translate(1918.591797 0)"/>
      <use xlink:href="#DejaVuSans-65" transform="translate(1981.970703 0)"/>
      <use xlink:href="#DejaVuSans-69" transform="translate(2043.494141 0)"/>
      <use xlink:href="#DejaVuSans-67" transform="translate(2071.277344 0)"/>
      <use xlink:href="#DejaVuSans-68" transform="translate(2134.753906 0)"/>
      <use xlink:href="#DejaVuSans-74" transform="translate(2198.132812 0)"/>
     </g>
    </g>
   </g>
   <g id="patch_245">
    <path d="M 47.72 390.04 
L 47.72 26.88 
" style="fill: none; stroke: #000000; stroke-width: 0.8; stroke-linejoin: miter; stroke-linecap: square"/>
   </g>
   <g id="patch_246">
    <path d="M 709.2 390.04 
L 709.2 26.88 
" style="fill: none; stroke: #000000; stroke-width: 0.8; stroke-linejoin: miter; stroke-linecap: square"/>
   </g>
   <g id="patch_247">
    <path d="M 47.72 390.04 
L 709.2 390.04 
" style="fill: none; stroke: #000000; stroke-width: 0.8; stroke-linejoin: miter; stroke-linecap: square"/>
   </g>
   <g id="patch_248">
    <path d="M 47.72 26.88 
L 709.2 26.88 
" style="fill: none; stroke: #000000; stroke-width: 0.8; stroke-linejoin: miter; stroke-linecap: square"/>
   </g>
   <g id="text_14">
    <!-- Red: 8, orange: 10, Green: 224 -->
    <g transform="translate(300.958438 40.534175) scale(0.1 -0.1)">
     <defs>
      <path id="DejaVuSans-3a" d="M 750 794 
L 1409 794 
L 1409 0 
L 750 0 
L 750 794 
z
M 750 3309 
L 1409 3309 
L 1409 2516 
L 750 2516 
L 750 3309 
z
" transform="scale(0.015625)"/>
      <path id="DejaVuSans-2c" d="M 750 794 
L 1409 794 
L 1409 256 
L 897 -744 
L 494 -744 
L 750 256 
L 750 794 
z
" transform="scale(0.015625)"/>
      <path id="DejaVuSans-47" d="M 3809 666 
L 3809 1919 
L 2778 1919 
L 2778 2438 
L 4434 2438 
L 4434 434 
Q 4069 175 3628 42 
Q 3188 -91 2688 -91 
Q 1594 -91 976 548 
Q 359 1188 359 2328 
Q 359 3472 976 4111 
Q 1594 4750 2688 4750 
Q 3144 4750 3555 4637 
Q 3966 4525 4313 4306 
L 4313 3634 
Q 3963 3931 3569 4081 
Q 3175 4231 2741 4231 
Q 1884 4231 1454 3753 
Q 1025 3275 1025 2328 
Q 1025 1384 1454 906 
Q 1884 428 2741 428 
Q 3075 428 3337 486 
Q 3600 544 3809 666 
z
" transform="scale(0.015625)"/>
     </defs>
     <use xlink:href="#DejaVuSans-52"/>
     <use xlink:href="#DejaVuSans-65" transform="translate(64.982422 0)"/>
     <use xlink:href="#DejaVuSans-64" transform="translate(126.505859 0)"/>
     <use xlink:href="#DejaVuSans-3a" transform="translate(189.982422 0)"/>
     <use xlink:href="#DejaVuSans-20" transform="translate(223.673828 0)"/>
     <use xlink:href="#DejaVuSans-38" transform="translate(255.460938 0)"/>
     <use xlink:href="#DejaVuSans-2c" transform="translate(319.083984 0)"/>
     <use xlink:href="#DejaVuSans-20" transform="translate(350.871094 0)"/>
     <use xlink:href="#DejaVuSans-6f" transform="translate(382.658203 0)"/>
     <use xlink:href="#DejaVuSans-72" transform="translate(443.839844 0)"/>
     <use xlink:href="#DejaVuSans-61" transform="translate(484.953125 0)"/>
     <use xlink:href="#DejaVuSans-6e" transform="translate(546.232422 0)"/>
     <use xlink:href="#DejaVuSans-67" transform="translate(609.611328 0)"/>
     <use xlink:href="#DejaVuSans-65" transform="translate(673.087891 0)"/>
     <use xlink:href="#DejaVuSans-3a" transform="translate(734.611328 0)"/>
     <use xlink:href="#DejaVuSans-20" transform="translate(768.302734 0)"/>
     <use xlink:href="#DejaVuSans-31" transform="translate(800.089844 0)"/>
     <use xlink:href="#DejaVuSans-30" transform="translate(863.712891 0)"/>
     <use xlink:href="#DejaVuSans-2c" transform="translate(927.335938 0)"/>
     <use xlink:href="#DejaVuSans-20" transform="translate(959.123047 0)"/>
     <use xlink:href="#DejaVuSans-47" transform="translate(990.910156 0)"/>
     <use xlink:href="#DejaVuSans-72" transform="translate(1068.400391 0)"/>
     <use xlink:href="#DejaVuSans-65" transform="translate(1107.263672 0)"/>
     <use xlink:href="#DejaVuSans-65" transform="translate(1168.787109 0)"/>
     <use xlink:href="#DejaVuSans-6e" transform="translate(1230.310547 0)"/>
     <use xlink:href="#DejaVuSans-3a" transform="translate(1293.689453 0)"/>
     <use xlink:href="#DejaVuSans-20" transform="translate(1327.380859 0)"/>
     <use xlink:href="#DejaVuSans-32" transform="translate(1359.167969 0)"/>
     <use xlink:href="#DejaVuSans-32" transform="translate(1422.791016 0)"/>
     <use xlink:href="#DejaVuSans-34" transform="translate(1486.414062 0)"/>
    </g>
   </g>
   <g id="text_15">
    <!-- Phe-Reverse Labelled Height relative to Control Height (median normalized and outliers capped at 1) -->
    <g transform="translate(74.725 20.88) scale(0.12 -0.12)">
     <defs>
      <path id="DejaVuSans-48" d="M 628 4666 
L 1259 4666 
L 1259 2753 
L 3553 2753 
L 3553 4666 
L 4184 4666 
L 4184 0 
L 3553 0 
L 3553 2222 
L 1259 2222 
L 1259 0 
L 628 0 
L 628 4666 
z
" transform="scale(0.015625)"/>
      <path id="DejaVuSans-28" d="M 1984 4856 
Q 1566 4138 1362 3434 
Q 1159 2731 1159 2009 
Q 1159 1288 1364 580 
Q 1569 -128 1984 -844 
L 1484 -844 
Q 1016 -109 783 600 
Q 550 1309 550 2009 
Q 550 2706 781 3412 
Q 1013 4119 1484 4856 
L 1984 4856 
z
" transform="scale(0.015625)"/>
      <path id="DejaVuSans-6d" d="M 3328 2828 
Q 3544 3216 3844 3400 
Q 4144 3584 4550 3584 
Q 5097 3584 5394 3201 
Q 5691 2819 5691 2113 
L 5691 0 
L 5113 0 
L 5113 2094 
Q 5113 2597 4934 2840 
Q 4756 3084 4391 3084 
Q 3944 3084 3684 2787 
Q 3425 2491 3425 1978 
L 3425 0 
L 2847 0 
L 2847 2094 
Q 2847 2600 2669 2842 
Q 2491 3084 2119 3084 
Q 1678 3084 1418 2786 
Q 1159 2488 1159 1978 
L 1159 0 
L 581 0 
L 581 3500 
L 1159 3500 
L 1159 2956 
Q 1356 3278 1631 3431 
Q 1906 3584 2284 3584 
Q 2666 3584 2933 3390 
Q 3200 3197 3328 2828 
z
" transform="scale(0.015625)"/>
      <path id="DejaVuSans-7a" d="M 353 3500 
L 3084 3500 
L 3084 2975 
L 922 459 
L 3084 459 
L 3084 0 
L 275 0 
L 275 525 
L 2438 3041 
L 353 3041 
L 353 3500 
z
" transform="scale(0.015625)"/>
      <path id="DejaVuSans-75" d="M 544 1381 
L 544 3500 
L 1119 3500 
L 1119 1403 
Q 1119 906 1312 657 
Q 1506 409 1894 409 
Q 2359 409 2629 706 
Q 2900 1003 2900 1516 
L 2900 3500 
L 3475 3500 
L 3475 0 
L 2900 0 
L 2900 538 
Q 2691 219 2414 64 
Q 2138 -91 1772 -91 
Q 1169 -91 856 284 
Q 544 659 544 1381 
z
M 1991 3584 
L 1991 3584 
z
" transform="scale(0.015625)"/>
      <path id="DejaVuSans-63" d="M 3122 3366 
L 3122 2828 
Q 2878 2963 2633 3030 
Q 2388 3097 2138 3097 
Q 1578 3097 1268 2742 
Q 959 2388 959 1747 
Q 959 1106 1268 751 
Q 1578 397 2138 397 
Q 2388 397 2633 464 
Q 2878 531 3122 666 
L 3122 134 
Q 2881 22 2623 -34 
Q 2366 -91 2075 -91 
Q 1284 -91 818 406 
Q 353 903 353 1747 
Q 353 2603 823 3093 
Q 1294 3584 2113 3584 
Q 2378 3584 2631 3529 
Q 2884 3475 3122 3366 
z
" transform="scale(0.015625)"/>
      <path id="DejaVuSans-70" d="M 1159 525 
L 1159 -1331 
L 581 -1331 
L 581 3500 
L 1159 3500 
L 1159 2969 
Q 1341 3281 1617 3432 
Q 1894 3584 2278 3584 
Q 2916 3584 3314 3078 
Q 3713 2572 3713 1747 
Q 3713 922 3314 415 
Q 2916 -91 2278 -91 
Q 1894 -91 1617 61 
Q 1341 213 1159 525 
z
M 3116 1747 
Q 3116 2381 2855 2742 
Q 2594 3103 2138 3103 
Q 1681 3103 1420 2742 
Q 1159 2381 1159 1747 
Q 1159 1113 1420 752 
Q 1681 391 2138 391 
Q 2594 391 2855 752 
Q 3116 1113 3116 1747 
z
" transform="scale(0.015625)"/>
      <path id="DejaVuSans-29" d="M 513 4856 
L 1013 4856 
Q 1481 4119 1714 3412 
Q 1947 2706 1947 2009 
Q 1947 1309 1714 600 
Q 1481 -109 1013 -844 
L 513 -844 
Q 928 -128 1133 580 
Q 1338 1288 1338 2009 
Q 1338 2731 1133 3434 
Q 928 4138 513 4856 
z
" transform="scale(0.015625)"/>
     </defs>
     <use xlink:href="#DejaVuSans-50"/>
     <use xlink:href="#DejaVuSans-68" transform="translate(60.302734 0)"/>
     <use xlink:href="#DejaVuSans-65" transform="translate(123.681641 0)"/>
     <use xlink:href="#DejaVuSans-2d" transform="translate(185.205078 0)"/>
     <use xlink:href="#DejaVuSans-52" transform="translate(221.289062 0)"/>
     <use xlink:href="#DejaVuSans-65" transform="translate(286.271484 0)"/>
     <use xlink:href="#DejaVuSans-76" transform="translate(347.794922 0)"/>
     <use xlink:href="#DejaVuSans-65" transform="translate(406.974609 0)"/>
     <use xlink:href="#DejaVuSans-72" transform="translate(468.498047 0)"/>
     <use xlink:href="#DejaVuSans-73" transform="translate(509.611328 0)"/>
     <use xlink:href="#DejaVuSans-65" transform="translate(561.710938 0)"/>
     <use xlink:href="#DejaVuSans-20" transform="translate(623.234375 0)"/>
     <use xlink:href="#DejaVuSans-4c" transform="translate(655.021484 0)"/>
     <use xlink:href="#DejaVuSans-61" transform="translate(710.734375 0)"/>
     <use xlink:href="#DejaVuSans-62" transform="translate(772.013672 0)"/>
     <use xlink:href="#DejaVuSans-65" transform="translate(835.490234 0)"/>
     <use xlink:href="#DejaVuSans-6c" transform="translate(897.013672 0)"/>
     <use xlink:href="#DejaVuSans-6c" transform="translate(924.796875 0)"/>
     <use xlink:href="#DejaVuSans-65" transform="translate(952.580078 0)"/>
     <use xlink:href="#DejaVuSans-64" transform="translate(1014.103516 0)"/>
     <use xlink:href="#DejaVuSans-20" transform="translate(1077.580078 0)"/>
     <use xlink:href="#DejaVuSans-48" transform="translate(1109.367188 0)"/>
     <use xlink:href="#DejaVuSans-65" transform="translate(1184.5625 0)"/>
     <use xlink:href="#DejaVuSans-69" transform="translate(1246.085938 0)"/>
     <use xlink:href="#DejaVuSans-67" transform="translate(1273.869141 0)"/>
     <use xlink:href="#DejaVuSans-68" transform="translate(1337.345703 0)"/>
     <use xlink:href="#DejaVuSans-74" transform="translate(1400.724609 0)"/>
     <use xlink:href="#DejaVuSans-20" transform="translate(1439.933594 0)"/>
     <use xlink:href="#DejaVuSans-72" transform="translate(1471.720703 0)"/>
     <use xlink:href="#DejaVuSans-65" transform="translate(1510.583984 0)"/>
     <use xlink:href="#DejaVuSans-6c" transform="translate(1572.107422 0)"/>
     <use xlink:href="#DejaVuSans-61" transform="translate(1599.890625 0)"/>
     <use xlink:href="#DejaVuSans-74" transform="translate(1661.169922 0)"/>
     <use xlink:href="#DejaVuSans-69" transform="translate(1700.378906 0)"/>
     <use xlink:href="#DejaVuSans-76" transform="translate(1728.162109 0)"/>
     <use xlink:href="#DejaVuSans-65" transform="translate(1787.341797 0)"/>
     <use xlink:href="#DejaVuSans-20" transform="translate(1848.865234 0)"/>
     <use xlink:href="#DejaVuSans-74" transform="translate(1880.652344 0)"/>
     <use xlink:href="#DejaVuSans-6f" transform="translate(1919.861328 0)"/>
     <use xlink:href="#DejaVuSans-20" transform="translate(1981.042969 0)"/>
     <use xlink:href="#DejaVuSans-43" transform="translate(2012.830078 0)"/>
     <use xlink:href="#DejaVuSans-6f" transform="translate(2082.654297 0)"/>
     <use xlink:href="#DejaVuSans-6e" transform="translate(2143.835938 0)"/>
     <use xlink:href="#DejaVuSans-74" transform="translate(2207.214844 0)"/>
     <use xlink:href="#DejaVuSans-72" transform="translate(2246.423828 0)"/>
     <use xlink:href="#DejaVuSans-6f" transform="translate(2285.287109 0)"/>
     <use xlink:href="#DejaVuSans-6c" transform="translate(2346.46875 0)"/>
     <use xlink:href="#DejaVuSans-20" transform="translate(2374.251953 0)"/>
     <use xlink:href="#DejaVuSans-48" transform="translate(2406.039062 0)"/>
     <use xlink:href="#DejaVuSans-65" transform="translate(2481.234375 0)"/>
     <use xlink:href="#DejaVuSans-69" transform="translate(2542.757812 0)"/>
     <use xlink:href="#DejaVuSans-67" transform="translate(2570.541016 0)"/>
     <use xlink:href="#DejaVuSans-68" transform="translate(2634.017578 0)"/>
     <use xlink:href="#DejaVuSans-74" transform="translate(2697.396484 0)"/>
     <use xlink:href="#DejaVuSans-20" transform="translate(2736.605469 0)"/>
     <use xlink:href="#DejaVuSans-28" transform="translate(2768.392578 0)"/>
     <use xlink:href="#DejaVuSans-6d" transform="translate(2807.40625 0)"/>
     <use xlink:href="#DejaVuSans-65" transform="translate(2904.818359 0)"/>
     <use xlink:href="#DejaVuSans-64" transform="translate(2966.341797 0)"/>
     <use xlink:href="#DejaVuSans-69" transform="translate(3029.818359 0)"/>
     <use xlink:href="#DejaVuSans-61" transform="translate(3057.601562 0)"/>
     <use xlink:href="#DejaVuSans-6e" transform="translate(3118.880859 0)"/>
     <use xlink:href="#DejaVuSans-20" transform="translate(3182.259766 0)"/>
     <use xlink:href="#DejaVuSans-6e" transform="translate(3214.046875 0)"/>
     <use xlink:href="#DejaVuSans-6f" transform="translate(3277.425781 0)"/>
     <use xlink:href="#DejaVuSans-72" transform="translate(3338.607422 0)"/>
     <use xlink:href="#DejaVuSans-6d" transform="translate(3377.970703 0)"/>
     <use xlink:href="#DejaVuSans-61" transform="translate(3475.382812 0)"/>
     <use xlink:href="#DejaVuSans-6c" transform="translate(3536.662109 0)"/>
     <use xlink:href="#DejaVuSans-69" transform="translate(3564.445312 0)"/>
     <use xlink:href="#DejaVuSans-7a" transform="translate(3592.228516 0)"/>
     <use xlink:href="#DejaVuSans-65" transform="translate(3644.71875 0)"/>
     <use xlink:href="#DejaVuSans-64" transform="translate(3706.242188 0)"/>
     <use xlink:href="#DejaVuSans-20" transform="translate(3769.71875 0)"/>
     <use xlink:href="#DejaVuSans-61" transform="translate(3801.505859 0)"/>
     <use xlink:href="#DejaVuSans-6e" transform="translate(3862.785156 0)"/>
     <use xlink:href="#DejaVuSans-64" transform="translate(3926.164062 0)"/>
     <use xlink:href="#DejaVuSans-20" transform="translate(3989.640625 0)"/>
     <use xlink:href="#DejaVuSans-6f" transform="translate(4021.427734 0)"/>
     <use xlink:href="#DejaVuSans-75" transform="translate(4082.609375 0)"/>
     <use xlink:href="#DejaVuSans-74" transform="translate(4145.988281 0)"/>
     <use xlink:href="#DejaVuSans-6c" transform="translate(4185.197266 0)"/>
     <use xlink:href="#DejaVuSans-69" transform="translate(4212.980469 0)"/>
     <use xlink:href="#DejaVuSans-65" transform="translate(4240.763672 0)"/>
     <use xlink:href="#DejaVuSans-72" transform="translate(4302.287109 0)"/>
     <use xlink:href="#DejaVuSans-73" transform="translate(4343.400391 0)"/>
     <use xlink:href="#DejaVuSans-20" transform="translate(4395.5 0)"/>
     <use xlink:href="#DejaVuSans-63" transform="translate(4427.287109 0)"/>
     <use xlink:href="#DejaVuSans-61" transform="translate(4482.267578 0)"/>
     <use xlink:href="#DejaVuSans-70" transform="translate(4543.546875 0)"/>
     <use xlink:href="#DejaVuSans-70" transform="translate(4607.023438 0)"/>
     <use xlink:href="#DejaVuSans-65" transform="translate(4670.5 0)"/>
     <use xlink:href="#DejaVuSans-64" transform="translate(4732.023438 0)"/>
     <use xlink:href="#DejaVuSans-20" transform="translate(4795.5 0)"/>
     <use xlink:href="#DejaVuSans-61" transform="translate(4827.287109 0)"/>
     <use xlink:href="#DejaVuSans-74" transform="translate(4888.566406 0)"/>
     <use xlink:href="#DejaVuSans-20" transform="translate(4927.775391 0)"/>
     <use xlink:href="#DejaVuSans-31" transform="translate(4959.5625 0)"/>
     <use xlink:href="#DejaVuSans-29" transform="translate(5023.185547 0)"/>
    </g>
   </g>
  </g>
 </g>
 <defs>
  <clipPath id="p8156ab6684">
   <rect x="47.72" y="26.88" width="661.48" height="363.16"/>
  </clipPath>
 </defs>
</svg>
