<?xml version="1.0" encoding="utf-8" standalone="no"?>
<!DOCTYPE svg PUBLIC "-//W3C//DTD SVG 1.1//EN"
  "http://www.w3.org/Graphics/SVG/1.1/DTD/svg11.dtd">
<svg xmlns:xlink="http://www.w3.org/1999/xlink" width="720pt" height="432pt" viewBox="0 0 720 432" xmlns="http://www.w3.org/2000/svg" version="1.1">
 <metadata>
  <rdf:RDF xmlns:dc="http://purl.org/dc/elements/1.1/" xmlns:cc="http://creativecommons.org/ns#" xmlns:rdf="http://www.w3.org/1999/02/22-rdf-syntax-ns#">
   <cc:Work>
    <dc:type rdf:resource="http://purl.org/dc/dcmitype/StillImage"/>
    <dc:date>2026-03-17T14:07:11.509938</dc:date>
    <dc:format>image/svg+xml</dc:format>
    <dc:creator>
     <cc:Agent>
      <dc:title>Matplotlib v3.10.8, https://matplotlib.org/</dc:title>
     </cc:Agent>
    </dc:creator>
   </cc:Work>
  </rdf:RDF>
 </metadata>
 <defs>
  <style type="text/css">*{stroke-linejoin: round; stroke-linecap: butt}</style>
 </defs>
 <g id="figure_1">
  <g id="patch_1">
   <path d="M 0 432 
L 720 432 
L 720 0 
L 0 0 
z
" style="fill: #ffffff"/>
  </g>
  <g id="axes_1">
   <g id="patch_2">
    <path d="M 47.72 390.04 
L 709.2 390.04 
L 709.2 26.88 
L 47.72 26.88 
z
" style="fill: #ffffff"/>
   </g>
   <g id="patch_3">
    <path d="M 46.353306 390.04 
L 49.086694 390.04 
L 49.086694 11.117356 
L 46.353306 11.117356 
z
" clip-path="url(#pd3e859e6cb)" style="fill: #008000"/>
   </g>
   <g id="patch_4">
    <path d="M 49.086694 390.04 
L 51.820083 390.04 
L 51.820083 -103.929534 
L 49.086694 -103.929534 
z
" clip-path="url(#pd3e859e6cb)" style="fill: #008000"/>
   </g>
   <g id="patch_5">
    <path d="M 51.820083 390.04 
L 54.553471 390.04 
L 54.553471 30.812691 
L 51.820083 30.812691 
z
" clip-path="url(#pd3e859e6cb)" style="fill: #008000"/>
   </g>
   <g id="patch_6">
    <path d="M 54.553471 390.04 
L 57.28686 390.04 
L 57.28686 -12.829229 
L 54.553471 -12.829229 
z
" clip-path="url(#pd3e859e6cb)" style="fill: #008000"/>
   </g>
   <g id="patch_7">
    <path d="M 57.28686 390.04 
L 60.020248 390.04 
L 60.020248 23.603258 
L 57.28686 23.603258 
z
" clip-path="url(#pd3e859e6cb)" style="fill: #008000"/>
   </g>
   <g id="patch_8">
    <path d="M 60.020248 390.04 
L 62.753636 390.04 
L 62.753636 13.514707 
L 60.020248 13.514707 
z
" clip-path="url(#pd3e859e6cb)" style="fill: #008000"/>
   </g>
   <g id="patch_9">
    <path d="M 62.753636 390.04 
L 65.487025 390.04 
L 65.487025 -78.277628 
L 62.753636 -78.277628 
z
" clip-path="url(#pd3e859e6cb)" style="fill: #008000"/>
   </g>
   <g id="patch_10">
    <path d="M 65.487025 390.04 
L 68.220413 390.04 
L 68.220413 101.492041 
L 65.487025 101.492041 
z
" clip-path="url(#pd3e859e6cb)" style="fill: #ffa500"/>
   </g>
   <g id="patch_11">
    <path d="M 68.220413 390.04 
L 70.953802 390.04 
L 70.953802 -32.486398 
L 68.220413 -32.486398 
z
" clip-path="url(#pd3e859e6cb)" style="fill: #008000"/>
   </g>
   <g id="patch_12">
    <path d="M 70.953802 390.04 
L 73.68719 390.04 
L 73.68719 25.891478 
L 70.953802 25.891478 
z
" clip-path="url(#pd3e859e6cb)" style="fill: #008000"/>
   </g>
   <g id="patch_13">
    <path d="M 73.68719 390.04 
L 76.420579 390.04 
L 76.420579 36.123886 
L 73.68719 36.123886 
z
" clip-path="url(#pd3e859e6cb)" style="fill: #008000"/>
   </g>
   <g id="patch_14">
    <path d="M 76.420579 390.04 
L 79.153967 390.04 
L 79.153967 12.014929 
L 76.420579 12.014929 
z
" clip-path="url(#pd3e859e6cb)" style="fill: #008000"/>
   </g>
   <g id="patch_15">
    <path d="M 79.153967 390.04 
L 81.887355 390.04 
L 81.887355 16.119084 
L 79.153967 16.119084 
z
" clip-path="url(#pd3e859e6cb)" style="fill: #008000"/>
   </g>
   <g id="patch_16">
    <path d="M 81.887355 390.04 
L 84.620744 390.04 
L 84.620744 8.813729 
L 81.887355 8.813729 
z
" clip-path="url(#pd3e859e6cb)" style="fill: #008000"/>
   </g>
   <g id="patch_17">
    <path d="M 84.620744 390.04 
L 87.354132 390.04 
L 87.354132 99.120555 
L 84.620744 99.120555 
z
" clip-path="url(#pd3e859e6cb)" style="fill: #008000"/>
   </g>
   <g id="patch_18">
    <path d="M 87.354132 390.04 
L 90.087521 390.04 
L 90.087521 -4.661006 
L 87.354132 -4.661006 
z
" clip-path="url(#pd3e859e6cb)" style="fill: #008000"/>
   </g>
   <g id="patch_19">
    <path d="M 90.087521 390.04 
L 92.820909 390.04 
L 92.820909 46.988921 
L 90.087521 46.988921 
z
" clip-path="url(#pd3e859e6cb)" style="fill: #008000"/>
   </g>
   <g id="patch_20">
    <path d="M 92.820909 390.04 
L 95.554298 390.04 
L 95.554298 110.867116 
L 92.820909 110.867116 
z
" clip-path="url(#pd3e859e6cb)" style="fill: #ffa500"/>
   </g>
   <g id="patch_21">
    <path d="M 95.554298 390.04 
L 98.287686 390.04 
L 98.287686 46.071499 
L 95.554298 46.071499 
z
" clip-path="url(#pd3e859e6cb)" style="fill: #008000"/>
   </g>
   <g id="patch_22">
    <path d="M 98.287686 390.04 
L 101.021074 390.04 
L 101.021074 8.322555 
L 98.287686 8.322555 
z
" clip-path="url(#pd3e859e6cb)" style="fill: #008000"/>
   </g>
   <g id="patch_23">
    <path d="M 101.021074 390.04 
L 103.754463 390.04 
L 103.754463 16.826857 
L 101.021074 16.826857 
z
" clip-path="url(#pd3e859e6cb)" style="fill: #008000"/>
   </g>
   <g id="patch_24">
    <path d="M 103.754463 390.04 
L 106.487851 390.04 
L 106.487851 17.743641 
L 103.754463 17.743641 
z
" clip-path="url(#pd3e859e6cb)" style="fill: #008000"/>
   </g>
   <g id="patch_25">
    <path d="M 106.487851 390.04 
L 109.22124 390.04 
L 109.22124 -7.783039 
L 106.487851 -7.783039 
z
" clip-path="url(#pd3e859e6cb)" style="fill: #008000"/>
   </g>
   <g id="patch_26">
    <path d="M 109.22124 390.04 
L 111.954628 390.04 
L 111.954628 113.913163 
L 109.22124 113.913163 
z
" clip-path="url(#pd3e859e6cb)" style="fill: #ffa500"/>
   </g>
   <g id="patch_27">
    <path d="M 111.954628 390.04 
L 114.688017 390.04 
L 114.688017 52.919484 
L 111.954628 52.919484 
z
" clip-path="url(#pd3e859e6cb)" style="fill: #008000"/>
   </g>
   <g id="patch_28">
    <path d="M 114.688017 390.04 
L 117.421405 390.04 
L 117.421405 215.652215 
L 114.688017 215.652215 
z
" clip-path="url(#pd3e859e6cb)" style="fill: #ff0000"/>
   </g>
   <g id="patch_29">
    <path d="M 117.421405 390.04 
L 120.154793 390.04 
L 120.154793 63.621287 
L 117.421405 63.621287 
z
" clip-path="url(#pd3e859e6cb)" style="fill: #008000"/>
   </g>
   <g id="patch_30">
    <path d="M 120.154793 390.04 
L 122.888182 390.04 
L 122.888182 100.136005 
L 120.154793 100.136005 
z
" clip-path="url(#pd3e859e6cb)" style="fill: #ffa500"/>
   </g>
   <g id="patch_31">
    <path d="M 122.888182 390.04 
L 125.62157 390.04 
L 125.62157 -16.94663 
L 122.888182 -16.94663 
z
" clip-path="url(#pd3e859e6cb)" style="fill: #008000"/>
   </g>
   <g id="patch_32">
    <path d="M 125.62157 390.04 
L 128.354959 390.04 
L 128.354959 -62.929336 
L 125.62157 -62.929336 
z
" clip-path="url(#pd3e859e6cb)" style="fill: #008000"/>
   </g>
   <g id="patch_33">
    <path d="M 128.354959 390.04 
L 131.088347 390.04 
L 131.088347 27.471399 
L 128.354959 27.471399 
z
" clip-path="url(#pd3e859e6cb)" style="fill: #008000"/>
   </g>
   <g id="patch_34">
    <path d="M 131.088347 390.04 
L 133.821736 390.04 
L 133.821736 49.294607 
L 131.088347 49.294607 
z
" clip-path="url(#pd3e859e6cb)" style="fill: #008000"/>
   </g>
   <g id="patch_35">
    <path d="M 133.821736 390.04 
L 136.555124 390.04 
L 136.555124 24.371877 
L 133.821736 24.371877 
z
" clip-path="url(#pd3e859e6cb)" style="fill: #008000"/>
   </g>
   <g id="patch_36">
    <path d="M 136.555124 390.04 
L 139.288512 390.04 
L 139.288512 171.632353 
L 136.555124 171.632353 
z
" clip-path="url(#pd3e859e6cb)" style="fill: #ff0000"/>
   </g>
   <g id="patch_37">
    <path d="M 139.288512 390.04 
L 142.021901 390.04 
L 142.021901 115.775297 
L 139.288512 115.775297 
z
" clip-path="url(#pd3e859e6cb)" style="fill: #ffa500"/>
   </g>
   <g id="patch_38">
    <path d="M 142.021901 390.04 
L 144.755289 390.04 
L 144.755289 32.788799 
L 142.021901 32.788799 
z
" clip-path="url(#pd3e859e6cb)" style="fill: #008000"/>
   </g>
   <g id="patch_39">
    <path d="M 144.755289 390.04 
L 147.488678 390.04 
L 147.488678 -30.152382 
L 144.755289 -30.152382 
z
" clip-path="url(#pd3e859e6cb)" style="fill: #008000"/>
   </g>
   <g id="patch_40">
    <path d="M 147.488678 390.04 
L 150.222066 390.04 
L 150.222066 -21.873416 
L 147.488678 -21.873416 
z
" clip-path="url(#pd3e859e6cb)" style="fill: #008000"/>
   </g>
   <g id="patch_41">
    <path d="M 150.222066 390.04 
L 152.955455 390.04 
L 152.955455 57.035449 
L 150.222066 57.035449 
z
" clip-path="url(#pd3e859e6cb)" style="fill: #008000"/>
   </g>
   <g id="patch_42">
    <path d="M 152.955455 390.04 
L 155.688843 390.04 
L 155.688843 5.004453 
L 152.955455 5.004453 
z
" clip-path="url(#pd3e859e6cb)" style="fill: #008000"/>
   </g>
   <g id="patch_43">
    <path d="M 155.688843 390.04 
L 158.422231 390.04 
L 158.422231 -33.516905 
L 155.688843 -33.516905 
z
" clip-path="url(#pd3e859e6cb)" style="fill: #008000"/>
   </g>
   <g id="patch_44">
    <path d="M 158.422231 390.04 
L 161.15562 390.04 
L 161.15562 32.32162 
L 158.422231 32.32162 
z
" clip-path="url(#pd3e859e6cb)" style="fill: #008000"/>
   </g>
   <g id="patch_45">
    <path d="M 161.15562 390.04 
L 163.889008 390.04 
L 163.889008 58.631104 
L 161.15562 58.631104 
z
" clip-path="url(#pd3e859e6cb)" style="fill: #008000"/>
   </g>
   <g id="patch_46">
    <path d="M 163.889008 390.04 
L 166.622397 390.04 
L 166.622397 46.602473 
L 163.889008 46.602473 
z
" clip-path="url(#pd3e859e6cb)" style="fill: #008000"/>
   </g>
   <g id="patch_47">
    <path d="M 166.622397 390.04 
L 169.355785 390.04 
L 169.355785 92.253958 
L 166.622397 92.253958 
z
" clip-path="url(#pd3e859e6cb)" style="fill: #008000"/>
   </g>
   <g id="patch_48">
    <path d="M 169.355785 390.04 
L 172.089174 390.04 
L 172.089174 -32.249662 
L 169.355785 -32.249662 
z
" clip-path="url(#pd3e859e6cb)" style="fill: #008000"/>
   </g>
   <g id="patch_49">
    <path d="M 172.089174 390.04 
L 174.822562 390.04 
L 174.822562 72.961909 
L 172.089174 72.961909 
z
" clip-path="url(#pd3e859e6cb)" style="fill: #008000"/>
   </g>
   <g id="patch_50">
    <path d="M 174.822562 390.04 
L 177.55595 390.04 
L 177.55595 44.845581 
L 174.822562 44.845581 
z
" clip-path="url(#pd3e859e6cb)" style="fill: #008000"/>
   </g>
   <g id="patch_51">
    <path d="M 177.55595 390.04 
L 180.289339 390.04 
L 180.289339 -5.641952 
L 177.55595 -5.641952 
z
" clip-path="url(#pd3e859e6cb)" style="fill: #008000"/>
   </g>
   <g id="patch_52">
    <path d="M 180.289339 390.04 
L 183.022727 390.04 
L 183.022727 62.11198 
L 180.289339 62.11198 
z
" clip-path="url(#pd3e859e6cb)" style="fill: #008000"/>
   </g>
   <g id="patch_53">
    <path d="M 183.022727 390.04 
L 185.756116 390.04 
L 185.756116 7.208143 
L 183.022727 7.208143 
z
" clip-path="url(#pd3e859e6cb)" style="fill: #008000"/>
   </g>
   <g id="patch_54">
    <path d="M 185.756116 390.04 
L 188.489504 390.04 
L 188.489504 34.399671 
L 185.756116 34.399671 
z
" clip-path="url(#pd3e859e6cb)" style="fill: #008000"/>
   </g>
   <g id="patch_55">
    <path d="M 188.489504 390.04 
L 191.222893 390.04 
L 191.222893 -3.79709 
L 188.489504 -3.79709 
z
" clip-path="url(#pd3e859e6cb)" style="fill: #008000"/>
   </g>
   <g id="patch_56">
    <path d="M 191.222893 390.04 
L 193.956281 390.04 
L 193.956281 86.501573 
L 191.222893 86.501573 
z
" clip-path="url(#pd3e859e6cb)" style="fill: #008000"/>
   </g>
   <g id="patch_57">
    <path d="M 193.956281 390.04 
L 196.689669 390.04 
L 196.689669 14.09233 
L 193.956281 14.09233 
z
" clip-path="url(#pd3e859e6cb)" style="fill: #008000"/>
   </g>
   <g id="patch_58">
    <path d="M 196.689669 390.04 
L 199.423058 390.04 
L 199.423058 24.986009 
L 196.689669 24.986009 
z
" clip-path="url(#pd3e859e6cb)" style="fill: #008000"/>
   </g>
   <g id="patch_59">
    <path d="M 199.423058 390.04 
L 202.156446 390.04 
L 202.156446 60.866276 
L 199.423058 60.866276 
z
" clip-path="url(#pd3e859e6cb)" style="fill: #008000"/>
   </g>
   <g id="patch_60">
    <path d="M 202.156446 390.04 
L 204.889835 390.04 
L 204.889835 182.004927 
L 202.156446 182.004927 
z
" clip-path="url(#pd3e859e6cb)" style="fill: #ff0000"/>
   </g>
   <g id="patch_61">
    <path d="M 204.889835 390.04 
L 207.623223 390.04 
L 207.623223 55.577524 
L 204.889835 55.577524 
z
" clip-path="url(#pd3e859e6cb)" style="fill: #008000"/>
   </g>
   <g id="patch_62">
    <path d="M 207.623223 390.04 
L 210.356612 390.04 
L 210.356612 47.252367 
L 207.623223 47.252367 
z
" clip-path="url(#pd3e859e6cb)" style="fill: #008000"/>
   </g>
   <g id="patch_63">
    <path d="M 210.356612 390.04 
L 213.09 390.04 
L 213.09 51.432648 
L 210.356612 51.432648 
z
" clip-path="url(#pd3e859e6cb)" style="fill: #008000"/>
   </g>
   <g id="patch_64">
    <path d="M 213.09 390.04 
L 215.823388 390.04 
L 215.823388 28.078719 
L 213.09 28.078719 
z
" clip-path="url(#pd3e859e6cb)" style="fill: #008000"/>
   </g>
   <g id="patch_65">
    <path d="M 215.823388 390.04 
L 218.556777 390.04 
L 218.556777 202.24615 
L 215.823388 202.24615 
z
" clip-path="url(#pd3e859e6cb)" style="fill: #ff0000"/>
   </g>
   <g id="patch_66">
    <path d="M 218.556777 390.04 
L 221.290165 390.04 
L 221.290165 24.633703 
L 218.556777 24.633703 
z
" clip-path="url(#pd3e859e6cb)" style="fill: #008000"/>
   </g>
   <g id="patch_67">
    <path d="M 221.290165 390.04 
L 224.023554 390.04 
L 224.023554 31.53683 
L 221.290165 31.53683 
z
" clip-path="url(#pd3e859e6cb)" style="fill: #008000"/>
   </g>
   <g id="patch_68">
    <path d="M 224.023554 390.04 
L 226.756942 390.04 
L 226.756942 39.94086 
L 224.023554 39.94086 
z
" clip-path="url(#pd3e859e6cb)" style="fill: #008000"/>
   </g>
   <g id="patch_69">
    <path d="M 226.756942 390.04 
L 229.490331 390.04 
L 229.490331 48.66136 
L 226.756942 48.66136 
z
" clip-path="url(#pd3e859e6cb)" style="fill: #008000"/>
   </g>
   <g id="patch_70">
    <path d="M 229.490331 390.04 
L 232.223719 390.04 
L 232.223719 51.324999 
L 229.490331 51.324999 
z
" clip-path="url(#pd3e859e6cb)" style="fill: #008000"/>
   </g>
   <g id="patch_71">
    <path d="M 232.223719 390.04 
L 234.957107 390.04 
L 234.957107 3.978548 
L 232.223719 3.978548 
z
" clip-path="url(#pd3e859e6cb)" style="fill: #008000"/>
   </g>
   <g id="patch_72">
    <path d="M 234.957107 390.04 
L 237.690496 390.04 
L 237.690496 25.75733 
L 234.957107 25.75733 
z
" clip-path="url(#pd3e859e6cb)" style="fill: #008000"/>
   </g>
   <g id="patch_73">
    <path d="M 237.690496 390.04 
L 240.423884 390.04 
L 240.423884 178.696667 
L 237.690496 178.696667 
z
" clip-path="url(#pd3e859e6cb)" style="fill: #ff0000"/>
   </g>
   <g id="patch_74">
    <path d="M 240.423884 390.04 
L 243.157273 390.04 
L 243.157273 158.32276 
L 240.423884 158.32276 
z
" clip-path="url(#pd3e859e6cb)" style="fill: #ffa500"/>
   </g>
   <g id="patch_75">
    <path d="M 243.157273 390.04 
L 245.890661 390.04 
L 245.890661 70.493596 
L 243.157273 70.493596 
z
" clip-path="url(#pd3e859e6cb)" style="fill: #008000"/>
   </g>
   <g id="patch_76">
    <path d="M 245.890661 390.04 
L 248.62405 390.04 
L 248.62405 68.473196 
L 245.890661 68.473196 
z
" clip-path="url(#pd3e859e6cb)" style="fill: #008000"/>
   </g>
   <g id="patch_77">
    <path d="M 248.62405 390.04 
L 251.357438 390.04 
L 251.357438 10.706207 
L 248.62405 10.706207 
z
" clip-path="url(#pd3e859e6cb)" style="fill: #008000"/>
   </g>
   <g id="patch_78">
    <path d="M 251.357438 390.04 
L 254.090826 390.04 
L 254.090826 16.340846 
L 251.357438 16.340846 
z
" clip-path="url(#pd3e859e6cb)" style="fill: #008000"/>
   </g>
   <g id="patch_79">
    <path d="M 254.090826 390.04 
L 256.824215 390.04 
L 256.824215 2.407498 
L 254.090826 2.407498 
z
" clip-path="url(#pd3e859e6cb)" style="fill: #008000"/>
   </g>
   <g id="patch_80">
    <path d="M 256.824215 390.04 
L 259.557603 390.04 
L 259.557603 21.017399 
L 256.824215 21.017399 
z
" clip-path="url(#pd3e859e6cb)" style="fill: #008000"/>
   </g>
   <g id="patch_81">
    <path d="M 259.557603 390.04 
L 262.290992 390.04 
L 262.290992 98.46446 
L 259.557603 98.46446 
z
" clip-path="url(#pd3e859e6cb)" style="fill: #008000"/>
   </g>
   <g id="patch_82">
    <path d="M 262.290992 390.04 
L 265.02438 390.04 
L 265.02438 72.605706 
L 262.290992 72.605706 
z
" clip-path="url(#pd3e859e6cb)" style="fill: #008000"/>
   </g>
   <g id="patch_83">
    <path d="M 265.02438 390.04 
L 267.757769 390.04 
L 267.757769 40.551442 
L 265.02438 40.551442 
z
" clip-path="url(#pd3e859e6cb)" style="fill: #008000"/>
   </g>
   <g id="patch_84">
    <path d="M 267.757769 390.04 
L 270.491157 390.04 
L 270.491157 31.416189 
L 267.757769 31.416189 
z
" clip-path="url(#pd3e859e6cb)" style="fill: #008000"/>
   </g>
   <g id="patch_85">
    <path d="M 270.491157 390.04 
L 273.224545 390.04 
L 273.224545 35.650964 
L 270.491157 35.650964 
z
" clip-path="url(#pd3e859e6cb)" style="fill: #008000"/>
   </g>
   <g id="patch_86">
    <path d="M 273.224545 390.04 
L 275.957934 390.04 
L 275.957934 22.638922 
L 273.224545 22.638922 
z
" clip-path="url(#pd3e859e6cb)" style="fill: #008000"/>
   </g>
   <g id="patch_87">
    <path d="M 275.957934 390.04 
L 278.691322 390.04 
L 278.691322 40.082623 
L 275.957934 40.082623 
z
" clip-path="url(#pd3e859e6cb)" style="fill: #008000"/>
   </g>
   <g id="patch_88">
    <path d="M 278.691322 390.04 
L 281.424711 390.04 
L 281.424711 34.942804 
L 278.691322 34.942804 
z
" clip-path="url(#pd3e859e6cb)" style="fill: #008000"/>
   </g>
   <g id="patch_89">
    <path d="M 281.424711 390.04 
L 284.158099 390.04 
L 284.158099 28.226571 
L 281.424711 28.226571 
z
" clip-path="url(#pd3e859e6cb)" style="fill: #008000"/>
   </g>
   <g id="patch_90">
    <path d="M 284.158099 390.04 
L 286.891488 390.04 
L 286.891488 57.268046 
L 284.158099 57.268046 
z
" clip-path="url(#pd3e859e6cb)" style="fill: #008000"/>
   </g>
   <g id="patch_91">
    <path d="M 286.891488 390.04 
L 289.624876 390.04 
L 289.624876 28.504938 
L 286.891488 28.504938 
z
" clip-path="url(#pd3e859e6cb)" style="fill: #008000"/>
   </g>
   <g id="patch_92">
    <path d="M 289.624876 390.04 
L 292.358264 390.04 
L 292.358264 -19.390858 
L 289.624876 -19.390858 
z
" clip-path="url(#pd3e859e6cb)" style="fill: #008000"/>
   </g>
   <g id="patch_93">
    <path d="M 292.358264 390.04 
L 295.091653 390.04 
L 295.091653 -11.433055 
L 292.358264 -11.433055 
z
" clip-path="url(#pd3e859e6cb)" style="fill: #008000"/>
   </g>
   <g id="patch_94">
    <path d="M 295.091653 390.04 
L 297.825041 390.04 
L 297.825041 -5.811273 
L 295.091653 -5.811273 
z
" clip-path="url(#pd3e859e6cb)" style="fill: #008000"/>
   </g>
   <g id="patch_95">
    <path d="M 297.825041 390.04 
L 300.55843 390.04 
L 300.55843 53.274877 
L 297.825041 53.274877 
z
" clip-path="url(#pd3e859e6cb)" style="fill: #008000"/>
   </g>
   <g id="patch_96">
    <path d="M 300.55843 390.04 
L 303.291818 390.04 
L 303.291818 149.775158 
L 300.55843 149.775158 
z
" clip-path="url(#pd3e859e6cb)" style="fill: #ffa500"/>
   </g>
   <g id="patch_97">
    <path d="M 303.291818 390.04 
L 306.025207 390.04 
L 306.025207 40.942613 
L 303.291818 40.942613 
z
" clip-path="url(#pd3e859e6cb)" style="fill: #008000"/>
   </g>
   <g id="patch_98">
    <path d="M 306.025207 390.04 
L 308.758595 390.04 
L 308.758595 49.024808 
L 306.025207 49.024808 
z
" clip-path="url(#pd3e859e6cb)" style="fill: #008000"/>
   </g>
   <g id="patch_99">
    <path d="M 308.758595 390.04 
L 311.491983 390.04 
L 311.491983 -24.916487 
L 308.758595 -24.916487 
z
" clip-path="url(#pd3e859e6cb)" style="fill: #008000"/>
   </g>
   <g id="patch_100">
    <path d="M 311.491983 390.04 
L 314.225372 390.04 
L 314.225372 8.359569 
L 311.491983 8.359569 
z
" clip-path="url(#pd3e859e6cb)" style="fill: #008000"/>
   </g>
   <g id="patch_101">
    <path d="M 314.225372 390.04 
L 316.95876 390.04 
L 316.95876 67.628576 
L 314.225372 67.628576 
z
" clip-path="url(#pd3e859e6cb)" style="fill: #008000"/>
   </g>
   <g id="patch_102">
    <path d="M 316.95876 390.04 
L 319.692149 390.04 
L 319.692149 177.067905 
L 316.95876 177.067905 
z
" clip-path="url(#pd3e859e6cb)" style="fill: #ff0000"/>
   </g>
   <g id="patch_103">
    <path d="M 319.692149 390.04 
L 322.425537 390.04 
L 322.425537 17.22221 
L 319.692149 17.22221 
z
" clip-path="url(#pd3e859e6cb)" style="fill: #008000"/>
   </g>
   <g id="patch_104">
    <path d="M 322.425537 390.04 
L 325.158926 390.04 
L 325.158926 59.884792 
L 322.425537 59.884792 
z
" clip-path="url(#pd3e859e6cb)" style="fill: #008000"/>
   </g>
   <g id="patch_105">
    <path d="M 325.158926 390.04 
L 327.892314 390.04 
L 327.892314 21.797007 
L 325.158926 21.797007 
z
" clip-path="url(#pd3e859e6cb)" style="fill: #008000"/>
   </g>
   <g id="patch_106">
    <path d="M 327.892314 390.04 
L 330.625702 390.04 
L 330.625702 44.570407 
L 327.892314 44.570407 
z
" clip-path="url(#pd3e859e6cb)" style="fill: #008000"/>
   </g>
   <g id="patch_107">
    <path d="M 330.625702 390.04 
L 333.359091 390.04 
L 333.359091 0.557046 
L 330.625702 0.557046 
z
" clip-path="url(#pd3e859e6cb)" style="fill: #008000"/>
   </g>
   <g id="patch_108">
    <path d="M 333.359091 390.04 
L 336.092479 390.04 
L 336.092479 9.999652 
L 333.359091 9.999652 
z
" clip-path="url(#pd3e859e6cb)" style="fill: #008000"/>
   </g>
   <g id="patch_109">
    <path d="M 336.092479 390.04 
L 338.825868 390.04 
L 338.825868 120.330677 
L 336.092479 120.330677 
z
" clip-path="url(#pd3e859e6cb)" style="fill: #ffa500"/>
   </g>
   <g id="patch_110">
    <path d="M 338.825868 390.04 
L 341.559256 390.04 
L 341.559256 15.392586 
L 338.825868 15.392586 
z
" clip-path="url(#pd3e859e6cb)" style="fill: #008000"/>
   </g>
   <g id="patch_111">
    <path d="M 341.559256 390.04 
L 344.292645 390.04 
L 344.292645 129.90119 
L 341.559256 129.90119 
z
" clip-path="url(#pd3e859e6cb)" style="fill: #ffa500"/>
   </g>
   <g id="patch_112">
    <path d="M 344.292645 390.04 
L 347.026033 390.04 
L 347.026033 9.052873 
L 344.292645 9.052873 
z
" clip-path="url(#pd3e859e6cb)" style="fill: #008000"/>
   </g>
   <g id="patch_113">
    <path d="M 347.026033 390.04 
L 349.759421 390.04 
L 349.759421 40.968051 
L 347.026033 40.968051 
z
" clip-path="url(#pd3e859e6cb)" style="fill: #008000"/>
   </g>
   <g id="patch_114">
    <path d="M 349.759421 390.04 
L 352.49281 390.04 
L 352.49281 12.00854 
L 349.759421 12.00854 
z
" clip-path="url(#pd3e859e6cb)" style="fill: #008000"/>
   </g>
   <g id="patch_115">
    <path d="M 352.49281 390.04 
L 355.226198 390.04 
L 355.226198 12.771435 
L 352.49281 12.771435 
z
" clip-path="url(#pd3e859e6cb)" style="fill: #008000"/>
   </g>
   <g id="patch_116">
    <path d="M 355.226198 390.04 
L 357.959587 390.04 
L 357.959587 -1.070164 
L 355.226198 -1.070164 
z
" clip-path="url(#pd3e859e6cb)" style="fill: #008000"/>
   </g>
   <g id="patch_117">
    <path d="M 357.959587 390.04 
L 360.692975 390.04 
L 360.692975 -3.364695 
L 357.959587 -3.364695 
z
" clip-path="url(#pd3e859e6cb)" style="fill: #008000"/>
   </g>
   <g id="patch_118">
    <path d="M 360.692975 390.04 
L 363.426364 390.04 
L 363.426364 78.442456 
L 360.692975 78.442456 
z
" clip-path="url(#pd3e859e6cb)" style="fill: #008000"/>
   </g>
   <g id="patch_119">
    <path d="M 363.426364 390.04 
L 366.159752 390.04 
L 366.159752 46.499459 
L 363.426364 46.499459 
z
" clip-path="url(#pd3e859e6cb)" style="fill: #008000"/>
   </g>
   <g id="patch_120">
    <path d="M 366.159752 390.04 
L 368.89314 390.04 
L 368.89314 18.744648 
L 366.159752 18.744648 
z
" clip-path="url(#pd3e859e6cb)" style="fill: #008000"/>
   </g>
   <g id="patch_121">
    <path d="M 368.89314 390.04 
L 371.626529 390.04 
L 371.626529 32.878008 
L 368.89314 32.878008 
z
" clip-path="url(#pd3e859e6cb)" style="fill: #008000"/>
   </g>
   <g id="patch_122">
    <path d="M 371.626529 390.04 
L 374.359917 390.04 
L 374.359917 26.288601 
L 371.626529 26.288601 
z
" clip-path="url(#pd3e859e6cb)" style="fill: #008000"/>
   </g>
   <g id="patch_123">
    <path d="M 374.359917 390.04 
L 377.093306 390.04 
L 377.093306 185.476892 
L 374.359917 185.476892 
z
" clip-path="url(#pd3e859e6cb)" style="fill: #ff0000"/>
   </g>
   <g id="patch_124">
    <path d="M 377.093306 390.04 
L 379.826694 390.04 
L 379.826694 53.80668 
L 377.093306 53.80668 
z
" clip-path="url(#pd3e859e6cb)" style="fill: #008000"/>
   </g>
   <g id="patch_125">
    <path d="M 379.826694 390.04 
L 382.560083 390.04 
L 382.560083 21.610969 
L 379.826694 21.610969 
z
" clip-path="url(#pd3e859e6cb)" style="fill: #008000"/>
   </g>
   <g id="patch_126">
    <path d="M 382.560083 390.04 
L 385.293471 390.04 
L 385.293471 11.058793 
L 382.560083 11.058793 
z
" clip-path="url(#pd3e859e6cb)" style="fill: #008000"/>
   </g>
   <g id="patch_127">
    <path d="M 385.293471 390.04 
L 388.02686 390.04 
L 388.02686 35.482656 
L 385.293471 35.482656 
z
" clip-path="url(#pd3e859e6cb)" style="fill: #008000"/>
   </g>
   <g id="patch_128">
    <path d="M 388.02686 390.04 
L 390.760248 390.04 
L 390.760248 25.075354 
L 388.02686 25.075354 
z
" clip-path="url(#pd3e859e6cb)" style="fill: #008000"/>
   </g>
   <g id="patch_129">
    <path d="M 390.760248 390.04 
L 393.493636 390.04 
L 393.493636 20.50113 
L 390.760248 20.50113 
z
" clip-path="url(#pd3e859e6cb)" style="fill: #008000"/>
   </g>
   <g id="patch_130">
    <path d="M 393.493636 390.04 
L 396.227025 390.04 
L 396.227025 2.45845 
L 393.493636 2.45845 
z
" clip-path="url(#pd3e859e6cb)" style="fill: #008000"/>
   </g>
   <g id="patch_131">
    <path d="M 396.227025 390.04 
L 398.960413 390.04 
L 398.960413 29.147902 
L 396.227025 29.147902 
z
" clip-path="url(#pd3e859e6cb)" style="fill: #008000"/>
   </g>
   <g id="patch_132">
    <path d="M 398.960413 390.04 
L 401.693802 390.04 
L 401.693802 -6.857366 
L 398.960413 -6.857366 
z
" clip-path="url(#pd3e859e6cb)" style="fill: #008000"/>
   </g>
   <g id="patch_133">
    <path d="M 401.693802 390.04 
L 404.42719 390.04 
L 404.42719 66.30225 
L 401.693802 66.30225 
z
" clip-path="url(#pd3e859e6cb)" style="fill: #008000"/>
   </g>
   <g id="patch_134">
    <path d="M 404.42719 390.04 
L 407.160579 390.04 
L 407.160579 39.67173 
L 404.42719 39.67173 
z
" clip-path="url(#pd3e859e6cb)" style="fill: #008000"/>
   </g>
   <g id="patch_135">
    <path d="M 407.160579 390.04 
L 409.893967 390.04 
L 409.893967 53.123148 
L 407.160579 53.123148 
z
" clip-path="url(#pd3e859e6cb)" style="fill: #008000"/>
   </g>
   <g id="patch_136">
    <path d="M 409.893967 390.04 
L 412.627355 390.04 
L 412.627355 41.470571 
L 409.893967 41.470571 
z
" clip-path="url(#pd3e859e6cb)" style="fill: #008000"/>
   </g>
   <g id="patch_137">
    <path d="M 412.627355 390.04 
L 415.360744 390.04 
L 415.360744 36.661864 
L 412.627355 36.661864 
z
" clip-path="url(#pd3e859e6cb)" style="fill: #008000"/>
   </g>
   <g id="patch_138">
    <path d="M 415.360744 390.04 
L 418.094132 390.04 
L 418.094132 40.511285 
L 415.360744 40.511285 
z
" clip-path="url(#pd3e859e6cb)" style="fill: #008000"/>
   </g>
   <g id="patch_139">
    <path d="M 418.094132 390.04 
L 420.827521 390.04 
L 420.827521 1.527855 
L 418.094132 1.527855 
z
" clip-path="url(#pd3e859e6cb)" style="fill: #008000"/>
   </g>
   <g id="patch_140">
    <path d="M 420.827521 390.04 
L 423.560909 390.04 
L 423.560909 11.459987 
L 420.827521 11.459987 
z
" clip-path="url(#pd3e859e6cb)" style="fill: #008000"/>
   </g>
   <g id="patch_141">
    <path d="M 423.560909 390.04 
L 426.294298 390.04 
L 426.294298 65.247422 
L 423.560909 65.247422 
z
" clip-path="url(#pd3e859e6cb)" style="fill: #008000"/>
   </g>
   <g id="patch_142">
    <path d="M 426.294298 390.04 
L 429.027686 390.04 
L 429.027686 69.830562 
L 426.294298 69.830562 
z
" clip-path="url(#pd3e859e6cb)" style="fill: #008000"/>
   </g>
   <g id="patch_143">
    <path d="M 429.027686 390.04 
L 431.761074 390.04 
L 431.761074 4.923531 
L 429.027686 4.923531 
z
" clip-path="url(#pd3e859e6cb)" style="fill: #008000"/>
   </g>
   <g id="patch_144">
    <path d="M 431.761074 390.04 
L 434.494463 390.04 
L 434.494463 38.308208 
L 431.761074 38.308208 
z
" clip-path="url(#pd3e859e6cb)" style="fill: #008000"/>
   </g>
   <g id="patch_145">
    <path d="M 434.494463 390.04 
L 437.227851 390.04 
L 437.227851 -25.648213 
L 434.494463 -25.648213 
z
" clip-path="url(#pd3e859e6cb)" style="fill: #008000"/>
   </g>
   <g id="patch_146">
    <path d="M 437.227851 390.04 
L 439.96124 390.04 
L 439.96124 84.808695 
L 437.227851 84.808695 
z
" clip-path="url(#pd3e859e6cb)" style="fill: #008000"/>
   </g>
   <g id="patch_147">
    <path d="M 439.96124 390.04 
L 442.694628 390.04 
L 442.694628 24.810592 
L 439.96124 24.810592 
z
" clip-path="url(#pd3e859e6cb)" style="fill: #008000"/>
   </g>
   <g id="patch_148">
    <path d="M 442.694628 390.04 
L 445.428017 390.04 
L 445.428017 32.463326 
L 442.694628 32.463326 
z
" clip-path="url(#pd3e859e6cb)" style="fill: #008000"/>
   </g>
   <g id="patch_149">
    <path d="M 445.428017 390.04 
L 448.161405 390.04 
L 448.161405 40.199345 
L 445.428017 40.199345 
z
" clip-path="url(#pd3e859e6cb)" style="fill: #008000"/>
   </g>
   <g id="patch_150">
    <path d="M 448.161405 390.04 
L 450.894793 390.04 
L 450.894793 38.658424 
L 448.161405 38.658424 
z
" clip-path="url(#pd3e859e6cb)" style="fill: #008000"/>
   </g>
   <g id="patch_151">
    <path d="M 450.894793 390.04 
L 453.628182 390.04 
L 453.628182 55.073081 
L 450.894793 55.073081 
z
" clip-path="url(#pd3e859e6cb)" style="fill: #008000"/>
   </g>
   <g id="patch_152">
    <path d="M 453.628182 390.04 
L 456.36157 390.04 
L 456.36157 29.179587 
L 453.628182 29.179587 
z
" clip-path="url(#pd3e859e6cb)" style="fill: #008000"/>
   </g>
   <g id="patch_153">
    <path d="M 456.36157 390.04 
L 459.094959 390.04 
L 459.094959 46.096671 
L 456.36157 46.096671 
z
" clip-path="url(#pd3e859e6cb)" style="fill: #008000"/>
   </g>
   <g id="patch_154">
    <path d="M 459.094959 390.04 
L 461.828347 390.04 
L 461.828347 66.161156 
L 459.094959 66.161156 
z
" clip-path="url(#pd3e859e6cb)" style="fill: #008000"/>
   </g>
   <g id="patch_155">
    <path d="M 461.828347 390.04 
L 464.561736 390.04 
L 464.561736 49.623147 
L 461.828347 49.623147 
z
" clip-path="url(#pd3e859e6cb)" style="fill: #008000"/>
   </g>
   <g id="patch_156">
    <path d="M 464.561736 390.04 
L 467.295124 390.04 
L 467.295124 1.355241 
L 464.561736 1.355241 
z
" clip-path="url(#pd3e859e6cb)" style="fill: #008000"/>
   </g>
   <g id="patch_157">
    <path d="M 467.295124 390.04 
L 470.028512 390.04 
L 470.028512 158.439352 
L 467.295124 158.439352 
z
" clip-path="url(#pd3e859e6cb)" style="fill: #ffa500"/>
   </g>
   <g id="patch_158">
    <path d="M 470.028512 390.04 
L 472.761901 390.04 
L 472.761901 20.21434 
L 470.028512 20.21434 
z
" clip-path="url(#pd3e859e6cb)" style="fill: #008000"/>
   </g>
   <g id="patch_159">
    <path d="M 472.761901 390.04 
L 475.495289 390.04 
L 475.495289 -6.93847 
L 472.761901 -6.93847 
z
" clip-path="url(#pd3e859e6cb)" style="fill: #008000"/>
   </g>
   <g id="patch_160">
    <path d="M 475.495289 390.04 
L 478.228678 390.04 
L 478.228678 53.92324 
L 475.495289 53.92324 
z
" clip-path="url(#pd3e859e6cb)" style="fill: #008000"/>
   </g>
   <g id="patch_161">
    <path d="M 478.228678 390.04 
L 480.962066 390.04 
L 480.962066 54.263217 
L 478.228678 54.263217 
z
" clip-path="url(#pd3e859e6cb)" style="fill: #008000"/>
   </g>
   <g id="patch_162">
    <path d="M 480.962066 390.04 
L 483.695455 390.04 
L 483.695455 66.385107 
L 480.962066 66.385107 
z
" clip-path="url(#pd3e859e6cb)" style="fill: #008000"/>
   </g>
   <g id="patch_163">
    <path d="M 483.695455 390.04 
L 486.428843 390.04 
L 486.428843 5.49575 
L 483.695455 5.49575 
z
" clip-path="url(#pd3e859e6cb)" style="fill: #008000"/>
   </g>
   <g id="patch_164">
    <path d="M 486.428843 390.04 
L 489.162231 390.04 
L 489.162231 68.428551 
L 486.428843 68.428551 
z
" clip-path="url(#pd3e859e6cb)" style="fill: #008000"/>
   </g>
   <g id="patch_165">
    <path d="M 489.162231 390.04 
L 491.89562 390.04 
L 491.89562 15.137121 
L 489.162231 15.137121 
z
" clip-path="url(#pd3e859e6cb)" style="fill: #008000"/>
   </g>
   <g id="patch_166">
    <path d="M 491.89562 390.04 
L 494.629008 390.04 
L 494.629008 -16.636304 
L 491.89562 -16.636304 
z
" clip-path="url(#pd3e859e6cb)" style="fill: #008000"/>
   </g>
   <g id="patch_167">
    <path d="M 494.629008 390.04 
L 497.362397 390.04 
L 497.362397 -17.799672 
L 494.629008 -17.799672 
z
" clip-path="url(#pd3e859e6cb)" style="fill: #008000"/>
   </g>
   <g id="patch_168">
    <path d="M 497.362397 390.04 
L 500.095785 390.04 
L 500.095785 3.409187 
L 497.362397 3.409187 
z
" clip-path="url(#pd3e859e6cb)" style="fill: #008000"/>
   </g>
   <g id="patch_169">
    <path d="M 500.095785 390.04 
L 502.829174 390.04 
L 502.829174 10.045573 
L 500.095785 10.045573 
z
" clip-path="url(#pd3e859e6cb)" style="fill: #008000"/>
   </g>
   <g id="patch_170">
    <path d="M 502.829174 390.04 
L 505.562562 390.04 
L 505.562562 23.091134 
L 502.829174 23.091134 
z
" clip-path="url(#pd3e859e6cb)" style="fill: #008000"/>
   </g>
   <g id="patch_171">
    <path d="M 505.562562 390.04 
L 508.29595 390.04 
L 508.29595 30.985451 
L 505.562562 30.985451 
z
" clip-path="url(#pd3e859e6cb)" style="fill: #008000"/>
   </g>
   <g id="patch_172">
    <path d="M 508.29595 390.04 
L 511.029339 390.04 
L 511.029339 63.815452 
L 508.29595 63.815452 
z
" clip-path="url(#pd3e859e6cb)" style="fill: #008000"/>
   </g>
   <g id="patch_173">
    <path d="M 511.029339 390.04 
L 513.762727 390.04 
L 513.762727 55.459801 
L 511.029339 55.459801 
z
" clip-path="url(#pd3e859e6cb)" style="fill: #008000"/>
   </g>
   <g id="patch_174">
    <path d="M 513.762727 390.04 
L 516.496116 390.04 
L 516.496116 34.784243 
L 513.762727 34.784243 
z
" clip-path="url(#pd3e859e6cb)" style="fill: #008000"/>
   </g>
   <g id="patch_175">
    <path d="M 516.496116 390.04 
L 519.229504 390.04 
L 519.229504 42.098422 
L 516.496116 42.098422 
z
" clip-path="url(#pd3e859e6cb)" style="fill: #008000"/>
   </g>
   <g id="patch_176">
    <path d="M 519.229504 390.04 
L 521.962893 390.04 
L 521.962893 54.285119 
L 519.229504 54.285119 
z
" clip-path="url(#pd3e859e6cb)" style="fill: #008000"/>
   </g>
   <g id="patch_177">
    <path d="M 521.962893 390.04 
L 524.696281 390.04 
L 524.696281 169.219664 
L 521.962893 169.219664 
z
" clip-path="url(#pd3e859e6cb)" style="fill: #ff0000"/>
   </g>
   <g id="patch_178">
    <path d="M 524.696281 390.04 
L 527.429669 390.04 
L 527.429669 -31.014196 
L 524.696281 -31.014196 
z
" clip-path="url(#pd3e859e6cb)" style="fill: #008000"/>
   </g>
   <g id="patch_179">
    <path d="M 527.429669 390.04 
L 530.163058 390.04 
L 530.163058 55.59929 
L 527.429669 55.59929 
z
" clip-path="url(#pd3e859e6cb)" style="fill: #008000"/>
   </g>
   <g id="patch_180">
    <path d="M 530.163058 390.04 
L 532.896446 390.04 
L 532.896446 40.294634 
L 530.163058 40.294634 
z
" clip-path="url(#pd3e859e6cb)" style="fill: #008000"/>
   </g>
   <g id="patch_181">
    <path d="M 532.896446 390.04 
L 535.629835 390.04 
L 535.629835 4.753932 
L 532.896446 4.753932 
z
" clip-path="url(#pd3e859e6cb)" style="fill: #008000"/>
   </g>
   <g id="patch_182">
    <path d="M 535.629835 390.04 
L 538.363223 390.04 
L 538.363223 2.419234 
L 535.629835 2.419234 
z
" clip-path="url(#pd3e859e6cb)" style="fill: #008000"/>
   </g>
   <g id="patch_183">
    <path d="M 538.363223 390.04 
L 541.096612 390.04 
L 541.096612 -87.329057 
L 538.363223 -87.329057 
z
" clip-path="url(#pd3e859e6cb)" style="fill: #008000"/>
   </g>
   <g id="patch_184">
    <path d="M 541.096612 390.04 
L 543.83 390.04 
L 543.83 -110.68281 
L 541.096612 -110.68281 
z
" clip-path="url(#pd3e859e6cb)" style="fill: #008000"/>
   </g>
   <g id="patch_185">
    <path d="M 543.83 390.04 
L 546.563388 390.04 
L 546.563388 -71.364458 
L 543.83 -71.364458 
z
" clip-path="url(#pd3e859e6cb)" style="fill: #008000"/>
   </g>
   <g id="patch_186">
    <path d="M 546.563388 390.04 
L 549.296777 390.04 
L 549.296777 -81.045138 
L 546.563388 -81.045138 
z
" clip-path="url(#pd3e859e6cb)" style="fill: #008000"/>
   </g>
   <g id="patch_187">
    <path d="M 549.296777 390.04 
L 552.030165 390.04 
L 552.030165 -76.172245 
L 549.296777 -76.172245 
z
" clip-path="url(#pd3e859e6cb)" style="fill: #008000"/>
   </g>
   <g id="patch_188">
    <path d="M 552.030165 390.04 
L 554.763554 390.04 
L 554.763554 -84.596299 
L 552.030165 -84.596299 
z
" clip-path="url(#pd3e859e6cb)" style="fill: #008000"/>
   </g>
   <g id="patch_189">
    <path d="M 554.763554 390.04 
L 557.496942 390.04 
L 557.496942 -104.004079 
L 554.763554 -104.004079 
z
" clip-path="url(#pd3e859e6cb)" style="fill: #008000"/>
   </g>
   <g id="patch_190">
    <path d="M 557.496942 390.04 
L 560.230331 390.04 
L 560.230331 -62.253271 
L 557.496942 -62.253271 
z
" clip-path="url(#pd3e859e6cb)" style="fill: #008000"/>
   </g>
   <g id="patch_191">
    <path d="M 560.230331 390.04 
L 562.963719 390.04 
L 562.963719 -66.747306 
L 560.230331 -66.747306 
z
" clip-path="url(#pd3e859e6cb)" style="fill: #008000"/>
   </g>
   <g id="patch_192">
    <path d="M 562.963719 390.04 
L 565.697107 390.04 
L 565.697107 -8.358673 
L 562.963719 -8.358673 
z
" clip-path="url(#pd3e859e6cb)" style="fill: #008000"/>
   </g>
   <g id="patch_193">
    <path d="M 565.697107 390.04 
L 568.430496 390.04 
L 568.430496 -78.797507 
L 565.697107 -78.797507 
z
" clip-path="url(#pd3e859e6cb)" style="fill: #008000"/>
   </g>
   <g id="patch_194">
    <path d="M 568.430496 390.04 
L 571.163884 390.04 
L 571.163884 -39.792562 
L 568.430496 -39.792562 
z
" clip-path="url(#pd3e859e6cb)" style="fill: #008000"/>
   </g>
   <g id="patch_195">
    <path d="M 571.163884 390.04 
L 573.897273 390.04 
L 573.897273 -53.937348 
L 571.163884 -53.937348 
z
" clip-path="url(#pd3e859e6cb)" style="fill: #008000"/>
   </g>
   <g id="patch_196">
    <path d="M 573.897273 390.04 
L 576.630661 390.04 
L 576.630661 -61.652686 
L 573.897273 -61.652686 
z
" clip-path="url(#pd3e859e6cb)" style="fill: #008000"/>
   </g>
   <g id="patch_197">
    <path d="M 576.630661 390.04 
L 579.36405 390.04 
L 579.36405 42.149559 
L 576.630661 42.149559 
z
" clip-path="url(#pd3e859e6cb)" style="fill: #008000"/>
   </g>
   <g id="patch_198">
    <path d="M 579.36405 390.04 
L 582.097438 390.04 
L 582.097438 -52.373575 
L 579.36405 -52.373575 
z
" clip-path="url(#pd3e859e6cb)" style="fill: #008000"/>
   </g>
   <g id="patch_199">
    <path d="M 582.097438 390.04 
L 584.830826 390.04 
L 584.830826 -74.533956 
L 582.097438 -74.533956 
z
" clip-path="url(#pd3e859e6cb)" style="fill: #008000"/>
   </g>
   <g id="patch_200">
    <path d="M 584.830826 390.04 
L 587.564215 390.04 
L 587.564215 -7.27447 
L 584.830826 -7.27447 
z
" clip-path="url(#pd3e859e6cb)" style="fill: #008000"/>
   </g>
   <g id="patch_201">
    <path d="M 587.564215 390.04 
L 590.297603 390.04 
L 590.297603 -64.459651 
L 587.564215 -64.459651 
z
" clip-path="url(#pd3e859e6cb)" style="fill: #008000"/>
   </g>
   <g id="patch_202">
    <path d="M 590.297603 390.04 
L 593.030992 390.04 
L 593.030992 -8.900917 
L 590.297603 -8.900917 
z
" clip-path="url(#pd3e859e6cb)" style="fill: #008000"/>
   </g>
   <g id="patch_203">
    <path d="M 593.030992 390.04 
L 595.76438 390.04 
L 595.76438 -44.344818 
L 593.030992 -44.344818 
z
" clip-path="url(#pd3e859e6cb)" style="fill: #008000"/>
   </g>
   <g id="patch_204">
    <path d="M 595.76438 390.04 
L 598.497769 390.04 
L 598.497769 -50.950889 
L 595.76438 -50.950889 
z
" clip-path="url(#pd3e859e6cb)" style="fill: #008000"/>
   </g>
   <g id="patch_205">
    <path d="M 598.497769 390.04 
L 601.231157 390.04 
L 601.231157 35.63259 
L 598.497769 35.63259 
z
" clip-path="url(#pd3e859e6cb)" style="fill: #008000"/>
   </g>
   <g id="patch_206">
    <path d="M 601.231157 390.04 
L 603.964545 390.04 
L 603.964545 47.691007 
L 601.231157 47.691007 
z
" clip-path="url(#pd3e859e6cb)" style="fill: #008000"/>
   </g>
   <g id="patch_207">
    <path d="M 603.964545 390.04 
L 606.697934 390.04 
L 606.697934 29.738236 
L 603.964545 29.738236 
z
" clip-path="url(#pd3e859e6cb)" style="fill: #008000"/>
   </g>
   <g id="patch_208">
    <path d="M 606.697934 390.04 
L 609.431322 390.04 
L 609.431322 -114.27761 
L 606.697934 -114.27761 
z
" clip-path="url(#pd3e859e6cb)" style="fill: #008000"/>
   </g>
   <g id="patch_209">
    <path d="M 609.431322 390.04 
L 612.164711 390.04 
L 612.164711 -108.094542 
L 609.431322 -108.094542 
z
" clip-path="url(#pd3e859e6cb)" style="fill: #008000"/>
   </g>
   <g id="patch_210">
    <path d="M 612.164711 390.04 
L 614.898099 390.04 
L 614.898099 -133.576668 
L 612.164711 -133.576668 
z
" clip-path="url(#pd3e859e6cb)" style="fill: #008000"/>
   </g>
   <g id="patch_211">
    <path d="M 614.898099 390.04 
L 617.631488 390.04 
L 617.631488 -141.301361 
L 614.898099 -141.301361 
z
" clip-path="url(#pd3e859e6cb)" style="fill: #008000"/>
   </g>
   <g id="patch_212">
    <path d="M 617.631488 390.04 
L 620.364876 390.04 
L 620.364876 -229.549797 
L 617.631488 -229.549797 
z
" clip-path="url(#pd3e859e6cb)" style="fill: #008000"/>
   </g>
   <g id="patch_213">
    <path d="M 620.364876 390.04 
L 623.098264 390.04 
L 623.098264 6.144993 
L 620.364876 6.144993 
z
" clip-path="url(#pd3e859e6cb)" style="fill: #008000"/>
   </g>
   <g id="patch_214">
    <path d="M 623.098264 390.04 
L 625.831653 390.04 
L 625.831653 -36.809192 
L 623.098264 -36.809192 
z
" clip-path="url(#pd3e859e6cb)" style="fill: #008000"/>
   </g>
   <g id="patch_215">
    <path d="M 625.831653 390.04 
L 628.565041 390.04 
L 628.565041 -22.861756 
L 625.831653 -22.861756 
z
" clip-path="url(#pd3e859e6cb)" style="fill: #008000"/>
   </g>
   <g id="patch_216">
    <path d="M 628.565041 390.04 
L 631.29843 390.04 
L 631.29843 57.642235 
L 628.565041 57.642235 
z
" clip-path="url(#pd3e859e6cb)" style="fill: #008000"/>
   </g>
   <g id="patch_217">
    <path d="M 631.29843 390.04 
L 634.031818 390.04 
L 634.031818 -41.652944 
L 631.29843 -41.652944 
z
" clip-path="url(#pd3e859e6cb)" style="fill: #008000"/>
   </g>
   <g id="patch_218">
    <path d="M 634.031818 390.04 
L 636.765207 390.04 
L 636.765207 19.697569 
L 634.031818 19.697569 
z
" clip-path="url(#pd3e859e6cb)" style="fill: #008000"/>
   </g>
   <g id="patch_219">
    <path d="M 636.765207 390.04 
L 639.498595 390.04 
L 639.498595 50.140855 
L 636.765207 50.140855 
z
" clip-path="url(#pd3e859e6cb)" style="fill: #008000"/>
   </g>
   <g id="patch_220">
    <path d="M 639.498595 390.04 
L 642.231983 390.04 
L 642.231983 54.220629 
L 639.498595 54.220629 
z
" clip-path="url(#pd3e859e6cb)" style="fill: #008000"/>
   </g>
   <g id="patch_221">
    <path d="M 642.231983 390.04 
L 644.965372 390.04 
L 644.965372 23.023611 
L 642.231983 23.023611 
z
" clip-path="url(#pd3e859e6cb)" style="fill: #008000"/>
   </g>
   <g id="patch_222">
    <path d="M 644.965372 390.04 
L 647.69876 390.04 
L 647.69876 25.202561 
L 644.965372 25.202561 
z
" clip-path="url(#pd3e859e6cb)" style="fill: #008000"/>
   </g>
   <g id="patch_223">
    <path d="M 647.69876 390.04 
L 650.432149 390.04 
L 650.432149 42.722934 
L 647.69876 42.722934 
z
" clip-path="url(#pd3e859e6cb)" style="fill: #008000"/>
   </g>
   <g id="patch_224">
    <path d="M 650.432149 390.04 
L 653.165537 390.04 
L 653.165537 39.813354 
L 650.432149 39.813354 
z
" clip-path="url(#pd3e859e6cb)" style="fill: #008000"/>
   </g>
   <g id="patch_225">
    <path d="M 653.165537 390.04 
L 655.898926 390.04 
L 655.898926 54.565777 
L 653.165537 54.565777 
z
" clip-path="url(#pd3e859e6cb)" style="fill: #008000"/>
   </g>
   <g id="patch_226">
    <path d="M 655.898926 390.04 
L 658.632314 390.04 
L 658.632314 44.419552 
L 655.898926 44.419552 
z
" clip-path="url(#pd3e859e6cb)" style="fill: #008000"/>
   </g>
   <g id="patch_227">
    <path d="M 658.632314 390.04 
L 661.365702 390.04 
L 661.365702 29.311748 
L 658.632314 29.311748 
z
" clip-path="url(#pd3e859e6cb)" style="fill: #008000"/>
   </g>
   <g id="patch_228">
    <path d="M 661.365702 390.04 
L 664.099091 390.04 
L 664.099091 1.146559 
L 661.365702 1.146559 
z
" clip-path="url(#pd3e859e6cb)" style="fill: #008000"/>
   </g>
   <g id="patch_229">
    <path d="M 664.099091 390.04 
L 666.832479 390.04 
L 666.832479 5.673661 
L 664.099091 5.673661 
z
" clip-path="url(#pd3e859e6cb)" style="fill: #008000"/>
   </g>
   <g id="patch_230">
    <path d="M 666.832479 390.04 
L 669.565868 390.04 
L 669.565868 73.301692 
L 666.832479 73.301692 
z
" clip-path="url(#pd3e859e6cb)" style="fill: #008000"/>
   </g>
   <g id="patch_231">
    <path d="M 669.565868 390.04 
L 672.299256 390.04 
L 672.299256 58.208869 
L 669.565868 58.208869 
z
" clip-path="url(#pd3e859e6cb)" style="fill: #008000"/>
   </g>
   <g id="patch_232">
    <path d="M 672.299256 390.04 
L 675.032645 390.04 
L 675.032645 13.686212 
L 672.299256 13.686212 
z
" clip-path="url(#pd3e859e6cb)" style="fill: #008000"/>
   </g>
   <g id="patch_233">
    <path d="M 675.032645 390.04 
L 677.766033 390.04 
L 677.766033 95.987239 
L 675.032645 95.987239 
z
" clip-path="url(#pd3e859e6cb)" style="fill: #008000"/>
   </g>
   <g id="patch_234">
    <path d="M 677.766033 390.04 
L 680.499421 390.04 
L 680.499421 43.343865 
L 677.766033 43.343865 
z
" clip-path="url(#pd3e859e6cb)" style="fill: #008000"/>
   </g>
   <g id="patch_235">
    <path d="M 680.499421 390.04 
L 683.23281 390.04 
L 683.23281 -11.801654 
L 680.499421 -11.801654 
z
" clip-path="url(#pd3e859e6cb)" style="fill: #008000"/>
   </g>
   <g id="patch_236">
    <path d="M 683.23281 390.04 
L 685.966198 390.04 
L 685.966198 72.074026 
L 683.23281 72.074026 
z
" clip-path="url(#pd3e859e6cb)" style="fill: #008000"/>
   </g>
   <g id="patch_237">
    <path d="M 685.966198 390.04 
L 688.699587 390.04 
L 688.699587 -60.908227 
L 685.966198 -60.908227 
z
" clip-path="url(#pd3e859e6cb)" style="fill: #008000"/>
   </g>
   <g id="patch_238">
    <path d="M 688.699587 390.04 
L 691.432975 390.04 
L 691.432975 50.653822 
L 688.699587 50.653822 
z
" clip-path="url(#pd3e859e6cb)" style="fill: #008000"/>
   </g>
   <g id="patch_239">
    <path d="M 691.432975 390.04 
L 694.166364 390.04 
L 694.166364 17.196346 
L 691.432975 17.196346 
z
" clip-path="url(#pd3e859e6cb)" style="fill: #008000"/>
   </g>
   <g id="patch_240">
    <path d="M 694.166364 390.04 
L 696.899752 390.04 
L 696.899752 50.033718 
L 694.166364 50.033718 
z
" clip-path="url(#pd3e859e6cb)" style="fill: #008000"/>
   </g>
   <g id="patch_241">
    <path d="M 696.899752 390.04 
L 699.63314 390.04 
L 699.63314 -98.456586 
L 696.899752 -98.456586 
z
" clip-path="url(#pd3e859e6cb)" style="fill: #008000"/>
   </g>
   <g id="patch_242">
    <path d="M 699.63314 390.04 
L 702.366529 390.04 
L 702.366529 -158.112959 
L 699.63314 -158.112959 
z
" clip-path="url(#pd3e859e6cb)" style="fill: #008000"/>
   </g>
   <g id="patch_243">
    <path d="M 702.366529 390.04 
L 705.099917 390.04 
L 705.099917 7.276482 
L 702.366529 7.276482 
z
" clip-path="url(#pd3e859e6cb)" style="fill: #008000"/>
   </g>
   <g id="patch_244">
    <path d="M 705.099917 390.04 
L 707.833306 390.04 
L 707.833306 -71.858787 
L 705.099917 -71.858787 
z
" clip-path="url(#pd3e859e6cb)" style="fill: #008000"/>
   </g>
   <g id="matplotlib.axis_1">
    <g id="xtick_1">
     <g id="line2d_1">
      <defs>
       <path id="m50a0643996" d="M 0 0 
L 0 3.5 
" style="stroke: #000000; stroke-width: 0.8"/>
      </defs>
      <g>
       <use xlink:href="#m50a0643996" x="47.72" y="390.04" style="stroke: #000000; stroke-width: 0.8"/>
      </g>
     </g>
     <g id="text_1">
      <!-- 0 -->
      <g transform="translate(44.53875 404.638438) scale(0.1 -0.1)">
       <defs>
        <path id="DejaVuSans-30" d="M 2034 4250 
Q 1547 4250 1301 3770 
Q 1056 3291 1056 2328 
Q 1056 1369 1301 889 
Q 1547 409 2034 409 
Q 2525 409 2770 889 
Q 3016 1369 3016 2328 
Q 3016 3291 2770 3770 
Q 2525 4250 2034 4250 
z
M 2034 4750 
Q 2819 4750 3233 4129 
Q 3647 3509 3647 2328 
Q 3647 1150 3233 529 
Q 2819 -91 2034 -91 
Q 1250 -91 836 529 
Q 422 1150 422 2328 
Q 422 3509 836 4129 
Q 1250 4750 2034 4750 
z
" transform="scale(0.015625)"/>
       </defs>
       <use xlink:href="#DejaVuSans-30"/>
      </g>
     </g>
    </g>
    <g id="xtick_2">
     <g id="line2d_2">
      <g>
       <use xlink:href="#m50a0643996" x="184.389421" y="390.04" style="stroke: #000000; stroke-width: 0.8"/>
      </g>
     </g>
     <g id="text_2">
      <!-- 50 -->
      <g transform="translate(178.026921 404.638438) scale(0.1 -0.1)">
       <defs>
        <path id="DejaVuSans-35" d="M 691 4666 
L 3169 4666 
L 3169 4134 
L 1269 4134 
L 1269 2991 
Q 1406 3038 1543 3061 
Q 1681 3084 1819 3084 
Q 2600 3084 3056 2656 
Q 3513 2228 3513 1497 
Q 3513 744 3044 326 
Q 2575 -91 1722 -91 
Q 1428 -91 1123 -41 
Q 819 9 494 109 
L 494 744 
Q 775 591 1075 516 
Q 1375 441 1709 441 
Q 2250 441 2565 725 
Q 2881 1009 2881 1497 
Q 2881 1984 2565 2268 
Q 2250 2553 1709 2553 
Q 1456 2553 1204 2497 
Q 953 2441 691 2322 
L 691 4666 
z
" transform="scale(0.015625)"/>
       </defs>
       <use xlink:href="#DejaVuSans-35"/>
       <use xlink:href="#DejaVuSans-30" transform="translate(63.623047 0)"/>
      </g>
     </g>
    </g>
    <g id="xtick_3">
     <g id="line2d_3">
      <g>
       <use xlink:href="#m50a0643996" x="321.058843" y="390.04" style="stroke: #000000; stroke-width: 0.8"/>
      </g>
     </g>
     <g id="text_3">
      <!-- 100 -->
      <g transform="translate(311.515093 404.638438) scale(0.1 -0.1)">
       <defs>
        <path id="DejaVuSans-31" d="M 794 531 
L 1825 531 
L 1825 4091 
L 703 3866 
L 703 4441 
L 1819 4666 
L 2450 4666 
L 2450 531 
L 3481 531 
L 3481 0 
L 794 0 
L 794 531 
z
" transform="scale(0.015625)"/>
       </defs>
       <use xlink:href="#DejaVuSans-31"/>
       <use xlink:href="#DejaVuSans-30" transform="translate(63.623047 0)"/>
       <use xlink:href="#DejaVuSans-30" transform="translate(127.246094 0)"/>
      </g>
     </g>
    </g>
    <g id="xtick_4">
     <g id="line2d_4">
      <g>
       <use xlink:href="#m50a0643996" x="457.728264" y="390.04" style="stroke: #000000; stroke-width: 0.8"/>
      </g>
     </g>
     <g id="text_4">
      <!-- 150 -->
      <g transform="translate(448.184514 404.638438) scale(0.1 -0.1)">
       <use xlink:href="#DejaVuSans-31"/>
       <use xlink:href="#DejaVuSans-35" transform="translate(63.623047 0)"/>
       <use xlink:href="#DejaVuSans-30" transform="translate(127.246094 0)"/>
      </g>
     </g>
    </g>
    <g id="xtick_5">
     <g id="line2d_5">
      <g>
       <use xlink:href="#m50a0643996" x="594.397686" y="390.04" style="stroke: #000000; stroke-width: 0.8"/>
      </g>
     </g>
     <g id="text_5">
      <!-- 200 -->
      <g transform="translate(584.853936 404.638438) scale(0.1 -0.1)">
       <defs>
        <path id="DejaVuSans-32" d="M 1228 531 
L 3431 531 
L 3431 0 
L 469 0 
L 469 531 
Q 828 903 1448 1529 
Q 2069 2156 2228 2338 
Q 2531 2678 2651 2914 
Q 2772 3150 2772 3378 
Q 2772 3750 2511 3984 
Q 2250 4219 1831 4219 
Q 1534 4219 1204 4116 
Q 875 4013 500 3803 
L 500 4441 
Q 881 4594 1212 4672 
Q 1544 4750 1819 4750 
Q 2544 4750 2975 4387 
Q 3406 4025 3406 3419 
Q 3406 3131 3298 2873 
Q 3191 2616 2906 2266 
Q 2828 2175 2409 1742 
Q 1991 1309 1228 531 
z
" transform="scale(0.015625)"/>
       </defs>
       <use xlink:href="#DejaVuSans-32"/>
       <use xlink:href="#DejaVuSans-30" transform="translate(63.623047 0)"/>
       <use xlink:href="#DejaVuSans-30" transform="translate(127.246094 0)"/>
      </g>
     </g>
    </g>
    <g id="text_6">
     <!-- Peak ID -->
     <g transform="translate(359.676406 418.316562) scale(0.1 -0.1)">
      <defs>
       <path id="DejaVuSans-50" d="M 1259 4147 
L 1259 2394 
L 2053 2394 
Q 2494 2394 2734 2622 
Q 2975 2850 2975 3272 
Q 2975 3691 2734 3919 
Q 2494 4147 2053 4147 
L 1259 4147 
z
M 628 4666 
L 2053 4666 
Q 2838 4666 3239 4311 
Q 3641 3956 3641 3272 
Q 3641 2581 3239 2228 
Q 2838 1875 2053 1875 
L 1259 1875 
L 1259 0 
L 628 0 
L 628 4666 
z
" transform="scale(0.015625)"/>
       <path id="DejaVuSans-65" d="M 3597 1894 
L 3597 1613 
L 953 1613 
Q 991 1019 1311 708 
Q 1631 397 2203 397 
Q 2534 397 2845 478 
Q 3156 559 3463 722 
L 3463 178 
Q 3153 47 2828 -22 
Q 2503 -91 2169 -91 
Q 1331 -91 842 396 
Q 353 884 353 1716 
Q 353 2575 817 3079 
Q 1281 3584 2069 3584 
Q 2775 3584 3186 3129 
Q 3597 2675 3597 1894 
z
M 3022 2063 
Q 3016 2534 2758 2815 
Q 2500 3097 2075 3097 
Q 1594 3097 1305 2825 
Q 1016 2553 972 2059 
L 3022 2063 
z
" transform="scale(0.015625)"/>
       <path id="DejaVuSans-61" d="M 2194 1759 
Q 1497 1759 1228 1600 
Q 959 1441 959 1056 
Q 959 750 1161 570 
Q 1363 391 1709 391 
Q 2188 391 2477 730 
Q 2766 1069 2766 1631 
L 2766 1759 
L 2194 1759 
z
M 3341 1997 
L 3341 0 
L 2766 0 
L 2766 531 
Q 2569 213 2275 61 
Q 1981 -91 1556 -91 
Q 1019 -91 701 211 
Q 384 513 384 1019 
Q 384 1609 779 1909 
Q 1175 2209 1959 2209 
L 2766 2209 
L 2766 2266 
Q 2766 2663 2505 2880 
Q 2244 3097 1772 3097 
Q 1472 3097 1187 3025 
Q 903 2953 641 2809 
L 641 3341 
Q 956 3463 1253 3523 
Q 1550 3584 1831 3584 
Q 2591 3584 2966 3190 
Q 3341 2797 3341 1997 
z
" transform="scale(0.015625)"/>
       <path id="DejaVuSans-6b" d="M 581 4863 
L 1159 4863 
L 1159 1991 
L 2875 3500 
L 3609 3500 
L 1753 1863 
L 3688 0 
L 2938 0 
L 1159 1709 
L 1159 0 
L 581 0 
L 581 4863 
z
" transform="scale(0.015625)"/>
       <path id="DejaVuSans-20" transform="scale(0.015625)"/>
       <path id="DejaVuSans-49" d="M 628 4666 
L 1259 4666 
L 1259 0 
L 628 0 
L 628 4666 
z
" transform="scale(0.015625)"/>
       <path id="DejaVuSans-44" d="M 1259 4147 
L 1259 519 
L 2022 519 
Q 2988 519 3436 956 
Q 3884 1394 3884 2338 
Q 3884 3275 3436 3711 
Q 2988 4147 2022 4147 
L 1259 4147 
z
M 628 4666 
L 1925 4666 
Q 3281 4666 3915 4102 
Q 4550 3538 4550 2338 
Q 4550 1131 3912 565 
Q 3275 0 1925 0 
L 628 0 
L 628 4666 
z
" transform="scale(0.015625)"/>
      </defs>
      <use xlink:href="#DejaVuSans-50"/>
      <use xlink:href="#DejaVuSans-65" transform="translate(56.677734 0)"/>
      <use xlink:href="#DejaVuSans-61" transform="translate(118.201172 0)"/>
      <use xlink:href="#DejaVuSans-6b" transform="translate(179.480469 0)"/>
      <use xlink:href="#DejaVuSans-20" transform="translate(237.390625 0)"/>
      <use xlink:href="#DejaVuSans-49" transform="translate(269.177734 0)"/>
      <use xlink:href="#DejaVuSans-44" transform="translate(298.669922 0)"/>
     </g>
    </g>
   </g>
   <g id="matplotlib.axis_2">
    <g id="ytick_1">
     <g id="line2d_6">
      <defs>
       <path id="md74d233c75" d="M 0 0 
L -3.5 0 
" style="stroke: #000000; stroke-width: 0.8"/>
      </defs>
      <g>
       <use xlink:href="#md74d233c75" x="47.72" y="390.04" style="stroke: #000000; stroke-width: 0.8"/>
      </g>
     </g>
     <g id="text_7">
      <!-- 0.0 -->
      <g transform="translate(24.816875 393.839219) scale(0.1 -0.1)">
       <defs>
        <path id="DejaVuSans-2e" d="M 684 794 
L 1344 794 
L 1344 0 
L 684 0 
L 684 794 
z
" transform="scale(0.015625)"/>
       </defs>
       <use xlink:href="#DejaVuSans-30"/>
       <use xlink:href="#DejaVuSans-2e" transform="translate(63.623047 0)"/>
       <use xlink:href="#DejaVuSans-30" transform="translate(95.410156 0)"/>
      </g>
     </g>
    </g>
    <g id="ytick_2">
     <g id="line2d_7">
      <g>
       <use xlink:href="#md74d233c75" x="47.72" y="317.408" style="stroke: #000000; stroke-width: 0.8"/>
      </g>
     </g>
     <g id="text_8">
      <!-- 0.2 -->
      <g transform="translate(24.816875 321.207219) scale(0.1 -0.1)">
       <use xlink:href="#DejaVuSans-30"/>
       <use xlink:href="#DejaVuSans-2e" transform="translate(63.623047 0)"/>
       <use xlink:href="#DejaVuSans-32" transform="translate(95.410156 0)"/>
      </g>
     </g>
    </g>
    <g id="ytick_3">
     <g id="line2d_8">
      <g>
       <use xlink:href="#md74d233c75" x="47.72" y="244.776" style="stroke: #000000; stroke-width: 0.8"/>
      </g>
     </g>
     <g id="text_9">
      <!-- 0.4 -->
      <g transform="translate(24.816875 248.575219) scale(0.1 -0.1)">
       <defs>
        <path id="DejaVuSans-34" d="M 2419 4116 
L 825 1625 
L 2419 1625 
L 2419 4116 
z
M 2253 4666 
L 3047 4666 
L 3047 1625 
L 3713 1625 
L 3713 1100 
L 3047 1100 
L 3047 0 
L 2419 0 
L 2419 1100 
L 313 1100 
L 313 1709 
L 2253 4666 
z
" transform="scale(0.015625)"/>
       </defs>
       <use xlink:href="#DejaVuSans-30"/>
       <use xlink:href="#DejaVuSans-2e" transform="translate(63.623047 0)"/>
       <use xlink:href="#DejaVuSans-34" transform="translate(95.410156 0)"/>
      </g>
     </g>
    </g>
    <g id="ytick_4">
     <g id="line2d_9">
      <g>
       <use xlink:href="#md74d233c75" x="47.72" y="172.144" style="stroke: #000000; stroke-width: 0.8"/>
      </g>
     </g>
     <g id="text_10">
      <!-- 0.6 -->
      <g transform="translate(24.816875 175.943219) scale(0.1 -0.1)">
       <defs>
        <path id="DejaVuSans-36" d="M 2113 2584 
Q 1688 2584 1439 2293 
Q 1191 2003 1191 1497 
Q 1191 994 1439 701 
Q 1688 409 2113 409 
Q 2538 409 2786 701 
Q 3034 994 3034 1497 
Q 3034 2003 2786 2293 
Q 2538 2584 2113 2584 
z
M 3366 4563 
L 3366 3988 
Q 3128 4100 2886 4159 
Q 2644 4219 2406 4219 
Q 1781 4219 1451 3797 
Q 1122 3375 1075 2522 
Q 1259 2794 1537 2939 
Q 1816 3084 2150 3084 
Q 2853 3084 3261 2657 
Q 3669 2231 3669 1497 
Q 3669 778 3244 343 
Q 2819 -91 2113 -91 
Q 1303 -91 875 529 
Q 447 1150 447 2328 
Q 447 3434 972 4092 
Q 1497 4750 2381 4750 
Q 2619 4750 2861 4703 
Q 3103 4656 3366 4563 
z
" transform="scale(0.015625)"/>
       </defs>
       <use xlink:href="#DejaVuSans-30"/>
       <use xlink:href="#DejaVuSans-2e" transform="translate(63.623047 0)"/>
       <use xlink:href="#DejaVuSans-36" transform="translate(95.410156 0)"/>
      </g>
     </g>
    </g>
    <g id="ytick_5">
     <g id="line2d_10">
      <g>
       <use xlink:href="#md74d233c75" x="47.72" y="99.512" style="stroke: #000000; stroke-width: 0.8"/>
      </g>
     </g>
     <g id="text_11">
      <!-- 0.8 -->
      <g transform="translate(24.816875 103.311219) scale(0.1 -0.1)">
       <defs>
        <path id="DejaVuSans-38" d="M 2034 2216 
Q 1584 2216 1326 1975 
Q 1069 1734 1069 1313 
Q 1069 891 1326 650 
Q 1584 409 2034 409 
Q 2484 409 2743 651 
Q 3003 894 3003 1313 
Q 3003 1734 2745 1975 
Q 2488 2216 2034 2216 
z
M 1403 2484 
Q 997 2584 770 2862 
Q 544 3141 544 3541 
Q 544 4100 942 4425 
Q 1341 4750 2034 4750 
Q 2731 4750 3128 4425 
Q 3525 4100 3525 3541 
Q 3525 3141 3298 2862 
Q 3072 2584 2669 2484 
Q 3125 2378 3379 2068 
Q 3634 1759 3634 1313 
Q 3634 634 3220 271 
Q 2806 -91 2034 -91 
Q 1263 -91 848 271 
Q 434 634 434 1313 
Q 434 1759 690 2068 
Q 947 2378 1403 2484 
z
M 1172 3481 
Q 1172 3119 1398 2916 
Q 1625 2713 2034 2713 
Q 2441 2713 2670 2916 
Q 2900 3119 2900 3481 
Q 2900 3844 2670 4047 
Q 2441 4250 2034 4250 
Q 1625 4250 1398 4047 
Q 1172 3844 1172 3481 
z
" transform="scale(0.015625)"/>
       </defs>
       <use xlink:href="#DejaVuSans-30"/>
       <use xlink:href="#DejaVuSans-2e" transform="translate(63.623047 0)"/>
       <use xlink:href="#DejaVuSans-38" transform="translate(95.410156 0)"/>
      </g>
     </g>
    </g>
    <g id="ytick_6">
     <g id="line2d_11">
      <g>
       <use xlink:href="#md74d233c75" x="47.72" y="26.88" style="stroke: #000000; stroke-width: 0.8"/>
      </g>
     </g>
     <g id="text_12">
      <!-- 1.0 -->
      <g transform="translate(24.816875 30.679219) scale(0.1 -0.1)">
       <use xlink:href="#DejaVuSans-31"/>
       <use xlink:href="#DejaVuSans-2e" transform="translate(63.623047 0)"/>
       <use xlink:href="#DejaVuSans-30" transform="translate(95.410156 0)"/>
      </g>
     </g>
    </g>
    <g id="text_13">
     <!-- Phe-Reverse Labelled height / Control height -->
     <g transform="translate(18.737188 320.327969) rotate(-90) scale(0.1 -0.1)">
      <defs>
       <path id="DejaVuSans-68" d="M 3513 2113 
L 3513 0 
L 2938 0 
L 2938 2094 
Q 2938 2591 2744 2837 
Q 2550 3084 2163 3084 
Q 1697 3084 1428 2787 
Q 1159 2491 1159 1978 
L 1159 0 
L 581 0 
L 581 4863 
L 1159 4863 
L 1159 2956 
Q 1366 3272 1645 3428 
Q 1925 3584 2291 3584 
Q 2894 3584 3203 3211 
Q 3513 2838 3513 2113 
z
" transform="scale(0.015625)"/>
       <path id="DejaVuSans-2d" d="M 313 2009 
L 1997 2009 
L 1997 1497 
L 313 1497 
L 313 2009 
z
" transform="scale(0.015625)"/>
       <path id="DejaVuSans-52" d="M 2841 2188 
Q 3044 2119 3236 1894 
Q 3428 1669 3622 1275 
L 4263 0 
L 3584 0 
L 2988 1197 
Q 2756 1666 2539 1819 
Q 2322 1972 1947 1972 
L 1259 1972 
L 1259 0 
L 628 0 
L 628 4666 
L 2053 4666 
Q 2853 4666 3247 4331 
Q 3641 3997 3641 3322 
Q 3641 2881 3436 2590 
Q 3231 2300 2841 2188 
z
M 1259 4147 
L 1259 2491 
L 2053 2491 
Q 2509 2491 2742 2702 
Q 2975 2913 2975 3322 
Q 2975 3731 2742 3939 
Q 2509 4147 2053 4147 
L 1259 4147 
z
" transform="scale(0.015625)"/>
       <path id="DejaVuSans-76" d="M 191 3500 
L 800 3500 
L 1894 563 
L 2988 3500 
L 3597 3500 
L 2284 0 
L 1503 0 
L 191 3500 
z
" transform="scale(0.015625)"/>
       <path id="DejaVuSans-72" d="M 2631 2963 
Q 2534 3019 2420 3045 
Q 2306 3072 2169 3072 
Q 1681 3072 1420 2755 
Q 1159 2438 1159 1844 
L 1159 0 
L 581 0 
L 581 3500 
L 1159 3500 
L 1159 2956 
Q 1341 3275 1631 3429 
Q 1922 3584 2338 3584 
Q 2397 3584 2469 3576 
Q 2541 3569 2628 3553 
L 2631 2963 
z
" transform="scale(0.015625)"/>
       <path id="DejaVuSans-73" d="M 2834 3397 
L 2834 2853 
Q 2591 2978 2328 3040 
Q 2066 3103 1784 3103 
Q 1356 3103 1142 2972 
Q 928 2841 928 2578 
Q 928 2378 1081 2264 
Q 1234 2150 1697 2047 
L 1894 2003 
Q 2506 1872 2764 1633 
Q 3022 1394 3022 966 
Q 3022 478 2636 193 
Q 2250 -91 1575 -91 
Q 1294 -91 989 -36 
Q 684 19 347 128 
L 347 722 
Q 666 556 975 473 
Q 1284 391 1588 391 
Q 1994 391 2212 530 
Q 2431 669 2431 922 
Q 2431 1156 2273 1281 
Q 2116 1406 1581 1522 
L 1381 1569 
Q 847 1681 609 1914 
Q 372 2147 372 2553 
Q 372 3047 722 3315 
Q 1072 3584 1716 3584 
Q 2034 3584 2315 3537 
Q 2597 3491 2834 3397 
z
" transform="scale(0.015625)"/>
       <path id="DejaVuSans-4c" d="M 628 4666 
L 1259 4666 
L 1259 531 
L 3531 531 
L 3531 0 
L 628 0 
L 628 4666 
z
" transform="scale(0.015625)"/>
       <path id="DejaVuSans-62" d="M 3116 1747 
Q 3116 2381 2855 2742 
Q 2594 3103 2138 3103 
Q 1681 3103 1420 2742 
Q 1159 2381 1159 1747 
Q 1159 1113 1420 752 
Q 1681 391 2138 391 
Q 2594 391 2855 752 
Q 3116 1113 3116 1747 
z
M 1159 2969 
Q 1341 3281 1617 3432 
Q 1894 3584 2278 3584 
Q 2916 3584 3314 3078 
Q 3713 2572 3713 1747 
Q 3713 922 3314 415 
Q 2916 -91 2278 -91 
Q 1894 -91 1617 61 
Q 1341 213 1159 525 
L 1159 0 
L 581 0 
L 581 4863 
L 1159 4863 
L 1159 2969 
z
" transform="scale(0.015625)"/>
       <path id="DejaVuSans-6c" d="M 603 4863 
L 1178 4863 
L 1178 0 
L 603 0 
L 603 4863 
z
" transform="scale(0.015625)"/>
       <path id="DejaVuSans-64" d="M 2906 2969 
L 2906 4863 
L 3481 4863 
L 3481 0 
L 2906 0 
L 2906 525 
Q 2725 213 2448 61 
Q 2172 -91 1784 -91 
Q 1150 -91 751 415 
Q 353 922 353 1747 
Q 353 2572 751 3078 
Q 1150 3584 1784 3584 
Q 2172 3584 2448 3432 
Q 2725 3281 2906 2969 
z
M 947 1747 
Q 947 1113 1208 752 
Q 1469 391 1925 391 
Q 2381 391 2643 752 
Q 2906 1113 2906 1747 
Q 2906 2381 2643 2742 
Q 2381 3103 1925 3103 
Q 1469 3103 1208 2742 
Q 947 2381 947 1747 
z
" transform="scale(0.015625)"/>
       <path id="DejaVuSans-69" d="M 603 3500 
L 1178 3500 
L 1178 0 
L 603 0 
L 603 3500 
z
M 603 4863 
L 1178 4863 
L 1178 4134 
L 603 4134 
L 603 4863 
z
" transform="scale(0.015625)"/>
       <path id="DejaVuSans-67" d="M 2906 1791 
Q 2906 2416 2648 2759 
Q 2391 3103 1925 3103 
Q 1463 3103 1205 2759 
Q 947 2416 947 1791 
Q 947 1169 1205 825 
Q 1463 481 1925 481 
Q 2391 481 2648 825 
Q 2906 1169 2906 1791 
z
M 3481 434 
Q 3481 -459 3084 -895 
Q 2688 -1331 1869 -1331 
Q 1566 -1331 1297 -1286 
Q 1028 -1241 775 -1147 
L 775 -588 
Q 1028 -725 1275 -790 
Q 1522 -856 1778 -856 
Q 2344 -856 2625 -561 
Q 2906 -266 2906 331 
L 2906 616 
Q 2728 306 2450 153 
Q 2172 0 1784 0 
Q 1141 0 747 490 
Q 353 981 353 1791 
Q 353 2603 747 3093 
Q 1141 3584 1784 3584 
Q 2172 3584 2450 3431 
Q 2728 3278 2906 2969 
L 2906 3500 
L 3481 3500 
L 3481 434 
z
" transform="scale(0.015625)"/>
       <path id="DejaVuSans-74" d="M 1172 4494 
L 1172 3500 
L 2356 3500 
L 2356 3053 
L 1172 3053 
L 1172 1153 
Q 1172 725 1289 603 
Q 1406 481 1766 481 
L 2356 481 
L 2356 0 
L 1766 0 
Q 1100 0 847 248 
Q 594 497 594 1153 
L 594 3053 
L 172 3053 
L 172 3500 
L 594 3500 
L 594 4494 
L 1172 4494 
z
" transform="scale(0.015625)"/>
       <path id="DejaVuSans-2f" d="M 1625 4666 
L 2156 4666 
L 531 -594 
L 0 -594 
L 1625 4666 
z
" transform="scale(0.015625)"/>
       <path id="DejaVuSans-43" d="M 4122 4306 
L 4122 3641 
Q 3803 3938 3442 4084 
Q 3081 4231 2675 4231 
Q 1875 4231 1450 3742 
Q 1025 3253 1025 2328 
Q 1025 1406 1450 917 
Q 1875 428 2675 428 
Q 3081 428 3442 575 
Q 3803 722 4122 1019 
L 4122 359 
Q 3791 134 3420 21 
Q 3050 -91 2638 -91 
Q 1578 -91 968 557 
Q 359 1206 359 2328 
Q 359 3453 968 4101 
Q 1578 4750 2638 4750 
Q 3056 4750 3426 4639 
Q 3797 4528 4122 4306 
z
" transform="scale(0.015625)"/>
       <path id="DejaVuSans-6f" d="M 1959 3097 
Q 1497 3097 1228 2736 
Q 959 2375 959 1747 
Q 959 1119 1226 758 
Q 1494 397 1959 397 
Q 2419 397 2687 759 
Q 2956 1122 2956 1747 
Q 2956 2369 2687 2733 
Q 2419 3097 1959 3097 
z
M 1959 3584 
Q 2709 3584 3137 3096 
Q 3566 2609 3566 1747 
Q 3566 888 3137 398 
Q 2709 -91 1959 -91 
Q 1206 -91 779 398 
Q 353 888 353 1747 
Q 353 2609 779 3096 
Q 1206 3584 1959 3584 
z
" transform="scale(0.015625)"/>
       <path id="DejaVuSans-6e" d="M 3513 2113 
L 3513 0 
L 2938 0 
L 2938 2094 
Q 2938 2591 2744 2837 
Q 2550 3084 2163 3084 
Q 1697 3084 1428 2787 
Q 1159 2491 1159 1978 
L 1159 0 
L 581 0 
L 581 3500 
L 1159 3500 
L 1159 2956 
Q 1366 3272 1645 3428 
Q 1925 3584 2291 3584 
Q 2894 3584 3203 3211 
Q 3513 2838 3513 2113 
z
" transform="scale(0.015625)"/>
      </defs>
      <use xlink:href="#DejaVuSans-50"/>
      <use xlink:href="#DejaVuSans-68" transform="translate(60.302734 0)"/>
      <use xlink:href="#DejaVuSans-65" transform="translate(123.681641 0)"/>
      <use xlink:href="#DejaVuSans-2d" transform="translate(185.205078 0)"/>
      <use xlink:href="#DejaVuSans-52" transform="translate(221.289062 0)"/>
      <use xlink:href="#DejaVuSans-65" transform="translate(286.271484 0)"/>
      <use xlink:href="#DejaVuSans-76" transform="translate(347.794922 0)"/>
      <use xlink:href="#DejaVuSans-65" transform="translate(406.974609 0)"/>
      <use xlink:href="#DejaVuSans-72" transform="translate(468.498047 0)"/>
      <use xlink:href="#DejaVuSans-73" transform="translate(509.611328 0)"/>
      <use xlink:href="#DejaVuSans-65" transform="translate(561.710938 0)"/>
      <use xlink:href="#DejaVuSans-20" transform="translate(623.234375 0)"/>
      <use xlink:href="#DejaVuSans-4c" transform="translate(655.021484 0)"/>
      <use xlink:href="#DejaVuSans-61" transform="translate(710.734375 0)"/>
      <use xlink:href="#DejaVuSans-62" transform="translate(772.013672 0)"/>
      <use xlink:href="#DejaVuSans-65" transform="translate(835.490234 0)"/>
      <use xlink:href="#DejaVuSans-6c" transform="translate(897.013672 0)"/>
      <use xlink:href="#DejaVuSans-6c" transform="translate(924.796875 0)"/>
      <use xlink:href="#DejaVuSans-65" transform="translate(952.580078 0)"/>
      <use xlink:href="#DejaVuSans-64" transform="translate(1014.103516 0)"/>
      <use xlink:href="#DejaVuSans-20" transform="translate(1077.580078 0)"/>
      <use xlink:href="#DejaVuSans-68" transform="translate(1109.367188 0)"/>
      <use xlink:href="#DejaVuSans-65" transform="translate(1172.746094 0)"/>
      <use xlink:href="#DejaVuSans-69" transform="translate(1234.269531 0)"/>
      <use xlink:href="#DejaVuSans-67" transform="translate(1262.052734 0)"/>
      <use xlink:href="#DejaVuSans-68" transform="translate(1325.529297 0)"/>
      <use xlink:href="#DejaVuSans-74" transform="translate(1388.908203 0)"/>
      <use xlink:href="#DejaVuSans-20" transform="translate(1428.117188 0)"/>
      <use xlink:href="#DejaVuSans-2f" transform="translate(1459.904297 0)"/>
      <use xlink:href="#DejaVuSans-20" transform="translate(1493.595703 0)"/>
      <use xlink:href="#DejaVuSans-43" transform="translate(1525.382812 0)"/>
      <use xlink:href="#DejaVuSans-6f" transform="translate(1595.207031 0)"/>
      <use xlink:href="#DejaVuSans-6e" transform="translate(1656.388672 0)"/>
      <use xlink:href="#DejaVuSans-74" transform="translate(1719.767578 0)"/>
      <use xlink:href="#DejaVuSans-72" transform="translate(1758.976562 0)"/>
      <use xlink:href="#DejaVuSans-6f" transform="translate(1797.839844 0)"/>
      <use xlink:href="#DejaVuSans-6c" transform="translate(1859.021484 0)"/>
      <use xlink:href="#DejaVuSans-20" transform="translate(1886.804688 0)"/>
      <use xlink:href="#DejaVuSans-68" transform="translate(1918.591797 0)"/>
      <use xlink:href="#DejaVuSans-65" transform="translate(1981.970703 0)"/>
      <use xlink:href="#DejaVuSans-69" transform="translate(2043.494141 0)"/>
      <use xlink:href="#DejaVuSans-67" transform="translate(2071.277344 0)"/>
      <use xlink:href="#DejaVuSans-68" transform="translate(2134.753906 0)"/>
      <use xlink:href="#DejaVuSans-74" transform="translate(2198.132812 0)"/>
     </g>
    </g>
   </g>
   <g id="patch_245">
    <path d="M 47.72 390.04 
L 47.72 26.88 
" style="fill: none; stroke: #000000; stroke-width: 0.8; stroke-linejoin: miter; stroke-linecap: square"/>
   </g>
   <g id="patch_246">
    <path d="M 709.2 390.04 
L 709.2 26.88 
" style="fill: none; stroke: #000000; stroke-width: 0.8; stroke-linejoin: miter; stroke-linecap: square"/>
   </g>
   <g id="patch_247">
    <path d="M 47.72 390.04 
L 709.2 390.04 
" style="fill: none; stroke: #000000; stroke-width: 0.8; stroke-linejoin: miter; stroke-linecap: square"/>
   </g>
   <g id="patch_248">
    <path d="M 47.72 26.88 
L 709.2 26.88 
" style="fill: none; stroke: #000000; stroke-width: 0.8; stroke-linejoin: miter; stroke-linecap: square"/>
   </g>
   <g id="text_14">
    <!-- Red: 8, orange: 10, Green: 224 -->
    <g transform="translate(300.958438 40.534175) scale(0.1 -0.1)">
     <defs>
      <path id="DejaVuSans-3a" d="M 750 794 
L 1409 794 
L 1409 0 
L 750 0 
L 750 794 
z
M 750 3309 
L 1409 3309 
L 1409 2516 
L 750 2516 
L 750 3309 
z
" transform="scale(0.015625)"/>
      <path id="DejaVuSans-2c" d="M 750 794 
L 1409 794 
L 1409 256 
L 897 -744 
L 494 -744 
L 750 256 
L 750 794 
z
" transform="scale(0.015625)"/>
      <path id="DejaVuSans-47" d="M 3809 666 
L 3809 1919 
L 2778 1919 
L 2778 2438 
L 4434 2438 
L 4434 434 
Q 4069 175 3628 42 
Q 3188 -91 2688 -91 
Q 1594 -91 976 548 
Q 359 1188 359 2328 
Q 359 3472 976 4111 
Q 1594 4750 2688 4750 
Q 3144 4750 3555 4637 
Q 3966 4525 4313 4306 
L 4313 3634 
Q 3963 3931 3569 4081 
Q 3175 4231 2741 4231 
Q 1884 4231 1454 3753 
Q 1025 3275 1025 2328 
Q 1025 1384 1454 906 
Q 1884 428 2741 428 
Q 3075 428 3337 486 
Q 3600 544 3809 666 
z
" transform="scale(0.015625)"/>
     </defs>
     <use xlink:href="#DejaVuSans-52"/>
     <use xlink:href="#DejaVuSans-65" transform="translate(64.982422 0)"/>
     <use xlink:href="#DejaVuSans-64" transform="translate(126.505859 0)"/>
     <use xlink:href="#DejaVuSans-3a" transform="translate(189.982422 0)"/>
     <use xlink:href="#DejaVuSans-20" transform="translate(223.673828 0)"/>
     <use xlink:href="#DejaVuSans-38" transform="translate(255.460938 0)"/>
     <use xlink:href="#DejaVuSans-2c" transform="translate(319.083984 0)"/>
     <use xlink:href="#DejaVuSans-20" transform="translate(350.871094 0)"/>
     <use xlink:href="#DejaVuSans-6f" transform="translate(382.658203 0)"/>
     <use xlink:href="#DejaVuSans-72" transform="translate(443.839844 0)"/>
     <use xlink:href="#DejaVuSans-61" transform="translate(484.953125 0)"/>
     <use xlink:href="#DejaVuSans-6e" transform="translate(546.232422 0)"/>
     <use xlink:href="#DejaVuSans-67" transform="translate(609.611328 0)"/>
     <use xlink:href="#DejaVuSans-65" transform="translate(673.087891 0)"/>
     <use xlink:href="#DejaVuSans-3a" transform="translate(734.611328 0)"/>
     <use xlink:href="#DejaVuSans-20" transform="translate(768.302734 0)"/>
     <use xlink:href="#DejaVuSans-31" transform="translate(800.089844 0)"/>
     <use xlink:href="#DejaVuSans-30" transform="translate(863.712891 0)"/>
     <use xlink:href="#DejaVuSans-2c" transform="translate(927.335938 0)"/>
     <use xlink:href="#DejaVuSans-20" transform="translate(959.123047 0)"/>
     <use xlink:href="#DejaVuSans-47" transform="translate(990.910156 0)"/>
     <use xlink:href="#DejaVuSans-72" transform="translate(1068.400391 0)"/>
     <use xlink:href="#DejaVuSans-65" transform="translate(1107.263672 0)"/>
     <use xlink:href="#DejaVuSans-65" transform="translate(1168.787109 0)"/>
     <use xlink:href="#DejaVuSans-6e" transform="translate(1230.310547 0)"/>
     <use xlink:href="#DejaVuSans-3a" transform="translate(1293.689453 0)"/>
     <use xlink:href="#DejaVuSans-20" transform="translate(1327.380859 0)"/>
     <use xlink:href="#DejaVuSans-32" transform="translate(1359.167969 0)"/>
     <use xlink:href="#DejaVuSans-32" transform="translate(1422.791016 0)"/>
     <use xlink:href="#DejaVuSans-34" transform="translate(1486.414062 0)"/>
    </g>
   </g>
   <g id="text_15">
    <!-- Phe-Reverse Labelled Height relative to Control Height (median normalized and outliers capped at 1) -->
    <g transform="translate(74.725 20.88) scale(0.12 -0.12)">
     <defs>
      <path id="DejaVuSans-48" d="M 628 4666 
L 1259 4666 
L 1259 2753 
L 3553 2753 
L 3553 4666 
L 4184 4666 
L 4184 0 
L 3553 0 
L 3553 2222 
L 1259 2222 
L 1259 0 
L 628 0 
L 628 4666 
z
" transform="scale(0.015625)"/>
      <path id="DejaVuSans-28" d="M 1984 4856 
Q 1566 4138 1362 3434 
Q 1159 2731 1159 2009 
Q 1159 1288 1364 580 
Q 1569 -128 1984 -844 
L 1484 -844 
Q 1016 -109 783 600 
Q 550 1309 550 2009 
Q 550 2706 781 3412 
Q 1013 4119 1484 4856 
L 1984 4856 
z
" transform="scale(0.015625)"/>
      <path id="DejaVuSans-6d" d="M 3328 2828 
Q 3544 3216 3844 3400 
Q 4144 3584 4550 3584 
Q 5097 3584 5394 3201 
Q 5691 2819 5691 2113 
L 5691 0 
L 5113 0 
L 5113 2094 
Q 5113 2597 4934 2840 
Q 4756 3084 4391 3084 
Q 3944 3084 3684 2787 
Q 3425 2491 3425 1978 
L 3425 0 
L 2847 0 
L 2847 2094 
Q 2847 2600 2669 2842 
Q 2491 3084 2119 3084 
Q 1678 3084 1418 2786 
Q 1159 2488 1159 1978 
L 1159 0 
L 581 0 
L 581 3500 
L 1159 3500 
L 1159 2956 
Q 1356 3278 1631 3431 
Q 1906 3584 2284 3584 
Q 2666 3584 2933 3390 
Q 3200 3197 3328 2828 
z
" transform="scale(0.015625)"/>
      <path id="DejaVuSans-7a" d="M 353 3500 
L 3084 3500 
L 3084 2975 
L 922 459 
L 3084 459 
L 3084 0 
L 275 0 
L 275 525 
L 2438 3041 
L 353 3041 
L 353 3500 
z
" transform="scale(0.015625)"/>
      <path id="DejaVuSans-75" d="M 544 1381 
L 544 3500 
L 1119 3500 
L 1119 1403 
Q 1119 906 1312 657 
Q 1506 409 1894 409 
Q 2359 409 2629 706 
Q 2900 1003 2900 1516 
L 2900 3500 
L 3475 3500 
L 3475 0 
L 2900 0 
L 2900 538 
Q 2691 219 2414 64 
Q 2138 -91 1772 -91 
Q 1169 -91 856 284 
Q 544 659 544 1381 
z
M 1991 3584 
L 1991 3584 
z
" transform="scale(0.015625)"/>
      <path id="DejaVuSans-63" d="M 3122 3366 
L 3122 2828 
Q 2878 2963 2633 3030 
Q 2388 3097 2138 3097 
Q 1578 3097 1268 2742 
Q 959 2388 959 1747 
Q 959 1106 1268 751 
Q 1578 397 2138 397 
Q 2388 397 2633 464 
Q 2878 531 3122 666 
L 3122 134 
Q 2881 22 2623 -34 
Q 2366 -91 2075 -91 
Q 1284 -91 818 406 
Q 353 903 353 1747 
Q 353 2603 823 3093 
Q 1294 3584 2113 3584 
Q 2378 3584 2631 3529 
Q 2884 3475 3122 3366 
z
" transform="scale(0.015625)"/>
      <path id="DejaVuSans-70" d="M 1159 525 
L 1159 -1331 
L 581 -1331 
L 581 3500 
L 1159 3500 
L 1159 2969 
Q 1341 3281 1617 3432 
Q 1894 3584 2278 3584 
Q 2916 3584 3314 3078 
Q 3713 2572 3713 1747 
Q 3713 922 3314 415 
Q 2916 -91 2278 -91 
Q 1894 -91 1617 61 
Q 1341 213 1159 525 
z
M 3116 1747 
Q 3116 2381 2855 2742 
Q 2594 3103 2138 3103 
Q 1681 3103 1420 2742 
Q 1159 2381 1159 1747 
Q 1159 1113 1420 752 
Q 1681 391 2138 391 
Q 2594 391 2855 752 
Q 3116 1113 3116 1747 
z
" transform="scale(0.015625)"/>
      <path id="DejaVuSans-29" d="M 513 4856 
L 1013 4856 
Q 1481 4119 1714 3412 
Q 1947 2706 1947 2009 
Q 1947 1309 1714 600 
Q 1481 -109 1013 -844 
L 513 -844 
Q 928 -128 1133 580 
Q 1338 1288 1338 2009 
Q 1338 2731 1133 3434 
Q 928 4138 513 4856 
z
" transform="scale(0.015625)"/>
     </defs>
     <use xlink:href="#DejaVuSans-50"/>
     <use xlink:href="#DejaVuSans-68" transform="translate(60.302734 0)"/>
     <use xlink:href="#DejaVuSans-65" transform="translate(123.681641 0)"/>
     <use xlink:href="#DejaVuSans-2d" transform="translate(185.205078 0)"/>
     <use xlink:href="#DejaVuSans-52" transform="translate(221.289062 0)"/>
     <use xlink:href="#DejaVuSans-65" transform="translate(286.271484 0)"/>
     <use xlink:href="#DejaVuSans-76" transform="translate(347.794922 0)"/>
     <use xlink:href="#DejaVuSans-65" transform="translate(406.974609 0)"/>
     <use xlink:href="#DejaVuSans-72" transform="translate(468.498047 0)"/>
     <use xlink:href="#DejaVuSans-73" transform="translate(509.611328 0)"/>
     <use xlink:href="#DejaVuSans-65" transform="translate(561.710938 0)"/>
     <use xlink:href="#DejaVuSans-20" transform="translate(623.234375 0)"/>
     <use xlink:href="#DejaVuSans-4c" transform="translate(655.021484 0)"/>
     <use xlink:href="#DejaVuSans-61" transform="translate(710.734375 0)"/>
     <use xlink:href="#DejaVuSans-62" transform="translate(772.013672 0)"/>
     <use xlink:href="#DejaVuSans-65" transform="translate(835.490234 0)"/>
     <use xlink:href="#DejaVuSans-6c" transform="translate(897.013672 0)"/>
     <use xlink:href="#DejaVuSans-6c" transform="translate(924.796875 0)"/>
     <use xlink:href="#DejaVuSans-65" transform="translate(952.580078 0)"/>
     <use xlink:href="#DejaVuSans-64" transform="translate(1014.103516 0)"/>
     <use xlink:href="#DejaVuSans-20" transform="translate(1077.580078 0)"/>
     <use xlink:href="#DejaVuSans-48" transform="translate(1109.367188 0)"/>
     <use xlink:href="#DejaVuSans-65" transform="translate(1184.5625 0)"/>
     <use xlink:href="#DejaVuSans-69" transform="translate(1246.085938 0)"/>
     <use xlink:href="#DejaVuSans-67" transform="translate(1273.869141 0)"/>
     <use xlink:href="#DejaVuSans-68" transform="translate(1337.345703 0)"/>
     <use xlink:href="#DejaVuSans-74" transform="translate(1400.724609 0)"/>
     <use xlink:href="#DejaVuSans-20" transform="translate(1439.933594 0)"/>
     <use xlink:href="#DejaVuSans-72" transform="translate(1471.720703 0)"/>
     <use xlink:href="#DejaVuSans-65" transform="translate(1510.583984 0)"/>
     <use xlink:href="#DejaVuSans-6c" transform="translate(1572.107422 0)"/>
     <use xlink:href="#DejaVuSans-61" transform="translate(1599.890625 0)"/>
     <use xlink:href="#DejaVuSans-74" transform="translate(1661.169922 0)"/>
     <use xlink:href="#DejaVuSans-69" transform="translate(1700.378906 0)"/>
     <use xlink:href="#DejaVuSans-76" transform="translate(1728.162109 0)"/>
     <use xlink:href="#DejaVuSans-65" transform="translate(1787.341797 0)"/>
     <use xlink:href="#DejaVuSans-20" transform="translate(1848.865234 0)"/>
     <use xlink:href="#DejaVuSans-74" transform="translate(1880.652344 0)"/>
     <use xlink:href="#DejaVuSans-6f" transform="translate(1919.861328 0)"/>
     <use xlink:href="#DejaVuSans-20" transform="translate(1981.042969 0)"/>
     <use xlink:href="#DejaVuSans-43" transform="translate(2012.830078 0)"/>
     <use xlink:href="#DejaVuSans-6f" transform="translate(2082.654297 0)"/>
     <use xlink:href="#DejaVuSans-6e" transform="translate(2143.835938 0)"/>
     <use xlink:href="#DejaVuSans-74" transform="translate(2207.214844 0)"/>
     <use xlink:href="#DejaVuSans-72" transform="translate(2246.423828 0)"/>
     <use xlink:href="#DejaVuSans-6f" transform="translate(2285.287109 0)"/>
     <use xlink:href="#DejaVuSans-6c" transform="translate(2346.46875 0)"/>
     <use xlink:href="#DejaVuSans-20" transform="translate(2374.251953 0)"/>
     <use xlink:href="#DejaVuSans-48" transform="translate(2406.039062 0)"/>
     <use xlink:href="#DejaVuSans-65" transform="translate(2481.234375 0)"/>
     <use xlink:href="#DejaVuSans-69" transform="translate(2542.757812 0)"/>
     <use xlink:href="#DejaVuSans-67" transform="translate(2570.541016 0)"/>
     <use xlink:href="#DejaVuSans-68" transform="translate(2634.017578 0)"/>
     <use xlink:href="#DejaVuSans-74" transform="translate(2697.396484 0)"/>
     <use xlink:href="#DejaVuSans-20" transform="translate(2736.605469 0)"/>
     <use xlink:href="#DejaVuSans-28" transform="translate(2768.392578 0)"/>
     <use xlink:href="#DejaVuSans-6d" transform="translate(2807.40625 0)"/>
     <use xlink:href="#DejaVuSans-65" transform="translate(2904.818359 0)"/>
     <use xlink:href="#DejaVuSans-64" transform="translate(2966.341797 0)"/>
     <use xlink:href="#DejaVuSans-69" transform="translate(3029.818359 0)"/>
     <use xlink:href="#DejaVuSans-61" transform="translate(3057.601562 0)"/>
     <use xlink:href="#DejaVuSans-6e" transform="translate(3118.880859 0)"/>
     <use xlink:href="#DejaVuSans-20" transform="translate(3182.259766 0)"/>
     <use xlink:href="#DejaVuSans-6e" transform="translate(3214.046875 0)"/>
     <use xlink:href="#DejaVuSans-6f" transform="translate(3277.425781 0)"/>
     <use xlink:href="#DejaVuSans-72" transform="translate(3338.607422 0)"/>
     <use xlink:href="#DejaVuSans-6d" transform="translate(3377.970703 0)"/>
     <use xlink:href="#DejaVuSans-61" transform="translate(3475.382812 0)"/>
     <use xlink:href="#DejaVuSans-6c" transform="translate(3536.662109 0)"/>
     <use xlink:href="#DejaVuSans-69" transform="translate(3564.445312 0)"/>
     <use xlink:href="#DejaVuSans-7a" transform="translate(3592.228516 0)"/>
     <use xlink:href="#DejaVuSans-65" transform="translate(3644.71875 0)"/>
     <use xlink:href="#DejaVuSans-64" transform="translate(3706.242188 0)"/>
     <use xlink:href="#DejaVuSans-20" transform="translate(3769.71875 0)"/>
     <use xlink:href="#DejaVuSans-61" transform="translate(3801.505859 0)"/>
     <use xlink:href="#DejaVuSans-6e" transform="translate(3862.785156 0)"/>
     <use xlink:href="#DejaVuSans-64" transform="translate(3926.164062 0)"/>
     <use xlink:href="#DejaVuSans-20" transform="translate(3989.640625 0)"/>
     <use xlink:href="#DejaVuSans-6f" transform="translate(4021.427734 0)"/>
     <use xlink:href="#DejaVuSans-75" transform="translate(4082.609375 0)"/>
     <use xlink:href="#DejaVuSans-74" transform="translate(4145.988281 0)"/>
     <use xlink:href="#DejaVuSans-6c" transform="translate(4185.197266 0)"/>
     <use xlink:href="#DejaVuSans-69" transform="translate(4212.980469 0)"/>
     <use xlink:href="#DejaVuSans-65" transform="translate(4240.763672 0)"/>
     <use xlink:href="#DejaVuSans-72" transform="translate(4302.287109 0)"/>
     <use xlink:href="#DejaVuSans-73" transform="translate(4343.400391 0)"/>
     <use xlink:href="#DejaVuSans-20" transform="translate(4395.5 0)"/>
     <use xlink:href="#DejaVuSans-63" transform="translate(4427.287109 0)"/>
     <use xlink:href="#DejaVuSans-61" transform="translate(4482.267578 0)"/>
     <use xlink:href="#DejaVuSans-70" transform="translate(4543.546875 0)"/>
     <use xlink:href="#DejaVuSans-70" transform="translate(4607.023438 0)"/>
     <use xlink:href="#DejaVuSans-65" transform="translate(4670.5 0)"/>
     <use xlink:href="#DejaVuSans-64" transform="translate(4732.023438 0)"/>
     <use xlink:href="#DejaVuSans-20" transform="translate(4795.5 0)"/>
     <use xlink:href="#DejaVuSans-61" transform="translate(4827.287109 0)"/>
     <use xlink:href="#DejaVuSans-74" transform="translate(4888.566406 0)"/>
     <use xlink:href="#DejaVuSans-20" transform="translate(4927.775391 0)"/>
     <use xlink:href="#DejaVuSans-31" transform="translate(4959.5625 0)"/>
     <use xlink:href="#DejaVuSans-29" transform="translate(5023.185547 0)"/>
    </g>
   </g>
  </g>
 </g>
 <defs>
  <clipPath id="pd3e859e6cb">
   <rect x="47.72" y="26.88" width="661.48" height="363.16"/>
  </clipPath>
 </defs>
</svg>
