<?xml version="1.0" encoding="utf-8" standalone="no"?>
<!DOCTYPE svg PUBLIC "-//W3C//DTD SVG 1.1//EN"
  "http://www.w3.org/Graphics/SVG/1.1/DTD/svg11.dtd">
<svg xmlns:xlink="http://www.w3.org/1999/xlink" width="720pt" height="432pt" viewBox="0 0 720 432" xmlns="http://www.w3.org/2000/svg" version="1.1">
 <metadata>
  <rdf:RDF xmlns:dc="http://purl.org/dc/elements/1.1/" xmlns:cc="http://creativecommons.org/ns#" xmlns:rdf="http://www.w3.org/1999/02/22-rdf-syntax-ns#">
   <cc:Work>
    <dc:type rdf:resource="http://purl.org/dc/dcmitype/StillImage"/>
    <dc:date>2026-03-17T14:07:10.119546</dc:date>
    <dc:format>image/svg+xml</dc:format>
    <dc:creator>
     <cc:Agent>
      <dc:title>Matplotlib v3.10.8, https://matplotlib.org/</dc:title>
     </cc:Agent>
    </dc:creator>
   </cc:Work>
  </rdf:RDF>
 </metadata>
 <defs>
  <style type="text/css">*{stroke-linejoin: round; stroke-linecap: butt}</style>
 </defs>
 <g id="figure_1">
  <g id="patch_1">
   <path d="M 0 432 
L 720 432 
L 720 0 
L 0 0 
z
" style="fill: #ffffff"/>
  </g>
  <g id="axes_1">
   <g id="patch_2">
    <path d="M 47.81 390.04 
L 709.2 390.04 
L 709.2 26.88 
L 47.81 26.88 
z
" style="fill: #ffffff"/>
   </g>
   <g id="patch_3">
    <path d="M 46.443492 390.04 
L 49.176508 390.04 
L 49.176508 178.51826 
L 46.443492 178.51826 
z
" clip-path="url(#pa818a6c692)" style="fill: #008000"/>
   </g>
   <g id="patch_4">
    <path d="M 49.176508 390.04 
L 51.909525 390.04 
L 51.909525 114.296925 
L 49.176508 114.296925 
z
" clip-path="url(#pa818a6c692)" style="fill: #008000"/>
   </g>
   <g id="patch_5">
    <path d="M 51.909525 390.04 
L 54.642541 390.04 
L 54.642541 189.512566 
L 51.909525 189.512566 
z
" clip-path="url(#pa818a6c692)" style="fill: #008000"/>
   </g>
   <g id="patch_6">
    <path d="M 54.642541 390.04 
L 57.375558 390.04 
L 57.375558 165.150826 
L 54.642541 165.150826 
z
" clip-path="url(#pa818a6c692)" style="fill: #008000"/>
   </g>
   <g id="patch_7">
    <path d="M 57.375558 390.04 
L 60.108574 390.04 
L 60.108574 185.488126 
L 57.375558 185.488126 
z
" clip-path="url(#pa818a6c692)" style="fill: #008000"/>
   </g>
   <g id="patch_8">
    <path d="M 60.108574 390.04 
L 62.841591 390.04 
L 62.841591 179.856507 
L 60.108574 179.856507 
z
" clip-path="url(#pa818a6c692)" style="fill: #008000"/>
   </g>
   <g id="patch_9">
    <path d="M 62.841591 390.04 
L 65.574607 390.04 
L 65.574607 128.616301 
L 62.841591 128.616301 
z
" clip-path="url(#pa818a6c692)" style="fill: #008000"/>
   </g>
   <g id="patch_10">
    <path d="M 65.574607 390.04 
L 68.307624 390.04 
L 68.307624 228.967107 
L 65.574607 228.967107 
z
" clip-path="url(#pa818a6c692)" style="fill: #ffa500"/>
   </g>
   <g id="patch_11">
    <path d="M 68.307624 390.04 
L 71.04064 390.04 
L 71.04064 154.177826 
L 68.307624 154.177826 
z
" clip-path="url(#pa818a6c692)" style="fill: #008000"/>
   </g>
   <g id="patch_12">
    <path d="M 71.04064 390.04 
L 73.773657 390.04 
L 73.773657 186.765453 
L 71.04064 186.765453 
z
" clip-path="url(#pa818a6c692)" style="fill: #008000"/>
   </g>
   <g id="patch_13">
    <path d="M 73.773657 390.04 
L 76.506674 390.04 
L 76.506674 192.477375 
L 73.773657 192.477375 
z
" clip-path="url(#pa818a6c692)" style="fill: #008000"/>
   </g>
   <g id="patch_14">
    <path d="M 76.506674 390.04 
L 79.23969 390.04 
L 79.23969 179.019303 
L 76.506674 179.019303 
z
" clip-path="url(#pa818a6c692)" style="fill: #008000"/>
   </g>
   <g id="patch_15">
    <path d="M 79.23969 390.04 
L 81.972707 390.04 
L 81.972707 181.310319 
L 79.23969 181.310319 
z
" clip-path="url(#pa818a6c692)" style="fill: #008000"/>
   </g>
   <g id="patch_16">
    <path d="M 81.972707 390.04 
L 84.705723 390.04 
L 84.705723 177.232332 
L 81.972707 177.232332 
z
" clip-path="url(#pa818a6c692)" style="fill: #008000"/>
   </g>
   <g id="patch_17">
    <path d="M 84.705723 390.04 
L 87.43874 390.04 
L 87.43874 227.6433 
L 84.705723 227.6433 
z
" clip-path="url(#pa818a6c692)" style="fill: #008000"/>
   </g>
   <g id="patch_18">
    <path d="M 87.43874 390.04 
L 90.171756 390.04 
L 90.171756 169.710482 
L 87.43874 169.710482 
z
" clip-path="url(#pa818a6c692)" style="fill: #008000"/>
   </g>
   <g id="patch_19">
    <path d="M 90.171756 390.04 
L 92.904773 390.04 
L 92.904773 198.542442 
L 90.171756 198.542442 
z
" clip-path="url(#pa818a6c692)" style="fill: #008000"/>
   </g>
   <g id="patch_20">
    <path d="M 92.904773 390.04 
L 95.637789 390.04 
L 95.637789 234.200451 
L 92.904773 234.200451 
z
" clip-path="url(#pa818a6c692)" style="fill: #ffa500"/>
   </g>
   <g id="patch_21">
    <path d="M 95.637789 390.04 
L 98.370806 390.04 
L 98.370806 198.03032 
L 95.637789 198.03032 
z
" clip-path="url(#pa818a6c692)" style="fill: #008000"/>
   </g>
   <g id="patch_22">
    <path d="M 98.370806 390.04 
L 101.103822 390.04 
L 101.103822 176.95815 
L 98.370806 176.95815 
z
" clip-path="url(#pa818a6c692)" style="fill: #008000"/>
   </g>
   <g id="patch_23">
    <path d="M 101.103822 390.04 
L 103.836839 390.04 
L 103.836839 181.705411 
L 101.103822 181.705411 
z
" clip-path="url(#pa818a6c692)" style="fill: #008000"/>
   </g>
   <g id="patch_24">
    <path d="M 103.836839 390.04 
L 106.569855 390.04 
L 106.569855 182.217177 
L 103.836839 182.217177 
z
" clip-path="url(#pa818a6c692)" style="fill: #008000"/>
   </g>
   <g id="patch_25">
    <path d="M 106.569855 390.04 
L 109.302872 390.04 
L 109.302872 167.967705 
L 106.569855 167.967705 
z
" clip-path="url(#pa818a6c692)" style="fill: #008000"/>
   </g>
   <g id="patch_26">
    <path d="M 109.302872 390.04 
L 112.035888 390.04 
L 112.035888 235.900812 
L 109.302872 235.900812 
z
" clip-path="url(#pa818a6c692)" style="fill: #ffa500"/>
   </g>
   <g id="patch_27">
    <path d="M 112.035888 390.04 
L 114.768905 390.04 
L 114.768905 201.852994 
L 112.035888 201.852994 
z
" clip-path="url(#pa818a6c692)" style="fill: #008000"/>
   </g>
   <g id="patch_28">
    <path d="M 114.768905 390.04 
L 117.501921 390.04 
L 117.501921 292.693462 
L 114.768905 292.693462 
z
" clip-path="url(#pa818a6c692)" style="fill: #ff0000"/>
   </g>
   <g id="patch_29">
    <path d="M 117.501921 390.04 
L 120.234938 390.04 
L 120.234938 207.826941 
L 117.501921 207.826941 
z
" clip-path="url(#pa818a6c692)" style="fill: #008000"/>
   </g>
   <g id="patch_30">
    <path d="M 120.234938 390.04 
L 122.967955 390.04 
L 122.967955 228.210143 
L 120.234938 228.210143 
z
" clip-path="url(#pa818a6c692)" style="fill: #ffa500"/>
   </g>
   <g id="patch_31">
    <path d="M 122.967955 390.04 
L 125.700971 390.04 
L 125.700971 162.852416 
L 122.967955 162.852416 
z
" clip-path="url(#pa818a6c692)" style="fill: #008000"/>
   </g>
   <g id="patch_32">
    <path d="M 125.700971 390.04 
L 128.433988 390.04 
L 128.433988 137.184006 
L 125.700971 137.184006 
z
" clip-path="url(#pa818a6c692)" style="fill: #008000"/>
   </g>
   <g id="patch_33">
    <path d="M 128.433988 390.04 
L 131.167004 390.04 
L 131.167004 187.647395 
L 128.433988 187.647395 
z
" clip-path="url(#pa818a6c692)" style="fill: #008000"/>
   </g>
   <g id="patch_34">
    <path d="M 131.167004 390.04 
L 133.900021 390.04 
L 133.900021 199.829519 
L 131.167004 199.829519 
z
" clip-path="url(#pa818a6c692)" style="fill: #008000"/>
   </g>
   <g id="patch_35">
    <path d="M 133.900021 390.04 
L 136.633037 390.04 
L 136.633037 185.917183 
L 133.900021 185.917183 
z
" clip-path="url(#pa818a6c692)" style="fill: #008000"/>
   </g>
   <g id="patch_36">
    <path d="M 136.633037 390.04 
L 139.366054 390.04 
L 139.366054 268.120747 
L 136.633037 268.120747 
z
" clip-path="url(#pa818a6c692)" style="fill: #ff0000"/>
   </g>
   <g id="patch_37">
    <path d="M 139.366054 390.04 
L 142.09907 390.04 
L 142.09907 236.940289 
L 139.366054 236.940289 
z
" clip-path="url(#pa818a6c692)" style="fill: #ffa500"/>
   </g>
   <g id="patch_38">
    <path d="M 142.09907 390.04 
L 144.832087 390.04 
L 144.832087 190.615667 
L 142.09907 190.615667 
z
" clip-path="url(#pa818a6c692)" style="fill: #008000"/>
   </g>
   <g id="patch_39">
    <path d="M 144.832087 390.04 
L 147.565103 390.04 
L 147.565103 155.480717 
L 144.832087 155.480717 
z
" clip-path="url(#pa818a6c692)" style="fill: #008000"/>
   </g>
   <g id="patch_40">
    <path d="M 147.565103 390.04 
L 150.29812 390.04 
L 150.29812 160.102191 
L 147.565103 160.102191 
z
" clip-path="url(#pa818a6c692)" style="fill: #008000"/>
   </g>
   <g id="patch_41">
    <path d="M 150.29812 390.04 
L 153.031136 390.04 
L 153.031136 204.150603 
L 150.29812 204.150603 
z
" clip-path="url(#pa818a6c692)" style="fill: #008000"/>
   </g>
   <g id="patch_42">
    <path d="M 153.031136 390.04 
L 155.764153 390.04 
L 155.764153 175.105923 
L 153.031136 175.105923 
z
" clip-path="url(#pa818a6c692)" style="fill: #008000"/>
   </g>
   <g id="patch_43">
    <path d="M 155.764153 390.04 
L 158.497169 390.04 
L 158.497169 153.602577 
L 155.764153 153.602577 
z
" clip-path="url(#pa818a6c692)" style="fill: #008000"/>
   </g>
   <g id="patch_44">
    <path d="M 158.497169 390.04 
L 161.230186 390.04 
L 161.230186 190.354879 
L 158.497169 190.354879 
z
" clip-path="url(#pa818a6c692)" style="fill: #008000"/>
   </g>
   <g id="patch_45">
    <path d="M 161.230186 390.04 
L 163.963202 390.04 
L 163.963202 205.041327 
L 161.230186 205.041327 
z
" clip-path="url(#pa818a6c692)" style="fill: #008000"/>
   </g>
   <g id="patch_46">
    <path d="M 163.963202 390.04 
L 166.696219 390.04 
L 166.696219 198.326719 
L 163.963202 198.326719 
z
" clip-path="url(#pa818a6c692)" style="fill: #008000"/>
   </g>
   <g id="patch_47">
    <path d="M 166.696219 390.04 
L 169.429236 390.04 
L 169.429236 223.810236 
L 166.696219 223.810236 
z
" clip-path="url(#pa818a6c692)" style="fill: #008000"/>
   </g>
   <g id="patch_48">
    <path d="M 169.429236 390.04 
L 172.162252 390.04 
L 172.162252 154.309976 
L 169.429236 154.309976 
z
" clip-path="url(#pa818a6c692)" style="fill: #008000"/>
   </g>
   <g id="patch_49">
    <path d="M 172.162252 390.04 
L 174.895269 390.04 
L 174.895269 213.041052 
L 172.162252 213.041052 
z
" clip-path="url(#pa818a6c692)" style="fill: #008000"/>
   </g>
   <g id="patch_50">
    <path d="M 174.895269 390.04 
L 177.628285 390.04 
L 177.628285 197.345989 
L 174.895269 197.345989 
z
" clip-path="url(#pa818a6c692)" style="fill: #008000"/>
   </g>
   <g id="patch_51">
    <path d="M 177.628285 390.04 
L 180.361302 390.04 
L 180.361302 169.1629 
L 177.628285 169.1629 
z
" clip-path="url(#pa818a6c692)" style="fill: #008000"/>
   </g>
   <g id="patch_52">
    <path d="M 180.361302 390.04 
L 183.094318 390.04 
L 183.094318 206.984418 
L 180.361302 206.984418 
z
" clip-path="url(#pa818a6c692)" style="fill: #008000"/>
   </g>
   <g id="patch_53">
    <path d="M 183.094318 390.04 
L 185.827335 390.04 
L 185.827335 176.336064 
L 183.094318 176.336064 
z
" clip-path="url(#pa818a6c692)" style="fill: #008000"/>
   </g>
   <g id="patch_54">
    <path d="M 185.827335 390.04 
L 188.560351 390.04 
L 188.560351 191.514886 
L 185.827335 191.514886 
z
" clip-path="url(#pa818a6c692)" style="fill: #008000"/>
   </g>
   <g id="patch_55">
    <path d="M 188.560351 390.04 
L 191.293368 390.04 
L 191.293368 170.192736 
L 188.560351 170.192736 
z
" clip-path="url(#pa818a6c692)" style="fill: #008000"/>
   </g>
   <g id="patch_56">
    <path d="M 191.293368 390.04 
L 194.026384 390.04 
L 194.026384 220.599147 
L 191.293368 220.599147 
z
" clip-path="url(#pa818a6c692)" style="fill: #008000"/>
   </g>
   <g id="patch_57">
    <path d="M 194.026384 390.04 
L 196.759401 390.04 
L 196.759401 180.178947 
L 194.026384 180.178947 
z
" clip-path="url(#pa818a6c692)" style="fill: #008000"/>
   </g>
   <g id="patch_58">
    <path d="M 196.759401 390.04 
L 199.492417 390.04 
L 199.492417 186.260003 
L 196.759401 186.260003 
z
" clip-path="url(#pa818a6c692)" style="fill: #008000"/>
   </g>
   <g id="patch_59">
    <path d="M 199.492417 390.04 
L 202.225434 390.04 
L 202.225434 206.289042 
L 199.492417 206.289042 
z
" clip-path="url(#pa818a6c692)" style="fill: #008000"/>
   </g>
   <g id="patch_60">
    <path d="M 202.225434 390.04 
L 204.95845 390.04 
L 204.95845 273.910913 
L 202.225434 273.910913 
z
" clip-path="url(#pa818a6c692)" style="fill: #ff0000"/>
   </g>
   <g id="patch_61">
    <path d="M 204.95845 390.04 
L 207.691467 390.04 
L 207.691467 203.336761 
L 204.95845 203.336761 
z
" clip-path="url(#pa818a6c692)" style="fill: #008000"/>
   </g>
   <g id="patch_62">
    <path d="M 207.691467 390.04 
L 210.424483 390.04 
L 210.424483 198.689502 
L 207.691467 198.689502 
z
" clip-path="url(#pa818a6c692)" style="fill: #008000"/>
   </g>
   <g id="patch_63">
    <path d="M 210.424483 390.04 
L 213.1575 390.04 
L 213.1575 201.023014 
L 210.424483 201.023014 
z
" clip-path="url(#pa818a6c692)" style="fill: #008000"/>
   </g>
   <g id="patch_64">
    <path d="M 213.1575 390.04 
L 215.890517 390.04 
L 215.890517 187.986412 
L 213.1575 187.986412 
z
" clip-path="url(#pa818a6c692)" style="fill: #008000"/>
   </g>
   <g id="patch_65">
    <path d="M 215.890517 390.04 
L 218.623533 390.04 
L 218.623533 285.209944 
L 215.890517 285.209944 
z
" clip-path="url(#pa818a6c692)" style="fill: #ff0000"/>
   </g>
   <g id="patch_66">
    <path d="M 218.623533 390.04 
L 221.35655 390.04 
L 221.35655 186.063339 
L 218.623533 186.063339 
z
" clip-path="url(#pa818a6c692)" style="fill: #008000"/>
   </g>
   <g id="patch_67">
    <path d="M 221.35655 390.04 
L 224.089566 390.04 
L 224.089566 189.916794 
L 221.35655 189.916794 
z
" clip-path="url(#pa818a6c692)" style="fill: #008000"/>
   </g>
   <g id="patch_68">
    <path d="M 224.089566 390.04 
L 226.822583 390.04 
L 226.822583 194.608082 
L 224.089566 194.608082 
z
" clip-path="url(#pa818a6c692)" style="fill: #008000"/>
   </g>
   <g id="patch_69">
    <path d="M 226.822583 390.04 
L 229.555599 390.04 
L 229.555599 199.476029 
L 226.822583 199.476029 
z
" clip-path="url(#pa818a6c692)" style="fill: #008000"/>
   </g>
   <g id="patch_70">
    <path d="M 229.555599 390.04 
L 232.288616 390.04 
L 232.288616 200.962922 
L 229.555599 200.962922 
z
" clip-path="url(#pa818a6c692)" style="fill: #008000"/>
   </g>
   <g id="patch_71">
    <path d="M 232.288616 390.04 
L 235.021632 390.04 
L 235.021632 174.533244 
L 232.288616 174.533244 
z
" clip-path="url(#pa818a6c692)" style="fill: #008000"/>
   </g>
   <g id="patch_72">
    <path d="M 235.021632 390.04 
L 237.754649 390.04 
L 237.754649 186.690569 
L 235.021632 186.690569 
z
" clip-path="url(#pa818a6c692)" style="fill: #008000"/>
   </g>
   <g id="patch_73">
    <path d="M 237.754649 390.04 
L 240.487665 390.04 
L 240.487665 272.064181 
L 237.754649 272.064181 
z
" clip-path="url(#pa818a6c692)" style="fill: #ff0000"/>
   </g>
   <g id="patch_74">
    <path d="M 240.487665 390.04 
L 243.220682 390.04 
L 243.220682 260.691083 
L 240.487665 260.691083 
z
" clip-path="url(#pa818a6c692)" style="fill: #ffa500"/>
   </g>
   <g id="patch_75">
    <path d="M 243.220682 390.04 
L 245.953698 390.04 
L 245.953698 211.663193 
L 243.220682 211.663193 
z
" clip-path="url(#pa818a6c692)" style="fill: #008000"/>
   </g>
   <g id="patch_76">
    <path d="M 245.953698 390.04 
L 248.686715 390.04 
L 248.686715 210.535368 
L 245.953698 210.535368 
z
" clip-path="url(#pa818a6c692)" style="fill: #008000"/>
   </g>
   <g id="patch_77">
    <path d="M 248.686715 390.04 
L 251.419731 390.04 
L 251.419731 178.288749 
L 248.686715 178.288749 
z
" clip-path="url(#pa818a6c692)" style="fill: #008000"/>
   </g>
   <g id="patch_78">
    <path d="M 251.419731 390.04 
L 254.152748 390.04 
L 254.152748 181.43411 
L 251.419731 181.43411 
z
" clip-path="url(#pa818a6c692)" style="fill: #008000"/>
   </g>
   <g id="patch_79">
    <path d="M 254.152748 390.04 
L 256.885764 390.04 
L 256.885764 173.656254 
L 254.152748 173.656254 
z
" clip-path="url(#pa818a6c692)" style="fill: #008000"/>
   </g>
   <g id="patch_80">
    <path d="M 256.885764 390.04 
L 259.618781 390.04 
L 259.618781 184.04465 
L 256.885764 184.04465 
z
" clip-path="url(#pa818a6c692)" style="fill: #008000"/>
   </g>
   <g id="patch_81">
    <path d="M 259.618781 390.04 
L 262.351798 390.04 
L 262.351798 227.277055 
L 259.618781 227.277055 
z
" clip-path="url(#pa818a6c692)" style="fill: #008000"/>
   </g>
   <g id="patch_82">
    <path d="M 262.351798 390.04 
L 265.084814 390.04 
L 265.084814 212.842213 
L 262.351798 212.842213 
z
" clip-path="url(#pa818a6c692)" style="fill: #008000"/>
   </g>
   <g id="patch_83">
    <path d="M 265.084814 390.04 
L 267.817831 390.04 
L 267.817831 194.94892 
L 265.084814 194.94892 
z
" clip-path="url(#pa818a6c692)" style="fill: #008000"/>
   </g>
   <g id="patch_84">
    <path d="M 267.817831 390.04 
L 270.550847 390.04 
L 270.550847 189.84945 
L 267.817831 189.84945 
z
" clip-path="url(#pa818a6c692)" style="fill: #008000"/>
   </g>
   <g id="patch_85">
    <path d="M 270.550847 390.04 
L 273.283864 390.04 
L 273.283864 192.213381 
L 270.550847 192.213381 
z
" clip-path="url(#pa818a6c692)" style="fill: #008000"/>
   </g>
   <g id="patch_86">
    <path d="M 273.283864 390.04 
L 276.01688 390.04 
L 276.01688 184.949815 
L 273.283864 184.949815 
z
" clip-path="url(#pa818a6c692)" style="fill: #008000"/>
   </g>
   <g id="patch_87">
    <path d="M 276.01688 390.04 
L 278.749897 390.04 
L 278.749897 194.687217 
L 276.01688 194.687217 
z
" clip-path="url(#pa818a6c692)" style="fill: #008000"/>
   </g>
   <g id="patch_88">
    <path d="M 278.749897 390.04 
L 281.482913 390.04 
L 281.482913 191.818073 
L 278.749897 191.818073 
z
" clip-path="url(#pa818a6c692)" style="fill: #008000"/>
   </g>
   <g id="patch_89">
    <path d="M 281.482913 390.04 
L 284.21593 390.04 
L 284.21593 188.068946 
L 281.482913 188.068946 
z
" clip-path="url(#pa818a6c692)" style="fill: #008000"/>
   </g>
   <g id="patch_90">
    <path d="M 284.21593 390.04 
L 286.948946 390.04 
L 286.948946 204.280443 
L 284.21593 204.280443 
z
" clip-path="url(#pa818a6c692)" style="fill: #008000"/>
   </g>
   <g id="patch_91">
    <path d="M 286.948946 390.04 
L 289.681963 390.04 
L 289.681963 188.224335 
L 286.948946 188.224335 
z
" clip-path="url(#pa818a6c692)" style="fill: #008000"/>
   </g>
   <g id="patch_92">
    <path d="M 289.681963 390.04 
L 292.414979 390.04 
L 292.414979 161.488002 
L 289.681963 161.488002 
z
" clip-path="url(#pa818a6c692)" style="fill: #008000"/>
   </g>
   <g id="patch_93">
    <path d="M 292.414979 390.04 
L 295.147996 390.04 
L 295.147996 165.930197 
L 292.414979 165.930197 
z
" clip-path="url(#pa818a6c692)" style="fill: #008000"/>
   </g>
   <g id="patch_94">
    <path d="M 295.147996 390.04 
L 297.881012 390.04 
L 297.881012 169.068381 
L 295.147996 169.068381 
z
" clip-path="url(#pa818a6c692)" style="fill: #008000"/>
   </g>
   <g id="patch_95">
    <path d="M 297.881012 390.04 
L 300.614029 390.04 
L 300.614029 202.051381 
L 297.881012 202.051381 
z
" clip-path="url(#pa818a6c692)" style="fill: #008000"/>
   </g>
   <g id="patch_96">
    <path d="M 300.614029 390.04 
L 303.347045 390.04 
L 303.347045 255.91965 
L 300.614029 255.91965 
z
" clip-path="url(#pa818a6c692)" style="fill: #ffa500"/>
   </g>
   <g id="patch_97">
    <path d="M 303.347045 390.04 
L 306.080062 390.04 
L 306.080062 195.167279 
L 303.347045 195.167279 
z
" clip-path="url(#pa818a6c692)" style="fill: #008000"/>
   </g>
   <g id="patch_98">
    <path d="M 306.080062 390.04 
L 308.813079 390.04 
L 308.813079 199.678912 
L 306.080062 199.678912 
z
" clip-path="url(#pa818a6c692)" style="fill: #008000"/>
   </g>
   <g id="patch_99">
    <path d="M 308.813079 390.04 
L 311.546095 390.04 
L 311.546095 158.403492 
L 308.813079 158.403492 
z
" clip-path="url(#pa818a6c692)" style="fill: #008000"/>
   </g>
   <g id="patch_100">
    <path d="M 311.546095 390.04 
L 314.279112 390.04 
L 314.279112 176.978812 
L 311.546095 176.978812 
z
" clip-path="url(#pa818a6c692)" style="fill: #008000"/>
   </g>
   <g id="patch_101">
    <path d="M 314.279112 390.04 
L 317.012128 390.04 
L 317.012128 210.063885 
L 314.279112 210.063885 
z
" clip-path="url(#pa818a6c692)" style="fill: #008000"/>
   </g>
   <g id="patch_102">
    <path d="M 317.012128 390.04 
L 319.745145 390.04 
L 319.745145 271.154975 
L 317.012128 271.154975 
z
" clip-path="url(#pa818a6c692)" style="fill: #ff0000"/>
   </g>
   <g id="patch_103">
    <path d="M 319.745145 390.04 
L 322.478161 390.04 
L 322.478161 181.926105 
L 319.745145 181.926105 
z
" clip-path="url(#pa818a6c692)" style="fill: #008000"/>
   </g>
   <g id="patch_104">
    <path d="M 322.478161 390.04 
L 325.211178 390.04 
L 325.211178 205.741159 
L 322.478161 205.741159 
z
" clip-path="url(#pa818a6c692)" style="fill: #008000"/>
   </g>
   <g id="patch_105">
    <path d="M 325.211178 390.04 
L 327.944194 390.04 
L 327.944194 184.479842 
L 325.211178 184.479842 
z
" clip-path="url(#pa818a6c692)" style="fill: #008000"/>
   </g>
   <g id="patch_106">
    <path d="M 327.944194 390.04 
L 330.677211 390.04 
L 330.677211 197.192382 
L 327.944194 197.192382 
z
" clip-path="url(#pa818a6c692)" style="fill: #008000"/>
   </g>
   <g id="patch_107">
    <path d="M 330.677211 390.04 
L 333.410227 390.04 
L 333.410227 172.623297 
L 330.677211 172.623297 
z
" clip-path="url(#pa818a6c692)" style="fill: #008000"/>
   </g>
   <g id="patch_108">
    <path d="M 333.410227 390.04 
L 336.143244 390.04 
L 336.143244 177.894337 
L 333.410227 177.894337 
z
" clip-path="url(#pa818a6c692)" style="fill: #008000"/>
   </g>
   <g id="patch_109">
    <path d="M 336.143244 390.04 
L 338.87626 390.04 
L 338.87626 239.483188 
L 336.143244 239.483188 
z
" clip-path="url(#pa818a6c692)" style="fill: #ffa500"/>
   </g>
   <g id="patch_110">
    <path d="M 338.87626 390.04 
L 341.609277 390.04 
L 341.609277 180.904774 
L 338.87626 180.904774 
z
" clip-path="url(#pa818a6c692)" style="fill: #008000"/>
   </g>
   <g id="patch_111">
    <path d="M 341.609277 390.04 
L 344.342293 390.04 
L 344.342293 244.825628 
L 341.609277 244.825628 
z
" clip-path="url(#pa818a6c692)" style="fill: #ffa500"/>
   </g>
   <g id="patch_112">
    <path d="M 344.342293 390.04 
L 347.07531 390.04 
L 347.07531 177.365827 
L 344.342293 177.365827 
z
" clip-path="url(#pa818a6c692)" style="fill: #008000"/>
   </g>
   <g id="patch_113">
    <path d="M 347.07531 390.04 
L 349.808326 390.04 
L 349.808326 195.181479 
L 347.07531 195.181479 
z
" clip-path="url(#pa818a6c692)" style="fill: #008000"/>
   </g>
   <g id="patch_114">
    <path d="M 349.808326 390.04 
L 352.541343 390.04 
L 352.541343 179.015736 
L 349.808326 179.015736 
z
" clip-path="url(#pa818a6c692)" style="fill: #008000"/>
   </g>
   <g id="patch_115">
    <path d="M 352.541343 390.04 
L 355.27436 390.04 
L 355.27436 179.441598 
L 352.541343 179.441598 
z
" clip-path="url(#pa818a6c692)" style="fill: #008000"/>
   </g>
   <g id="patch_116">
    <path d="M 355.27436 390.04 
L 358.007376 390.04 
L 358.007376 171.714958 
L 355.27436 171.714958 
z
" clip-path="url(#pa818a6c692)" style="fill: #008000"/>
   </g>
   <g id="patch_117">
    <path d="M 358.007376 390.04 
L 360.740393 390.04 
L 360.740393 170.434107 
L 358.007376 170.434107 
z
" clip-path="url(#pa818a6c692)" style="fill: #008000"/>
   </g>
   <g id="patch_118">
    <path d="M 360.740393 390.04 
L 363.473409 390.04 
L 363.473409 216.100396 
L 360.740393 216.100396 
z
" clip-path="url(#pa818a6c692)" style="fill: #008000"/>
   </g>
   <g id="patch_119">
    <path d="M 363.473409 390.04 
L 366.206426 390.04 
L 366.206426 198.269215 
L 363.473409 198.269215 
z
" clip-path="url(#pa818a6c692)" style="fill: #008000"/>
   </g>
   <g id="patch_120">
    <path d="M 366.206426 390.04 
L 368.939442 390.04 
L 368.939442 182.775958 
L 366.206426 182.775958 
z
" clip-path="url(#pa818a6c692)" style="fill: #008000"/>
   </g>
   <g id="patch_121">
    <path d="M 368.939442 390.04 
L 371.672459 390.04 
L 371.672459 190.665465 
L 368.939442 190.665465 
z
" clip-path="url(#pa818a6c692)" style="fill: #008000"/>
   </g>
   <g id="patch_122">
    <path d="M 371.672459 390.04 
L 374.405475 390.04 
L 374.405475 186.987134 
L 371.672459 186.987134 
z
" clip-path="url(#pa818a6c692)" style="fill: #008000"/>
   </g>
   <g id="patch_123">
    <path d="M 374.405475 390.04 
L 377.138492 390.04 
L 377.138492 275.84903 
L 374.405475 275.84903 
z
" clip-path="url(#pa818a6c692)" style="fill: #ff0000"/>
   </g>
   <g id="patch_124">
    <path d="M 377.138492 390.04 
L 379.871508 390.04 
L 379.871508 202.348243 
L 377.138492 202.348243 
z
" clip-path="url(#pa818a6c692)" style="fill: #008000"/>
   </g>
   <g id="patch_125">
    <path d="M 379.871508 390.04 
L 382.604525 390.04 
L 382.604525 184.375992 
L 379.871508 184.375992 
z
" clip-path="url(#pa818a6c692)" style="fill: #008000"/>
   </g>
   <g id="patch_126">
    <path d="M 382.604525 390.04 
L 385.337541 390.04 
L 385.337541 178.485569 
L 382.604525 178.485569 
z
" clip-path="url(#pa818a6c692)" style="fill: #008000"/>
   </g>
   <g id="patch_127">
    <path d="M 385.337541 390.04 
L 388.070558 390.04 
L 388.070558 192.119429 
L 385.337541 192.119429 
z
" clip-path="url(#pa818a6c692)" style="fill: #008000"/>
   </g>
   <g id="patch_128">
    <path d="M 388.070558 390.04 
L 390.803574 390.04 
L 390.803574 186.309877 
L 388.070558 186.309877 
z
" clip-path="url(#pa818a6c692)" style="fill: #008000"/>
   </g>
   <g id="patch_129">
    <path d="M 390.803574 390.04 
L 393.536591 390.04 
L 393.536591 183.756459 
L 390.803574 183.756459 
z
" clip-path="url(#pa818a6c692)" style="fill: #008000"/>
   </g>
   <g id="patch_130">
    <path d="M 393.536591 390.04 
L 396.269607 390.04 
L 396.269607 173.684696 
L 393.536591 173.684696 
z
" clip-path="url(#pa818a6c692)" style="fill: #008000"/>
   </g>
   <g id="patch_131">
    <path d="M 396.269607 390.04 
L 399.002624 390.04 
L 399.002624 188.58325 
L 396.269607 188.58325 
z
" clip-path="url(#pa818a6c692)" style="fill: #008000"/>
   </g>
   <g id="patch_132">
    <path d="M 399.002624 390.04 
L 401.73564 390.04 
L 401.73564 168.484433 
L 399.002624 168.484433 
z
" clip-path="url(#pa818a6c692)" style="fill: #008000"/>
   </g>
   <g id="patch_133">
    <path d="M 401.73564 390.04 
L 404.468657 390.04 
L 404.468657 209.323505 
L 401.73564 209.323505 
z
" clip-path="url(#pa818a6c692)" style="fill: #008000"/>
   </g>
   <g id="patch_134">
    <path d="M 404.468657 390.04 
L 407.201674 390.04 
L 407.201674 194.457848 
L 404.468657 194.457848 
z
" clip-path="url(#pa818a6c692)" style="fill: #008000"/>
   </g>
   <g id="patch_135">
    <path d="M 407.201674 390.04 
L 409.93469 390.04 
L 409.93469 201.966683 
L 407.201674 201.966683 
z
" clip-path="url(#pa818a6c692)" style="fill: #008000"/>
   </g>
   <g id="patch_136">
    <path d="M 409.93469 390.04 
L 412.667707 390.04 
L 412.667707 195.461995 
L 409.93469 195.461995 
z
" clip-path="url(#pa818a6c692)" style="fill: #008000"/>
   </g>
   <g id="patch_137">
    <path d="M 412.667707 390.04 
L 415.400723 390.04 
L 415.400723 192.777685 
L 412.667707 192.777685 
z
" clip-path="url(#pa818a6c692)" style="fill: #008000"/>
   </g>
   <g id="patch_138">
    <path d="M 415.400723 390.04 
L 418.13374 390.04 
L 418.13374 194.926504 
L 415.400723 194.926504 
z
" clip-path="url(#pa818a6c692)" style="fill: #008000"/>
   </g>
   <g id="patch_139">
    <path d="M 418.13374 390.04 
L 420.866756 390.04 
L 420.866756 173.165221 
L 418.13374 173.165221 
z
" clip-path="url(#pa818a6c692)" style="fill: #008000"/>
   </g>
   <g id="patch_140">
    <path d="M 420.866756 390.04 
L 423.599773 390.04 
L 423.599773 178.709524 
L 420.866756 178.709524 
z
" clip-path="url(#pa818a6c692)" style="fill: #008000"/>
   </g>
   <g id="patch_141">
    <path d="M 423.599773 390.04 
L 426.332789 390.04 
L 426.332789 208.73468 
L 423.599773 208.73468 
z
" clip-path="url(#pa818a6c692)" style="fill: #008000"/>
   </g>
   <g id="patch_142">
    <path d="M 426.332789 390.04 
L 429.065806 390.04 
L 429.065806 211.293075 
L 426.332789 211.293075 
z
" clip-path="url(#pa818a6c692)" style="fill: #008000"/>
   </g>
   <g id="patch_143">
    <path d="M 429.065806 390.04 
L 431.798822 390.04 
L 431.798822 175.060751 
L 429.065806 175.060751 
z
" clip-path="url(#pa818a6c692)" style="fill: #008000"/>
   </g>
   <g id="patch_144">
    <path d="M 431.798822 390.04 
L 434.531839 390.04 
L 434.531839 193.696705 
L 431.798822 193.696705 
z
" clip-path="url(#pa818a6c692)" style="fill: #008000"/>
   </g>
   <g id="patch_145">
    <path d="M 434.531839 390.04 
L 437.264855 390.04 
L 437.264855 157.995029 
L 434.531839 157.995029 
z
" clip-path="url(#pa818a6c692)" style="fill: #008000"/>
   </g>
   <g id="patch_146">
    <path d="M 437.264855 390.04 
L 439.997872 390.04 
L 439.997872 219.65415 
L 437.264855 219.65415 
z
" clip-path="url(#pa818a6c692)" style="fill: #008000"/>
   </g>
   <g id="patch_147">
    <path d="M 439.997872 390.04 
L 442.730888 390.04 
L 442.730888 186.162082 
L 439.997872 186.162082 
z
" clip-path="url(#pa818a6c692)" style="fill: #008000"/>
   </g>
   <g id="patch_148">
    <path d="M 442.730888 390.04 
L 445.463905 390.04 
L 445.463905 190.433982 
L 442.730888 190.433982 
z
" clip-path="url(#pa818a6c692)" style="fill: #008000"/>
   </g>
   <g id="patch_149">
    <path d="M 445.463905 390.04 
L 448.196921 390.04 
L 448.196921 194.752373 
L 445.463905 194.752373 
z
" clip-path="url(#pa818a6c692)" style="fill: #008000"/>
   </g>
   <g id="patch_150">
    <path d="M 448.196921 390.04 
L 450.929938 390.04 
L 450.929938 193.892202 
L 448.196921 193.892202 
z
" clip-path="url(#pa818a6c692)" style="fill: #008000"/>
   </g>
   <g id="patch_151">
    <path d="M 450.929938 390.04 
L 453.662955 390.04 
L 453.662955 203.055172 
L 450.929938 203.055172 
z
" clip-path="url(#pa818a6c692)" style="fill: #008000"/>
   </g>
   <g id="patch_152">
    <path d="M 453.662955 390.04 
L 456.395971 390.04 
L 456.395971 188.600937 
L 453.662955 188.600937 
z
" clip-path="url(#pa818a6c692)" style="fill: #008000"/>
   </g>
   <g id="patch_153">
    <path d="M 456.395971 390.04 
L 459.128988 390.04 
L 459.128988 198.044371 
L 456.395971 198.044371 
z
" clip-path="url(#pa818a6c692)" style="fill: #008000"/>
   </g>
   <g id="patch_154">
    <path d="M 459.128988 390.04 
L 461.862004 390.04 
L 461.862004 209.244744 
L 459.128988 209.244744 
z
" clip-path="url(#pa818a6c692)" style="fill: #008000"/>
   </g>
   <g id="patch_155">
    <path d="M 461.862004 390.04 
L 464.595021 390.04 
L 464.595021 200.012916 
L 461.862004 200.012916 
z
" clip-path="url(#pa818a6c692)" style="fill: #008000"/>
   </g>
   <g id="patch_156">
    <path d="M 464.595021 390.04 
L 467.328037 390.04 
L 467.328037 173.068864 
L 464.595021 173.068864 
z
" clip-path="url(#pa818a6c692)" style="fill: #008000"/>
   </g>
   <g id="patch_157">
    <path d="M 467.328037 390.04 
L 470.061054 390.04 
L 470.061054 260.756166 
L 467.328037 260.756166 
z
" clip-path="url(#pa818a6c692)" style="fill: #ffa500"/>
   </g>
   <g id="patch_158">
    <path d="M 470.061054 390.04 
L 472.79407 390.04 
L 472.79407 183.596368 
L 470.061054 183.596368 
z
" clip-path="url(#pa818a6c692)" style="fill: #008000"/>
   </g>
   <g id="patch_159">
    <path d="M 472.79407 390.04 
L 475.527087 390.04 
L 475.527087 168.439159 
L 472.79407 168.439159 
z
" clip-path="url(#pa818a6c692)" style="fill: #008000"/>
   </g>
   <g id="patch_160">
    <path d="M 475.527087 390.04 
L 478.260103 390.04 
L 478.260103 202.413309 
L 475.527087 202.413309 
z
" clip-path="url(#pa818a6c692)" style="fill: #008000"/>
   </g>
   <g id="patch_161">
    <path d="M 478.260103 390.04 
L 480.99312 390.04 
L 480.99312 202.603091 
L 478.260103 202.603091 
z
" clip-path="url(#pa818a6c692)" style="fill: #008000"/>
   </g>
   <g id="patch_162">
    <path d="M 480.99312 390.04 
L 483.726136 390.04 
L 483.726136 209.369758 
L 480.99312 209.369758 
z
" clip-path="url(#pa818a6c692)" style="fill: #008000"/>
   </g>
   <g id="patch_163">
    <path d="M 483.726136 390.04 
L 486.459153 390.04 
L 486.459153 175.380174 
L 483.726136 175.380174 
z
" clip-path="url(#pa818a6c692)" style="fill: #008000"/>
   </g>
   <g id="patch_164">
    <path d="M 486.459153 390.04 
L 489.192169 390.04 
L 489.192169 210.510446 
L 486.459153 210.510446 
z
" clip-path="url(#pa818a6c692)" style="fill: #008000"/>
   </g>
   <g id="patch_165">
    <path d="M 489.192169 390.04 
L 491.925186 390.04 
L 491.925186 180.762169 
L 489.192169 180.762169 
z
" clip-path="url(#pa818a6c692)" style="fill: #008000"/>
   </g>
   <g id="patch_166">
    <path d="M 491.925186 390.04 
L 494.658202 390.04 
L 494.658202 163.025646 
L 491.925186 163.025646 
z
" clip-path="url(#pa818a6c692)" style="fill: #008000"/>
   </g>
   <g id="patch_167">
    <path d="M 494.658202 390.04 
L 497.391219 390.04 
L 497.391219 162.376232 
L 494.658202 162.376232 
z
" clip-path="url(#pa818a6c692)" style="fill: #008000"/>
   </g>
   <g id="patch_168">
    <path d="M 497.391219 390.04 
L 500.124236 390.04 
L 500.124236 174.215415 
L 497.391219 174.215415 
z
" clip-path="url(#pa818a6c692)" style="fill: #008000"/>
   </g>
   <g id="patch_169">
    <path d="M 500.124236 390.04 
L 502.857252 390.04 
L 502.857252 177.919971 
L 500.124236 177.919971 
z
" clip-path="url(#pa818a6c692)" style="fill: #008000"/>
   </g>
   <g id="patch_170">
    <path d="M 502.857252 390.04 
L 505.590269 390.04 
L 505.590269 185.202248 
L 502.857252 185.202248 
z
" clip-path="url(#pa818a6c692)" style="fill: #008000"/>
   </g>
   <g id="patch_171">
    <path d="M 505.590269 390.04 
L 508.323285 390.04 
L 508.323285 189.609005 
L 505.590269 189.609005 
z
" clip-path="url(#pa818a6c692)" style="fill: #008000"/>
   </g>
   <g id="patch_172">
    <path d="M 508.323285 390.04 
L 511.056302 390.04 
L 511.056302 207.935328 
L 508.323285 207.935328 
z
" clip-path="url(#pa818a6c692)" style="fill: #008000"/>
   </g>
   <g id="patch_173">
    <path d="M 511.056302 390.04 
L 513.789318 390.04 
L 513.789318 203.271046 
L 511.056302 203.271046 
z
" clip-path="url(#pa818a6c692)" style="fill: #008000"/>
   </g>
   <g id="patch_174">
    <path d="M 513.789318 390.04 
L 516.522335 390.04 
L 516.522335 191.729561 
L 513.789318 191.729561 
z
" clip-path="url(#pa818a6c692)" style="fill: #008000"/>
   </g>
   <g id="patch_175">
    <path d="M 516.522335 390.04 
L 519.255351 390.04 
L 519.255351 195.812473 
L 516.522335 195.812473 
z
" clip-path="url(#pa818a6c692)" style="fill: #008000"/>
   </g>
   <g id="patch_176">
    <path d="M 519.255351 390.04 
L 521.988368 390.04 
L 521.988368 202.615317 
L 519.255351 202.615317 
z
" clip-path="url(#pa818a6c692)" style="fill: #008000"/>
   </g>
   <g id="patch_177">
    <path d="M 521.988368 390.04 
L 524.721384 390.04 
L 524.721384 266.773939 
L 521.988368 266.773939 
z
" clip-path="url(#pa818a6c692)" style="fill: #ff0000"/>
   </g>
   <g id="patch_178">
    <path d="M 524.721384 390.04 
L 527.454401 390.04 
L 527.454401 154.999636 
L 524.721384 154.999636 
z
" clip-path="url(#pa818a6c692)" style="fill: #008000"/>
   </g>
   <g id="patch_179">
    <path d="M 527.454401 390.04 
L 530.187417 390.04 
L 530.187417 203.348912 
L 527.454401 203.348912 
z
" clip-path="url(#pa818a6c692)" style="fill: #008000"/>
   </g>
   <g id="patch_180">
    <path d="M 530.187417 390.04 
L 532.920434 390.04 
L 532.920434 194.805565 
L 530.187417 194.805565 
z
" clip-path="url(#pa818a6c692)" style="fill: #008000"/>
   </g>
   <g id="patch_181">
    <path d="M 532.920434 390.04 
L 535.65345 390.04 
L 535.65345 174.966078 
L 532.920434 174.966078 
z
" clip-path="url(#pa818a6c692)" style="fill: #008000"/>
   </g>
   <g id="patch_182">
    <path d="M 535.65345 390.04 
L 538.386467 390.04 
L 538.386467 173.662805 
L 535.65345 173.662805 
z
" clip-path="url(#pa818a6c692)" style="fill: #008000"/>
   </g>
   <g id="patch_183">
    <path d="M 538.386467 390.04 
L 541.119483 390.04 
L 541.119483 123.563623 
L 538.386467 123.563623 
z
" clip-path="url(#pa818a6c692)" style="fill: #008000"/>
   </g>
   <g id="patch_184">
    <path d="M 541.119483 390.04 
L 543.8525 390.04 
L 543.8525 110.527119 
L 541.119483 110.527119 
z
" clip-path="url(#pa818a6c692)" style="fill: #008000"/>
   </g>
   <g id="patch_185">
    <path d="M 543.8525 390.04 
L 546.585517 390.04 
L 546.585517 132.475362 
L 543.8525 132.475362 
z
" clip-path="url(#pa818a6c692)" style="fill: #008000"/>
   </g>
   <g id="patch_186">
    <path d="M 546.585517 390.04 
L 549.318533 390.04 
L 549.318533 127.071424 
L 546.585517 127.071424 
z
" clip-path="url(#pa818a6c692)" style="fill: #008000"/>
   </g>
   <g id="patch_187">
    <path d="M 549.318533 390.04 
L 552.05155 390.04 
L 552.05155 129.791565 
L 549.318533 129.791565 
z
" clip-path="url(#pa818a6c692)" style="fill: #008000"/>
   </g>
   <g id="patch_188">
    <path d="M 552.05155 390.04 
L 554.784566 390.04 
L 554.784566 125.0891 
L 552.05155 125.0891 
z
" clip-path="url(#pa818a6c692)" style="fill: #008000"/>
   </g>
   <g id="patch_189">
    <path d="M 554.784566 390.04 
L 557.517583 390.04 
L 557.517583 114.255312 
L 554.784566 114.255312 
z
" clip-path="url(#pa818a6c692)" style="fill: #008000"/>
   </g>
   <g id="patch_190">
    <path d="M 557.517583 390.04 
L 560.250599 390.04 
L 560.250599 137.561398 
L 557.517583 137.561398 
z
" clip-path="url(#pa818a6c692)" style="fill: #008000"/>
   </g>
   <g id="patch_191">
    <path d="M 560.250599 390.04 
L 562.983616 390.04 
L 562.983616 135.052743 
L 560.250599 135.052743 
z
" clip-path="url(#pa818a6c692)" style="fill: #008000"/>
   </g>
   <g id="patch_192">
    <path d="M 562.983616 390.04 
L 565.716632 390.04 
L 565.716632 167.646375 
L 562.983616 167.646375 
z
" clip-path="url(#pa818a6c692)" style="fill: #008000"/>
   </g>
   <g id="patch_193">
    <path d="M 565.716632 390.04 
L 568.449649 390.04 
L 568.449649 128.326095 
L 565.716632 128.326095 
z
" clip-path="url(#pa818a6c692)" style="fill: #008000"/>
   </g>
   <g id="patch_194">
    <path d="M 568.449649 390.04 
L 571.182665 390.04 
L 571.182665 150.099388 
L 568.449649 150.099388 
z
" clip-path="url(#pa818a6c692)" style="fill: #008000"/>
   </g>
   <g id="patch_195">
    <path d="M 571.182665 390.04 
L 573.915682 390.04 
L 573.915682 142.203502 
L 571.182665 142.203502 
z
" clip-path="url(#pa818a6c692)" style="fill: #008000"/>
   </g>
   <g id="patch_196">
    <path d="M 573.915682 390.04 
L 576.648698 390.04 
L 576.648698 137.896655 
L 573.915682 137.896655 
z
" clip-path="url(#pa818a6c692)" style="fill: #008000"/>
   </g>
   <g id="patch_197">
    <path d="M 576.648698 390.04 
L 579.381715 390.04 
L 579.381715 195.841019 
L 576.648698 195.841019 
z
" clip-path="url(#pa818a6c692)" style="fill: #008000"/>
   </g>
   <g id="patch_198">
    <path d="M 579.381715 390.04 
L 582.114731 390.04 
L 582.114731 143.07643 
L 579.381715 143.07643 
z
" clip-path="url(#pa818a6c692)" style="fill: #008000"/>
   </g>
   <g id="patch_199">
    <path d="M 582.114731 390.04 
L 584.847748 390.04 
L 584.847748 130.706088 
L 582.114731 130.706088 
z
" clip-path="url(#pa818a6c692)" style="fill: #008000"/>
   </g>
   <g id="patch_200">
    <path d="M 584.847748 390.04 
L 587.580764 390.04 
L 587.580764 168.251597 
L 584.847748 168.251597 
z
" clip-path="url(#pa818a6c692)" style="fill: #008000"/>
   </g>
   <g id="patch_201">
    <path d="M 587.580764 390.04 
L 590.313781 390.04 
L 590.313781 136.329755 
L 587.580764 136.329755 
z
" clip-path="url(#pa818a6c692)" style="fill: #008000"/>
   </g>
   <g id="patch_202">
    <path d="M 590.313781 390.04 
L 593.046798 390.04 
L 593.046798 167.343684 
L 590.313781 167.343684 
z
" clip-path="url(#pa818a6c692)" style="fill: #008000"/>
   </g>
   <g id="patch_203">
    <path d="M 593.046798 390.04 
L 595.779814 390.04 
L 595.779814 147.558233 
L 593.046798 147.558233 
z
" clip-path="url(#pa818a6c692)" style="fill: #008000"/>
   </g>
   <g id="patch_204">
    <path d="M 595.779814 390.04 
L 598.512831 390.04 
L 598.512831 143.8706 
L 595.779814 143.8706 
z
" clip-path="url(#pa818a6c692)" style="fill: #008000"/>
   </g>
   <g id="patch_205">
    <path d="M 598.512831 390.04 
L 601.245847 390.04 
L 601.245847 192.203125 
L 598.512831 192.203125 
z
" clip-path="url(#pa818a6c692)" style="fill: #008000"/>
   </g>
   <g id="patch_206">
    <path d="M 601.245847 390.04 
L 603.978864 390.04 
L 603.978864 198.934359 
L 601.245847 198.934359 
z
" clip-path="url(#pa818a6c692)" style="fill: #008000"/>
   </g>
   <g id="patch_207">
    <path d="M 603.978864 390.04 
L 606.71188 390.04 
L 606.71188 188.912785 
L 603.978864 188.912785 
z
" clip-path="url(#pa818a6c692)" style="fill: #008000"/>
   </g>
   <g id="patch_208">
    <path d="M 606.71188 390.04 
L 609.444897 390.04 
L 609.444897 108.520434 
L 606.71188 108.520434 
z
" clip-path="url(#pa818a6c692)" style="fill: #008000"/>
   </g>
   <g id="patch_209">
    <path d="M 609.444897 390.04 
L 612.177913 390.04 
L 612.177913 111.971939 
L 609.444897 111.971939 
z
" clip-path="url(#pa818a6c692)" style="fill: #008000"/>
   </g>
   <g id="patch_210">
    <path d="M 612.177913 390.04 
L 614.91093 390.04 
L 614.91093 97.747338 
L 612.177913 97.747338 
z
" clip-path="url(#pa818a6c692)" style="fill: #008000"/>
   </g>
   <g id="patch_211">
    <path d="M 614.91093 390.04 
L 617.643946 390.04 
L 617.643946 93.435269 
L 614.91093 93.435269 
z
" clip-path="url(#pa818a6c692)" style="fill: #008000"/>
   </g>
   <g id="patch_212">
    <path d="M 617.643946 390.04 
L 620.376963 390.04 
L 620.376963 44.173333 
L 617.643946 44.173333 
z
" clip-path="url(#pa818a6c692)" style="fill: #008000"/>
   </g>
   <g id="patch_213">
    <path d="M 620.376963 390.04 
L 623.109979 390.04 
L 623.109979 175.742594 
L 620.376963 175.742594 
z
" clip-path="url(#pa818a6c692)" style="fill: #008000"/>
   </g>
   <g id="patch_214">
    <path d="M 623.109979 390.04 
L 625.842996 390.04 
L 625.842996 151.764761 
L 623.109979 151.764761 
z
" clip-path="url(#pa818a6c692)" style="fill: #008000"/>
   </g>
   <g id="patch_215">
    <path d="M 625.842996 390.04 
L 628.576012 390.04 
L 628.576012 159.550482 
L 625.842996 159.550482 
z
" clip-path="url(#pa818a6c692)" style="fill: #008000"/>
   </g>
   <g id="patch_216">
    <path d="M 628.576012 390.04 
L 631.309029 390.04 
L 631.309029 204.489322 
L 628.576012 204.489322 
z
" clip-path="url(#pa818a6c692)" style="fill: #008000"/>
   </g>
   <g id="patch_217">
    <path d="M 631.309029 390.04 
L 634.042045 390.04 
L 634.042045 149.060888 
L 631.309029 149.060888 
z
" clip-path="url(#pa818a6c692)" style="fill: #008000"/>
   </g>
   <g id="patch_218">
    <path d="M 634.042045 390.04 
L 636.775062 390.04 
L 636.775062 183.307896 
L 634.042045 183.307896 
z
" clip-path="url(#pa818a6c692)" style="fill: #008000"/>
   </g>
   <g id="patch_219">
    <path d="M 636.775062 390.04 
L 639.508079 390.04 
L 639.508079 200.301911 
L 636.775062 200.301911 
z
" clip-path="url(#pa818a6c692)" style="fill: #008000"/>
   </g>
   <g id="patch_220">
    <path d="M 639.508079 390.04 
L 642.241095 390.04 
L 642.241095 202.579317 
L 639.508079 202.579317 
z
" clip-path="url(#pa818a6c692)" style="fill: #008000"/>
   </g>
   <g id="patch_221">
    <path d="M 642.241095 390.04 
L 644.974112 390.04 
L 644.974112 185.164556 
L 642.241095 185.164556 
z
" clip-path="url(#pa818a6c692)" style="fill: #008000"/>
   </g>
   <g id="patch_222">
    <path d="M 644.974112 390.04 
L 647.707128 390.04 
L 647.707128 186.380887 
L 644.974112 186.380887 
z
" clip-path="url(#pa818a6c692)" style="fill: #008000"/>
   </g>
   <g id="patch_223">
    <path d="M 647.707128 390.04 
L 650.440145 390.04 
L 650.440145 196.161088 
L 647.707128 196.161088 
z
" clip-path="url(#pa818a6c692)" style="fill: #008000"/>
   </g>
   <g id="patch_224">
    <path d="M 650.440145 390.04 
L 653.173161 390.04 
L 653.173161 194.536906 
L 650.440145 194.536906 
z
" clip-path="url(#pa818a6c692)" style="fill: #008000"/>
   </g>
   <g id="patch_225">
    <path d="M 653.173161 390.04 
L 655.906178 390.04 
L 655.906178 202.771985 
L 653.173161 202.771985 
z
" clip-path="url(#pa818a6c692)" style="fill: #008000"/>
   </g>
   <g id="patch_226">
    <path d="M 655.906178 390.04 
L 658.639194 390.04 
L 658.639194 197.108172 
L 655.906178 197.108172 
z
" clip-path="url(#pa818a6c692)" style="fill: #008000"/>
   </g>
   <g id="patch_227">
    <path d="M 658.639194 390.04 
L 661.372211 390.04 
L 661.372211 188.674712 
L 658.639194 188.674712 
z
" clip-path="url(#pa818a6c692)" style="fill: #008000"/>
   </g>
   <g id="patch_228">
    <path d="M 661.372211 390.04 
L 664.105227 390.04 
L 664.105227 172.952374 
L 661.372211 172.952374 
z
" clip-path="url(#pa818a6c692)" style="fill: #008000"/>
   </g>
   <g id="patch_229">
    <path d="M 664.105227 390.04 
L 666.838244 390.04 
L 666.838244 175.479488 
L 664.105227 175.479488 
z
" clip-path="url(#pa818a6c692)" style="fill: #008000"/>
   </g>
   <g id="patch_230">
    <path d="M 666.838244 390.04 
L 669.57126 390.04 
L 669.57126 213.230725 
L 666.838244 213.230725 
z
" clip-path="url(#pa818a6c692)" style="fill: #008000"/>
   </g>
   <g id="patch_231">
    <path d="M 669.57126 390.04 
L 672.304277 390.04 
L 672.304277 204.805628 
L 669.57126 204.805628 
z
" clip-path="url(#pa818a6c692)" style="fill: #008000"/>
   </g>
   <g id="patch_232">
    <path d="M 672.304277 390.04 
L 675.037293 390.04 
L 675.037293 179.952244 
L 672.304277 179.952244 
z
" clip-path="url(#pa818a6c692)" style="fill: #008000"/>
   </g>
   <g id="patch_233">
    <path d="M 675.037293 390.04 
L 677.77031 390.04 
L 677.77031 225.894224 
L 675.037293 225.894224 
z
" clip-path="url(#pa818a6c692)" style="fill: #008000"/>
   </g>
   <g id="patch_234">
    <path d="M 677.77031 390.04 
L 680.503326 390.04 
L 680.503326 196.507703 
L 677.77031 196.507703 
z
" clip-path="url(#pa818a6c692)" style="fill: #008000"/>
   </g>
   <g id="patch_235">
    <path d="M 680.503326 390.04 
L 683.236343 390.04 
L 683.236343 165.724438 
L 680.503326 165.724438 
z
" clip-path="url(#pa818a6c692)" style="fill: #008000"/>
   </g>
   <g id="patch_236">
    <path d="M 683.236343 390.04 
L 685.96936 390.04 
L 685.96936 212.545419 
L 683.236343 212.545419 
z
" clip-path="url(#pa818a6c692)" style="fill: #008000"/>
   </g>
   <g id="patch_237">
    <path d="M 685.96936 390.04 
L 688.702376 390.04 
L 688.702376 138.312226 
L 685.96936 138.312226 
z
" clip-path="url(#pa818a6c692)" style="fill: #008000"/>
   </g>
   <g id="patch_238">
    <path d="M 688.702376 390.04 
L 691.435393 390.04 
L 691.435393 200.588259 
L 688.702376 200.588259 
z
" clip-path="url(#pa818a6c692)" style="fill: #008000"/>
   </g>
   <g id="patch_239">
    <path d="M 691.435393 390.04 
L 694.168409 390.04 
L 694.168409 181.911667 
L 691.435393 181.911667 
z
" clip-path="url(#pa818a6c692)" style="fill: #008000"/>
   </g>
   <g id="patch_240">
    <path d="M 694.168409 390.04 
L 696.901426 390.04 
L 696.901426 200.242105 
L 694.168409 200.242105 
z
" clip-path="url(#pa818a6c692)" style="fill: #008000"/>
   </g>
   <g id="patch_241">
    <path d="M 696.901426 390.04 
L 699.634442 390.04 
L 699.634442 117.352027 
L 696.901426 117.352027 
z
" clip-path="url(#pa818a6c692)" style="fill: #008000"/>
   </g>
   <g id="patch_242">
    <path d="M 699.634442 390.04 
L 702.367459 390.04 
L 702.367459 84.050718 
L 699.634442 84.050718 
z
" clip-path="url(#pa818a6c692)" style="fill: #008000"/>
   </g>
   <g id="patch_243">
    <path d="M 702.367459 390.04 
L 705.100475 390.04 
L 705.100475 176.374212 
L 702.367459 176.374212 
z
" clip-path="url(#pa818a6c692)" style="fill: #008000"/>
   </g>
   <g id="patch_244">
    <path d="M 705.100475 390.04 
L 707.833492 390.04 
L 707.833492 132.199418 
L 705.100475 132.199418 
z
" clip-path="url(#pa818a6c692)" style="fill: #008000"/>
   </g>
   <g id="matplotlib.axis_1">
    <g id="xtick_1">
     <g id="line2d_1">
      <defs>
       <path id="m4edf0d7744" d="M 0 0 
L 0 3.5 
" style="stroke: #000000; stroke-width: 0.8"/>
      </defs>
      <g>
       <use xlink:href="#m4edf0d7744" x="47.81" y="390.04" style="stroke: #000000; stroke-width: 0.8"/>
      </g>
     </g>
     <g id="text_1">
      <!-- 0 -->
      <g transform="translate(44.62875 404.638438) scale(0.1 -0.1)">
       <defs>
        <path id="DejaVuSans-30" d="M 2034 4250 
Q 1547 4250 1301 3770 
Q 1056 3291 1056 2328 
Q 1056 1369 1301 889 
Q 1547 409 2034 409 
Q 2525 409 2770 889 
Q 3016 1369 3016 2328 
Q 3016 3291 2770 3770 
Q 2525 4250 2034 4250 
z
M 2034 4750 
Q 2819 4750 3233 4129 
Q 3647 3509 3647 2328 
Q 3647 1150 3233 529 
Q 2819 -91 2034 -91 
Q 1250 -91 836 529 
Q 422 1150 422 2328 
Q 422 3509 836 4129 
Q 1250 4750 2034 4750 
z
" transform="scale(0.015625)"/>
       </defs>
       <use xlink:href="#DejaVuSans-30"/>
      </g>
     </g>
    </g>
    <g id="xtick_2">
     <g id="line2d_2">
      <g>
       <use xlink:href="#m4edf0d7744" x="184.460826" y="390.04" style="stroke: #000000; stroke-width: 0.8"/>
      </g>
     </g>
     <g id="text_2">
      <!-- 50 -->
      <g transform="translate(178.098326 404.638438) scale(0.1 -0.1)">
       <defs>
        <path id="DejaVuSans-35" d="M 691 4666 
L 3169 4666 
L 3169 4134 
L 1269 4134 
L 1269 2991 
Q 1406 3038 1543 3061 
Q 1681 3084 1819 3084 
Q 2600 3084 3056 2656 
Q 3513 2228 3513 1497 
Q 3513 744 3044 326 
Q 2575 -91 1722 -91 
Q 1428 -91 1123 -41 
Q 819 9 494 109 
L 494 744 
Q 775 591 1075 516 
Q 1375 441 1709 441 
Q 2250 441 2565 725 
Q 2881 1009 2881 1497 
Q 2881 1984 2565 2268 
Q 2250 2553 1709 2553 
Q 1456 2553 1204 2497 
Q 953 2441 691 2322 
L 691 4666 
z
" transform="scale(0.015625)"/>
       </defs>
       <use xlink:href="#DejaVuSans-35"/>
       <use xlink:href="#DejaVuSans-30" transform="translate(63.623047 0)"/>
      </g>
     </g>
    </g>
    <g id="xtick_3">
     <g id="line2d_3">
      <g>
       <use xlink:href="#m4edf0d7744" x="321.111653" y="390.04" style="stroke: #000000; stroke-width: 0.8"/>
      </g>
     </g>
     <g id="text_3">
      <!-- 100 -->
      <g transform="translate(311.567903 404.638438) scale(0.1 -0.1)">
       <defs>
        <path id="DejaVuSans-31" d="M 794 531 
L 1825 531 
L 1825 4091 
L 703 3866 
L 703 4441 
L 1819 4666 
L 2450 4666 
L 2450 531 
L 3481 531 
L 3481 0 
L 794 0 
L 794 531 
z
" transform="scale(0.015625)"/>
       </defs>
       <use xlink:href="#DejaVuSans-31"/>
       <use xlink:href="#DejaVuSans-30" transform="translate(63.623047 0)"/>
       <use xlink:href="#DejaVuSans-30" transform="translate(127.246094 0)"/>
      </g>
     </g>
    </g>
    <g id="xtick_4">
     <g id="line2d_4">
      <g>
       <use xlink:href="#m4edf0d7744" x="457.762479" y="390.04" style="stroke: #000000; stroke-width: 0.8"/>
      </g>
     </g>
     <g id="text_4">
      <!-- 150 -->
      <g transform="translate(448.218729 404.638438) scale(0.1 -0.1)">
       <use xlink:href="#DejaVuSans-31"/>
       <use xlink:href="#DejaVuSans-35" transform="translate(63.623047 0)"/>
       <use xlink:href="#DejaVuSans-30" transform="translate(127.246094 0)"/>
      </g>
     </g>
    </g>
    <g id="xtick_5">
     <g id="line2d_5">
      <g>
       <use xlink:href="#m4edf0d7744" x="594.413306" y="390.04" style="stroke: #000000; stroke-width: 0.8"/>
      </g>
     </g>
     <g id="text_5">
      <!-- 200 -->
      <g transform="translate(584.869556 404.638438) scale(0.1 -0.1)">
       <defs>
        <path id="DejaVuSans-32" d="M 1228 531 
L 3431 531 
L 3431 0 
L 469 0 
L 469 531 
Q 828 903 1448 1529 
Q 2069 2156 2228 2338 
Q 2531 2678 2651 2914 
Q 2772 3150 2772 3378 
Q 2772 3750 2511 3984 
Q 2250 4219 1831 4219 
Q 1534 4219 1204 4116 
Q 875 4013 500 3803 
L 500 4441 
Q 881 4594 1212 4672 
Q 1544 4750 1819 4750 
Q 2544 4750 2975 4387 
Q 3406 4025 3406 3419 
Q 3406 3131 3298 2873 
Q 3191 2616 2906 2266 
Q 2828 2175 2409 1742 
Q 1991 1309 1228 531 
z
" transform="scale(0.015625)"/>
       </defs>
       <use xlink:href="#DejaVuSans-32"/>
       <use xlink:href="#DejaVuSans-30" transform="translate(63.623047 0)"/>
       <use xlink:href="#DejaVuSans-30" transform="translate(127.246094 0)"/>
      </g>
     </g>
    </g>
    <g id="text_6">
     <!-- Peak ID -->
     <g transform="translate(359.721406 418.316562) scale(0.1 -0.1)">
      <defs>
       <path id="DejaVuSans-50" d="M 1259 4147 
L 1259 2394 
L 2053 2394 
Q 2494 2394 2734 2622 
Q 2975 2850 2975 3272 
Q 2975 3691 2734 3919 
Q 2494 4147 2053 4147 
L 1259 4147 
z
M 628 4666 
L 2053 4666 
Q 2838 4666 3239 4311 
Q 3641 3956 3641 3272 
Q 3641 2581 3239 2228 
Q 2838 1875 2053 1875 
L 1259 1875 
L 1259 0 
L 628 0 
L 628 4666 
z
" transform="scale(0.015625)"/>
       <path id="DejaVuSans-65" d="M 3597 1894 
L 3597 1613 
L 953 1613 
Q 991 1019 1311 708 
Q 1631 397 2203 397 
Q 2534 397 2845 478 
Q 3156 559 3463 722 
L 3463 178 
Q 3153 47 2828 -22 
Q 2503 -91 2169 -91 
Q 1331 -91 842 396 
Q 353 884 353 1716 
Q 353 2575 817 3079 
Q 1281 3584 2069 3584 
Q 2775 3584 3186 3129 
Q 3597 2675 3597 1894 
z
M 3022 2063 
Q 3016 2534 2758 2815 
Q 2500 3097 2075 3097 
Q 1594 3097 1305 2825 
Q 1016 2553 972 2059 
L 3022 2063 
z
" transform="scale(0.015625)"/>
       <path id="DejaVuSans-61" d="M 2194 1759 
Q 1497 1759 1228 1600 
Q 959 1441 959 1056 
Q 959 750 1161 570 
Q 1363 391 1709 391 
Q 2188 391 2477 730 
Q 2766 1069 2766 1631 
L 2766 1759 
L 2194 1759 
z
M 3341 1997 
L 3341 0 
L 2766 0 
L 2766 531 
Q 2569 213 2275 61 
Q 1981 -91 1556 -91 
Q 1019 -91 701 211 
Q 384 513 384 1019 
Q 384 1609 779 1909 
Q 1175 2209 1959 2209 
L 2766 2209 
L 2766 2266 
Q 2766 2663 2505 2880 
Q 2244 3097 1772 3097 
Q 1472 3097 1187 3025 
Q 903 2953 641 2809 
L 641 3341 
Q 956 3463 1253 3523 
Q 1550 3584 1831 3584 
Q 2591 3584 2966 3190 
Q 3341 2797 3341 1997 
z
" transform="scale(0.015625)"/>
       <path id="DejaVuSans-6b" d="M 581 4863 
L 1159 4863 
L 1159 1991 
L 2875 3500 
L 3609 3500 
L 1753 1863 
L 3688 0 
L 2938 0 
L 1159 1709 
L 1159 0 
L 581 0 
L 581 4863 
z
" transform="scale(0.015625)"/>
       <path id="DejaVuSans-20" transform="scale(0.015625)"/>
       <path id="DejaVuSans-49" d="M 628 4666 
L 1259 4666 
L 1259 0 
L 628 0 
L 628 4666 
z
" transform="scale(0.015625)"/>
       <path id="DejaVuSans-44" d="M 1259 4147 
L 1259 519 
L 2022 519 
Q 2988 519 3436 956 
Q 3884 1394 3884 2338 
Q 3884 3275 3436 3711 
Q 2988 4147 2022 4147 
L 1259 4147 
z
M 628 4666 
L 1925 4666 
Q 3281 4666 3915 4102 
Q 4550 3538 4550 2338 
Q 4550 1131 3912 565 
Q 3275 0 1925 0 
L 628 0 
L 628 4666 
z
" transform="scale(0.015625)"/>
      </defs>
      <use xlink:href="#DejaVuSans-50"/>
      <use xlink:href="#DejaVuSans-65" transform="translate(56.677734 0)"/>
      <use xlink:href="#DejaVuSans-61" transform="translate(118.201172 0)"/>
      <use xlink:href="#DejaVuSans-6b" transform="translate(179.480469 0)"/>
      <use xlink:href="#DejaVuSans-20" transform="translate(237.390625 0)"/>
      <use xlink:href="#DejaVuSans-49" transform="translate(269.177734 0)"/>
      <use xlink:href="#DejaVuSans-44" transform="translate(298.669922 0)"/>
     </g>
    </g>
   </g>
   <g id="matplotlib.axis_2">
    <g id="ytick_1">
     <g id="line2d_6">
      <defs>
       <path id="m61bd857a39" d="M 0 0 
L -3.5 0 
" style="stroke: #000000; stroke-width: 0.8"/>
      </defs>
      <g>
       <use xlink:href="#m61bd857a39" x="47.81" y="390.04" style="stroke: #000000; stroke-width: 0.8"/>
      </g>
     </g>
     <g id="text_7">
      <!-- 0.0 -->
      <g transform="translate(24.906875 393.839219) scale(0.1 -0.1)">
       <defs>
        <path id="DejaVuSans-2e" d="M 684 794 
L 1344 794 
L 1344 0 
L 684 0 
L 684 794 
z
" transform="scale(0.015625)"/>
       </defs>
       <use xlink:href="#DejaVuSans-30"/>
       <use xlink:href="#DejaVuSans-2e" transform="translate(63.623047 0)"/>
       <use xlink:href="#DejaVuSans-30" transform="translate(95.410156 0)"/>
      </g>
     </g>
    </g>
    <g id="ytick_2">
     <g id="line2d_7">
      <g>
       <use xlink:href="#m61bd857a39" x="47.81" y="349.495453" style="stroke: #000000; stroke-width: 0.8"/>
      </g>
     </g>
     <g id="text_8">
      <!-- 0.2 -->
      <g transform="translate(24.906875 353.294672) scale(0.1 -0.1)">
       <use xlink:href="#DejaVuSans-30"/>
       <use xlink:href="#DejaVuSans-2e" transform="translate(63.623047 0)"/>
       <use xlink:href="#DejaVuSans-32" transform="translate(95.410156 0)"/>
      </g>
     </g>
    </g>
    <g id="ytick_3">
     <g id="line2d_8">
      <g>
       <use xlink:href="#m61bd857a39" x="47.81" y="308.950906" style="stroke: #000000; stroke-width: 0.8"/>
      </g>
     </g>
     <g id="text_9">
      <!-- 0.4 -->
      <g transform="translate(24.906875 312.750125) scale(0.1 -0.1)">
       <defs>
        <path id="DejaVuSans-34" d="M 2419 4116 
L 825 1625 
L 2419 1625 
L 2419 4116 
z
M 2253 4666 
L 3047 4666 
L 3047 1625 
L 3713 1625 
L 3713 1100 
L 3047 1100 
L 3047 0 
L 2419 0 
L 2419 1100 
L 313 1100 
L 313 1709 
L 2253 4666 
z
" transform="scale(0.015625)"/>
       </defs>
       <use xlink:href="#DejaVuSans-30"/>
       <use xlink:href="#DejaVuSans-2e" transform="translate(63.623047 0)"/>
       <use xlink:href="#DejaVuSans-34" transform="translate(95.410156 0)"/>
      </g>
     </g>
    </g>
    <g id="ytick_4">
     <g id="line2d_9">
      <g>
       <use xlink:href="#m61bd857a39" x="47.81" y="268.406359" style="stroke: #000000; stroke-width: 0.8"/>
      </g>
     </g>
     <g id="text_10">
      <!-- 0.6 -->
      <g transform="translate(24.906875 272.205577) scale(0.1 -0.1)">
       <defs>
        <path id="DejaVuSans-36" d="M 2113 2584 
Q 1688 2584 1439 2293 
Q 1191 2003 1191 1497 
Q 1191 994 1439 701 
Q 1688 409 2113 409 
Q 2538 409 2786 701 
Q 3034 994 3034 1497 
Q 3034 2003 2786 2293 
Q 2538 2584 2113 2584 
z
M 3366 4563 
L 3366 3988 
Q 3128 4100 2886 4159 
Q 2644 4219 2406 4219 
Q 1781 4219 1451 3797 
Q 1122 3375 1075 2522 
Q 1259 2794 1537 2939 
Q 1816 3084 2150 3084 
Q 2853 3084 3261 2657 
Q 3669 2231 3669 1497 
Q 3669 778 3244 343 
Q 2819 -91 2113 -91 
Q 1303 -91 875 529 
Q 447 1150 447 2328 
Q 447 3434 972 4092 
Q 1497 4750 2381 4750 
Q 2619 4750 2861 4703 
Q 3103 4656 3366 4563 
z
" transform="scale(0.015625)"/>
       </defs>
       <use xlink:href="#DejaVuSans-30"/>
       <use xlink:href="#DejaVuSans-2e" transform="translate(63.623047 0)"/>
       <use xlink:href="#DejaVuSans-36" transform="translate(95.410156 0)"/>
      </g>
     </g>
    </g>
    <g id="ytick_5">
     <g id="line2d_10">
      <g>
       <use xlink:href="#m61bd857a39" x="47.81" y="227.861812" style="stroke: #000000; stroke-width: 0.8"/>
      </g>
     </g>
     <g id="text_11">
      <!-- 0.8 -->
      <g transform="translate(24.906875 231.66103) scale(0.1 -0.1)">
       <defs>
        <path id="DejaVuSans-38" d="M 2034 2216 
Q 1584 2216 1326 1975 
Q 1069 1734 1069 1313 
Q 1069 891 1326 650 
Q 1584 409 2034 409 
Q 2484 409 2743 651 
Q 3003 894 3003 1313 
Q 3003 1734 2745 1975 
Q 2488 2216 2034 2216 
z
M 1403 2484 
Q 997 2584 770 2862 
Q 544 3141 544 3541 
Q 544 4100 942 4425 
Q 1341 4750 2034 4750 
Q 2731 4750 3128 4425 
Q 3525 4100 3525 3541 
Q 3525 3141 3298 2862 
Q 3072 2584 2669 2484 
Q 3125 2378 3379 2068 
Q 3634 1759 3634 1313 
Q 3634 634 3220 271 
Q 2806 -91 2034 -91 
Q 1263 -91 848 271 
Q 434 634 434 1313 
Q 434 1759 690 2068 
Q 947 2378 1403 2484 
z
M 1172 3481 
Q 1172 3119 1398 2916 
Q 1625 2713 2034 2713 
Q 2441 2713 2670 2916 
Q 2900 3119 2900 3481 
Q 2900 3844 2670 4047 
Q 2441 4250 2034 4250 
Q 1625 4250 1398 4047 
Q 1172 3844 1172 3481 
z
" transform="scale(0.015625)"/>
       </defs>
       <use xlink:href="#DejaVuSans-30"/>
       <use xlink:href="#DejaVuSans-2e" transform="translate(63.623047 0)"/>
       <use xlink:href="#DejaVuSans-38" transform="translate(95.410156 0)"/>
      </g>
     </g>
    </g>
    <g id="ytick_6">
     <g id="line2d_11">
      <g>
       <use xlink:href="#m61bd857a39" x="47.81" y="187.317264" style="stroke: #000000; stroke-width: 0.8"/>
      </g>
     </g>
     <g id="text_12">
      <!-- 1.0 -->
      <g transform="translate(24.906875 191.116483) scale(0.1 -0.1)">
       <use xlink:href="#DejaVuSans-31"/>
       <use xlink:href="#DejaVuSans-2e" transform="translate(63.623047 0)"/>
       <use xlink:href="#DejaVuSans-30" transform="translate(95.410156 0)"/>
      </g>
     </g>
    </g>
    <g id="ytick_7">
     <g id="line2d_12">
      <g>
       <use xlink:href="#m61bd857a39" x="47.81" y="146.772717" style="stroke: #000000; stroke-width: 0.8"/>
      </g>
     </g>
     <g id="text_13">
      <!-- 1.2 -->
      <g transform="translate(24.906875 150.571936) scale(0.1 -0.1)">
       <use xlink:href="#DejaVuSans-31"/>
       <use xlink:href="#DejaVuSans-2e" transform="translate(63.623047 0)"/>
       <use xlink:href="#DejaVuSans-32" transform="translate(95.410156 0)"/>
      </g>
     </g>
    </g>
    <g id="ytick_8">
     <g id="line2d_13">
      <g>
       <use xlink:href="#m61bd857a39" x="47.81" y="106.22817" style="stroke: #000000; stroke-width: 0.8"/>
      </g>
     </g>
     <g id="text_14">
      <!-- 1.4 -->
      <g transform="translate(24.906875 110.027389) scale(0.1 -0.1)">
       <use xlink:href="#DejaVuSans-31"/>
       <use xlink:href="#DejaVuSans-2e" transform="translate(63.623047 0)"/>
       <use xlink:href="#DejaVuSans-34" transform="translate(95.410156 0)"/>
      </g>
     </g>
    </g>
    <g id="ytick_9">
     <g id="line2d_14">
      <g>
       <use xlink:href="#m61bd857a39" x="47.81" y="65.683623" style="stroke: #000000; stroke-width: 0.8"/>
      </g>
     </g>
     <g id="text_15">
      <!-- 1.6 -->
      <g transform="translate(24.906875 69.482842) scale(0.1 -0.1)">
       <use xlink:href="#DejaVuSans-31"/>
       <use xlink:href="#DejaVuSans-2e" transform="translate(63.623047 0)"/>
       <use xlink:href="#DejaVuSans-36" transform="translate(95.410156 0)"/>
      </g>
     </g>
    </g>
    <g id="text_16">
     <!-- Phe-Reverse Labelled height / Control height -->
     <g transform="translate(18.827188 320.327969) rotate(-90) scale(0.1 -0.1)">
      <defs>
       <path id="DejaVuSans-68" d="M 3513 2113 
L 3513 0 
L 2938 0 
L 2938 2094 
Q 2938 2591 2744 2837 
Q 2550 3084 2163 3084 
Q 1697 3084 1428 2787 
Q 1159 2491 1159 1978 
L 1159 0 
L 581 0 
L 581 4863 
L 1159 4863 
L 1159 2956 
Q 1366 3272 1645 3428 
Q 1925 3584 2291 3584 
Q 2894 3584 3203 3211 
Q 3513 2838 3513 2113 
z
" transform="scale(0.015625)"/>
       <path id="DejaVuSans-2d" d="M 313 2009 
L 1997 2009 
L 1997 1497 
L 313 1497 
L 313 2009 
z
" transform="scale(0.015625)"/>
       <path id="DejaVuSans-52" d="M 2841 2188 
Q 3044 2119 3236 1894 
Q 3428 1669 3622 1275 
L 4263 0 
L 3584 0 
L 2988 1197 
Q 2756 1666 2539 1819 
Q 2322 1972 1947 1972 
L 1259 1972 
L 1259 0 
L 628 0 
L 628 4666 
L 2053 4666 
Q 2853 4666 3247 4331 
Q 3641 3997 3641 3322 
Q 3641 2881 3436 2590 
Q 3231 2300 2841 2188 
z
M 1259 4147 
L 1259 2491 
L 2053 2491 
Q 2509 2491 2742 2702 
Q 2975 2913 2975 3322 
Q 2975 3731 2742 3939 
Q 2509 4147 2053 4147 
L 1259 4147 
z
" transform="scale(0.015625)"/>
       <path id="DejaVuSans-76" d="M 191 3500 
L 800 3500 
L 1894 563 
L 2988 3500 
L 3597 3500 
L 2284 0 
L 1503 0 
L 191 3500 
z
" transform="scale(0.015625)"/>
       <path id="DejaVuSans-72" d="M 2631 2963 
Q 2534 3019 2420 3045 
Q 2306 3072 2169 3072 
Q 1681 3072 1420 2755 
Q 1159 2438 1159 1844 
L 1159 0 
L 581 0 
L 581 3500 
L 1159 3500 
L 1159 2956 
Q 1341 3275 1631 3429 
Q 1922 3584 2338 3584 
Q 2397 3584 2469 3576 
Q 2541 3569 2628 3553 
L 2631 2963 
z
" transform="scale(0.015625)"/>
       <path id="DejaVuSans-73" d="M 2834 3397 
L 2834 2853 
Q 2591 2978 2328 3040 
Q 2066 3103 1784 3103 
Q 1356 3103 1142 2972 
Q 928 2841 928 2578 
Q 928 2378 1081 2264 
Q 1234 2150 1697 2047 
L 1894 2003 
Q 2506 1872 2764 1633 
Q 3022 1394 3022 966 
Q 3022 478 2636 193 
Q 2250 -91 1575 -91 
Q 1294 -91 989 -36 
Q 684 19 347 128 
L 347 722 
Q 666 556 975 473 
Q 1284 391 1588 391 
Q 1994 391 2212 530 
Q 2431 669 2431 922 
Q 2431 1156 2273 1281 
Q 2116 1406 1581 1522 
L 1381 1569 
Q 847 1681 609 1914 
Q 372 2147 372 2553 
Q 372 3047 722 3315 
Q 1072 3584 1716 3584 
Q 2034 3584 2315 3537 
Q 2597 3491 2834 3397 
z
" transform="scale(0.015625)"/>
       <path id="DejaVuSans-4c" d="M 628 4666 
L 1259 4666 
L 1259 531 
L 3531 531 
L 3531 0 
L 628 0 
L 628 4666 
z
" transform="scale(0.015625)"/>
       <path id="DejaVuSans-62" d="M 3116 1747 
Q 3116 2381 2855 2742 
Q 2594 3103 2138 3103 
Q 1681 3103 1420 2742 
Q 1159 2381 1159 1747 
Q 1159 1113 1420 752 
Q 1681 391 2138 391 
Q 2594 391 2855 752 
Q 3116 1113 3116 1747 
z
M 1159 2969 
Q 1341 3281 1617 3432 
Q 1894 3584 2278 3584 
Q 2916 3584 3314 3078 
Q 3713 2572 3713 1747 
Q 3713 922 3314 415 
Q 2916 -91 2278 -91 
Q 1894 -91 1617 61 
Q 1341 213 1159 525 
L 1159 0 
L 581 0 
L 581 4863 
L 1159 4863 
L 1159 2969 
z
" transform="scale(0.015625)"/>
       <path id="DejaVuSans-6c" d="M 603 4863 
L 1178 4863 
L 1178 0 
L 603 0 
L 603 4863 
z
" transform="scale(0.015625)"/>
       <path id="DejaVuSans-64" d="M 2906 2969 
L 2906 4863 
L 3481 4863 
L 3481 0 
L 2906 0 
L 2906 525 
Q 2725 213 2448 61 
Q 2172 -91 1784 -91 
Q 1150 -91 751 415 
Q 353 922 353 1747 
Q 353 2572 751 3078 
Q 1150 3584 1784 3584 
Q 2172 3584 2448 3432 
Q 2725 3281 2906 2969 
z
M 947 1747 
Q 947 1113 1208 752 
Q 1469 391 1925 391 
Q 2381 391 2643 752 
Q 2906 1113 2906 1747 
Q 2906 2381 2643 2742 
Q 2381 3103 1925 3103 
Q 1469 3103 1208 2742 
Q 947 2381 947 1747 
z
" transform="scale(0.015625)"/>
       <path id="DejaVuSans-69" d="M 603 3500 
L 1178 3500 
L 1178 0 
L 603 0 
L 603 3500 
z
M 603 4863 
L 1178 4863 
L 1178 4134 
L 603 4134 
L 603 4863 
z
" transform="scale(0.015625)"/>
       <path id="DejaVuSans-67" d="M 2906 1791 
Q 2906 2416 2648 2759 
Q 2391 3103 1925 3103 
Q 1463 3103 1205 2759 
Q 947 2416 947 1791 
Q 947 1169 1205 825 
Q 1463 481 1925 481 
Q 2391 481 2648 825 
Q 2906 1169 2906 1791 
z
M 3481 434 
Q 3481 -459 3084 -895 
Q 2688 -1331 1869 -1331 
Q 1566 -1331 1297 -1286 
Q 1028 -1241 775 -1147 
L 775 -588 
Q 1028 -725 1275 -790 
Q 1522 -856 1778 -856 
Q 2344 -856 2625 -561 
Q 2906 -266 2906 331 
L 2906 616 
Q 2728 306 2450 153 
Q 2172 0 1784 0 
Q 1141 0 747 490 
Q 353 981 353 1791 
Q 353 2603 747 3093 
Q 1141 3584 1784 3584 
Q 2172 3584 2450 3431 
Q 2728 3278 2906 2969 
L 2906 3500 
L 3481 3500 
L 3481 434 
z
" transform="scale(0.015625)"/>
       <path id="DejaVuSans-74" d="M 1172 4494 
L 1172 3500 
L 2356 3500 
L 2356 3053 
L 1172 3053 
L 1172 1153 
Q 1172 725 1289 603 
Q 1406 481 1766 481 
L 2356 481 
L 2356 0 
L 1766 0 
Q 1100 0 847 248 
Q 594 497 594 1153 
L 594 3053 
L 172 3053 
L 172 3500 
L 594 3500 
L 594 4494 
L 1172 4494 
z
" transform="scale(0.015625)"/>
       <path id="DejaVuSans-2f" d="M 1625 4666 
L 2156 4666 
L 531 -594 
L 0 -594 
L 1625 4666 
z
" transform="scale(0.015625)"/>
       <path id="DejaVuSans-43" d="M 4122 4306 
L 4122 3641 
Q 3803 3938 3442 4084 
Q 3081 4231 2675 4231 
Q 1875 4231 1450 3742 
Q 1025 3253 1025 2328 
Q 1025 1406 1450 917 
Q 1875 428 2675 428 
Q 3081 428 3442 575 
Q 3803 722 4122 1019 
L 4122 359 
Q 3791 134 3420 21 
Q 3050 -91 2638 -91 
Q 1578 -91 968 557 
Q 359 1206 359 2328 
Q 359 3453 968 4101 
Q 1578 4750 2638 4750 
Q 3056 4750 3426 4639 
Q 3797 4528 4122 4306 
z
" transform="scale(0.015625)"/>
       <path id="DejaVuSans-6f" d="M 1959 3097 
Q 1497 3097 1228 2736 
Q 959 2375 959 1747 
Q 959 1119 1226 758 
Q 1494 397 1959 397 
Q 2419 397 2687 759 
Q 2956 1122 2956 1747 
Q 2956 2369 2687 2733 
Q 2419 3097 1959 3097 
z
M 1959 3584 
Q 2709 3584 3137 3096 
Q 3566 2609 3566 1747 
Q 3566 888 3137 398 
Q 2709 -91 1959 -91 
Q 1206 -91 779 398 
Q 353 888 353 1747 
Q 353 2609 779 3096 
Q 1206 3584 1959 3584 
z
" transform="scale(0.015625)"/>
       <path id="DejaVuSans-6e" d="M 3513 2113 
L 3513 0 
L 2938 0 
L 2938 2094 
Q 2938 2591 2744 2837 
Q 2550 3084 2163 3084 
Q 1697 3084 1428 2787 
Q 1159 2491 1159 1978 
L 1159 0 
L 581 0 
L 581 3500 
L 1159 3500 
L 1159 2956 
Q 1366 3272 1645 3428 
Q 1925 3584 2291 3584 
Q 2894 3584 3203 3211 
Q 3513 2838 3513 2113 
z
" transform="scale(0.015625)"/>
      </defs>
      <use xlink:href="#DejaVuSans-50"/>
      <use xlink:href="#DejaVuSans-68" transform="translate(60.302734 0)"/>
      <use xlink:href="#DejaVuSans-65" transform="translate(123.681641 0)"/>
      <use xlink:href="#DejaVuSans-2d" transform="translate(185.205078 0)"/>
      <use xlink:href="#DejaVuSans-52" transform="translate(221.289062 0)"/>
      <use xlink:href="#DejaVuSans-65" transform="translate(286.271484 0)"/>
      <use xlink:href="#DejaVuSans-76" transform="translate(347.794922 0)"/>
      <use xlink:href="#DejaVuSans-65" transform="translate(406.974609 0)"/>
      <use xlink:href="#DejaVuSans-72" transform="translate(468.498047 0)"/>
      <use xlink:href="#DejaVuSans-73" transform="translate(509.611328 0)"/>
      <use xlink:href="#DejaVuSans-65" transform="translate(561.710938 0)"/>
      <use xlink:href="#DejaVuSans-20" transform="translate(623.234375 0)"/>
      <use xlink:href="#DejaVuSans-4c" transform="translate(655.021484 0)"/>
      <use xlink:href="#DejaVuSans-61" transform="translate(710.734375 0)"/>
      <use xlink:href="#DejaVuSans-62" transform="translate(772.013672 0)"/>
      <use xlink:href="#DejaVuSans-65" transform="translate(835.490234 0)"/>
      <use xlink:href="#DejaVuSans-6c" transform="translate(897.013672 0)"/>
      <use xlink:href="#DejaVuSans-6c" transform="translate(924.796875 0)"/>
      <use xlink:href="#DejaVuSans-65" transform="translate(952.580078 0)"/>
      <use xlink:href="#DejaVuSans-64" transform="translate(1014.103516 0)"/>
      <use xlink:href="#DejaVuSans-20" transform="translate(1077.580078 0)"/>
      <use xlink:href="#DejaVuSans-68" transform="translate(1109.367188 0)"/>
      <use xlink:href="#DejaVuSans-65" transform="translate(1172.746094 0)"/>
      <use xlink:href="#DejaVuSans-69" transform="translate(1234.269531 0)"/>
      <use xlink:href="#DejaVuSans-67" transform="translate(1262.052734 0)"/>
      <use xlink:href="#DejaVuSans-68" transform="translate(1325.529297 0)"/>
      <use xlink:href="#DejaVuSans-74" transform="translate(1388.908203 0)"/>
      <use xlink:href="#DejaVuSans-20" transform="translate(1428.117188 0)"/>
      <use xlink:href="#DejaVuSans-2f" transform="translate(1459.904297 0)"/>
      <use xlink:href="#DejaVuSans-20" transform="translate(1493.595703 0)"/>
      <use xlink:href="#DejaVuSans-43" transform="translate(1525.382812 0)"/>
      <use xlink:href="#DejaVuSans-6f" transform="translate(1595.207031 0)"/>
      <use xlink:href="#DejaVuSans-6e" transform="translate(1656.388672 0)"/>
      <use xlink:href="#DejaVuSans-74" transform="translate(1719.767578 0)"/>
      <use xlink:href="#DejaVuSans-72" transform="translate(1758.976562 0)"/>
      <use xlink:href="#DejaVuSans-6f" transform="translate(1797.839844 0)"/>
      <use xlink:href="#DejaVuSans-6c" transform="translate(1859.021484 0)"/>
      <use xlink:href="#DejaVuSans-20" transform="translate(1886.804688 0)"/>
      <use xlink:href="#DejaVuSans-68" transform="translate(1918.591797 0)"/>
      <use xlink:href="#DejaVuSans-65" transform="translate(1981.970703 0)"/>
      <use xlink:href="#DejaVuSans-69" transform="translate(2043.494141 0)"/>
      <use xlink:href="#DejaVuSans-67" transform="translate(2071.277344 0)"/>
      <use xlink:href="#DejaVuSans-68" transform="translate(2134.753906 0)"/>
      <use xlink:href="#DejaVuSans-74" transform="translate(2198.132812 0)"/>
     </g>
    </g>
   </g>
   <g id="patch_245">
    <path d="M 47.81 390.04 
L 47.81 26.88 
" style="fill: none; stroke: #000000; stroke-width: 0.8; stroke-linejoin: miter; stroke-linecap: square"/>
   </g>
   <g id="patch_246">
    <path d="M 709.2 390.04 
L 709.2 26.88 
" style="fill: none; stroke: #000000; stroke-width: 0.8; stroke-linejoin: miter; stroke-linecap: square"/>
   </g>
   <g id="patch_247">
    <path d="M 47.81 390.04 
L 709.2 390.04 
" style="fill: none; stroke: #000000; stroke-width: 0.8; stroke-linejoin: miter; stroke-linecap: square"/>
   </g>
   <g id="patch_248">
    <path d="M 47.81 26.88 
L 709.2 26.88 
" style="fill: none; stroke: #000000; stroke-width: 0.8; stroke-linejoin: miter; stroke-linecap: square"/>
   </g>
   <g id="text_17">
    <!-- Red: 8, orange: 10, Green: 224 -->
    <g transform="translate(301.003438 40.534175) scale(0.1 -0.1)">
     <defs>
      <path id="DejaVuSans-3a" d="M 750 794 
L 1409 794 
L 1409 0 
L 750 0 
L 750 794 
z
M 750 3309 
L 1409 3309 
L 1409 2516 
L 750 2516 
L 750 3309 
z
" transform="scale(0.015625)"/>
      <path id="DejaVuSans-2c" d="M 750 794 
L 1409 794 
L 1409 256 
L 897 -744 
L 494 -744 
L 750 256 
L 750 794 
z
" transform="scale(0.015625)"/>
      <path id="DejaVuSans-47" d="M 3809 666 
L 3809 1919 
L 2778 1919 
L 2778 2438 
L 4434 2438 
L 4434 434 
Q 4069 175 3628 42 
Q 3188 -91 2688 -91 
Q 1594 -91 976 548 
Q 359 1188 359 2328 
Q 359 3472 976 4111 
Q 1594 4750 2688 4750 
Q 3144 4750 3555 4637 
Q 3966 4525 4313 4306 
L 4313 3634 
Q 3963 3931 3569 4081 
Q 3175 4231 2741 4231 
Q 1884 4231 1454 3753 
Q 1025 3275 1025 2328 
Q 1025 1384 1454 906 
Q 1884 428 2741 428 
Q 3075 428 3337 486 
Q 3600 544 3809 666 
z
" transform="scale(0.015625)"/>
     </defs>
     <use xlink:href="#DejaVuSans-52"/>
     <use xlink:href="#DejaVuSans-65" transform="translate(64.982422 0)"/>
     <use xlink:href="#DejaVuSans-64" transform="translate(126.505859 0)"/>
     <use xlink:href="#DejaVuSans-3a" transform="translate(189.982422 0)"/>
     <use xlink:href="#DejaVuSans-20" transform="translate(223.673828 0)"/>
     <use xlink:href="#DejaVuSans-38" transform="translate(255.460938 0)"/>
     <use xlink:href="#DejaVuSans-2c" transform="translate(319.083984 0)"/>
     <use xlink:href="#DejaVuSans-20" transform="translate(350.871094 0)"/>
     <use xlink:href="#DejaVuSans-6f" transform="translate(382.658203 0)"/>
     <use xlink:href="#DejaVuSans-72" transform="translate(443.839844 0)"/>
     <use xlink:href="#DejaVuSans-61" transform="translate(484.953125 0)"/>
     <use xlink:href="#DejaVuSans-6e" transform="translate(546.232422 0)"/>
     <use xlink:href="#DejaVuSans-67" transform="translate(609.611328 0)"/>
     <use xlink:href="#DejaVuSans-65" transform="translate(673.087891 0)"/>
     <use xlink:href="#DejaVuSans-3a" transform="translate(734.611328 0)"/>
     <use xlink:href="#DejaVuSans-20" transform="translate(768.302734 0)"/>
     <use xlink:href="#DejaVuSans-31" transform="translate(800.089844 0)"/>
     <use xlink:href="#DejaVuSans-30" transform="translate(863.712891 0)"/>
     <use xlink:href="#DejaVuSans-2c" transform="translate(927.335938 0)"/>
     <use xlink:href="#DejaVuSans-20" transform="translate(959.123047 0)"/>
     <use xlink:href="#DejaVuSans-47" transform="translate(990.910156 0)"/>
     <use xlink:href="#DejaVuSans-72" transform="translate(1068.400391 0)"/>
     <use xlink:href="#DejaVuSans-65" transform="translate(1107.263672 0)"/>
     <use xlink:href="#DejaVuSans-65" transform="translate(1168.787109 0)"/>
     <use xlink:href="#DejaVuSans-6e" transform="translate(1230.310547 0)"/>
     <use xlink:href="#DejaVuSans-3a" transform="translate(1293.689453 0)"/>
     <use xlink:href="#DejaVuSans-20" transform="translate(1327.380859 0)"/>
     <use xlink:href="#DejaVuSans-32" transform="translate(1359.167969 0)"/>
     <use xlink:href="#DejaVuSans-32" transform="translate(1422.791016 0)"/>
     <use xlink:href="#DejaVuSans-34" transform="translate(1486.414062 0)"/>
    </g>
   </g>
   <g id="text_18">
    <!-- Phe-Reverse Labelled Height relative to Control Height (median normalized) -->
    <g transform="translate(149.978125 20.88) scale(0.12 -0.12)">
     <defs>
      <path id="DejaVuSans-48" d="M 628 4666 
L 1259 4666 
L 1259 2753 
L 3553 2753 
L 3553 4666 
L 4184 4666 
L 4184 0 
L 3553 0 
L 3553 2222 
L 1259 2222 
L 1259 0 
L 628 0 
L 628 4666 
z
" transform="scale(0.015625)"/>
      <path id="DejaVuSans-28" d="M 1984 4856 
Q 1566 4138 1362 3434 
Q 1159 2731 1159 2009 
Q 1159 1288 1364 580 
Q 1569 -128 1984 -844 
L 1484 -844 
Q 1016 -109 783 600 
Q 550 1309 550 2009 
Q 550 2706 781 3412 
Q 1013 4119 1484 4856 
L 1984 4856 
z
" transform="scale(0.015625)"/>
      <path id="DejaVuSans-6d" d="M 3328 2828 
Q 3544 3216 3844 3400 
Q 4144 3584 4550 3584 
Q 5097 3584 5394 3201 
Q 5691 2819 5691 2113 
L 5691 0 
L 5113 0 
L 5113 2094 
Q 5113 2597 4934 2840 
Q 4756 3084 4391 3084 
Q 3944 3084 3684 2787 
Q 3425 2491 3425 1978 
L 3425 0 
L 2847 0 
L 2847 2094 
Q 2847 2600 2669 2842 
Q 2491 3084 2119 3084 
Q 1678 3084 1418 2786 
Q 1159 2488 1159 1978 
L 1159 0 
L 581 0 
L 581 3500 
L 1159 3500 
L 1159 2956 
Q 1356 3278 1631 3431 
Q 1906 3584 2284 3584 
Q 2666 3584 2933 3390 
Q 3200 3197 3328 2828 
z
" transform="scale(0.015625)"/>
      <path id="DejaVuSans-7a" d="M 353 3500 
L 3084 3500 
L 3084 2975 
L 922 459 
L 3084 459 
L 3084 0 
L 275 0 
L 275 525 
L 2438 3041 
L 353 3041 
L 353 3500 
z
" transform="scale(0.015625)"/>
      <path id="DejaVuSans-29" d="M 513 4856 
L 1013 4856 
Q 1481 4119 1714 3412 
Q 1947 2706 1947 2009 
Q 1947 1309 1714 600 
Q 1481 -109 1013 -844 
L 513 -844 
Q 928 -128 1133 580 
Q 1338 1288 1338 2009 
Q 1338 2731 1133 3434 
Q 928 4138 513 4856 
z
" transform="scale(0.015625)"/>
     </defs>
     <use xlink:href="#DejaVuSans-50"/>
     <use xlink:href="#DejaVuSans-68" transform="translate(60.302734 0)"/>
     <use xlink:href="#DejaVuSans-65" transform="translate(123.681641 0)"/>
     <use xlink:href="#DejaVuSans-2d" transform="translate(185.205078 0)"/>
     <use xlink:href="#DejaVuSans-52" transform="translate(221.289062 0)"/>
     <use xlink:href="#DejaVuSans-65" transform="translate(286.271484 0)"/>
     <use xlink:href="#DejaVuSans-76" transform="translate(347.794922 0)"/>
     <use xlink:href="#DejaVuSans-65" transform="translate(406.974609 0)"/>
     <use xlink:href="#DejaVuSans-72" transform="translate(468.498047 0)"/>
     <use xlink:href="#DejaVuSans-73" transform="translate(509.611328 0)"/>
     <use xlink:href="#DejaVuSans-65" transform="translate(561.710938 0)"/>
     <use xlink:href="#DejaVuSans-20" transform="translate(623.234375 0)"/>
     <use xlink:href="#DejaVuSans-4c" transform="translate(655.021484 0)"/>
     <use xlink:href="#DejaVuSans-61" transform="translate(710.734375 0)"/>
     <use xlink:href="#DejaVuSans-62" transform="translate(772.013672 0)"/>
     <use xlink:href="#DejaVuSans-65" transform="translate(835.490234 0)"/>
     <use xlink:href="#DejaVuSans-6c" transform="translate(897.013672 0)"/>
     <use xlink:href="#DejaVuSans-6c" transform="translate(924.796875 0)"/>
     <use xlink:href="#DejaVuSans-65" transform="translate(952.580078 0)"/>
     <use xlink:href="#DejaVuSans-64" transform="translate(1014.103516 0)"/>
     <use xlink:href="#DejaVuSans-20" transform="translate(1077.580078 0)"/>
     <use xlink:href="#DejaVuSans-48" transform="translate(1109.367188 0)"/>
     <use xlink:href="#DejaVuSans-65" transform="translate(1184.5625 0)"/>
     <use xlink:href="#DejaVuSans-69" transform="translate(1246.085938 0)"/>
     <use xlink:href="#DejaVuSans-67" transform="translate(1273.869141 0)"/>
     <use xlink:href="#DejaVuSans-68" transform="translate(1337.345703 0)"/>
     <use xlink:href="#DejaVuSans-74" transform="translate(1400.724609 0)"/>
     <use xlink:href="#DejaVuSans-20" transform="translate(1439.933594 0)"/>
     <use xlink:href="#DejaVuSans-72" transform="translate(1471.720703 0)"/>
     <use xlink:href="#DejaVuSans-65" transform="translate(1510.583984 0)"/>
     <use xlink:href="#DejaVuSans-6c" transform="translate(1572.107422 0)"/>
     <use xlink:href="#DejaVuSans-61" transform="translate(1599.890625 0)"/>
     <use xlink:href="#DejaVuSans-74" transform="translate(1661.169922 0)"/>
     <use xlink:href="#DejaVuSans-69" transform="translate(1700.378906 0)"/>
     <use xlink:href="#DejaVuSans-76" transform="translate(1728.162109 0)"/>
     <use xlink:href="#DejaVuSans-65" transform="translate(1787.341797 0)"/>
     <use xlink:href="#DejaVuSans-20" transform="translate(1848.865234 0)"/>
     <use xlink:href="#DejaVuSans-74" transform="translate(1880.652344 0)"/>
     <use xlink:href="#DejaVuSans-6f" transform="translate(1919.861328 0)"/>
     <use xlink:href="#DejaVuSans-20" transform="translate(1981.042969 0)"/>
     <use xlink:href="#DejaVuSans-43" transform="translate(2012.830078 0)"/>
     <use xlink:href="#DejaVuSans-6f" transform="translate(2082.654297 0)"/>
     <use xlink:href="#DejaVuSans-6e" transform="translate(2143.835938 0)"/>
     <use xlink:href="#DejaVuSans-74" transform="translate(2207.214844 0)"/>
     <use xlink:href="#DejaVuSans-72" transform="translate(2246.423828 0)"/>
     <use xlink:href="#DejaVuSans-6f" transform="translate(2285.287109 0)"/>
     <use xlink:href="#DejaVuSans-6c" transform="translate(2346.46875 0)"/>
     <use xlink:href="#DejaVuSans-20" transform="translate(2374.251953 0)"/>
     <use xlink:href="#DejaVuSans-48" transform="translate(2406.039062 0)"/>
     <use xlink:href="#DejaVuSans-65" transform="translate(2481.234375 0)"/>
     <use xlink:href="#DejaVuSans-69" transform="translate(2542.757812 0)"/>
     <use xlink:href="#DejaVuSans-67" transform="translate(2570.541016 0)"/>
     <use xlink:href="#DejaVuSans-68" transform="translate(2634.017578 0)"/>
     <use xlink:href="#DejaVuSans-74" transform="translate(2697.396484 0)"/>
     <use xlink:href="#DejaVuSans-20" transform="translate(2736.605469 0)"/>
     <use xlink:href="#DejaVuSans-28" transform="translate(2768.392578 0)"/>
     <use xlink:href="#DejaVuSans-6d" transform="translate(2807.40625 0)"/>
     <use xlink:href="#DejaVuSans-65" transform="translate(2904.818359 0)"/>
     <use xlink:href="#DejaVuSans-64" transform="translate(2966.341797 0)"/>
     <use xlink:href="#DejaVuSans-69" transform="translate(3029.818359 0)"/>
     <use xlink:href="#DejaVuSans-61" transform="translate(3057.601562 0)"/>
     <use xlink:href="#DejaVuSans-6e" transform="translate(3118.880859 0)"/>
     <use xlink:href="#DejaVuSans-20" transform="translate(3182.259766 0)"/>
     <use xlink:href="#DejaVuSans-6e" transform="translate(3214.046875 0)"/>
     <use xlink:href="#DejaVuSans-6f" transform="translate(3277.425781 0)"/>
     <use xlink:href="#DejaVuSans-72" transform="translate(3338.607422 0)"/>
     <use xlink:href="#DejaVuSans-6d" transform="translate(3377.970703 0)"/>
     <use xlink:href="#DejaVuSans-61" transform="translate(3475.382812 0)"/>
     <use xlink:href="#DejaVuSans-6c" transform="translate(3536.662109 0)"/>
     <use xlink:href="#DejaVuSans-69" transform="translate(3564.445312 0)"/>
     <use xlink:href="#DejaVuSans-7a" transform="translate(3592.228516 0)"/>
     <use xlink:href="#DejaVuSans-65" transform="translate(3644.71875 0)"/>
     <use xlink:href="#DejaVuSans-64" transform="translate(3706.242188 0)"/>
     <use xlink:href="#DejaVuSans-29" transform="translate(3769.71875 0)"/>
    </g>
   </g>
  </g>
 </g>
 <defs>
  <clipPath id="pa818a6c692">
   <rect x="47.81" y="26.88" width="661.39" height="363.16"/>
  </clipPath>
 </defs>
</svg>
