<?xml version="1.0" encoding="utf-8" standalone="no"?>
<!DOCTYPE svg PUBLIC "-//W3C//DTD SVG 1.1//EN"
  "http://www.w3.org/Graphics/SVG/1.1/DTD/svg11.dtd">
<svg xmlns:xlink="http://www.w3.org/1999/xlink" width="720pt" height="432pt" viewBox="0 0 720 432" xmlns="http://www.w3.org/2000/svg" version="1.1">
 <metadata>
  <rdf:RDF xmlns:dc="http://purl.org/dc/elements/1.1/" xmlns:cc="http://creativecommons.org/ns#" xmlns:rdf="http://www.w3.org/1999/02/22-rdf-syntax-ns#">
   <cc:Work>
    <dc:type rdf:resource="http://purl.org/dc/dcmitype/StillImage"/>
    <dc:date>2026-03-03T12:11:32.662580</dc:date>
    <dc:format>image/svg+xml</dc:format>
    <dc:creator>
     <cc:Agent>
      <dc:title>Matplotlib v3.10.8, https://matplotlib.org/</dc:title>
     </cc:Agent>
    </dc:creator>
   </cc:Work>
  </rdf:RDF>
 </metadata>
 <defs>
  <style type="text/css">*{stroke-linejoin: round; stroke-linecap: butt}</style>
 </defs>
 <g id="figure_1">
  <g id="patch_1">
   <path d="M 0 432 
L 720 432 
L 720 0 
L 0 0 
z
" style="fill: #ffffff"/>
  </g>
  <g id="axes_1">
   <g id="patch_2">
    <path d="M 47.72 390.04 
L 709.2 390.04 
L 709.2 26.88 
L 47.72 26.88 
z
" style="fill: #ffffff"/>
   </g>
   <g id="patch_3">
    <path d="M 46.353306 390.04 
L 49.086694 390.04 
L 49.086694 130.887035 
L 46.353306 130.887035 
z
" clip-path="url(#pd27907045a)" style="fill: #ffa500"/>
   </g>
   <g id="patch_4">
    <path d="M 49.086694 390.04 
L 51.820083 390.04 
L 51.820083 44.173333 
L 49.086694 44.173333 
z
" clip-path="url(#pd27907045a)" style="fill: #008000"/>
   </g>
   <g id="patch_5">
    <path d="M 51.820083 390.04 
L 54.553471 390.04 
L 54.553471 44.173333 
L 51.820083 44.173333 
z
" clip-path="url(#pd27907045a)" style="fill: #008000"/>
   </g>
   <g id="patch_6">
    <path d="M 54.553471 390.04 
L 57.28686 390.04 
L 57.28686 44.173333 
L 54.553471 44.173333 
z
" clip-path="url(#pd27907045a)" style="fill: #008000"/>
   </g>
   <g id="patch_7">
    <path d="M 57.28686 390.04 
L 60.020248 390.04 
L 60.020248 44.173333 
L 57.28686 44.173333 
z
" clip-path="url(#pd27907045a)" style="fill: #008000"/>
   </g>
   <g id="patch_8">
    <path d="M 60.020248 390.04 
L 62.753636 390.04 
L 62.753636 44.173333 
L 60.020248 44.173333 
z
" clip-path="url(#pd27907045a)" style="fill: #008000"/>
   </g>
   <g id="patch_9">
    <path d="M 62.753636 390.04 
L 65.487025 390.04 
L 65.487025 44.173333 
L 62.753636 44.173333 
z
" clip-path="url(#pd27907045a)" style="fill: #008000"/>
   </g>
   <g id="patch_10">
    <path d="M 65.487025 390.04 
L 68.220413 390.04 
L 68.220413 238.147653 
L 65.487025 238.147653 
z
" clip-path="url(#pd27907045a)" style="fill: #ff0000"/>
   </g>
   <g id="patch_11">
    <path d="M 68.220413 390.04 
L 70.953802 390.04 
L 70.953802 218.216053 
L 68.220413 218.216053 
z
" clip-path="url(#pd27907045a)" style="fill: #ff0000"/>
   </g>
   <g id="patch_12">
    <path d="M 70.953802 390.04 
L 73.68719 390.04 
L 73.68719 163.30197 
L 70.953802 163.30197 
z
" clip-path="url(#pd27907045a)" style="fill: #ffa500"/>
   </g>
   <g id="patch_13">
    <path d="M 73.68719 390.04 
L 76.420579 390.04 
L 76.420579 116.082937 
L 73.68719 116.082937 
z
" clip-path="url(#pd27907045a)" style="fill: #ffa500"/>
   </g>
   <g id="patch_14">
    <path d="M 76.420579 390.04 
L 79.153967 390.04 
L 79.153967 147.199144 
L 76.420579 147.199144 
z
" clip-path="url(#pd27907045a)" style="fill: #ffa500"/>
   </g>
   <g id="patch_15">
    <path d="M 79.153967 390.04 
L 81.887355 390.04 
L 81.887355 44.173333 
L 79.153967 44.173333 
z
" clip-path="url(#pd27907045a)" style="fill: #008000"/>
   </g>
   <g id="patch_16">
    <path d="M 81.887355 390.04 
L 84.620744 390.04 
L 84.620744 65.335247 
L 81.887355 65.335247 
z
" clip-path="url(#pd27907045a)" style="fill: #008000"/>
   </g>
   <g id="patch_17">
    <path d="M 84.620744 390.04 
L 87.354132 390.04 
L 87.354132 44.173333 
L 84.620744 44.173333 
z
" clip-path="url(#pd27907045a)" style="fill: #008000"/>
   </g>
   <g id="patch_18">
    <path d="M 87.354132 390.04 
L 90.087521 390.04 
L 90.087521 44.173333 
L 87.354132 44.173333 
z
" clip-path="url(#pd27907045a)" style="fill: #008000"/>
   </g>
   <g id="patch_19">
    <path d="M 90.087521 390.04 
L 92.820909 390.04 
L 92.820909 45.943169 
L 90.087521 45.943169 
z
" clip-path="url(#pd27907045a)" style="fill: #008000"/>
   </g>
   <g id="patch_20">
    <path d="M 92.820909 390.04 
L 95.554298 390.04 
L 95.554298 44.173333 
L 92.820909 44.173333 
z
" clip-path="url(#pd27907045a)" style="fill: #008000"/>
   </g>
   <g id="patch_21">
    <path d="M 95.554298 390.04 
L 98.287686 390.04 
L 98.287686 117.057377 
L 95.554298 117.057377 
z
" clip-path="url(#pd27907045a)" style="fill: #ffa500"/>
   </g>
   <g id="patch_22">
    <path d="M 98.287686 390.04 
L 101.021074 390.04 
L 101.021074 64.474946 
L 98.287686 64.474946 
z
" clip-path="url(#pd27907045a)" style="fill: #008000"/>
   </g>
   <g id="patch_23">
    <path d="M 101.021074 390.04 
L 103.754463 390.04 
L 103.754463 109.687517 
L 101.021074 109.687517 
z
" clip-path="url(#pd27907045a)" style="fill: #008000"/>
   </g>
   <g id="patch_24">
    <path d="M 103.754463 390.04 
L 106.487851 390.04 
L 106.487851 63.525479 
L 103.754463 63.525479 
z
" clip-path="url(#pd27907045a)" style="fill: #008000"/>
   </g>
   <g id="patch_25">
    <path d="M 106.487851 390.04 
L 109.22124 390.04 
L 109.22124 44.173333 
L 106.487851 44.173333 
z
" clip-path="url(#pd27907045a)" style="fill: #008000"/>
   </g>
   <g id="patch_26">
    <path d="M 109.22124 390.04 
L 111.954628 390.04 
L 111.954628 44.173333 
L 109.22124 44.173333 
z
" clip-path="url(#pd27907045a)" style="fill: #008000"/>
   </g>
   <g id="patch_27">
    <path d="M 111.954628 390.04 
L 114.688017 390.04 
L 114.688017 44.173333 
L 111.954628 44.173333 
z
" clip-path="url(#pd27907045a)" style="fill: #008000"/>
   </g>
   <g id="patch_28">
    <path d="M 114.688017 390.04 
L 117.421405 390.04 
L 117.421405 285.165253 
L 114.688017 285.165253 
z
" clip-path="url(#pd27907045a)" style="fill: #ff0000"/>
   </g>
   <g id="patch_29">
    <path d="M 117.421405 390.04 
L 120.154793 390.04 
L 120.154793 74.466902 
L 117.421405 74.466902 
z
" clip-path="url(#pd27907045a)" style="fill: #008000"/>
   </g>
   <g id="patch_30">
    <path d="M 120.154793 390.04 
L 122.888182 390.04 
L 122.888182 44.173333 
L 120.154793 44.173333 
z
" clip-path="url(#pd27907045a)" style="fill: #008000"/>
   </g>
   <g id="patch_31">
    <path d="M 122.888182 390.04 
L 125.62157 390.04 
L 125.62157 44.173333 
L 122.888182 44.173333 
z
" clip-path="url(#pd27907045a)" style="fill: #008000"/>
   </g>
   <g id="patch_32">
    <path d="M 125.62157 390.04 
L 128.354959 390.04 
L 128.354959 44.173333 
L 125.62157 44.173333 
z
" clip-path="url(#pd27907045a)" style="fill: #008000"/>
   </g>
   <g id="patch_33">
    <path d="M 128.354959 390.04 
L 131.088347 390.04 
L 131.088347 44.173333 
L 128.354959 44.173333 
z
" clip-path="url(#pd27907045a)" style="fill: #008000"/>
   </g>
   <g id="patch_34">
    <path d="M 131.088347 390.04 
L 133.821736 390.04 
L 133.821736 61.421624 
L 131.088347 61.421624 
z
" clip-path="url(#pd27907045a)" style="fill: #008000"/>
   </g>
   <g id="patch_35">
    <path d="M 133.821736 390.04 
L 136.555124 390.04 
L 136.555124 59.316468 
L 133.821736 59.316468 
z
" clip-path="url(#pd27907045a)" style="fill: #008000"/>
   </g>
   <g id="patch_36">
    <path d="M 136.555124 390.04 
L 139.288512 390.04 
L 139.288512 56.063264 
L 136.555124 56.063264 
z
" clip-path="url(#pd27907045a)" style="fill: #008000"/>
   </g>
   <g id="patch_37">
    <path d="M 139.288512 390.04 
L 142.021901 390.04 
L 142.021901 44.173333 
L 139.288512 44.173333 
z
" clip-path="url(#pd27907045a)" style="fill: #008000"/>
   </g>
   <g id="patch_38">
    <path d="M 142.021901 390.04 
L 144.755289 390.04 
L 144.755289 44.173333 
L 142.021901 44.173333 
z
" clip-path="url(#pd27907045a)" style="fill: #008000"/>
   </g>
   <g id="patch_39">
    <path d="M 144.755289 390.04 
L 147.488678 390.04 
L 147.488678 44.173333 
L 144.755289 44.173333 
z
" clip-path="url(#pd27907045a)" style="fill: #008000"/>
   </g>
   <g id="patch_40">
    <path d="M 147.488678 390.04 
L 150.222066 390.04 
L 150.222066 73.174851 
L 147.488678 73.174851 
z
" clip-path="url(#pd27907045a)" style="fill: #008000"/>
   </g>
   <g id="patch_41">
    <path d="M 150.222066 390.04 
L 152.955455 390.04 
L 152.955455 44.173333 
L 150.222066 44.173333 
z
" clip-path="url(#pd27907045a)" style="fill: #008000"/>
   </g>
   <g id="patch_42">
    <path d="M 152.955455 390.04 
L 155.688843 390.04 
L 155.688843 44.173333 
L 152.955455 44.173333 
z
" clip-path="url(#pd27907045a)" style="fill: #008000"/>
   </g>
   <g id="patch_43">
    <path d="M 155.688843 390.04 
L 158.422231 390.04 
L 158.422231 90.384766 
L 155.688843 90.384766 
z
" clip-path="url(#pd27907045a)" style="fill: #008000"/>
   </g>
   <g id="patch_44">
    <path d="M 158.422231 390.04 
L 161.15562 390.04 
L 161.15562 44.173333 
L 158.422231 44.173333 
z
" clip-path="url(#pd27907045a)" style="fill: #008000"/>
   </g>
   <g id="patch_45">
    <path d="M 161.15562 390.04 
L 163.889008 390.04 
L 163.889008 44.173333 
L 161.15562 44.173333 
z
" clip-path="url(#pd27907045a)" style="fill: #008000"/>
   </g>
   <g id="patch_46">
    <path d="M 163.889008 390.04 
L 166.622397 390.04 
L 166.622397 44.173333 
L 163.889008 44.173333 
z
" clip-path="url(#pd27907045a)" style="fill: #008000"/>
   </g>
   <g id="patch_47">
    <path d="M 166.622397 390.04 
L 169.355785 390.04 
L 169.355785 44.173333 
L 166.622397 44.173333 
z
" clip-path="url(#pd27907045a)" style="fill: #008000"/>
   </g>
   <g id="patch_48">
    <path d="M 169.355785 390.04 
L 172.089174 390.04 
L 172.089174 44.173333 
L 169.355785 44.173333 
z
" clip-path="url(#pd27907045a)" style="fill: #008000"/>
   </g>
   <g id="patch_49">
    <path d="M 172.089174 390.04 
L 174.822562 390.04 
L 174.822562 44.173333 
L 172.089174 44.173333 
z
" clip-path="url(#pd27907045a)" style="fill: #008000"/>
   </g>
   <g id="patch_50">
    <path d="M 174.822562 390.04 
L 177.55595 390.04 
L 177.55595 104.296768 
L 174.822562 104.296768 
z
" clip-path="url(#pd27907045a)" style="fill: #008000"/>
   </g>
   <g id="patch_51">
    <path d="M 177.55595 390.04 
L 180.289339 390.04 
L 180.289339 60.192555 
L 177.55595 60.192555 
z
" clip-path="url(#pd27907045a)" style="fill: #008000"/>
   </g>
   <g id="patch_52">
    <path d="M 180.289339 390.04 
L 183.022727 390.04 
L 183.022727 44.173333 
L 180.289339 44.173333 
z
" clip-path="url(#pd27907045a)" style="fill: #008000"/>
   </g>
   <g id="patch_53">
    <path d="M 183.022727 390.04 
L 185.756116 390.04 
L 185.756116 144.306596 
L 183.022727 144.306596 
z
" clip-path="url(#pd27907045a)" style="fill: #ffa500"/>
   </g>
   <g id="patch_54">
    <path d="M 185.756116 390.04 
L 188.489504 390.04 
L 188.489504 80.085788 
L 185.756116 80.085788 
z
" clip-path="url(#pd27907045a)" style="fill: #008000"/>
   </g>
   <g id="patch_55">
    <path d="M 188.489504 390.04 
L 191.222893 390.04 
L 191.222893 48.820313 
L 188.489504 48.820313 
z
" clip-path="url(#pd27907045a)" style="fill: #008000"/>
   </g>
   <g id="patch_56">
    <path d="M 191.222893 390.04 
L 193.956281 390.04 
L 193.956281 83.724757 
L 191.222893 83.724757 
z
" clip-path="url(#pd27907045a)" style="fill: #008000"/>
   </g>
   <g id="patch_57">
    <path d="M 193.956281 390.04 
L 196.689669 390.04 
L 196.689669 44.173333 
L 193.956281 44.173333 
z
" clip-path="url(#pd27907045a)" style="fill: #008000"/>
   </g>
   <g id="patch_58">
    <path d="M 196.689669 390.04 
L 199.423058 390.04 
L 199.423058 47.865691 
L 196.689669 47.865691 
z
" clip-path="url(#pd27907045a)" style="fill: #008000"/>
   </g>
   <g id="patch_59">
    <path d="M 199.423058 390.04 
L 202.156446 390.04 
L 202.156446 65.549185 
L 199.423058 65.549185 
z
" clip-path="url(#pd27907045a)" style="fill: #008000"/>
   </g>
   <g id="patch_60">
    <path d="M 202.156446 390.04 
L 204.889835 390.04 
L 204.889835 44.173333 
L 202.156446 44.173333 
z
" clip-path="url(#pd27907045a)" style="fill: #008000"/>
   </g>
   <g id="patch_61">
    <path d="M 204.889835 390.04 
L 207.623223 390.04 
L 207.623223 61.286903 
L 204.889835 61.286903 
z
" clip-path="url(#pd27907045a)" style="fill: #008000"/>
   </g>
   <g id="patch_62">
    <path d="M 207.623223 390.04 
L 210.356612 390.04 
L 210.356612 44.173333 
L 207.623223 44.173333 
z
" clip-path="url(#pd27907045a)" style="fill: #008000"/>
   </g>
   <g id="patch_63">
    <path d="M 210.356612 390.04 
L 213.09 390.04 
L 213.09 130.439323 
L 210.356612 130.439323 
z
" clip-path="url(#pd27907045a)" style="fill: #ffa500"/>
   </g>
   <g id="patch_64">
    <path d="M 213.09 390.04 
L 215.823388 390.04 
L 215.823388 116.044799 
L 213.09 116.044799 
z
" clip-path="url(#pd27907045a)" style="fill: #ffa500"/>
   </g>
   <g id="patch_65">
    <path d="M 215.823388 390.04 
L 218.556777 390.04 
L 218.556777 98.572687 
L 215.823388 98.572687 
z
" clip-path="url(#pd27907045a)" style="fill: #008000"/>
   </g>
   <g id="patch_66">
    <path d="M 218.556777 390.04 
L 221.290165 390.04 
L 221.290165 79.709838 
L 218.556777 79.709838 
z
" clip-path="url(#pd27907045a)" style="fill: #008000"/>
   </g>
   <g id="patch_67">
    <path d="M 221.290165 390.04 
L 224.023554 390.04 
L 224.023554 44.173333 
L 221.290165 44.173333 
z
" clip-path="url(#pd27907045a)" style="fill: #008000"/>
   </g>
   <g id="patch_68">
    <path d="M 224.023554 390.04 
L 226.756942 390.04 
L 226.756942 44.173333 
L 224.023554 44.173333 
z
" clip-path="url(#pd27907045a)" style="fill: #008000"/>
   </g>
   <g id="patch_69">
    <path d="M 226.756942 390.04 
L 229.490331 390.04 
L 229.490331 44.173333 
L 226.756942 44.173333 
z
" clip-path="url(#pd27907045a)" style="fill: #008000"/>
   </g>
   <g id="patch_70">
    <path d="M 229.490331 390.04 
L 232.223719 390.04 
L 232.223719 62.270975 
L 229.490331 62.270975 
z
" clip-path="url(#pd27907045a)" style="fill: #008000"/>
   </g>
   <g id="patch_71">
    <path d="M 232.223719 390.04 
L 234.957107 390.04 
L 234.957107 77.384653 
L 232.223719 77.384653 
z
" clip-path="url(#pd27907045a)" style="fill: #008000"/>
   </g>
   <g id="patch_72">
    <path d="M 234.957107 390.04 
L 237.690496 390.04 
L 237.690496 60.143676 
L 234.957107 60.143676 
z
" clip-path="url(#pd27907045a)" style="fill: #008000"/>
   </g>
   <g id="patch_73">
    <path d="M 237.690496 390.04 
L 240.423884 390.04 
L 240.423884 176.057009 
L 237.690496 176.057009 
z
" clip-path="url(#pd27907045a)" style="fill: #ffa500"/>
   </g>
   <g id="patch_74">
    <path d="M 240.423884 390.04 
L 243.157273 390.04 
L 243.157273 171.660287 
L 240.423884 171.660287 
z
" clip-path="url(#pd27907045a)" style="fill: #ffa500"/>
   </g>
   <g id="patch_75">
    <path d="M 243.157273 390.04 
L 245.890661 390.04 
L 245.890661 44.173333 
L 243.157273 44.173333 
z
" clip-path="url(#pd27907045a)" style="fill: #008000"/>
   </g>
   <g id="patch_76">
    <path d="M 245.890661 390.04 
L 248.62405 390.04 
L 248.62405 44.173333 
L 245.890661 44.173333 
z
" clip-path="url(#pd27907045a)" style="fill: #008000"/>
   </g>
   <g id="patch_77">
    <path d="M 248.62405 390.04 
L 251.357438 390.04 
L 251.357438 82.017944 
L 248.62405 82.017944 
z
" clip-path="url(#pd27907045a)" style="fill: #008000"/>
   </g>
   <g id="patch_78">
    <path d="M 251.357438 390.04 
L 254.090826 390.04 
L 254.090826 44.173333 
L 251.357438 44.173333 
z
" clip-path="url(#pd27907045a)" style="fill: #008000"/>
   </g>
   <g id="patch_79">
    <path d="M 254.090826 390.04 
L 256.824215 390.04 
L 256.824215 44.173333 
L 254.090826 44.173333 
z
" clip-path="url(#pd27907045a)" style="fill: #008000"/>
   </g>
   <g id="patch_80">
    <path d="M 256.824215 390.04 
L 259.557603 390.04 
L 259.557603 44.173333 
L 256.824215 44.173333 
z
" clip-path="url(#pd27907045a)" style="fill: #008000"/>
   </g>
   <g id="patch_81">
    <path d="M 259.557603 390.04 
L 262.290992 390.04 
L 262.290992 47.657738 
L 259.557603 47.657738 
z
" clip-path="url(#pd27907045a)" style="fill: #008000"/>
   </g>
   <g id="patch_82">
    <path d="M 262.290992 390.04 
L 265.02438 390.04 
L 265.02438 44.173333 
L 262.290992 44.173333 
z
" clip-path="url(#pd27907045a)" style="fill: #008000"/>
   </g>
   <g id="patch_83">
    <path d="M 265.02438 390.04 
L 267.757769 390.04 
L 267.757769 64.470302 
L 265.02438 64.470302 
z
" clip-path="url(#pd27907045a)" style="fill: #008000"/>
   </g>
   <g id="patch_84">
    <path d="M 267.757769 390.04 
L 270.491157 390.04 
L 270.491157 54.605271 
L 267.757769 54.605271 
z
" clip-path="url(#pd27907045a)" style="fill: #008000"/>
   </g>
   <g id="patch_85">
    <path d="M 270.491157 390.04 
L 273.224545 390.04 
L 273.224545 44.173333 
L 270.491157 44.173333 
z
" clip-path="url(#pd27907045a)" style="fill: #008000"/>
   </g>
   <g id="patch_86">
    <path d="M 273.224545 390.04 
L 275.957934 390.04 
L 275.957934 44.173333 
L 273.224545 44.173333 
z
" clip-path="url(#pd27907045a)" style="fill: #008000"/>
   </g>
   <g id="patch_87">
    <path d="M 275.957934 390.04 
L 278.691322 390.04 
L 278.691322 44.173333 
L 275.957934 44.173333 
z
" clip-path="url(#pd27907045a)" style="fill: #008000"/>
   </g>
   <g id="patch_88">
    <path d="M 278.691322 390.04 
L 281.424711 390.04 
L 281.424711 65.983223 
L 278.691322 65.983223 
z
" clip-path="url(#pd27907045a)" style="fill: #008000"/>
   </g>
   <g id="patch_89">
    <path d="M 281.424711 390.04 
L 284.158099 390.04 
L 284.158099 44.173333 
L 281.424711 44.173333 
z
" clip-path="url(#pd27907045a)" style="fill: #008000"/>
   </g>
   <g id="patch_90">
    <path d="M 284.158099 390.04 
L 286.891488 390.04 
L 286.891488 44.173333 
L 284.158099 44.173333 
z
" clip-path="url(#pd27907045a)" style="fill: #008000"/>
   </g>
   <g id="patch_91">
    <path d="M 286.891488 390.04 
L 289.624876 390.04 
L 289.624876 126.376611 
L 286.891488 126.376611 
z
" clip-path="url(#pd27907045a)" style="fill: #ffa500"/>
   </g>
   <g id="patch_92">
    <path d="M 289.624876 390.04 
L 292.358264 390.04 
L 292.358264 132.967048 
L 289.624876 132.967048 
z
" clip-path="url(#pd27907045a)" style="fill: #ffa500"/>
   </g>
   <g id="patch_93">
    <path d="M 292.358264 390.04 
L 295.091653 390.04 
L 295.091653 44.173333 
L 292.358264 44.173333 
z
" clip-path="url(#pd27907045a)" style="fill: #008000"/>
   </g>
   <g id="patch_94">
    <path d="M 295.091653 390.04 
L 297.825041 390.04 
L 297.825041 44.173333 
L 295.091653 44.173333 
z
" clip-path="url(#pd27907045a)" style="fill: #008000"/>
   </g>
   <g id="patch_95">
    <path d="M 297.825041 390.04 
L 300.55843 390.04 
L 300.55843 44.173333 
L 297.825041 44.173333 
z
" clip-path="url(#pd27907045a)" style="fill: #008000"/>
   </g>
   <g id="patch_96">
    <path d="M 300.55843 390.04 
L 303.291818 390.04 
L 303.291818 157.030713 
L 300.55843 157.030713 
z
" clip-path="url(#pd27907045a)" style="fill: #ffa500"/>
   </g>
   <g id="patch_97">
    <path d="M 303.291818 390.04 
L 306.025207 390.04 
L 306.025207 63.750285 
L 303.291818 63.750285 
z
" clip-path="url(#pd27907045a)" style="fill: #008000"/>
   </g>
   <g id="patch_98">
    <path d="M 306.025207 390.04 
L 308.758595 390.04 
L 308.758595 100.988976 
L 306.025207 100.988976 
z
" clip-path="url(#pd27907045a)" style="fill: #008000"/>
   </g>
   <g id="patch_99">
    <path d="M 308.758595 390.04 
L 311.491983 390.04 
L 311.491983 44.173333 
L 308.758595 44.173333 
z
" clip-path="url(#pd27907045a)" style="fill: #008000"/>
   </g>
   <g id="patch_100">
    <path d="M 311.491983 390.04 
L 314.225372 390.04 
L 314.225372 88.613581 
L 311.491983 88.613581 
z
" clip-path="url(#pd27907045a)" style="fill: #008000"/>
   </g>
   <g id="patch_101">
    <path d="M 314.225372 390.04 
L 316.95876 390.04 
L 316.95876 70.813619 
L 314.225372 70.813619 
z
" clip-path="url(#pd27907045a)" style="fill: #008000"/>
   </g>
   <g id="patch_102">
    <path d="M 316.95876 390.04 
L 319.692149 390.04 
L 319.692149 180.105367 
L 316.95876 180.105367 
z
" clip-path="url(#pd27907045a)" style="fill: #ff0000"/>
   </g>
   <g id="patch_103">
    <path d="M 319.692149 390.04 
L 322.425537 390.04 
L 322.425537 73.824256 
L 319.692149 73.824256 
z
" clip-path="url(#pd27907045a)" style="fill: #008000"/>
   </g>
   <g id="patch_104">
    <path d="M 322.425537 390.04 
L 325.158926 390.04 
L 325.158926 98.552184 
L 322.425537 98.552184 
z
" clip-path="url(#pd27907045a)" style="fill: #008000"/>
   </g>
   <g id="patch_105">
    <path d="M 325.158926 390.04 
L 327.892314 390.04 
L 327.892314 44.173333 
L 325.158926 44.173333 
z
" clip-path="url(#pd27907045a)" style="fill: #008000"/>
   </g>
   <g id="patch_106">
    <path d="M 327.892314 390.04 
L 330.625702 390.04 
L 330.625702 58.796682 
L 327.892314 58.796682 
z
" clip-path="url(#pd27907045a)" style="fill: #008000"/>
   </g>
   <g id="patch_107">
    <path d="M 330.625702 390.04 
L 333.359091 390.04 
L 333.359091 44.173333 
L 330.625702 44.173333 
z
" clip-path="url(#pd27907045a)" style="fill: #008000"/>
   </g>
   <g id="patch_108">
    <path d="M 333.359091 390.04 
L 336.092479 390.04 
L 336.092479 44.173333 
L 333.359091 44.173333 
z
" clip-path="url(#pd27907045a)" style="fill: #008000"/>
   </g>
   <g id="patch_109">
    <path d="M 336.092479 390.04 
L 338.825868 390.04 
L 338.825868 119.834224 
L 336.092479 119.834224 
z
" clip-path="url(#pd27907045a)" style="fill: #ffa500"/>
   </g>
   <g id="patch_110">
    <path d="M 338.825868 390.04 
L 341.559256 390.04 
L 341.559256 44.173333 
L 338.825868 44.173333 
z
" clip-path="url(#pd27907045a)" style="fill: #008000"/>
   </g>
   <g id="patch_111">
    <path d="M 341.559256 390.04 
L 344.292645 390.04 
L 344.292645 314.752761 
L 341.559256 314.752761 
z
" clip-path="url(#pd27907045a)" style="fill: #ff0000"/>
   </g>
   <g id="patch_112">
    <path d="M 344.292645 390.04 
L 347.026033 390.04 
L 347.026033 80.890713 
L 344.292645 80.890713 
z
" clip-path="url(#pd27907045a)" style="fill: #008000"/>
   </g>
   <g id="patch_113">
    <path d="M 347.026033 390.04 
L 349.759421 390.04 
L 349.759421 107.488212 
L 347.026033 107.488212 
z
" clip-path="url(#pd27907045a)" style="fill: #008000"/>
   </g>
   <g id="patch_114">
    <path d="M 349.759421 390.04 
L 352.49281 390.04 
L 352.49281 59.896438 
L 349.759421 59.896438 
z
" clip-path="url(#pd27907045a)" style="fill: #008000"/>
   </g>
   <g id="patch_115">
    <path d="M 352.49281 390.04 
L 355.226198 390.04 
L 355.226198 54.455256 
L 352.49281 54.455256 
z
" clip-path="url(#pd27907045a)" style="fill: #008000"/>
   </g>
   <g id="patch_116">
    <path d="M 355.226198 390.04 
L 357.959587 390.04 
L 357.959587 44.173333 
L 355.226198 44.173333 
z
" clip-path="url(#pd27907045a)" style="fill: #008000"/>
   </g>
   <g id="patch_117">
    <path d="M 357.959587 390.04 
L 360.692975 390.04 
L 360.692975 44.173333 
L 357.959587 44.173333 
z
" clip-path="url(#pd27907045a)" style="fill: #008000"/>
   </g>
   <g id="patch_118">
    <path d="M 360.692975 390.04 
L 363.426364 390.04 
L 363.426364 44.173333 
L 360.692975 44.173333 
z
" clip-path="url(#pd27907045a)" style="fill: #008000"/>
   </g>
   <g id="patch_119">
    <path d="M 363.426364 390.04 
L 366.159752 390.04 
L 366.159752 44.173333 
L 363.426364 44.173333 
z
" clip-path="url(#pd27907045a)" style="fill: #008000"/>
   </g>
   <g id="patch_120">
    <path d="M 366.159752 390.04 
L 368.89314 390.04 
L 368.89314 118.379813 
L 366.159752 118.379813 
z
" clip-path="url(#pd27907045a)" style="fill: #ffa500"/>
   </g>
   <g id="patch_121">
    <path d="M 368.89314 390.04 
L 371.626529 390.04 
L 371.626529 44.173333 
L 368.89314 44.173333 
z
" clip-path="url(#pd27907045a)" style="fill: #008000"/>
   </g>
   <g id="patch_122">
    <path d="M 371.626529 390.04 
L 374.359917 390.04 
L 374.359917 44.173333 
L 371.626529 44.173333 
z
" clip-path="url(#pd27907045a)" style="fill: #008000"/>
   </g>
   <g id="patch_123">
    <path d="M 374.359917 390.04 
L 377.093306 390.04 
L 377.093306 178.227991 
L 374.359917 178.227991 
z
" clip-path="url(#pd27907045a)" style="fill: #ff0000"/>
   </g>
   <g id="patch_124">
    <path d="M 377.093306 390.04 
L 379.826694 390.04 
L 379.826694 106.841533 
L 377.093306 106.841533 
z
" clip-path="url(#pd27907045a)" style="fill: #008000"/>
   </g>
   <g id="patch_125">
    <path d="M 379.826694 390.04 
L 382.560083 390.04 
L 382.560083 44.173333 
L 379.826694 44.173333 
z
" clip-path="url(#pd27907045a)" style="fill: #008000"/>
   </g>
   <g id="patch_126">
    <path d="M 382.560083 390.04 
L 385.293471 390.04 
L 385.293471 74.161117 
L 382.560083 74.161117 
z
" clip-path="url(#pd27907045a)" style="fill: #008000"/>
   </g>
   <g id="patch_127">
    <path d="M 385.293471 390.04 
L 388.02686 390.04 
L 388.02686 63.785382 
L 385.293471 63.785382 
z
" clip-path="url(#pd27907045a)" style="fill: #008000"/>
   </g>
   <g id="patch_128">
    <path d="M 388.02686 390.04 
L 390.760248 390.04 
L 390.760248 84.31834 
L 388.02686 84.31834 
z
" clip-path="url(#pd27907045a)" style="fill: #008000"/>
   </g>
   <g id="patch_129">
    <path d="M 390.760248 390.04 
L 393.493636 390.04 
L 393.493636 76.159655 
L 390.760248 76.159655 
z
" clip-path="url(#pd27907045a)" style="fill: #008000"/>
   </g>
   <g id="patch_130">
    <path d="M 393.493636 390.04 
L 396.227025 390.04 
L 396.227025 138.781262 
L 393.493636 138.781262 
z
" clip-path="url(#pd27907045a)" style="fill: #ffa500"/>
   </g>
   <g id="patch_131">
    <path d="M 396.227025 390.04 
L 398.960413 390.04 
L 398.960413 93.031548 
L 396.227025 93.031548 
z
" clip-path="url(#pd27907045a)" style="fill: #008000"/>
   </g>
   <g id="patch_132">
    <path d="M 398.960413 390.04 
L 401.693802 390.04 
L 401.693802 44.173333 
L 398.960413 44.173333 
z
" clip-path="url(#pd27907045a)" style="fill: #008000"/>
   </g>
   <g id="patch_133">
    <path d="M 401.693802 390.04 
L 404.42719 390.04 
L 404.42719 150.041659 
L 401.693802 150.041659 
z
" clip-path="url(#pd27907045a)" style="fill: #ffa500"/>
   </g>
   <g id="patch_134">
    <path d="M 404.42719 390.04 
L 407.160579 390.04 
L 407.160579 79.734898 
L 404.42719 79.734898 
z
" clip-path="url(#pd27907045a)" style="fill: #008000"/>
   </g>
   <g id="patch_135">
    <path d="M 407.160579 390.04 
L 409.893967 390.04 
L 409.893967 164.718571 
L 407.160579 164.718571 
z
" clip-path="url(#pd27907045a)" style="fill: #ffa500"/>
   </g>
   <g id="patch_136">
    <path d="M 409.893967 390.04 
L 412.627355 390.04 
L 412.627355 96.613299 
L 409.893967 96.613299 
z
" clip-path="url(#pd27907045a)" style="fill: #008000"/>
   </g>
   <g id="patch_137">
    <path d="M 412.627355 390.04 
L 415.360744 390.04 
L 415.360744 107.656269 
L 412.627355 107.656269 
z
" clip-path="url(#pd27907045a)" style="fill: #008000"/>
   </g>
   <g id="patch_138">
    <path d="M 415.360744 390.04 
L 418.094132 390.04 
L 418.094132 93.683543 
L 415.360744 93.683543 
z
" clip-path="url(#pd27907045a)" style="fill: #008000"/>
   </g>
   <g id="patch_139">
    <path d="M 418.094132 390.04 
L 420.827521 390.04 
L 420.827521 44.173333 
L 418.094132 44.173333 
z
" clip-path="url(#pd27907045a)" style="fill: #008000"/>
   </g>
   <g id="patch_140">
    <path d="M 420.827521 390.04 
L 423.560909 390.04 
L 423.560909 102.316164 
L 420.827521 102.316164 
z
" clip-path="url(#pd27907045a)" style="fill: #008000"/>
   </g>
   <g id="patch_141">
    <path d="M 423.560909 390.04 
L 426.294298 390.04 
L 426.294298 44.173333 
L 423.560909 44.173333 
z
" clip-path="url(#pd27907045a)" style="fill: #008000"/>
   </g>
   <g id="patch_142">
    <path d="M 426.294298 390.04 
L 429.027686 390.04 
L 429.027686 75.729544 
L 426.294298 75.729544 
z
" clip-path="url(#pd27907045a)" style="fill: #008000"/>
   </g>
   <g id="patch_143">
    <path d="M 429.027686 390.04 
L 431.761074 390.04 
L 431.761074 44.173333 
L 429.027686 44.173333 
z
" clip-path="url(#pd27907045a)" style="fill: #008000"/>
   </g>
   <g id="patch_144">
    <path d="M 431.761074 390.04 
L 434.494463 390.04 
L 434.494463 51.79292 
L 431.761074 51.79292 
z
" clip-path="url(#pd27907045a)" style="fill: #008000"/>
   </g>
   <g id="patch_145">
    <path d="M 434.494463 390.04 
L 437.227851 390.04 
L 437.227851 44.173333 
L 434.494463 44.173333 
z
" clip-path="url(#pd27907045a)" style="fill: #008000"/>
   </g>
   <g id="patch_146">
    <path d="M 437.227851 390.04 
L 439.96124 390.04 
L 439.96124 56.191539 
L 437.227851 56.191539 
z
" clip-path="url(#pd27907045a)" style="fill: #008000"/>
   </g>
   <g id="patch_147">
    <path d="M 439.96124 390.04 
L 442.694628 390.04 
L 442.694628 133.116121 
L 439.96124 133.116121 
z
" clip-path="url(#pd27907045a)" style="fill: #ffa500"/>
   </g>
   <g id="patch_148">
    <path d="M 442.694628 390.04 
L 445.428017 390.04 
L 445.428017 44.173333 
L 442.694628 44.173333 
z
" clip-path="url(#pd27907045a)" style="fill: #008000"/>
   </g>
   <g id="patch_149">
    <path d="M 445.428017 390.04 
L 448.161405 390.04 
L 448.161405 65.791444 
L 445.428017 65.791444 
z
" clip-path="url(#pd27907045a)" style="fill: #008000"/>
   </g>
   <g id="patch_150">
    <path d="M 448.161405 390.04 
L 450.894793 390.04 
L 450.894793 86.25383 
L 448.161405 86.25383 
z
" clip-path="url(#pd27907045a)" style="fill: #008000"/>
   </g>
   <g id="patch_151">
    <path d="M 450.894793 390.04 
L 453.628182 390.04 
L 453.628182 44.173333 
L 450.894793 44.173333 
z
" clip-path="url(#pd27907045a)" style="fill: #008000"/>
   </g>
   <g id="patch_152">
    <path d="M 453.628182 390.04 
L 456.36157 390.04 
L 456.36157 44.173333 
L 453.628182 44.173333 
z
" clip-path="url(#pd27907045a)" style="fill: #008000"/>
   </g>
   <g id="patch_153">
    <path d="M 456.36157 390.04 
L 459.094959 390.04 
L 459.094959 44.173333 
L 456.36157 44.173333 
z
" clip-path="url(#pd27907045a)" style="fill: #008000"/>
   </g>
   <g id="patch_154">
    <path d="M 459.094959 390.04 
L 461.828347 390.04 
L 461.828347 108.791182 
L 459.094959 108.791182 
z
" clip-path="url(#pd27907045a)" style="fill: #008000"/>
   </g>
   <g id="patch_155">
    <path d="M 461.828347 390.04 
L 464.561736 390.04 
L 464.561736 44.173333 
L 461.828347 44.173333 
z
" clip-path="url(#pd27907045a)" style="fill: #008000"/>
   </g>
   <g id="patch_156">
    <path d="M 464.561736 390.04 
L 467.295124 390.04 
L 467.295124 96.64478 
L 464.561736 96.64478 
z
" clip-path="url(#pd27907045a)" style="fill: #008000"/>
   </g>
   <g id="patch_157">
    <path d="M 467.295124 390.04 
L 470.028512 390.04 
L 470.028512 209.181527 
L 467.295124 209.181527 
z
" clip-path="url(#pd27907045a)" style="fill: #ff0000"/>
   </g>
   <g id="patch_158">
    <path d="M 470.028512 390.04 
L 472.761901 390.04 
L 472.761901 87.429092 
L 470.028512 87.429092 
z
" clip-path="url(#pd27907045a)" style="fill: #008000"/>
   </g>
   <g id="patch_159">
    <path d="M 472.761901 390.04 
L 475.495289 390.04 
L 475.495289 44.173333 
L 472.761901 44.173333 
z
" clip-path="url(#pd27907045a)" style="fill: #008000"/>
   </g>
   <g id="patch_160">
    <path d="M 475.495289 390.04 
L 478.228678 390.04 
L 478.228678 78.567093 
L 475.495289 78.567093 
z
" clip-path="url(#pd27907045a)" style="fill: #008000"/>
   </g>
   <g id="patch_161">
    <path d="M 478.228678 390.04 
L 480.962066 390.04 
L 480.962066 44.173333 
L 478.228678 44.173333 
z
" clip-path="url(#pd27907045a)" style="fill: #008000"/>
   </g>
   <g id="patch_162">
    <path d="M 480.962066 390.04 
L 483.695455 390.04 
L 483.695455 44.173333 
L 480.962066 44.173333 
z
" clip-path="url(#pd27907045a)" style="fill: #008000"/>
   </g>
   <g id="patch_163">
    <path d="M 483.695455 390.04 
L 486.428843 390.04 
L 486.428843 44.173333 
L 483.695455 44.173333 
z
" clip-path="url(#pd27907045a)" style="fill: #008000"/>
   </g>
   <g id="patch_164">
    <path d="M 486.428843 390.04 
L 489.162231 390.04 
L 489.162231 66.105876 
L 486.428843 66.105876 
z
" clip-path="url(#pd27907045a)" style="fill: #008000"/>
   </g>
   <g id="patch_165">
    <path d="M 489.162231 390.04 
L 491.89562 390.04 
L 491.89562 44.173333 
L 489.162231 44.173333 
z
" clip-path="url(#pd27907045a)" style="fill: #008000"/>
   </g>
   <g id="patch_166">
    <path d="M 491.89562 390.04 
L 494.629008 390.04 
L 494.629008 143.644828 
L 491.89562 143.644828 
z
" clip-path="url(#pd27907045a)" style="fill: #ffa500"/>
   </g>
   <g id="patch_167">
    <path d="M 494.629008 390.04 
L 497.362397 390.04 
L 497.362397 44.173333 
L 494.629008 44.173333 
z
" clip-path="url(#pd27907045a)" style="fill: #008000"/>
   </g>
   <g id="patch_168">
    <path d="M 497.362397 390.04 
L 500.095785 390.04 
L 500.095785 45.78759 
L 497.362397 45.78759 
z
" clip-path="url(#pd27907045a)" style="fill: #008000"/>
   </g>
   <g id="patch_169">
    <path d="M 500.095785 390.04 
L 502.829174 390.04 
L 502.829174 72.611816 
L 500.095785 72.611816 
z
" clip-path="url(#pd27907045a)" style="fill: #008000"/>
   </g>
   <g id="patch_170">
    <path d="M 502.829174 390.04 
L 505.562562 390.04 
L 505.562562 56.159985 
L 502.829174 56.159985 
z
" clip-path="url(#pd27907045a)" style="fill: #008000"/>
   </g>
   <g id="patch_171">
    <path d="M 505.562562 390.04 
L 508.29595 390.04 
L 508.29595 52.801225 
L 505.562562 52.801225 
z
" clip-path="url(#pd27907045a)" style="fill: #008000"/>
   </g>
   <g id="patch_172">
    <path d="M 508.29595 390.04 
L 511.029339 390.04 
L 511.029339 44.173333 
L 508.29595 44.173333 
z
" clip-path="url(#pd27907045a)" style="fill: #008000"/>
   </g>
   <g id="patch_173">
    <path d="M 511.029339 390.04 
L 513.762727 390.04 
L 513.762727 69.639828 
L 511.029339 69.639828 
z
" clip-path="url(#pd27907045a)" style="fill: #008000"/>
   </g>
   <g id="patch_174">
    <path d="M 513.762727 390.04 
L 516.496116 390.04 
L 516.496116 44.173333 
L 513.762727 44.173333 
z
" clip-path="url(#pd27907045a)" style="fill: #008000"/>
   </g>
   <g id="patch_175">
    <path d="M 516.496116 390.04 
L 519.229504 390.04 
L 519.229504 44.173333 
L 516.496116 44.173333 
z
" clip-path="url(#pd27907045a)" style="fill: #008000"/>
   </g>
   <g id="patch_176">
    <path d="M 519.229504 390.04 
L 521.962893 390.04 
L 521.962893 81.530735 
L 519.229504 81.530735 
z
" clip-path="url(#pd27907045a)" style="fill: #008000"/>
   </g>
   <g id="patch_177">
    <path d="M 521.962893 390.04 
L 524.696281 390.04 
L 524.696281 106.538091 
L 521.962893 106.538091 
z
" clip-path="url(#pd27907045a)" style="fill: #008000"/>
   </g>
   <g id="patch_178">
    <path d="M 524.696281 390.04 
L 527.429669 390.04 
L 527.429669 135.046728 
L 524.696281 135.046728 
z
" clip-path="url(#pd27907045a)" style="fill: #ffa500"/>
   </g>
   <g id="patch_179">
    <path d="M 527.429669 390.04 
L 530.163058 390.04 
L 530.163058 77.111103 
L 527.429669 77.111103 
z
" clip-path="url(#pd27907045a)" style="fill: #008000"/>
   </g>
   <g id="patch_180">
    <path d="M 530.163058 390.04 
L 532.896446 390.04 
L 532.896446 44.173333 
L 530.163058 44.173333 
z
" clip-path="url(#pd27907045a)" style="fill: #008000"/>
   </g>
   <g id="patch_181">
    <path d="M 532.896446 390.04 
L 535.629835 390.04 
L 535.629835 44.173333 
L 532.896446 44.173333 
z
" clip-path="url(#pd27907045a)" style="fill: #008000"/>
   </g>
   <g id="patch_182">
    <path d="M 535.629835 390.04 
L 538.363223 390.04 
L 538.363223 75.541739 
L 535.629835 75.541739 
z
" clip-path="url(#pd27907045a)" style="fill: #008000"/>
   </g>
   <g id="patch_183">
    <path d="M 538.363223 390.04 
L 541.096612 390.04 
L 541.096612 44.173333 
L 538.363223 44.173333 
z
" clip-path="url(#pd27907045a)" style="fill: #008000"/>
   </g>
   <g id="patch_184">
    <path d="M 541.096612 390.04 
L 543.83 390.04 
L 543.83 44.173333 
L 541.096612 44.173333 
z
" clip-path="url(#pd27907045a)" style="fill: #008000"/>
   </g>
   <g id="patch_185">
    <path d="M 543.83 390.04 
L 546.563388 390.04 
L 546.563388 44.173333 
L 543.83 44.173333 
z
" clip-path="url(#pd27907045a)" style="fill: #008000"/>
   </g>
   <g id="patch_186">
    <path d="M 546.563388 390.04 
L 549.296777 390.04 
L 549.296777 44.173333 
L 546.563388 44.173333 
z
" clip-path="url(#pd27907045a)" style="fill: #008000"/>
   </g>
   <g id="patch_187">
    <path d="M 549.296777 390.04 
L 552.030165 390.04 
L 552.030165 44.173333 
L 549.296777 44.173333 
z
" clip-path="url(#pd27907045a)" style="fill: #008000"/>
   </g>
   <g id="patch_188">
    <path d="M 552.030165 390.04 
L 554.763554 390.04 
L 554.763554 44.173333 
L 552.030165 44.173333 
z
" clip-path="url(#pd27907045a)" style="fill: #008000"/>
   </g>
   <g id="patch_189">
    <path d="M 554.763554 390.04 
L 557.496942 390.04 
L 557.496942 44.173333 
L 554.763554 44.173333 
z
" clip-path="url(#pd27907045a)" style="fill: #008000"/>
   </g>
   <g id="patch_190">
    <path d="M 557.496942 390.04 
L 560.230331 390.04 
L 560.230331 44.173333 
L 557.496942 44.173333 
z
" clip-path="url(#pd27907045a)" style="fill: #008000"/>
   </g>
   <g id="patch_191">
    <path d="M 560.230331 390.04 
L 562.963719 390.04 
L 562.963719 44.173333 
L 560.230331 44.173333 
z
" clip-path="url(#pd27907045a)" style="fill: #008000"/>
   </g>
   <g id="patch_192">
    <path d="M 562.963719 390.04 
L 565.697107 390.04 
L 565.697107 113.478678 
L 562.963719 113.478678 
z
" clip-path="url(#pd27907045a)" style="fill: #ffa500"/>
   </g>
   <g id="patch_193">
    <path d="M 565.697107 390.04 
L 568.430496 390.04 
L 568.430496 44.173333 
L 565.697107 44.173333 
z
" clip-path="url(#pd27907045a)" style="fill: #008000"/>
   </g>
   <g id="patch_194">
    <path d="M 568.430496 390.04 
L 571.163884 390.04 
L 571.163884 102.474267 
L 568.430496 102.474267 
z
" clip-path="url(#pd27907045a)" style="fill: #008000"/>
   </g>
   <g id="patch_195">
    <path d="M 571.163884 390.04 
L 573.897273 390.04 
L 573.897273 44.173333 
L 571.163884 44.173333 
z
" clip-path="url(#pd27907045a)" style="fill: #008000"/>
   </g>
   <g id="patch_196">
    <path d="M 573.897273 390.04 
L 576.630661 390.04 
L 576.630661 44.173333 
L 573.897273 44.173333 
z
" clip-path="url(#pd27907045a)" style="fill: #008000"/>
   </g>
   <g id="patch_197">
    <path d="M 576.630661 390.04 
L 579.36405 390.04 
L 579.36405 67.245522 
L 576.630661 67.245522 
z
" clip-path="url(#pd27907045a)" style="fill: #008000"/>
   </g>
   <g id="patch_198">
    <path d="M 579.36405 390.04 
L 582.097438 390.04 
L 582.097438 44.173333 
L 579.36405 44.173333 
z
" clip-path="url(#pd27907045a)" style="fill: #008000"/>
   </g>
   <g id="patch_199">
    <path d="M 582.097438 390.04 
L 584.830826 390.04 
L 584.830826 44.173333 
L 582.097438 44.173333 
z
" clip-path="url(#pd27907045a)" style="fill: #008000"/>
   </g>
   <g id="patch_200">
    <path d="M 584.830826 390.04 
L 587.564215 390.04 
L 587.564215 75.165923 
L 584.830826 75.165923 
z
" clip-path="url(#pd27907045a)" style="fill: #008000"/>
   </g>
   <g id="patch_201">
    <path d="M 587.564215 390.04 
L 590.297603 390.04 
L 590.297603 44.173333 
L 587.564215 44.173333 
z
" clip-path="url(#pd27907045a)" style="fill: #008000"/>
   </g>
   <g id="patch_202">
    <path d="M 590.297603 390.04 
L 593.030992 390.04 
L 593.030992 44.173333 
L 590.297603 44.173333 
z
" clip-path="url(#pd27907045a)" style="fill: #008000"/>
   </g>
   <g id="patch_203">
    <path d="M 593.030992 390.04 
L 595.76438 390.04 
L 595.76438 44.173333 
L 593.030992 44.173333 
z
" clip-path="url(#pd27907045a)" style="fill: #008000"/>
   </g>
   <g id="patch_204">
    <path d="M 595.76438 390.04 
L 598.497769 390.04 
L 598.497769 44.173333 
L 595.76438 44.173333 
z
" clip-path="url(#pd27907045a)" style="fill: #008000"/>
   </g>
   <g id="patch_205">
    <path d="M 598.497769 390.04 
L 601.231157 390.04 
L 601.231157 44.173333 
L 598.497769 44.173333 
z
" clip-path="url(#pd27907045a)" style="fill: #008000"/>
   </g>
   <g id="patch_206">
    <path d="M 601.231157 390.04 
L 603.964545 390.04 
L 603.964545 44.173333 
L 601.231157 44.173333 
z
" clip-path="url(#pd27907045a)" style="fill: #008000"/>
   </g>
   <g id="patch_207">
    <path d="M 603.964545 390.04 
L 606.697934 390.04 
L 606.697934 82.795045 
L 603.964545 82.795045 
z
" clip-path="url(#pd27907045a)" style="fill: #008000"/>
   </g>
   <g id="patch_208">
    <path d="M 606.697934 390.04 
L 609.431322 390.04 
L 609.431322 44.173333 
L 606.697934 44.173333 
z
" clip-path="url(#pd27907045a)" style="fill: #008000"/>
   </g>
   <g id="patch_209">
    <path d="M 609.431322 390.04 
L 612.164711 390.04 
L 612.164711 44.173333 
L 609.431322 44.173333 
z
" clip-path="url(#pd27907045a)" style="fill: #008000"/>
   </g>
   <g id="patch_210">
    <path d="M 612.164711 390.04 
L 614.898099 390.04 
L 614.898099 44.173333 
L 612.164711 44.173333 
z
" clip-path="url(#pd27907045a)" style="fill: #008000"/>
   </g>
   <g id="patch_211">
    <path d="M 614.898099 390.04 
L 617.631488 390.04 
L 617.631488 44.173333 
L 614.898099 44.173333 
z
" clip-path="url(#pd27907045a)" style="fill: #008000"/>
   </g>
   <g id="patch_212">
    <path d="M 617.631488 390.04 
L 620.364876 390.04 
L 620.364876 44.173333 
L 617.631488 44.173333 
z
" clip-path="url(#pd27907045a)" style="fill: #008000"/>
   </g>
   <g id="patch_213">
    <path d="M 620.364876 390.04 
L 623.098264 390.04 
L 623.098264 44.173333 
L 620.364876 44.173333 
z
" clip-path="url(#pd27907045a)" style="fill: #008000"/>
   </g>
   <g id="patch_214">
    <path d="M 623.098264 390.04 
L 625.831653 390.04 
L 625.831653 58.895708 
L 623.098264 58.895708 
z
" clip-path="url(#pd27907045a)" style="fill: #008000"/>
   </g>
   <g id="patch_215">
    <path d="M 625.831653 390.04 
L 628.565041 390.04 
L 628.565041 57.612397 
L 625.831653 57.612397 
z
" clip-path="url(#pd27907045a)" style="fill: #008000"/>
   </g>
   <g id="patch_216">
    <path d="M 628.565041 390.04 
L 631.29843 390.04 
L 631.29843 81.447415 
L 628.565041 81.447415 
z
" clip-path="url(#pd27907045a)" style="fill: #008000"/>
   </g>
   <g id="patch_217">
    <path d="M 631.29843 390.04 
L 634.031818 390.04 
L 634.031818 44.173333 
L 631.29843 44.173333 
z
" clip-path="url(#pd27907045a)" style="fill: #008000"/>
   </g>
   <g id="patch_218">
    <path d="M 634.031818 390.04 
L 636.765207 390.04 
L 636.765207 44.173333 
L 634.031818 44.173333 
z
" clip-path="url(#pd27907045a)" style="fill: #008000"/>
   </g>
   <g id="patch_219">
    <path d="M 636.765207 390.04 
L 639.498595 390.04 
L 639.498595 89.21872 
L 636.765207 89.21872 
z
" clip-path="url(#pd27907045a)" style="fill: #008000"/>
   </g>
   <g id="patch_220">
    <path d="M 639.498595 390.04 
L 642.231983 390.04 
L 642.231983 44.173333 
L 639.498595 44.173333 
z
" clip-path="url(#pd27907045a)" style="fill: #008000"/>
   </g>
   <g id="patch_221">
    <path d="M 642.231983 390.04 
L 644.965372 390.04 
L 644.965372 90.593426 
L 642.231983 90.593426 
z
" clip-path="url(#pd27907045a)" style="fill: #008000"/>
   </g>
   <g id="patch_222">
    <path d="M 644.965372 390.04 
L 647.69876 390.04 
L 647.69876 76.927439 
L 644.965372 76.927439 
z
" clip-path="url(#pd27907045a)" style="fill: #008000"/>
   </g>
   <g id="patch_223">
    <path d="M 647.69876 390.04 
L 650.432149 390.04 
L 650.432149 66.099999 
L 647.69876 66.099999 
z
" clip-path="url(#pd27907045a)" style="fill: #008000"/>
   </g>
   <g id="patch_224">
    <path d="M 650.432149 390.04 
L 653.165537 390.04 
L 653.165537 95.236398 
L 650.432149 95.236398 
z
" clip-path="url(#pd27907045a)" style="fill: #008000"/>
   </g>
   <g id="patch_225">
    <path d="M 653.165537 390.04 
L 655.898926 390.04 
L 655.898926 44.173333 
L 653.165537 44.173333 
z
" clip-path="url(#pd27907045a)" style="fill: #008000"/>
   </g>
   <g id="patch_226">
    <path d="M 655.898926 390.04 
L 658.632314 390.04 
L 658.632314 59.694588 
L 655.898926 59.694588 
z
" clip-path="url(#pd27907045a)" style="fill: #008000"/>
   </g>
   <g id="patch_227">
    <path d="M 658.632314 390.04 
L 661.365702 390.04 
L 661.365702 58.691418 
L 658.632314 58.691418 
z
" clip-path="url(#pd27907045a)" style="fill: #008000"/>
   </g>
   <g id="patch_228">
    <path d="M 661.365702 390.04 
L 664.099091 390.04 
L 664.099091 131.283105 
L 661.365702 131.283105 
z
" clip-path="url(#pd27907045a)" style="fill: #ffa500"/>
   </g>
   <g id="patch_229">
    <path d="M 664.099091 390.04 
L 666.832479 390.04 
L 666.832479 58.470497 
L 664.099091 58.470497 
z
" clip-path="url(#pd27907045a)" style="fill: #008000"/>
   </g>
   <g id="patch_230">
    <path d="M 666.832479 390.04 
L 669.565868 390.04 
L 669.565868 139.78019 
L 666.832479 139.78019 
z
" clip-path="url(#pd27907045a)" style="fill: #ffa500"/>
   </g>
   <g id="patch_231">
    <path d="M 669.565868 390.04 
L 672.299256 390.04 
L 672.299256 44.323018 
L 669.565868 44.323018 
z
" clip-path="url(#pd27907045a)" style="fill: #008000"/>
   </g>
   <g id="patch_232">
    <path d="M 672.299256 390.04 
L 675.032645 390.04 
L 675.032645 44.173333 
L 672.299256 44.173333 
z
" clip-path="url(#pd27907045a)" style="fill: #008000"/>
   </g>
   <g id="patch_233">
    <path d="M 675.032645 390.04 
L 677.766033 390.04 
L 677.766033 44.173333 
L 675.032645 44.173333 
z
" clip-path="url(#pd27907045a)" style="fill: #008000"/>
   </g>
   <g id="patch_234">
    <path d="M 677.766033 390.04 
L 680.499421 390.04 
L 680.499421 63.783381 
L 677.766033 63.783381 
z
" clip-path="url(#pd27907045a)" style="fill: #008000"/>
   </g>
   <g id="patch_235">
    <path d="M 680.499421 390.04 
L 683.23281 390.04 
L 683.23281 44.173333 
L 680.499421 44.173333 
z
" clip-path="url(#pd27907045a)" style="fill: #008000"/>
   </g>
   <g id="patch_236">
    <path d="M 683.23281 390.04 
L 685.966198 390.04 
L 685.966198 167.18756 
L 683.23281 167.18756 
z
" clip-path="url(#pd27907045a)" style="fill: #ffa500"/>
   </g>
   <g id="patch_237">
    <path d="M 685.966198 390.04 
L 688.699587 390.04 
L 688.699587 44.173333 
L 685.966198 44.173333 
z
" clip-path="url(#pd27907045a)" style="fill: #008000"/>
   </g>
   <g id="patch_238">
    <path d="M 688.699587 390.04 
L 691.432975 390.04 
L 691.432975 44.173333 
L 688.699587 44.173333 
z
" clip-path="url(#pd27907045a)" style="fill: #008000"/>
   </g>
   <g id="patch_239">
    <path d="M 691.432975 390.04 
L 694.166364 390.04 
L 694.166364 81.081969 
L 691.432975 81.081969 
z
" clip-path="url(#pd27907045a)" style="fill: #008000"/>
   </g>
   <g id="patch_240">
    <path d="M 694.166364 390.04 
L 696.899752 390.04 
L 696.899752 44.173333 
L 694.166364 44.173333 
z
" clip-path="url(#pd27907045a)" style="fill: #008000"/>
   </g>
   <g id="patch_241">
    <path d="M 696.899752 390.04 
L 699.63314 390.04 
L 699.63314 44.173333 
L 696.899752 44.173333 
z
" clip-path="url(#pd27907045a)" style="fill: #008000"/>
   </g>
   <g id="patch_242">
    <path d="M 699.63314 390.04 
L 702.366529 390.04 
L 702.366529 44.173333 
L 699.63314 44.173333 
z
" clip-path="url(#pd27907045a)" style="fill: #008000"/>
   </g>
   <g id="patch_243">
    <path d="M 702.366529 390.04 
L 705.099917 390.04 
L 705.099917 350.793914 
L 702.366529 350.793914 
z
" clip-path="url(#pd27907045a)" style="fill: #ff0000"/>
   </g>
   <g id="patch_244">
    <path d="M 705.099917 390.04 
L 707.833306 390.04 
L 707.833306 44.173333 
L 705.099917 44.173333 
z
" clip-path="url(#pd27907045a)" style="fill: #008000"/>
   </g>
   <g id="matplotlib.axis_1">
    <g id="xtick_1">
     <g id="line2d_1">
      <defs>
       <path id="m7ac94e4933" d="M 0 0 
L 0 3.5 
" style="stroke: #000000; stroke-width: 0.8"/>
      </defs>
      <g>
       <use xlink:href="#m7ac94e4933" x="47.72" y="390.04" style="stroke: #000000; stroke-width: 0.8"/>
      </g>
     </g>
     <g id="text_1">
      <!-- 0 -->
      <g transform="translate(44.53875 404.638438) scale(0.1 -0.1)">
       <defs>
        <path id="DejaVuSans-30" d="M 2034 4250 
Q 1547 4250 1301 3770 
Q 1056 3291 1056 2328 
Q 1056 1369 1301 889 
Q 1547 409 2034 409 
Q 2525 409 2770 889 
Q 3016 1369 3016 2328 
Q 3016 3291 2770 3770 
Q 2525 4250 2034 4250 
z
M 2034 4750 
Q 2819 4750 3233 4129 
Q 3647 3509 3647 2328 
Q 3647 1150 3233 529 
Q 2819 -91 2034 -91 
Q 1250 -91 836 529 
Q 422 1150 422 2328 
Q 422 3509 836 4129 
Q 1250 4750 2034 4750 
z
" transform="scale(0.015625)"/>
       </defs>
       <use xlink:href="#DejaVuSans-30"/>
      </g>
     </g>
    </g>
    <g id="xtick_2">
     <g id="line2d_2">
      <g>
       <use xlink:href="#m7ac94e4933" x="184.389421" y="390.04" style="stroke: #000000; stroke-width: 0.8"/>
      </g>
     </g>
     <g id="text_2">
      <!-- 50 -->
      <g transform="translate(178.026921 404.638438) scale(0.1 -0.1)">
       <defs>
        <path id="DejaVuSans-35" d="M 691 4666 
L 3169 4666 
L 3169 4134 
L 1269 4134 
L 1269 2991 
Q 1406 3038 1543 3061 
Q 1681 3084 1819 3084 
Q 2600 3084 3056 2656 
Q 3513 2228 3513 1497 
Q 3513 744 3044 326 
Q 2575 -91 1722 -91 
Q 1428 -91 1123 -41 
Q 819 9 494 109 
L 494 744 
Q 775 591 1075 516 
Q 1375 441 1709 441 
Q 2250 441 2565 725 
Q 2881 1009 2881 1497 
Q 2881 1984 2565 2268 
Q 2250 2553 1709 2553 
Q 1456 2553 1204 2497 
Q 953 2441 691 2322 
L 691 4666 
z
" transform="scale(0.015625)"/>
       </defs>
       <use xlink:href="#DejaVuSans-35"/>
       <use xlink:href="#DejaVuSans-30" transform="translate(63.623047 0)"/>
      </g>
     </g>
    </g>
    <g id="xtick_3">
     <g id="line2d_3">
      <g>
       <use xlink:href="#m7ac94e4933" x="321.058843" y="390.04" style="stroke: #000000; stroke-width: 0.8"/>
      </g>
     </g>
     <g id="text_3">
      <!-- 100 -->
      <g transform="translate(311.515093 404.638438) scale(0.1 -0.1)">
       <defs>
        <path id="DejaVuSans-31" d="M 794 531 
L 1825 531 
L 1825 4091 
L 703 3866 
L 703 4441 
L 1819 4666 
L 2450 4666 
L 2450 531 
L 3481 531 
L 3481 0 
L 794 0 
L 794 531 
z
" transform="scale(0.015625)"/>
       </defs>
       <use xlink:href="#DejaVuSans-31"/>
       <use xlink:href="#DejaVuSans-30" transform="translate(63.623047 0)"/>
       <use xlink:href="#DejaVuSans-30" transform="translate(127.246094 0)"/>
      </g>
     </g>
    </g>
    <g id="xtick_4">
     <g id="line2d_4">
      <g>
       <use xlink:href="#m7ac94e4933" x="457.728264" y="390.04" style="stroke: #000000; stroke-width: 0.8"/>
      </g>
     </g>
     <g id="text_4">
      <!-- 150 -->
      <g transform="translate(448.184514 404.638438) scale(0.1 -0.1)">
       <use xlink:href="#DejaVuSans-31"/>
       <use xlink:href="#DejaVuSans-35" transform="translate(63.623047 0)"/>
       <use xlink:href="#DejaVuSans-30" transform="translate(127.246094 0)"/>
      </g>
     </g>
    </g>
    <g id="xtick_5">
     <g id="line2d_5">
      <g>
       <use xlink:href="#m7ac94e4933" x="594.397686" y="390.04" style="stroke: #000000; stroke-width: 0.8"/>
      </g>
     </g>
     <g id="text_5">
      <!-- 200 -->
      <g transform="translate(584.853936 404.638438) scale(0.1 -0.1)">
       <defs>
        <path id="DejaVuSans-32" d="M 1228 531 
L 3431 531 
L 3431 0 
L 469 0 
L 469 531 
Q 828 903 1448 1529 
Q 2069 2156 2228 2338 
Q 2531 2678 2651 2914 
Q 2772 3150 2772 3378 
Q 2772 3750 2511 3984 
Q 2250 4219 1831 4219 
Q 1534 4219 1204 4116 
Q 875 4013 500 3803 
L 500 4441 
Q 881 4594 1212 4672 
Q 1544 4750 1819 4750 
Q 2544 4750 2975 4387 
Q 3406 4025 3406 3419 
Q 3406 3131 3298 2873 
Q 3191 2616 2906 2266 
Q 2828 2175 2409 1742 
Q 1991 1309 1228 531 
z
" transform="scale(0.015625)"/>
       </defs>
       <use xlink:href="#DejaVuSans-32"/>
       <use xlink:href="#DejaVuSans-30" transform="translate(63.623047 0)"/>
       <use xlink:href="#DejaVuSans-30" transform="translate(127.246094 0)"/>
      </g>
     </g>
    </g>
    <g id="text_6">
     <!-- Peak ID -->
     <g transform="translate(359.676406 418.316562) scale(0.1 -0.1)">
      <defs>
       <path id="DejaVuSans-50" d="M 1259 4147 
L 1259 2394 
L 2053 2394 
Q 2494 2394 2734 2622 
Q 2975 2850 2975 3272 
Q 2975 3691 2734 3919 
Q 2494 4147 2053 4147 
L 1259 4147 
z
M 628 4666 
L 2053 4666 
Q 2838 4666 3239 4311 
Q 3641 3956 3641 3272 
Q 3641 2581 3239 2228 
Q 2838 1875 2053 1875 
L 1259 1875 
L 1259 0 
L 628 0 
L 628 4666 
z
" transform="scale(0.015625)"/>
       <path id="DejaVuSans-65" d="M 3597 1894 
L 3597 1613 
L 953 1613 
Q 991 1019 1311 708 
Q 1631 397 2203 397 
Q 2534 397 2845 478 
Q 3156 559 3463 722 
L 3463 178 
Q 3153 47 2828 -22 
Q 2503 -91 2169 -91 
Q 1331 -91 842 396 
Q 353 884 353 1716 
Q 353 2575 817 3079 
Q 1281 3584 2069 3584 
Q 2775 3584 3186 3129 
Q 3597 2675 3597 1894 
z
M 3022 2063 
Q 3016 2534 2758 2815 
Q 2500 3097 2075 3097 
Q 1594 3097 1305 2825 
Q 1016 2553 972 2059 
L 3022 2063 
z
" transform="scale(0.015625)"/>
       <path id="DejaVuSans-61" d="M 2194 1759 
Q 1497 1759 1228 1600 
Q 959 1441 959 1056 
Q 959 750 1161 570 
Q 1363 391 1709 391 
Q 2188 391 2477 730 
Q 2766 1069 2766 1631 
L 2766 1759 
L 2194 1759 
z
M 3341 1997 
L 3341 0 
L 2766 0 
L 2766 531 
Q 2569 213 2275 61 
Q 1981 -91 1556 -91 
Q 1019 -91 701 211 
Q 384 513 384 1019 
Q 384 1609 779 1909 
Q 1175 2209 1959 2209 
L 2766 2209 
L 2766 2266 
Q 2766 2663 2505 2880 
Q 2244 3097 1772 3097 
Q 1472 3097 1187 3025 
Q 903 2953 641 2809 
L 641 3341 
Q 956 3463 1253 3523 
Q 1550 3584 1831 3584 
Q 2591 3584 2966 3190 
Q 3341 2797 3341 1997 
z
" transform="scale(0.015625)"/>
       <path id="DejaVuSans-6b" d="M 581 4863 
L 1159 4863 
L 1159 1991 
L 2875 3500 
L 3609 3500 
L 1753 1863 
L 3688 0 
L 2938 0 
L 1159 1709 
L 1159 0 
L 581 0 
L 581 4863 
z
" transform="scale(0.015625)"/>
       <path id="DejaVuSans-20" transform="scale(0.015625)"/>
       <path id="DejaVuSans-49" d="M 628 4666 
L 1259 4666 
L 1259 0 
L 628 0 
L 628 4666 
z
" transform="scale(0.015625)"/>
       <path id="DejaVuSans-44" d="M 1259 4147 
L 1259 519 
L 2022 519 
Q 2988 519 3436 956 
Q 3884 1394 3884 2338 
Q 3884 3275 3436 3711 
Q 2988 4147 2022 4147 
L 1259 4147 
z
M 628 4666 
L 1925 4666 
Q 3281 4666 3915 4102 
Q 4550 3538 4550 2338 
Q 4550 1131 3912 565 
Q 3275 0 1925 0 
L 628 0 
L 628 4666 
z
" transform="scale(0.015625)"/>
      </defs>
      <use xlink:href="#DejaVuSans-50"/>
      <use xlink:href="#DejaVuSans-65" transform="translate(56.677734 0)"/>
      <use xlink:href="#DejaVuSans-61" transform="translate(118.201172 0)"/>
      <use xlink:href="#DejaVuSans-6b" transform="translate(179.480469 0)"/>
      <use xlink:href="#DejaVuSans-20" transform="translate(237.390625 0)"/>
      <use xlink:href="#DejaVuSans-49" transform="translate(269.177734 0)"/>
      <use xlink:href="#DejaVuSans-44" transform="translate(298.669922 0)"/>
     </g>
    </g>
   </g>
   <g id="matplotlib.axis_2">
    <g id="ytick_1">
     <g id="line2d_6">
      <defs>
       <path id="mbfd7716046" d="M 0 0 
L -3.5 0 
" style="stroke: #000000; stroke-width: 0.8"/>
      </defs>
      <g>
       <use xlink:href="#mbfd7716046" x="47.72" y="390.04" style="stroke: #000000; stroke-width: 0.8"/>
      </g>
     </g>
     <g id="text_7">
      <!-- 0.0 -->
      <g transform="translate(24.816875 393.839219) scale(0.1 -0.1)">
       <defs>
        <path id="DejaVuSans-2e" d="M 684 794 
L 1344 794 
L 1344 0 
L 684 0 
L 684 794 
z
" transform="scale(0.015625)"/>
       </defs>
       <use xlink:href="#DejaVuSans-30"/>
       <use xlink:href="#DejaVuSans-2e" transform="translate(63.623047 0)"/>
       <use xlink:href="#DejaVuSans-30" transform="translate(95.410156 0)"/>
      </g>
     </g>
    </g>
    <g id="ytick_2">
     <g id="line2d_7">
      <g>
       <use xlink:href="#mbfd7716046" x="47.72" y="320.866667" style="stroke: #000000; stroke-width: 0.8"/>
      </g>
     </g>
     <g id="text_8">
      <!-- 0.2 -->
      <g transform="translate(24.816875 324.665885) scale(0.1 -0.1)">
       <use xlink:href="#DejaVuSans-30"/>
       <use xlink:href="#DejaVuSans-2e" transform="translate(63.623047 0)"/>
       <use xlink:href="#DejaVuSans-32" transform="translate(95.410156 0)"/>
      </g>
     </g>
    </g>
    <g id="ytick_3">
     <g id="line2d_8">
      <g>
       <use xlink:href="#mbfd7716046" x="47.72" y="251.693333" style="stroke: #000000; stroke-width: 0.8"/>
      </g>
     </g>
     <g id="text_9">
      <!-- 0.4 -->
      <g transform="translate(24.816875 255.492552) scale(0.1 -0.1)">
       <defs>
        <path id="DejaVuSans-34" d="M 2419 4116 
L 825 1625 
L 2419 1625 
L 2419 4116 
z
M 2253 4666 
L 3047 4666 
L 3047 1625 
L 3713 1625 
L 3713 1100 
L 3047 1100 
L 3047 0 
L 2419 0 
L 2419 1100 
L 313 1100 
L 313 1709 
L 2253 4666 
z
" transform="scale(0.015625)"/>
       </defs>
       <use xlink:href="#DejaVuSans-30"/>
       <use xlink:href="#DejaVuSans-2e" transform="translate(63.623047 0)"/>
       <use xlink:href="#DejaVuSans-34" transform="translate(95.410156 0)"/>
      </g>
     </g>
    </g>
    <g id="ytick_4">
     <g id="line2d_9">
      <g>
       <use xlink:href="#mbfd7716046" x="47.72" y="182.52" style="stroke: #000000; stroke-width: 0.8"/>
      </g>
     </g>
     <g id="text_10">
      <!-- 0.6 -->
      <g transform="translate(24.816875 186.319219) scale(0.1 -0.1)">
       <defs>
        <path id="DejaVuSans-36" d="M 2113 2584 
Q 1688 2584 1439 2293 
Q 1191 2003 1191 1497 
Q 1191 994 1439 701 
Q 1688 409 2113 409 
Q 2538 409 2786 701 
Q 3034 994 3034 1497 
Q 3034 2003 2786 2293 
Q 2538 2584 2113 2584 
z
M 3366 4563 
L 3366 3988 
Q 3128 4100 2886 4159 
Q 2644 4219 2406 4219 
Q 1781 4219 1451 3797 
Q 1122 3375 1075 2522 
Q 1259 2794 1537 2939 
Q 1816 3084 2150 3084 
Q 2853 3084 3261 2657 
Q 3669 2231 3669 1497 
Q 3669 778 3244 343 
Q 2819 -91 2113 -91 
Q 1303 -91 875 529 
Q 447 1150 447 2328 
Q 447 3434 972 4092 
Q 1497 4750 2381 4750 
Q 2619 4750 2861 4703 
Q 3103 4656 3366 4563 
z
" transform="scale(0.015625)"/>
       </defs>
       <use xlink:href="#DejaVuSans-30"/>
       <use xlink:href="#DejaVuSans-2e" transform="translate(63.623047 0)"/>
       <use xlink:href="#DejaVuSans-36" transform="translate(95.410156 0)"/>
      </g>
     </g>
    </g>
    <g id="ytick_5">
     <g id="line2d_10">
      <g>
       <use xlink:href="#mbfd7716046" x="47.72" y="113.346667" style="stroke: #000000; stroke-width: 0.8"/>
      </g>
     </g>
     <g id="text_11">
      <!-- 0.8 -->
      <g transform="translate(24.816875 117.145885) scale(0.1 -0.1)">
       <defs>
        <path id="DejaVuSans-38" d="M 2034 2216 
Q 1584 2216 1326 1975 
Q 1069 1734 1069 1313 
Q 1069 891 1326 650 
Q 1584 409 2034 409 
Q 2484 409 2743 651 
Q 3003 894 3003 1313 
Q 3003 1734 2745 1975 
Q 2488 2216 2034 2216 
z
M 1403 2484 
Q 997 2584 770 2862 
Q 544 3141 544 3541 
Q 544 4100 942 4425 
Q 1341 4750 2034 4750 
Q 2731 4750 3128 4425 
Q 3525 4100 3525 3541 
Q 3525 3141 3298 2862 
Q 3072 2584 2669 2484 
Q 3125 2378 3379 2068 
Q 3634 1759 3634 1313 
Q 3634 634 3220 271 
Q 2806 -91 2034 -91 
Q 1263 -91 848 271 
Q 434 634 434 1313 
Q 434 1759 690 2068 
Q 947 2378 1403 2484 
z
M 1172 3481 
Q 1172 3119 1398 2916 
Q 1625 2713 2034 2713 
Q 2441 2713 2670 2916 
Q 2900 3119 2900 3481 
Q 2900 3844 2670 4047 
Q 2441 4250 2034 4250 
Q 1625 4250 1398 4047 
Q 1172 3844 1172 3481 
z
" transform="scale(0.015625)"/>
       </defs>
       <use xlink:href="#DejaVuSans-30"/>
       <use xlink:href="#DejaVuSans-2e" transform="translate(63.623047 0)"/>
       <use xlink:href="#DejaVuSans-38" transform="translate(95.410156 0)"/>
      </g>
     </g>
    </g>
    <g id="ytick_6">
     <g id="line2d_11">
      <g>
       <use xlink:href="#mbfd7716046" x="47.72" y="44.173333" style="stroke: #000000; stroke-width: 0.8"/>
      </g>
     </g>
     <g id="text_12">
      <!-- 1.0 -->
      <g transform="translate(24.816875 47.972552) scale(0.1 -0.1)">
       <use xlink:href="#DejaVuSans-31"/>
       <use xlink:href="#DejaVuSans-2e" transform="translate(63.623047 0)"/>
       <use xlink:href="#DejaVuSans-30" transform="translate(95.410156 0)"/>
      </g>
     </g>
    </g>
    <g id="text_13">
     <!-- Phe-Reverse Labelled volume / Control volume -->
     <g transform="translate(18.737188 325.499844) rotate(-90) scale(0.1 -0.1)">
      <defs>
       <path id="DejaVuSans-68" d="M 3513 2113 
L 3513 0 
L 2938 0 
L 2938 2094 
Q 2938 2591 2744 2837 
Q 2550 3084 2163 3084 
Q 1697 3084 1428 2787 
Q 1159 2491 1159 1978 
L 1159 0 
L 581 0 
L 581 4863 
L 1159 4863 
L 1159 2956 
Q 1366 3272 1645 3428 
Q 1925 3584 2291 3584 
Q 2894 3584 3203 3211 
Q 3513 2838 3513 2113 
z
" transform="scale(0.015625)"/>
       <path id="DejaVuSans-2d" d="M 313 2009 
L 1997 2009 
L 1997 1497 
L 313 1497 
L 313 2009 
z
" transform="scale(0.015625)"/>
       <path id="DejaVuSans-52" d="M 2841 2188 
Q 3044 2119 3236 1894 
Q 3428 1669 3622 1275 
L 4263 0 
L 3584 0 
L 2988 1197 
Q 2756 1666 2539 1819 
Q 2322 1972 1947 1972 
L 1259 1972 
L 1259 0 
L 628 0 
L 628 4666 
L 2053 4666 
Q 2853 4666 3247 4331 
Q 3641 3997 3641 3322 
Q 3641 2881 3436 2590 
Q 3231 2300 2841 2188 
z
M 1259 4147 
L 1259 2491 
L 2053 2491 
Q 2509 2491 2742 2702 
Q 2975 2913 2975 3322 
Q 2975 3731 2742 3939 
Q 2509 4147 2053 4147 
L 1259 4147 
z
" transform="scale(0.015625)"/>
       <path id="DejaVuSans-76" d="M 191 3500 
L 800 3500 
L 1894 563 
L 2988 3500 
L 3597 3500 
L 2284 0 
L 1503 0 
L 191 3500 
z
" transform="scale(0.015625)"/>
       <path id="DejaVuSans-72" d="M 2631 2963 
Q 2534 3019 2420 3045 
Q 2306 3072 2169 3072 
Q 1681 3072 1420 2755 
Q 1159 2438 1159 1844 
L 1159 0 
L 581 0 
L 581 3500 
L 1159 3500 
L 1159 2956 
Q 1341 3275 1631 3429 
Q 1922 3584 2338 3584 
Q 2397 3584 2469 3576 
Q 2541 3569 2628 3553 
L 2631 2963 
z
" transform="scale(0.015625)"/>
       <path id="DejaVuSans-73" d="M 2834 3397 
L 2834 2853 
Q 2591 2978 2328 3040 
Q 2066 3103 1784 3103 
Q 1356 3103 1142 2972 
Q 928 2841 928 2578 
Q 928 2378 1081 2264 
Q 1234 2150 1697 2047 
L 1894 2003 
Q 2506 1872 2764 1633 
Q 3022 1394 3022 966 
Q 3022 478 2636 193 
Q 2250 -91 1575 -91 
Q 1294 -91 989 -36 
Q 684 19 347 128 
L 347 722 
Q 666 556 975 473 
Q 1284 391 1588 391 
Q 1994 391 2212 530 
Q 2431 669 2431 922 
Q 2431 1156 2273 1281 
Q 2116 1406 1581 1522 
L 1381 1569 
Q 847 1681 609 1914 
Q 372 2147 372 2553 
Q 372 3047 722 3315 
Q 1072 3584 1716 3584 
Q 2034 3584 2315 3537 
Q 2597 3491 2834 3397 
z
" transform="scale(0.015625)"/>
       <path id="DejaVuSans-4c" d="M 628 4666 
L 1259 4666 
L 1259 531 
L 3531 531 
L 3531 0 
L 628 0 
L 628 4666 
z
" transform="scale(0.015625)"/>
       <path id="DejaVuSans-62" d="M 3116 1747 
Q 3116 2381 2855 2742 
Q 2594 3103 2138 3103 
Q 1681 3103 1420 2742 
Q 1159 2381 1159 1747 
Q 1159 1113 1420 752 
Q 1681 391 2138 391 
Q 2594 391 2855 752 
Q 3116 1113 3116 1747 
z
M 1159 2969 
Q 1341 3281 1617 3432 
Q 1894 3584 2278 3584 
Q 2916 3584 3314 3078 
Q 3713 2572 3713 1747 
Q 3713 922 3314 415 
Q 2916 -91 2278 -91 
Q 1894 -91 1617 61 
Q 1341 213 1159 525 
L 1159 0 
L 581 0 
L 581 4863 
L 1159 4863 
L 1159 2969 
z
" transform="scale(0.015625)"/>
       <path id="DejaVuSans-6c" d="M 603 4863 
L 1178 4863 
L 1178 0 
L 603 0 
L 603 4863 
z
" transform="scale(0.015625)"/>
       <path id="DejaVuSans-64" d="M 2906 2969 
L 2906 4863 
L 3481 4863 
L 3481 0 
L 2906 0 
L 2906 525 
Q 2725 213 2448 61 
Q 2172 -91 1784 -91 
Q 1150 -91 751 415 
Q 353 922 353 1747 
Q 353 2572 751 3078 
Q 1150 3584 1784 3584 
Q 2172 3584 2448 3432 
Q 2725 3281 2906 2969 
z
M 947 1747 
Q 947 1113 1208 752 
Q 1469 391 1925 391 
Q 2381 391 2643 752 
Q 2906 1113 2906 1747 
Q 2906 2381 2643 2742 
Q 2381 3103 1925 3103 
Q 1469 3103 1208 2742 
Q 947 2381 947 1747 
z
" transform="scale(0.015625)"/>
       <path id="DejaVuSans-6f" d="M 1959 3097 
Q 1497 3097 1228 2736 
Q 959 2375 959 1747 
Q 959 1119 1226 758 
Q 1494 397 1959 397 
Q 2419 397 2687 759 
Q 2956 1122 2956 1747 
Q 2956 2369 2687 2733 
Q 2419 3097 1959 3097 
z
M 1959 3584 
Q 2709 3584 3137 3096 
Q 3566 2609 3566 1747 
Q 3566 888 3137 398 
Q 2709 -91 1959 -91 
Q 1206 -91 779 398 
Q 353 888 353 1747 
Q 353 2609 779 3096 
Q 1206 3584 1959 3584 
z
" transform="scale(0.015625)"/>
       <path id="DejaVuSans-75" d="M 544 1381 
L 544 3500 
L 1119 3500 
L 1119 1403 
Q 1119 906 1312 657 
Q 1506 409 1894 409 
Q 2359 409 2629 706 
Q 2900 1003 2900 1516 
L 2900 3500 
L 3475 3500 
L 3475 0 
L 2900 0 
L 2900 538 
Q 2691 219 2414 64 
Q 2138 -91 1772 -91 
Q 1169 -91 856 284 
Q 544 659 544 1381 
z
M 1991 3584 
L 1991 3584 
z
" transform="scale(0.015625)"/>
       <path id="DejaVuSans-6d" d="M 3328 2828 
Q 3544 3216 3844 3400 
Q 4144 3584 4550 3584 
Q 5097 3584 5394 3201 
Q 5691 2819 5691 2113 
L 5691 0 
L 5113 0 
L 5113 2094 
Q 5113 2597 4934 2840 
Q 4756 3084 4391 3084 
Q 3944 3084 3684 2787 
Q 3425 2491 3425 1978 
L 3425 0 
L 2847 0 
L 2847 2094 
Q 2847 2600 2669 2842 
Q 2491 3084 2119 3084 
Q 1678 3084 1418 2786 
Q 1159 2488 1159 1978 
L 1159 0 
L 581 0 
L 581 3500 
L 1159 3500 
L 1159 2956 
Q 1356 3278 1631 3431 
Q 1906 3584 2284 3584 
Q 2666 3584 2933 3390 
Q 3200 3197 3328 2828 
z
" transform="scale(0.015625)"/>
       <path id="DejaVuSans-2f" d="M 1625 4666 
L 2156 4666 
L 531 -594 
L 0 -594 
L 1625 4666 
z
" transform="scale(0.015625)"/>
       <path id="DejaVuSans-43" d="M 4122 4306 
L 4122 3641 
Q 3803 3938 3442 4084 
Q 3081 4231 2675 4231 
Q 1875 4231 1450 3742 
Q 1025 3253 1025 2328 
Q 1025 1406 1450 917 
Q 1875 428 2675 428 
Q 3081 428 3442 575 
Q 3803 722 4122 1019 
L 4122 359 
Q 3791 134 3420 21 
Q 3050 -91 2638 -91 
Q 1578 -91 968 557 
Q 359 1206 359 2328 
Q 359 3453 968 4101 
Q 1578 4750 2638 4750 
Q 3056 4750 3426 4639 
Q 3797 4528 4122 4306 
z
" transform="scale(0.015625)"/>
       <path id="DejaVuSans-6e" d="M 3513 2113 
L 3513 0 
L 2938 0 
L 2938 2094 
Q 2938 2591 2744 2837 
Q 2550 3084 2163 3084 
Q 1697 3084 1428 2787 
Q 1159 2491 1159 1978 
L 1159 0 
L 581 0 
L 581 3500 
L 1159 3500 
L 1159 2956 
Q 1366 3272 1645 3428 
Q 1925 3584 2291 3584 
Q 2894 3584 3203 3211 
Q 3513 2838 3513 2113 
z
" transform="scale(0.015625)"/>
       <path id="DejaVuSans-74" d="M 1172 4494 
L 1172 3500 
L 2356 3500 
L 2356 3053 
L 1172 3053 
L 1172 1153 
Q 1172 725 1289 603 
Q 1406 481 1766 481 
L 2356 481 
L 2356 0 
L 1766 0 
Q 1100 0 847 248 
Q 594 497 594 1153 
L 594 3053 
L 172 3053 
L 172 3500 
L 594 3500 
L 594 4494 
L 1172 4494 
z
" transform="scale(0.015625)"/>
      </defs>
      <use xlink:href="#DejaVuSans-50"/>
      <use xlink:href="#DejaVuSans-68" transform="translate(60.302734 0)"/>
      <use xlink:href="#DejaVuSans-65" transform="translate(123.681641 0)"/>
      <use xlink:href="#DejaVuSans-2d" transform="translate(185.205078 0)"/>
      <use xlink:href="#DejaVuSans-52" transform="translate(221.289062 0)"/>
      <use xlink:href="#DejaVuSans-65" transform="translate(286.271484 0)"/>
      <use xlink:href="#DejaVuSans-76" transform="translate(347.794922 0)"/>
      <use xlink:href="#DejaVuSans-65" transform="translate(406.974609 0)"/>
      <use xlink:href="#DejaVuSans-72" transform="translate(468.498047 0)"/>
      <use xlink:href="#DejaVuSans-73" transform="translate(509.611328 0)"/>
      <use xlink:href="#DejaVuSans-65" transform="translate(561.710938 0)"/>
      <use xlink:href="#DejaVuSans-20" transform="translate(623.234375 0)"/>
      <use xlink:href="#DejaVuSans-4c" transform="translate(655.021484 0)"/>
      <use xlink:href="#DejaVuSans-61" transform="translate(710.734375 0)"/>
      <use xlink:href="#DejaVuSans-62" transform="translate(772.013672 0)"/>
      <use xlink:href="#DejaVuSans-65" transform="translate(835.490234 0)"/>
      <use xlink:href="#DejaVuSans-6c" transform="translate(897.013672 0)"/>
      <use xlink:href="#DejaVuSans-6c" transform="translate(924.796875 0)"/>
      <use xlink:href="#DejaVuSans-65" transform="translate(952.580078 0)"/>
      <use xlink:href="#DejaVuSans-64" transform="translate(1014.103516 0)"/>
      <use xlink:href="#DejaVuSans-20" transform="translate(1077.580078 0)"/>
      <use xlink:href="#DejaVuSans-76" transform="translate(1109.367188 0)"/>
      <use xlink:href="#DejaVuSans-6f" transform="translate(1168.546875 0)"/>
      <use xlink:href="#DejaVuSans-6c" transform="translate(1229.728516 0)"/>
      <use xlink:href="#DejaVuSans-75" transform="translate(1257.511719 0)"/>
      <use xlink:href="#DejaVuSans-6d" transform="translate(1320.890625 0)"/>
      <use xlink:href="#DejaVuSans-65" transform="translate(1418.302734 0)"/>
      <use xlink:href="#DejaVuSans-20" transform="translate(1479.826172 0)"/>
      <use xlink:href="#DejaVuSans-2f" transform="translate(1511.613281 0)"/>
      <use xlink:href="#DejaVuSans-20" transform="translate(1545.304688 0)"/>
      <use xlink:href="#DejaVuSans-43" transform="translate(1577.091797 0)"/>
      <use xlink:href="#DejaVuSans-6f" transform="translate(1646.916016 0)"/>
      <use xlink:href="#DejaVuSans-6e" transform="translate(1708.097656 0)"/>
      <use xlink:href="#DejaVuSans-74" transform="translate(1771.476562 0)"/>
      <use xlink:href="#DejaVuSans-72" transform="translate(1810.685547 0)"/>
      <use xlink:href="#DejaVuSans-6f" transform="translate(1849.548828 0)"/>
      <use xlink:href="#DejaVuSans-6c" transform="translate(1910.730469 0)"/>
      <use xlink:href="#DejaVuSans-20" transform="translate(1938.513672 0)"/>
      <use xlink:href="#DejaVuSans-76" transform="translate(1970.300781 0)"/>
      <use xlink:href="#DejaVuSans-6f" transform="translate(2029.480469 0)"/>
      <use xlink:href="#DejaVuSans-6c" transform="translate(2090.662109 0)"/>
      <use xlink:href="#DejaVuSans-75" transform="translate(2118.445312 0)"/>
      <use xlink:href="#DejaVuSans-6d" transform="translate(2181.824219 0)"/>
      <use xlink:href="#DejaVuSans-65" transform="translate(2279.236328 0)"/>
     </g>
    </g>
   </g>
   <g id="patch_245">
    <path d="M 47.72 390.04 
L 47.72 26.88 
" style="fill: none; stroke: #000000; stroke-width: 0.8; stroke-linejoin: miter; stroke-linecap: square"/>
   </g>
   <g id="patch_246">
    <path d="M 709.2 390.04 
L 709.2 26.88 
" style="fill: none; stroke: #000000; stroke-width: 0.8; stroke-linejoin: miter; stroke-linecap: square"/>
   </g>
   <g id="patch_247">
    <path d="M 47.72 390.04 
L 709.2 390.04 
" style="fill: none; stroke: #000000; stroke-width: 0.8; stroke-linejoin: miter; stroke-linecap: square"/>
   </g>
   <g id="patch_248">
    <path d="M 47.72 26.88 
L 709.2 26.88 
" style="fill: none; stroke: #000000; stroke-width: 0.8; stroke-linejoin: miter; stroke-linecap: square"/>
   </g>
   <g id="text_14">
    <!-- Red: 8, orange: 25, Green: 209 -->
    <g transform="translate(300.958438 40.534175) scale(0.1 -0.1)">
     <defs>
      <path id="DejaVuSans-3a" d="M 750 794 
L 1409 794 
L 1409 0 
L 750 0 
L 750 794 
z
M 750 3309 
L 1409 3309 
L 1409 2516 
L 750 2516 
L 750 3309 
z
" transform="scale(0.015625)"/>
      <path id="DejaVuSans-2c" d="M 750 794 
L 1409 794 
L 1409 256 
L 897 -744 
L 494 -744 
L 750 256 
L 750 794 
z
" transform="scale(0.015625)"/>
      <path id="DejaVuSans-67" d="M 2906 1791 
Q 2906 2416 2648 2759 
Q 2391 3103 1925 3103 
Q 1463 3103 1205 2759 
Q 947 2416 947 1791 
Q 947 1169 1205 825 
Q 1463 481 1925 481 
Q 2391 481 2648 825 
Q 2906 1169 2906 1791 
z
M 3481 434 
Q 3481 -459 3084 -895 
Q 2688 -1331 1869 -1331 
Q 1566 -1331 1297 -1286 
Q 1028 -1241 775 -1147 
L 775 -588 
Q 1028 -725 1275 -790 
Q 1522 -856 1778 -856 
Q 2344 -856 2625 -561 
Q 2906 -266 2906 331 
L 2906 616 
Q 2728 306 2450 153 
Q 2172 0 1784 0 
Q 1141 0 747 490 
Q 353 981 353 1791 
Q 353 2603 747 3093 
Q 1141 3584 1784 3584 
Q 2172 3584 2450 3431 
Q 2728 3278 2906 2969 
L 2906 3500 
L 3481 3500 
L 3481 434 
z
" transform="scale(0.015625)"/>
      <path id="DejaVuSans-47" d="M 3809 666 
L 3809 1919 
L 2778 1919 
L 2778 2438 
L 4434 2438 
L 4434 434 
Q 4069 175 3628 42 
Q 3188 -91 2688 -91 
Q 1594 -91 976 548 
Q 359 1188 359 2328 
Q 359 3472 976 4111 
Q 1594 4750 2688 4750 
Q 3144 4750 3555 4637 
Q 3966 4525 4313 4306 
L 4313 3634 
Q 3963 3931 3569 4081 
Q 3175 4231 2741 4231 
Q 1884 4231 1454 3753 
Q 1025 3275 1025 2328 
Q 1025 1384 1454 906 
Q 1884 428 2741 428 
Q 3075 428 3337 486 
Q 3600 544 3809 666 
z
" transform="scale(0.015625)"/>
      <path id="DejaVuSans-39" d="M 703 97 
L 703 672 
Q 941 559 1184 500 
Q 1428 441 1663 441 
Q 2288 441 2617 861 
Q 2947 1281 2994 2138 
Q 2813 1869 2534 1725 
Q 2256 1581 1919 1581 
Q 1219 1581 811 2004 
Q 403 2428 403 3163 
Q 403 3881 828 4315 
Q 1253 4750 1959 4750 
Q 2769 4750 3195 4129 
Q 3622 3509 3622 2328 
Q 3622 1225 3098 567 
Q 2575 -91 1691 -91 
Q 1453 -91 1209 -44 
Q 966 3 703 97 
z
M 1959 2075 
Q 2384 2075 2632 2365 
Q 2881 2656 2881 3163 
Q 2881 3666 2632 3958 
Q 2384 4250 1959 4250 
Q 1534 4250 1286 3958 
Q 1038 3666 1038 3163 
Q 1038 2656 1286 2365 
Q 1534 2075 1959 2075 
z
" transform="scale(0.015625)"/>
     </defs>
     <use xlink:href="#DejaVuSans-52"/>
     <use xlink:href="#DejaVuSans-65" transform="translate(64.982422 0)"/>
     <use xlink:href="#DejaVuSans-64" transform="translate(126.505859 0)"/>
     <use xlink:href="#DejaVuSans-3a" transform="translate(189.982422 0)"/>
     <use xlink:href="#DejaVuSans-20" transform="translate(223.673828 0)"/>
     <use xlink:href="#DejaVuSans-38" transform="translate(255.460938 0)"/>
     <use xlink:href="#DejaVuSans-2c" transform="translate(319.083984 0)"/>
     <use xlink:href="#DejaVuSans-20" transform="translate(350.871094 0)"/>
     <use xlink:href="#DejaVuSans-6f" transform="translate(382.658203 0)"/>
     <use xlink:href="#DejaVuSans-72" transform="translate(443.839844 0)"/>
     <use xlink:href="#DejaVuSans-61" transform="translate(484.953125 0)"/>
     <use xlink:href="#DejaVuSans-6e" transform="translate(546.232422 0)"/>
     <use xlink:href="#DejaVuSans-67" transform="translate(609.611328 0)"/>
     <use xlink:href="#DejaVuSans-65" transform="translate(673.087891 0)"/>
     <use xlink:href="#DejaVuSans-3a" transform="translate(734.611328 0)"/>
     <use xlink:href="#DejaVuSans-20" transform="translate(768.302734 0)"/>
     <use xlink:href="#DejaVuSans-32" transform="translate(800.089844 0)"/>
     <use xlink:href="#DejaVuSans-35" transform="translate(863.712891 0)"/>
     <use xlink:href="#DejaVuSans-2c" transform="translate(927.335938 0)"/>
     <use xlink:href="#DejaVuSans-20" transform="translate(959.123047 0)"/>
     <use xlink:href="#DejaVuSans-47" transform="translate(990.910156 0)"/>
     <use xlink:href="#DejaVuSans-72" transform="translate(1068.400391 0)"/>
     <use xlink:href="#DejaVuSans-65" transform="translate(1107.263672 0)"/>
     <use xlink:href="#DejaVuSans-65" transform="translate(1168.787109 0)"/>
     <use xlink:href="#DejaVuSans-6e" transform="translate(1230.310547 0)"/>
     <use xlink:href="#DejaVuSans-3a" transform="translate(1293.689453 0)"/>
     <use xlink:href="#DejaVuSans-20" transform="translate(1327.380859 0)"/>
     <use xlink:href="#DejaVuSans-32" transform="translate(1359.167969 0)"/>
     <use xlink:href="#DejaVuSans-30" transform="translate(1422.791016 0)"/>
     <use xlink:href="#DejaVuSans-39" transform="translate(1486.414062 0)"/>
    </g>
   </g>
   <g id="text_15">
    <!-- Phe-Reverse Labelled Volume relative to Control Volume (median normalized and outliers capped at 1) -->
    <g transform="translate(69.761875 20.88) scale(0.12 -0.12)">
     <defs>
      <path id="DejaVuSans-56" d="M 1831 0 
L 50 4666 
L 709 4666 
L 2188 738 
L 3669 4666 
L 4325 4666 
L 2547 0 
L 1831 0 
z
" transform="scale(0.015625)"/>
      <path id="DejaVuSans-69" d="M 603 3500 
L 1178 3500 
L 1178 0 
L 603 0 
L 603 3500 
z
M 603 4863 
L 1178 4863 
L 1178 4134 
L 603 4134 
L 603 4863 
z
" transform="scale(0.015625)"/>
      <path id="DejaVuSans-28" d="M 1984 4856 
Q 1566 4138 1362 3434 
Q 1159 2731 1159 2009 
Q 1159 1288 1364 580 
Q 1569 -128 1984 -844 
L 1484 -844 
Q 1016 -109 783 600 
Q 550 1309 550 2009 
Q 550 2706 781 3412 
Q 1013 4119 1484 4856 
L 1984 4856 
z
" transform="scale(0.015625)"/>
      <path id="DejaVuSans-7a" d="M 353 3500 
L 3084 3500 
L 3084 2975 
L 922 459 
L 3084 459 
L 3084 0 
L 275 0 
L 275 525 
L 2438 3041 
L 353 3041 
L 353 3500 
z
" transform="scale(0.015625)"/>
      <path id="DejaVuSans-63" d="M 3122 3366 
L 3122 2828 
Q 2878 2963 2633 3030 
Q 2388 3097 2138 3097 
Q 1578 3097 1268 2742 
Q 959 2388 959 1747 
Q 959 1106 1268 751 
Q 1578 397 2138 397 
Q 2388 397 2633 464 
Q 2878 531 3122 666 
L 3122 134 
Q 2881 22 2623 -34 
Q 2366 -91 2075 -91 
Q 1284 -91 818 406 
Q 353 903 353 1747 
Q 353 2603 823 3093 
Q 1294 3584 2113 3584 
Q 2378 3584 2631 3529 
Q 2884 3475 3122 3366 
z
" transform="scale(0.015625)"/>
      <path id="DejaVuSans-70" d="M 1159 525 
L 1159 -1331 
L 581 -1331 
L 581 3500 
L 1159 3500 
L 1159 2969 
Q 1341 3281 1617 3432 
Q 1894 3584 2278 3584 
Q 2916 3584 3314 3078 
Q 3713 2572 3713 1747 
Q 3713 922 3314 415 
Q 2916 -91 2278 -91 
Q 1894 -91 1617 61 
Q 1341 213 1159 525 
z
M 3116 1747 
Q 3116 2381 2855 2742 
Q 2594 3103 2138 3103 
Q 1681 3103 1420 2742 
Q 1159 2381 1159 1747 
Q 1159 1113 1420 752 
Q 1681 391 2138 391 
Q 2594 391 2855 752 
Q 3116 1113 3116 1747 
z
" transform="scale(0.015625)"/>
      <path id="DejaVuSans-29" d="M 513 4856 
L 1013 4856 
Q 1481 4119 1714 3412 
Q 1947 2706 1947 2009 
Q 1947 1309 1714 600 
Q 1481 -109 1013 -844 
L 513 -844 
Q 928 -128 1133 580 
Q 1338 1288 1338 2009 
Q 1338 2731 1133 3434 
Q 928 4138 513 4856 
z
" transform="scale(0.015625)"/>
     </defs>
     <use xlink:href="#DejaVuSans-50"/>
     <use xlink:href="#DejaVuSans-68" transform="translate(60.302734 0)"/>
     <use xlink:href="#DejaVuSans-65" transform="translate(123.681641 0)"/>
     <use xlink:href="#DejaVuSans-2d" transform="translate(185.205078 0)"/>
     <use xlink:href="#DejaVuSans-52" transform="translate(221.289062 0)"/>
     <use xlink:href="#DejaVuSans-65" transform="translate(286.271484 0)"/>
     <use xlink:href="#DejaVuSans-76" transform="translate(347.794922 0)"/>
     <use xlink:href="#DejaVuSans-65" transform="translate(406.974609 0)"/>
     <use xlink:href="#DejaVuSans-72" transform="translate(468.498047 0)"/>
     <use xlink:href="#DejaVuSans-73" transform="translate(509.611328 0)"/>
     <use xlink:href="#DejaVuSans-65" transform="translate(561.710938 0)"/>
     <use xlink:href="#DejaVuSans-20" transform="translate(623.234375 0)"/>
     <use xlink:href="#DejaVuSans-4c" transform="translate(655.021484 0)"/>
     <use xlink:href="#DejaVuSans-61" transform="translate(710.734375 0)"/>
     <use xlink:href="#DejaVuSans-62" transform="translate(772.013672 0)"/>
     <use xlink:href="#DejaVuSans-65" transform="translate(835.490234 0)"/>
     <use xlink:href="#DejaVuSans-6c" transform="translate(897.013672 0)"/>
     <use xlink:href="#DejaVuSans-6c" transform="translate(924.796875 0)"/>
     <use xlink:href="#DejaVuSans-65" transform="translate(952.580078 0)"/>
     <use xlink:href="#DejaVuSans-64" transform="translate(1014.103516 0)"/>
     <use xlink:href="#DejaVuSans-20" transform="translate(1077.580078 0)"/>
     <use xlink:href="#DejaVuSans-56" transform="translate(1109.367188 0)"/>
     <use xlink:href="#DejaVuSans-6f" transform="translate(1170.025391 0)"/>
     <use xlink:href="#DejaVuSans-6c" transform="translate(1231.207031 0)"/>
     <use xlink:href="#DejaVuSans-75" transform="translate(1258.990234 0)"/>
     <use xlink:href="#DejaVuSans-6d" transform="translate(1322.369141 0)"/>
     <use xlink:href="#DejaVuSans-65" transform="translate(1419.78125 0)"/>
     <use xlink:href="#DejaVuSans-20" transform="translate(1481.304688 0)"/>
     <use xlink:href="#DejaVuSans-72" transform="translate(1513.091797 0)"/>
     <use xlink:href="#DejaVuSans-65" transform="translate(1551.955078 0)"/>
     <use xlink:href="#DejaVuSans-6c" transform="translate(1613.478516 0)"/>
     <use xlink:href="#DejaVuSans-61" transform="translate(1641.261719 0)"/>
     <use xlink:href="#DejaVuSans-74" transform="translate(1702.541016 0)"/>
     <use xlink:href="#DejaVuSans-69" transform="translate(1741.75 0)"/>
     <use xlink:href="#DejaVuSans-76" transform="translate(1769.533203 0)"/>
     <use xlink:href="#DejaVuSans-65" transform="translate(1828.712891 0)"/>
     <use xlink:href="#DejaVuSans-20" transform="translate(1890.236328 0)"/>
     <use xlink:href="#DejaVuSans-74" transform="translate(1922.023438 0)"/>
     <use xlink:href="#DejaVuSans-6f" transform="translate(1961.232422 0)"/>
     <use xlink:href="#DejaVuSans-20" transform="translate(2022.414062 0)"/>
     <use xlink:href="#DejaVuSans-43" transform="translate(2054.201172 0)"/>
     <use xlink:href="#DejaVuSans-6f" transform="translate(2124.025391 0)"/>
     <use xlink:href="#DejaVuSans-6e" transform="translate(2185.207031 0)"/>
     <use xlink:href="#DejaVuSans-74" transform="translate(2248.585938 0)"/>
     <use xlink:href="#DejaVuSans-72" transform="translate(2287.794922 0)"/>
     <use xlink:href="#DejaVuSans-6f" transform="translate(2326.658203 0)"/>
     <use xlink:href="#DejaVuSans-6c" transform="translate(2387.839844 0)"/>
     <use xlink:href="#DejaVuSans-20" transform="translate(2415.623047 0)"/>
     <use xlink:href="#DejaVuSans-56" transform="translate(2447.410156 0)"/>
     <use xlink:href="#DejaVuSans-6f" transform="translate(2508.068359 0)"/>
     <use xlink:href="#DejaVuSans-6c" transform="translate(2569.25 0)"/>
     <use xlink:href="#DejaVuSans-75" transform="translate(2597.033203 0)"/>
     <use xlink:href="#DejaVuSans-6d" transform="translate(2660.412109 0)"/>
     <use xlink:href="#DejaVuSans-65" transform="translate(2757.824219 0)"/>
     <use xlink:href="#DejaVuSans-20" transform="translate(2819.347656 0)"/>
     <use xlink:href="#DejaVuSans-28" transform="translate(2851.134766 0)"/>
     <use xlink:href="#DejaVuSans-6d" transform="translate(2890.148438 0)"/>
     <use xlink:href="#DejaVuSans-65" transform="translate(2987.560547 0)"/>
     <use xlink:href="#DejaVuSans-64" transform="translate(3049.083984 0)"/>
     <use xlink:href="#DejaVuSans-69" transform="translate(3112.560547 0)"/>
     <use xlink:href="#DejaVuSans-61" transform="translate(3140.34375 0)"/>
     <use xlink:href="#DejaVuSans-6e" transform="translate(3201.623047 0)"/>
     <use xlink:href="#DejaVuSans-20" transform="translate(3265.001953 0)"/>
     <use xlink:href="#DejaVuSans-6e" transform="translate(3296.789062 0)"/>
     <use xlink:href="#DejaVuSans-6f" transform="translate(3360.167969 0)"/>
     <use xlink:href="#DejaVuSans-72" transform="translate(3421.349609 0)"/>
     <use xlink:href="#DejaVuSans-6d" transform="translate(3460.712891 0)"/>
     <use xlink:href="#DejaVuSans-61" transform="translate(3558.125 0)"/>
     <use xlink:href="#DejaVuSans-6c" transform="translate(3619.404297 0)"/>
     <use xlink:href="#DejaVuSans-69" transform="translate(3647.1875 0)"/>
     <use xlink:href="#DejaVuSans-7a" transform="translate(3674.970703 0)"/>
     <use xlink:href="#DejaVuSans-65" transform="translate(3727.460938 0)"/>
     <use xlink:href="#DejaVuSans-64" transform="translate(3788.984375 0)"/>
     <use xlink:href="#DejaVuSans-20" transform="translate(3852.460938 0)"/>
     <use xlink:href="#DejaVuSans-61" transform="translate(3884.248047 0)"/>
     <use xlink:href="#DejaVuSans-6e" transform="translate(3945.527344 0)"/>
     <use xlink:href="#DejaVuSans-64" transform="translate(4008.90625 0)"/>
     <use xlink:href="#DejaVuSans-20" transform="translate(4072.382812 0)"/>
     <use xlink:href="#DejaVuSans-6f" transform="translate(4104.169922 0)"/>
     <use xlink:href="#DejaVuSans-75" transform="translate(4165.351562 0)"/>
     <use xlink:href="#DejaVuSans-74" transform="translate(4228.730469 0)"/>
     <use xlink:href="#DejaVuSans-6c" transform="translate(4267.939453 0)"/>
     <use xlink:href="#DejaVuSans-69" transform="translate(4295.722656 0)"/>
     <use xlink:href="#DejaVuSans-65" transform="translate(4323.505859 0)"/>
     <use xlink:href="#DejaVuSans-72" transform="translate(4385.029297 0)"/>
     <use xlink:href="#DejaVuSans-73" transform="translate(4426.142578 0)"/>
     <use xlink:href="#DejaVuSans-20" transform="translate(4478.242188 0)"/>
     <use xlink:href="#DejaVuSans-63" transform="translate(4510.029297 0)"/>
     <use xlink:href="#DejaVuSans-61" transform="translate(4565.009766 0)"/>
     <use xlink:href="#DejaVuSans-70" transform="translate(4626.289062 0)"/>
     <use xlink:href="#DejaVuSans-70" transform="translate(4689.765625 0)"/>
     <use xlink:href="#DejaVuSans-65" transform="translate(4753.242188 0)"/>
     <use xlink:href="#DejaVuSans-64" transform="translate(4814.765625 0)"/>
     <use xlink:href="#DejaVuSans-20" transform="translate(4878.242188 0)"/>
     <use xlink:href="#DejaVuSans-61" transform="translate(4910.029297 0)"/>
     <use xlink:href="#DejaVuSans-74" transform="translate(4971.308594 0)"/>
     <use xlink:href="#DejaVuSans-20" transform="translate(5010.517578 0)"/>
     <use xlink:href="#DejaVuSans-31" transform="translate(5042.304688 0)"/>
     <use xlink:href="#DejaVuSans-29" transform="translate(5105.927734 0)"/>
    </g>
   </g>
  </g>
 </g>
 <defs>
  <clipPath id="pd27907045a">
   <rect x="47.72" y="26.88" width="661.48" height="363.16"/>
  </clipPath>
 </defs>
</svg>
