<?xml version="1.0" encoding="utf-8" standalone="no"?>
<!DOCTYPE svg PUBLIC "-//W3C//DTD SVG 1.1//EN"
  "http://www.w3.org/Graphics/SVG/1.1/DTD/svg11.dtd">
<svg xmlns:xlink="http://www.w3.org/1999/xlink" width="720pt" height="432pt" viewBox="0 0 720 432" xmlns="http://www.w3.org/2000/svg" version="1.1">
 <metadata>
  <rdf:RDF xmlns:dc="http://purl.org/dc/elements/1.1/" xmlns:cc="http://creativecommons.org/ns#" xmlns:rdf="http://www.w3.org/1999/02/22-rdf-syntax-ns#">
   <cc:Work>
    <dc:type rdf:resource="http://purl.org/dc/dcmitype/StillImage"/>
    <dc:date>2026-03-17T14:07:10.820163</dc:date>
    <dc:format>image/svg+xml</dc:format>
    <dc:creator>
     <cc:Agent>
      <dc:title>Matplotlib v3.10.8, https://matplotlib.org/</dc:title>
     </cc:Agent>
    </dc:creator>
   </cc:Work>
  </rdf:RDF>
 </metadata>
 <defs>
  <style type="text/css">*{stroke-linejoin: round; stroke-linecap: butt}</style>
 </defs>
 <g id="figure_1">
  <g id="patch_1">
   <path d="M 0 432 
L 720 432 
L 720 0 
L 0 0 
z
" style="fill: #ffffff"/>
  </g>
  <g id="axes_1">
   <g id="patch_2">
    <path d="M 50.87 390.04 
L 709.2 390.04 
L 709.2 26.88 
L 50.87 26.88 
z
" style="fill: #ffffff"/>
   </g>
   <g id="patch_3">
    <path d="M 49.509814 390.04 
L 52.230186 390.04 
L 52.230186 388.031225 
L 49.509814 388.031225 
z
" clip-path="url(#p83457029e5)" style="fill: #ffa500"/>
   </g>
   <g id="patch_4">
    <path d="M 52.230186 390.04 
L 54.950558 390.04 
L 54.950558 385.881281 
L 52.230186 385.881281 
z
" clip-path="url(#p83457029e5)" style="fill: #008000"/>
   </g>
   <g id="patch_5">
    <path d="M 54.950558 390.04 
L 57.67093 390.04 
L 57.67093 386.779387 
L 54.950558 386.779387 
z
" clip-path="url(#p83457029e5)" style="fill: #008000"/>
   </g>
   <g id="patch_6">
    <path d="M 57.67093 390.04 
L 60.391302 390.04 
L 60.391302 386.900096 
L 57.67093 386.900096 
z
" clip-path="url(#p83457029e5)" style="fill: #008000"/>
   </g>
   <g id="patch_7">
    <path d="M 60.391302 390.04 
L 63.111674 390.04 
L 63.111674 385.57831 
L 60.391302 385.57831 
z
" clip-path="url(#p83457029e5)" style="fill: #008000"/>
   </g>
   <g id="patch_8">
    <path d="M 63.111674 390.04 
L 65.832045 390.04 
L 65.832045 385.770639 
L 63.111674 385.770639 
z
" clip-path="url(#p83457029e5)" style="fill: #008000"/>
   </g>
   <g id="patch_9">
    <path d="M 65.832045 390.04 
L 68.552417 390.04 
L 68.552417 386.596633 
L 65.832045 386.596633 
z
" clip-path="url(#p83457029e5)" style="fill: #008000"/>
   </g>
   <g id="patch_10">
    <path d="M 68.552417 390.04 
L 71.272789 390.04 
L 71.272789 388.862636 
L 68.552417 388.862636 
z
" clip-path="url(#p83457029e5)" style="fill: #ff0000"/>
   </g>
   <g id="patch_11">
    <path d="M 71.272789 390.04 
L 73.993161 390.04 
L 73.993161 388.70814 
L 71.272789 388.70814 
z
" clip-path="url(#p83457029e5)" style="fill: #ff0000"/>
   </g>
   <g id="patch_12">
    <path d="M 73.993161 390.04 
L 76.713533 390.04 
L 76.713533 388.282484 
L 73.993161 388.282484 
z
" clip-path="url(#p83457029e5)" style="fill: #ffa500"/>
   </g>
   <g id="patch_13">
    <path d="M 76.713533 390.04 
L 79.433905 390.04 
L 79.433905 387.916474 
L 76.713533 387.916474 
z
" clip-path="url(#p83457029e5)" style="fill: #ffa500"/>
   </g>
   <g id="patch_14">
    <path d="M 79.433905 390.04 
L 82.154277 390.04 
L 82.154277 388.157666 
L 79.433905 388.157666 
z
" clip-path="url(#p83457029e5)" style="fill: #ffa500"/>
   </g>
   <g id="patch_15">
    <path d="M 82.154277 390.04 
L 84.874649 390.04 
L 84.874649 386.923844 
L 82.154277 386.923844 
z
" clip-path="url(#p83457029e5)" style="fill: #008000"/>
   </g>
   <g id="patch_16">
    <path d="M 84.874649 390.04 
L 87.595021 390.04 
L 87.595021 387.523113 
L 84.874649 387.523113 
z
" clip-path="url(#p83457029e5)" style="fill: #008000"/>
   </g>
   <g id="patch_17">
    <path d="M 87.595021 390.04 
L 90.315393 390.04 
L 90.315393 376.870239 
L 87.595021 376.870239 
z
" clip-path="url(#p83457029e5)" style="fill: #008000"/>
   </g>
   <g id="patch_18">
    <path d="M 90.315393 390.04 
L 93.035764 390.04 
L 93.035764 386.855691 
L 90.315393 386.855691 
z
" clip-path="url(#p83457029e5)" style="fill: #008000"/>
   </g>
   <g id="patch_19">
    <path d="M 93.035764 390.04 
L 95.756136 390.04 
L 95.756136 387.372799 
L 93.035764 387.372799 
z
" clip-path="url(#p83457029e5)" style="fill: #008000"/>
   </g>
   <g id="patch_20">
    <path d="M 95.756136 390.04 
L 98.476508 390.04 
L 98.476508 381.142611 
L 95.756136 381.142611 
z
" clip-path="url(#p83457029e5)" style="fill: #008000"/>
   </g>
   <g id="patch_21">
    <path d="M 98.476508 390.04 
L 101.19688 390.04 
L 101.19688 387.924028 
L 98.476508 387.924028 
z
" clip-path="url(#p83457029e5)" style="fill: #ffa500"/>
   </g>
   <g id="patch_22">
    <path d="M 101.19688 390.04 
L 103.917252 390.04 
L 103.917252 387.516445 
L 101.19688 387.516445 
z
" clip-path="url(#p83457029e5)" style="fill: #008000"/>
   </g>
   <g id="patch_23">
    <path d="M 103.917252 390.04 
L 106.637624 390.04 
L 106.637624 387.866901 
L 103.917252 387.866901 
z
" clip-path="url(#p83457029e5)" style="fill: #008000"/>
   </g>
   <g id="patch_24">
    <path d="M 106.637624 390.04 
L 109.357996 390.04 
L 109.357996 387.509085 
L 106.637624 387.509085 
z
" clip-path="url(#p83457029e5)" style="fill: #008000"/>
   </g>
   <g id="patch_25">
    <path d="M 109.357996 390.04 
L 112.078368 390.04 
L 112.078368 387.25774 
L 109.357996 387.25774 
z
" clip-path="url(#p83457029e5)" style="fill: #008000"/>
   </g>
   <g id="patch_26">
    <path d="M 112.078368 390.04 
L 114.79874 390.04 
L 114.79874 350.642945 
L 112.078368 350.642945 
z
" clip-path="url(#p83457029e5)" style="fill: #008000"/>
   </g>
   <g id="patch_27">
    <path d="M 114.79874 390.04 
L 117.519112 390.04 
L 117.519112 386.819567 
L 114.79874 386.819567 
z
" clip-path="url(#p83457029e5)" style="fill: #008000"/>
   </g>
   <g id="patch_28">
    <path d="M 117.519112 390.04 
L 120.239483 390.04 
L 120.239483 389.227084 
L 117.519112 389.227084 
z
" clip-path="url(#p83457029e5)" style="fill: #ff0000"/>
   </g>
   <g id="patch_29">
    <path d="M 120.239483 390.04 
L 122.959855 390.04 
L 122.959855 387.593896 
L 120.239483 387.593896 
z
" clip-path="url(#p83457029e5)" style="fill: #008000"/>
   </g>
   <g id="patch_30">
    <path d="M 122.959855 390.04 
L 125.680227 390.04 
L 125.680227 384.173917 
L 122.959855 384.173917 
z
" clip-path="url(#p83457029e5)" style="fill: #008000"/>
   </g>
   <g id="patch_31">
    <path d="M 125.680227 390.04 
L 128.400599 390.04 
L 128.400599 386.84751 
L 125.680227 386.84751 
z
" clip-path="url(#p83457029e5)" style="fill: #008000"/>
   </g>
   <g id="patch_32">
    <path d="M 128.400599 390.04 
L 131.120971 390.04 
L 131.120971 386.987957 
L 128.400599 386.987957 
z
" clip-path="url(#p83457029e5)" style="fill: #008000"/>
   </g>
   <g id="patch_33">
    <path d="M 131.120971 390.04 
L 133.841343 390.04 
L 133.841343 386.710412 
L 131.120971 386.710412 
z
" clip-path="url(#p83457029e5)" style="fill: #008000"/>
   </g>
   <g id="patch_34">
    <path d="M 133.841343 390.04 
L 136.561715 390.04 
L 136.561715 387.492778 
L 133.841343 387.492778 
z
" clip-path="url(#p83457029e5)" style="fill: #008000"/>
   </g>
   <g id="patch_35">
    <path d="M 136.561715 390.04 
L 139.282087 390.04 
L 139.282087 387.47646 
L 136.561715 387.47646 
z
" clip-path="url(#p83457029e5)" style="fill: #008000"/>
   </g>
   <g id="patch_36">
    <path d="M 139.282087 390.04 
L 142.002459 390.04 
L 142.002459 387.451243 
L 139.282087 387.451243 
z
" clip-path="url(#p83457029e5)" style="fill: #008000"/>
   </g>
   <g id="patch_37">
    <path d="M 142.002459 390.04 
L 144.722831 390.04 
L 144.722831 385.319152 
L 142.002459 385.319152 
z
" clip-path="url(#p83457029e5)" style="fill: #008000"/>
   </g>
   <g id="patch_38">
    <path d="M 144.722831 390.04 
L 147.443202 390.04 
L 147.443202 386.60772 
L 144.722831 386.60772 
z
" clip-path="url(#p83457029e5)" style="fill: #008000"/>
   </g>
   <g id="patch_39">
    <path d="M 147.443202 390.04 
L 150.163574 390.04 
L 150.163574 384.528962 
L 147.443202 384.528962 
z
" clip-path="url(#p83457029e5)" style="fill: #008000"/>
   </g>
   <g id="patch_40">
    <path d="M 150.163574 390.04 
L 152.883946 390.04 
L 152.883946 387.583881 
L 150.163574 387.583881 
z
" clip-path="url(#p83457029e5)" style="fill: #008000"/>
   </g>
   <g id="patch_41">
    <path d="M 152.883946 390.04 
L 155.604318 390.04 
L 155.604318 385.377246 
L 152.883946 385.377246 
z
" clip-path="url(#p83457029e5)" style="fill: #008000"/>
   </g>
   <g id="patch_42">
    <path d="M 155.604318 390.04 
L 158.32469 390.04 
L 158.32469 387.343496 
L 155.604318 387.343496 
z
" clip-path="url(#p83457029e5)" style="fill: #008000"/>
   </g>
   <g id="patch_43">
    <path d="M 158.32469 390.04 
L 161.045062 390.04 
L 161.045062 387.71728 
L 158.32469 387.71728 
z
" clip-path="url(#p83457029e5)" style="fill: #008000"/>
   </g>
   <g id="patch_44">
    <path d="M 161.045062 390.04 
L 163.765434 390.04 
L 163.765434 385.432256 
L 161.045062 385.432256 
z
" clip-path="url(#p83457029e5)" style="fill: #008000"/>
   </g>
   <g id="patch_45">
    <path d="M 163.765434 390.04 
L 166.485806 390.04 
L 166.485806 384.733861 
L 163.765434 384.733861 
z
" clip-path="url(#p83457029e5)" style="fill: #008000"/>
   </g>
   <g id="patch_46">
    <path d="M 166.485806 390.04 
L 169.206178 390.04 
L 169.206178 386.478774 
L 166.485806 386.478774 
z
" clip-path="url(#p83457029e5)" style="fill: #008000"/>
   </g>
   <g id="patch_47">
    <path d="M 169.206178 390.04 
L 171.92655 390.04 
L 171.92655 386.793275 
L 169.206178 386.793275 
z
" clip-path="url(#p83457029e5)" style="fill: #008000"/>
   </g>
   <g id="patch_48">
    <path d="M 171.92655 390.04 
L 174.646921 390.04 
L 174.646921 386.85124 
L 171.92655 386.85124 
z
" clip-path="url(#p83457029e5)" style="fill: #008000"/>
   </g>
   <g id="patch_49">
    <path d="M 174.646921 390.04 
L 177.367293 390.04 
L 177.367293 387.214774 
L 174.646921 387.214774 
z
" clip-path="url(#p83457029e5)" style="fill: #008000"/>
   </g>
   <g id="patch_50">
    <path d="M 177.367293 390.04 
L 180.087665 390.04 
L 180.087665 387.825116 
L 177.367293 387.825116 
z
" clip-path="url(#p83457029e5)" style="fill: #008000"/>
   </g>
   <g id="patch_51">
    <path d="M 180.087665 390.04 
L 182.808037 390.04 
L 182.808037 387.483251 
L 180.087665 387.483251 
z
" clip-path="url(#p83457029e5)" style="fill: #008000"/>
   </g>
   <g id="patch_52">
    <path d="M 182.808037 390.04 
L 185.528409 390.04 
L 185.528409 386.132095 
L 182.808037 386.132095 
z
" clip-path="url(#p83457029e5)" style="fill: #008000"/>
   </g>
   <g id="patch_53">
    <path d="M 185.528409 390.04 
L 188.248781 390.04 
L 188.248781 388.135245 
L 185.528409 388.135245 
z
" clip-path="url(#p83457029e5)" style="fill: #ffa500"/>
   </g>
   <g id="patch_54">
    <path d="M 188.248781 390.04 
L 190.969153 390.04 
L 190.969153 387.637449 
L 188.248781 387.637449 
z
" clip-path="url(#p83457029e5)" style="fill: #008000"/>
   </g>
   <g id="patch_55">
    <path d="M 190.969153 390.04 
L 193.689525 390.04 
L 193.689525 387.395101 
L 190.969153 387.395101 
z
" clip-path="url(#p83457029e5)" style="fill: #008000"/>
   </g>
   <g id="patch_56">
    <path d="M 193.689525 390.04 
L 196.409897 390.04 
L 196.409897 387.665656 
L 193.689525 387.665656 
z
" clip-path="url(#p83457029e5)" style="fill: #008000"/>
   </g>
   <g id="patch_57">
    <path d="M 196.409897 390.04 
L 199.130269 390.04 
L 199.130269 386.187929 
L 196.409897 386.187929 
z
" clip-path="url(#p83457029e5)" style="fill: #008000"/>
   </g>
   <g id="patch_58">
    <path d="M 199.130269 390.04 
L 201.85064 390.04 
L 201.85064 387.387701 
L 199.130269 387.387701 
z
" clip-path="url(#p83457029e5)" style="fill: #008000"/>
   </g>
   <g id="patch_59">
    <path d="M 201.85064 390.04 
L 204.571012 390.04 
L 204.571012 387.524772 
L 201.85064 387.524772 
z
" clip-path="url(#p83457029e5)" style="fill: #008000"/>
   </g>
   <g id="patch_60">
    <path d="M 204.571012 390.04 
L 207.291384 390.04 
L 207.291384 373.565334 
L 204.571012 373.565334 
z
" clip-path="url(#p83457029e5)" style="fill: #008000"/>
   </g>
   <g id="patch_61">
    <path d="M 207.291384 390.04 
L 210.011756 390.04 
L 210.011756 387.491733 
L 207.291384 387.491733 
z
" clip-path="url(#p83457029e5)" style="fill: #008000"/>
   </g>
   <g id="patch_62">
    <path d="M 210.011756 390.04 
L 212.732128 390.04 
L 212.732128 387.271988 
L 210.011756 387.271988 
z
" clip-path="url(#p83457029e5)" style="fill: #008000"/>
   </g>
   <g id="patch_63">
    <path d="M 212.732128 390.04 
L 215.4525 390.04 
L 215.4525 388.027755 
L 212.732128 388.027755 
z
" clip-path="url(#p83457029e5)" style="fill: #ffa500"/>
   </g>
   <g id="patch_64">
    <path d="M 215.4525 390.04 
L 218.172872 390.04 
L 218.172872 387.916179 
L 215.4525 387.916179 
z
" clip-path="url(#p83457029e5)" style="fill: #ffa500"/>
   </g>
   <g id="patch_65">
    <path d="M 218.172872 390.04 
L 220.893244 390.04 
L 220.893244 387.780747 
L 218.172872 387.780747 
z
" clip-path="url(#p83457029e5)" style="fill: #008000"/>
   </g>
   <g id="patch_66">
    <path d="M 220.893244 390.04 
L 223.613616 390.04 
L 223.613616 387.634535 
L 220.893244 387.634535 
z
" clip-path="url(#p83457029e5)" style="fill: #008000"/>
   </g>
   <g id="patch_67">
    <path d="M 223.613616 390.04 
L 226.333988 390.04 
L 226.333988 387.015458 
L 223.613616 387.015458 
z
" clip-path="url(#p83457029e5)" style="fill: #008000"/>
   </g>
   <g id="patch_68">
    <path d="M 226.333988 390.04 
L 229.05436 390.04 
L 229.05436 385.804075 
L 226.333988 385.804075 
z
" clip-path="url(#p83457029e5)" style="fill: #008000"/>
   </g>
   <g id="patch_69">
    <path d="M 229.05436 390.04 
L 231.774731 390.04 
L 231.774731 386.952465 
L 229.05436 386.952465 
z
" clip-path="url(#p83457029e5)" style="fill: #008000"/>
   </g>
   <g id="patch_70">
    <path d="M 231.774731 390.04 
L 234.495103 390.04 
L 234.495103 387.499361 
L 231.774731 387.499361 
z
" clip-path="url(#p83457029e5)" style="fill: #008000"/>
   </g>
   <g id="patch_71">
    <path d="M 234.495103 390.04 
L 237.215475 390.04 
L 237.215475 387.616512 
L 234.495103 387.616512 
z
" clip-path="url(#p83457029e5)" style="fill: #008000"/>
   </g>
   <g id="patch_72">
    <path d="M 237.215475 390.04 
L 239.935847 390.04 
L 239.935847 387.482872 
L 237.215475 387.482872 
z
" clip-path="url(#p83457029e5)" style="fill: #008000"/>
   </g>
   <g id="patch_73">
    <path d="M 239.935847 390.04 
L 242.656219 390.04 
L 242.656219 388.381352 
L 239.935847 388.381352 
z
" clip-path="url(#p83457029e5)" style="fill: #ffa500"/>
   </g>
   <g id="patch_74">
    <path d="M 242.656219 390.04 
L 245.376591 390.04 
L 245.376591 388.347272 
L 242.656219 388.347272 
z
" clip-path="url(#p83457029e5)" style="fill: #ffa500"/>
   </g>
   <g id="patch_75">
    <path d="M 245.376591 390.04 
L 248.096963 390.04 
L 248.096963 387.209658 
L 245.376591 387.209658 
z
" clip-path="url(#p83457029e5)" style="fill: #008000"/>
   </g>
   <g id="patch_76">
    <path d="M 248.096963 390.04 
L 250.817335 390.04 
L 250.817335 386.691005 
L 248.096963 386.691005 
z
" clip-path="url(#p83457029e5)" style="fill: #008000"/>
   </g>
   <g id="patch_77">
    <path d="M 250.817335 390.04 
L 253.537707 390.04 
L 253.537707 387.652426 
L 250.817335 387.652426 
z
" clip-path="url(#p83457029e5)" style="fill: #008000"/>
   </g>
   <g id="patch_78">
    <path d="M 253.537707 390.04 
L 256.258079 390.04 
L 256.258079 386.905486 
L 253.537707 386.905486 
z
" clip-path="url(#p83457029e5)" style="fill: #008000"/>
   </g>
   <g id="patch_79">
    <path d="M 256.258079 390.04 
L 258.97845 390.04 
L 258.97845 381.395615 
L 256.258079 381.395615 
z
" clip-path="url(#p83457029e5)" style="fill: #008000"/>
   </g>
   <g id="patch_80">
    <path d="M 258.97845 390.04 
L 261.698822 390.04 
L 261.698822 387.103409 
L 258.97845 387.103409 
z
" clip-path="url(#p83457029e5)" style="fill: #008000"/>
   </g>
   <g id="patch_81">
    <path d="M 261.698822 390.04 
L 264.419194 390.04 
L 264.419194 387.38609 
L 261.698822 387.38609 
z
" clip-path="url(#p83457029e5)" style="fill: #008000"/>
   </g>
   <g id="patch_82">
    <path d="M 264.419194 390.04 
L 267.139566 390.04 
L 267.139566 387.054613 
L 264.419194 387.054613 
z
" clip-path="url(#p83457029e5)" style="fill: #008000"/>
   </g>
   <g id="patch_83">
    <path d="M 267.139566 390.04 
L 269.859938 390.04 
L 269.859938 387.516409 
L 267.139566 387.516409 
z
" clip-path="url(#p83457029e5)" style="fill: #008000"/>
   </g>
   <g id="patch_84">
    <path d="M 269.859938 390.04 
L 272.58031 390.04 
L 272.58031 387.439942 
L 269.859938 387.439942 
z
" clip-path="url(#p83457029e5)" style="fill: #008000"/>
   </g>
   <g id="patch_85">
    <path d="M 272.58031 390.04 
L 275.300682 390.04 
L 275.300682 387.164788 
L 272.58031 387.164788 
z
" clip-path="url(#p83457029e5)" style="fill: #008000"/>
   </g>
   <g id="patch_86">
    <path d="M 275.300682 390.04 
L 278.021054 390.04 
L 278.021054 387.337251 
L 275.300682 387.337251 
z
" clip-path="url(#p83457029e5)" style="fill: #008000"/>
   </g>
   <g id="patch_87">
    <path d="M 278.021054 390.04 
L 280.741426 390.04 
L 280.741426 386.317201 
L 278.021054 386.317201 
z
" clip-path="url(#p83457029e5)" style="fill: #008000"/>
   </g>
   <g id="patch_88">
    <path d="M 280.741426 390.04 
L 283.461798 390.04 
L 283.461798 387.528136 
L 280.741426 387.528136 
z
" clip-path="url(#p83457029e5)" style="fill: #008000"/>
   </g>
   <g id="patch_89">
    <path d="M 283.461798 390.04 
L 286.182169 390.04 
L 286.182169 386.42276 
L 283.461798 386.42276 
z
" clip-path="url(#p83457029e5)" style="fill: #008000"/>
   </g>
   <g id="patch_90">
    <path d="M 286.182169 390.04 
L 288.902541 390.04 
L 288.902541 44.173333 
L 286.182169 44.173333 
z
" clip-path="url(#p83457029e5)" style="fill: #008000"/>
   </g>
   <g id="patch_91">
    <path d="M 288.902541 390.04 
L 291.622913 390.04 
L 291.622913 387.996264 
L 288.902541 387.996264 
z
" clip-path="url(#p83457029e5)" style="fill: #ffa500"/>
   </g>
   <g id="patch_92">
    <path d="M 291.622913 390.04 
L 294.343285 390.04 
L 294.343285 388.047348 
L 291.622913 388.047348 
z
" clip-path="url(#p83457029e5)" style="fill: #ffa500"/>
   </g>
   <g id="patch_93">
    <path d="M 294.343285 390.04 
L 297.063657 390.04 
L 297.063657 387.357921 
L 294.343285 387.357921 
z
" clip-path="url(#p83457029e5)" style="fill: #008000"/>
   </g>
   <g id="patch_94">
    <path d="M 297.063657 390.04 
L 299.784029 390.04 
L 299.784029 387.321146 
L 297.063657 387.321146 
z
" clip-path="url(#p83457029e5)" style="fill: #008000"/>
   </g>
   <g id="patch_95">
    <path d="M 299.784029 390.04 
L 302.504401 390.04 
L 302.504401 387.332916 
L 299.784029 387.332916 
z
" clip-path="url(#p83457029e5)" style="fill: #008000"/>
   </g>
   <g id="patch_96">
    <path d="M 302.504401 390.04 
L 305.224773 390.04 
L 305.224773 388.233873 
L 302.504401 388.233873 
z
" clip-path="url(#p83457029e5)" style="fill: #ffa500"/>
   </g>
   <g id="patch_97">
    <path d="M 305.224773 390.04 
L 307.945145 390.04 
L 307.945145 387.510828 
L 305.224773 387.510828 
z
" clip-path="url(#p83457029e5)" style="fill: #008000"/>
   </g>
   <g id="patch_98">
    <path d="M 307.945145 390.04 
L 310.665517 390.04 
L 310.665517 387.799476 
L 307.945145 387.799476 
z
" clip-path="url(#p83457029e5)" style="fill: #008000"/>
   </g>
   <g id="patch_99">
    <path d="M 310.665517 390.04 
L 313.385888 390.04 
L 313.385888 387.318877 
L 310.665517 387.318877 
z
" clip-path="url(#p83457029e5)" style="fill: #008000"/>
   </g>
   <g id="patch_100">
    <path d="M 313.385888 390.04 
L 316.10626 390.04 
L 316.10626 387.703551 
L 313.385888 387.703551 
z
" clip-path="url(#p83457029e5)" style="fill: #008000"/>
   </g>
   <g id="patch_101">
    <path d="M 316.10626 390.04 
L 318.826632 390.04 
L 318.826632 387.565578 
L 316.10626 387.565578 
z
" clip-path="url(#p83457029e5)" style="fill: #008000"/>
   </g>
   <g id="patch_102">
    <path d="M 318.826632 390.04 
L 321.547004 390.04 
L 321.547004 388.412732 
L 318.826632 388.412732 
z
" clip-path="url(#p83457029e5)" style="fill: #ff0000"/>
   </g>
   <g id="patch_103">
    <path d="M 321.547004 390.04 
L 324.267376 390.04 
L 324.267376 387.588914 
L 321.547004 387.588914 
z
" clip-path="url(#p83457029e5)" style="fill: #008000"/>
   </g>
   <g id="patch_104">
    <path d="M 324.267376 390.04 
L 326.987748 390.04 
L 326.987748 387.780588 
L 324.267376 387.780588 
z
" clip-path="url(#p83457029e5)" style="fill: #008000"/>
   </g>
   <g id="patch_105">
    <path d="M 326.987748 390.04 
L 329.70812 390.04 
L 329.70812 387.349335 
L 326.987748 387.349335 
z
" clip-path="url(#p83457029e5)" style="fill: #008000"/>
   </g>
   <g id="patch_106">
    <path d="M 329.70812 390.04 
L 332.428492 390.04 
L 332.428492 387.472431 
L 329.70812 387.472431 
z
" clip-path="url(#p83457029e5)" style="fill: #008000"/>
   </g>
   <g id="patch_107">
    <path d="M 332.428492 390.04 
L 335.148864 390.04 
L 335.148864 387.247426 
L 332.428492 387.247426 
z
" clip-path="url(#p83457029e5)" style="fill: #008000"/>
   </g>
   <g id="patch_108">
    <path d="M 335.148864 390.04 
L 337.869236 390.04 
L 337.869236 387.3471 
L 335.148864 387.3471 
z
" clip-path="url(#p83457029e5)" style="fill: #008000"/>
   </g>
   <g id="patch_109">
    <path d="M 337.869236 390.04 
L 340.589607 390.04 
L 340.589607 387.945552 
L 337.869236 387.945552 
z
" clip-path="url(#p83457029e5)" style="fill: #ffa500"/>
   </g>
   <g id="patch_110">
    <path d="M 340.589607 390.04 
L 343.309979 390.04 
L 343.309979 387.118227 
L 340.589607 387.118227 
z
" clip-path="url(#p83457029e5)" style="fill: #008000"/>
   </g>
   <g id="patch_111">
    <path d="M 343.309979 390.04 
L 346.030351 390.04 
L 346.030351 389.456425 
L 343.309979 389.456425 
z
" clip-path="url(#p83457029e5)" style="fill: #ff0000"/>
   </g>
   <g id="patch_112">
    <path d="M 346.030351 390.04 
L 348.750723 390.04 
L 348.750723 387.643689 
L 346.030351 387.643689 
z
" clip-path="url(#p83457029e5)" style="fill: #008000"/>
   </g>
   <g id="patch_113">
    <path d="M 348.750723 390.04 
L 351.471095 390.04 
L 351.471095 387.849854 
L 348.750723 387.849854 
z
" clip-path="url(#p83457029e5)" style="fill: #008000"/>
   </g>
   <g id="patch_114">
    <path d="M 351.471095 390.04 
L 354.191467 390.04 
L 354.191467 387.480955 
L 351.471095 387.480955 
z
" clip-path="url(#p83457029e5)" style="fill: #008000"/>
   </g>
   <g id="patch_115">
    <path d="M 354.191467 390.04 
L 356.911839 390.04 
L 356.911839 387.438779 
L 354.191467 387.438779 
z
" clip-path="url(#p83457029e5)" style="fill: #008000"/>
   </g>
   <g id="patch_116">
    <path d="M 356.911839 390.04 
L 359.632211 390.04 
L 359.632211 387.055243 
L 356.911839 387.055243 
z
" clip-path="url(#p83457029e5)" style="fill: #008000"/>
   </g>
   <g id="patch_117">
    <path d="M 359.632211 390.04 
L 362.352583 390.04 
L 362.352583 387.060113 
L 359.632211 387.060113 
z
" clip-path="url(#p83457029e5)" style="fill: #008000"/>
   </g>
   <g id="patch_118">
    <path d="M 362.352583 390.04 
L 365.072955 390.04 
L 365.072955 384.462089 
L 362.352583 384.462089 
z
" clip-path="url(#p83457029e5)" style="fill: #008000"/>
   </g>
   <g id="patch_119">
    <path d="M 365.072955 390.04 
L 367.793326 390.04 
L 367.793326 387.270342 
L 365.072955 387.270342 
z
" clip-path="url(#p83457029e5)" style="fill: #008000"/>
   </g>
   <g id="patch_120">
    <path d="M 367.793326 390.04 
L 370.513698 390.04 
L 370.513698 387.934278 
L 367.793326 387.934278 
z
" clip-path="url(#p83457029e5)" style="fill: #ffa500"/>
   </g>
   <g id="patch_121">
    <path d="M 370.513698 390.04 
L 373.23407 390.04 
L 373.23407 387.28485 
L 370.513698 387.28485 
z
" clip-path="url(#p83457029e5)" style="fill: #008000"/>
   </g>
   <g id="patch_122">
    <path d="M 373.23407 390.04 
L 375.954442 390.04 
L 375.954442 386.464528 
L 373.23407 386.464528 
z
" clip-path="url(#p83457029e5)" style="fill: #008000"/>
   </g>
   <g id="patch_123">
    <path d="M 375.954442 390.04 
L 378.674814 390.04 
L 378.674814 388.39818 
L 375.954442 388.39818 
z
" clip-path="url(#p83457029e5)" style="fill: #ff0000"/>
   </g>
   <g id="patch_124">
    <path d="M 378.674814 390.04 
L 381.395186 390.04 
L 381.395186 387.844841 
L 378.674814 387.844841 
z
" clip-path="url(#p83457029e5)" style="fill: #008000"/>
   </g>
   <g id="patch_125">
    <path d="M 381.395186 390.04 
L 384.115558 390.04 
L 384.115558 387.303528 
L 381.395186 387.303528 
z
" clip-path="url(#p83457029e5)" style="fill: #008000"/>
   </g>
   <g id="patch_126">
    <path d="M 384.115558 390.04 
L 386.83593 390.04 
L 386.83593 387.591525 
L 384.115558 387.591525 
z
" clip-path="url(#p83457029e5)" style="fill: #008000"/>
   </g>
   <g id="patch_127">
    <path d="M 386.83593 390.04 
L 389.556302 390.04 
L 389.556302 387.5111 
L 386.83593 387.5111 
z
" clip-path="url(#p83457029e5)" style="fill: #008000"/>
   </g>
   <g id="patch_128">
    <path d="M 389.556302 390.04 
L 392.276674 390.04 
L 392.276674 387.670257 
L 389.556302 387.670257 
z
" clip-path="url(#p83457029e5)" style="fill: #008000"/>
   </g>
   <g id="patch_129">
    <path d="M 392.276674 390.04 
L 394.997045 390.04 
L 394.997045 387.607017 
L 392.276674 387.607017 
z
" clip-path="url(#p83457029e5)" style="fill: #008000"/>
   </g>
   <g id="patch_130">
    <path d="M 394.997045 390.04 
L 397.717417 390.04 
L 397.717417 388.092416 
L 394.997045 388.092416 
z
" clip-path="url(#p83457029e5)" style="fill: #ffa500"/>
   </g>
   <g id="patch_131">
    <path d="M 397.717417 390.04 
L 400.437789 390.04 
L 400.437789 387.737796 
L 397.717417 387.737796 
z
" clip-path="url(#p83457029e5)" style="fill: #008000"/>
   </g>
   <g id="patch_132">
    <path d="M 400.437789 390.04 
L 403.158161 390.04 
L 403.158161 387.247703 
L 400.437789 387.247703 
z
" clip-path="url(#p83457029e5)" style="fill: #008000"/>
   </g>
   <g id="patch_133">
    <path d="M 403.158161 390.04 
L 405.878533 390.04 
L 405.878533 388.179699 
L 403.158161 388.179699 
z
" clip-path="url(#p83457029e5)" style="fill: #ffa500"/>
   </g>
   <g id="patch_134">
    <path d="M 405.878533 390.04 
L 408.598905 390.04 
L 408.598905 387.634729 
L 405.878533 387.634729 
z
" clip-path="url(#p83457029e5)" style="fill: #008000"/>
   </g>
   <g id="patch_135">
    <path d="M 408.598905 390.04 
L 411.319277 390.04 
L 411.319277 388.293464 
L 408.598905 388.293464 
z
" clip-path="url(#p83457029e5)" style="fill: #ffa500"/>
   </g>
   <g id="patch_136">
    <path d="M 411.319277 390.04 
L 414.039649 390.04 
L 414.039649 387.765559 
L 411.319277 387.765559 
z
" clip-path="url(#p83457029e5)" style="fill: #008000"/>
   </g>
   <g id="patch_137">
    <path d="M 414.039649 390.04 
L 416.760021 390.04 
L 416.760021 387.851157 
L 414.039649 387.851157 
z
" clip-path="url(#p83457029e5)" style="fill: #008000"/>
   </g>
   <g id="patch_138">
    <path d="M 416.760021 390.04 
L 419.480393 390.04 
L 419.480393 387.74285 
L 416.760021 387.74285 
z
" clip-path="url(#p83457029e5)" style="fill: #008000"/>
   </g>
   <g id="patch_139">
    <path d="M 419.480393 390.04 
L 422.200764 390.04 
L 422.200764 386.870152 
L 419.480393 386.870152 
z
" clip-path="url(#p83457029e5)" style="fill: #008000"/>
   </g>
   <g id="patch_140">
    <path d="M 422.200764 390.04 
L 424.921136 390.04 
L 424.921136 387.809764 
L 422.200764 387.809764 
z
" clip-path="url(#p83457029e5)" style="fill: #008000"/>
   </g>
   <g id="patch_141">
    <path d="M 424.921136 390.04 
L 427.641508 390.04 
L 427.641508 386.352903 
L 424.921136 386.352903 
z
" clip-path="url(#p83457029e5)" style="fill: #008000"/>
   </g>
   <g id="patch_142">
    <path d="M 427.641508 390.04 
L 430.36188 390.04 
L 430.36188 387.603683 
L 427.641508 387.603683 
z
" clip-path="url(#p83457029e5)" style="fill: #008000"/>
   </g>
   <g id="patch_143">
    <path d="M 430.36188 390.04 
L 433.082252 390.04 
L 433.082252 387.35423 
L 430.36188 387.35423 
z
" clip-path="url(#p83457029e5)" style="fill: #008000"/>
   </g>
   <g id="patch_144">
    <path d="M 433.082252 390.04 
L 435.802624 390.04 
L 435.802624 387.418143 
L 433.082252 387.418143 
z
" clip-path="url(#p83457029e5)" style="fill: #008000"/>
   </g>
   <g id="patch_145">
    <path d="M 435.802624 390.04 
L 438.522996 390.04 
L 438.522996 387.021003 
L 435.802624 387.021003 
z
" clip-path="url(#p83457029e5)" style="fill: #008000"/>
   </g>
   <g id="patch_146">
    <path d="M 438.522996 390.04 
L 441.243368 390.04 
L 441.243368 387.452238 
L 438.522996 387.452238 
z
" clip-path="url(#p83457029e5)" style="fill: #008000"/>
   </g>
   <g id="patch_147">
    <path d="M 441.243368 390.04 
L 443.96374 390.04 
L 443.96374 388.048504 
L 441.243368 388.048504 
z
" clip-path="url(#p83457029e5)" style="fill: #ffa500"/>
   </g>
   <g id="patch_148">
    <path d="M 443.96374 390.04 
L 446.684112 390.04 
L 446.684112 386.855048 
L 443.96374 386.855048 
z
" clip-path="url(#p83457029e5)" style="fill: #008000"/>
   </g>
   <g id="patch_149">
    <path d="M 446.684112 390.04 
L 449.404483 390.04 
L 449.404483 387.526649 
L 446.684112 387.526649 
z
" clip-path="url(#p83457029e5)" style="fill: #008000"/>
   </g>
   <g id="patch_150">
    <path d="M 449.404483 390.04 
L 452.124855 390.04 
L 452.124855 387.68526 
L 449.404483 387.68526 
z
" clip-path="url(#p83457029e5)" style="fill: #008000"/>
   </g>
   <g id="patch_151">
    <path d="M 452.124855 390.04 
L 454.845227 390.04 
L 454.845227 386.589263 
L 452.124855 386.589263 
z
" clip-path="url(#p83457029e5)" style="fill: #008000"/>
   </g>
   <g id="patch_152">
    <path d="M 454.845227 390.04 
L 457.565599 390.04 
L 457.565599 384.339047 
L 454.845227 384.339047 
z
" clip-path="url(#p83457029e5)" style="fill: #008000"/>
   </g>
   <g id="patch_153">
    <path d="M 457.565599 390.04 
L 460.285971 390.04 
L 460.285971 386.817704 
L 457.565599 386.817704 
z
" clip-path="url(#p83457029e5)" style="fill: #008000"/>
   </g>
   <g id="patch_154">
    <path d="M 460.285971 390.04 
L 463.006343 390.04 
L 463.006343 387.859954 
L 460.285971 387.859954 
z
" clip-path="url(#p83457029e5)" style="fill: #008000"/>
   </g>
   <g id="patch_155">
    <path d="M 463.006343 390.04 
L 465.726715 390.04 
L 465.726715 386.622679 
L 463.006343 386.622679 
z
" clip-path="url(#p83457029e5)" style="fill: #008000"/>
   </g>
   <g id="patch_156">
    <path d="M 465.726715 390.04 
L 468.447087 390.04 
L 468.447087 387.765803 
L 465.726715 387.765803 
z
" clip-path="url(#p83457029e5)" style="fill: #008000"/>
   </g>
   <g id="patch_157">
    <path d="M 468.447087 390.04 
L 471.167459 390.04 
L 471.167459 388.63811 
L 468.447087 388.63811 
z
" clip-path="url(#p83457029e5)" style="fill: #ff0000"/>
   </g>
   <g id="patch_158">
    <path d="M 471.167459 390.04 
L 473.887831 390.04 
L 473.887831 387.69437 
L 471.167459 387.69437 
z
" clip-path="url(#p83457029e5)" style="fill: #008000"/>
   </g>
   <g id="patch_159">
    <path d="M 473.887831 390.04 
L 476.608202 390.04 
L 476.608202 386.051977 
L 473.887831 386.051977 
z
" clip-path="url(#p83457029e5)" style="fill: #008000"/>
   </g>
   <g id="patch_160">
    <path d="M 476.608202 390.04 
L 479.328574 390.04 
L 479.328574 387.625677 
L 476.608202 387.625677 
z
" clip-path="url(#p83457029e5)" style="fill: #008000"/>
   </g>
   <g id="patch_161">
    <path d="M 479.328574 390.04 
L 482.048946 390.04 
L 482.048946 387.068004 
L 479.328574 387.068004 
z
" clip-path="url(#p83457029e5)" style="fill: #008000"/>
   </g>
   <g id="patch_162">
    <path d="M 482.048946 390.04 
L 484.769318 390.04 
L 484.769318 385.859141 
L 482.048946 385.859141 
z
" clip-path="url(#p83457029e5)" style="fill: #008000"/>
   </g>
   <g id="patch_163">
    <path d="M 484.769318 390.04 
L 487.48969 390.04 
L 487.48969 384.638435 
L 484.769318 384.638435 
z
" clip-path="url(#p83457029e5)" style="fill: #008000"/>
   </g>
   <g id="patch_164">
    <path d="M 487.48969 390.04 
L 490.210062 390.04 
L 490.210062 387.529087 
L 487.48969 387.529087 
z
" clip-path="url(#p83457029e5)" style="fill: #008000"/>
   </g>
   <g id="patch_165">
    <path d="M 490.210062 390.04 
L 492.930434 390.04 
L 492.930434 386.704703 
L 490.210062 386.704703 
z
" clip-path="url(#p83457029e5)" style="fill: #008000"/>
   </g>
   <g id="patch_166">
    <path d="M 492.930434 390.04 
L 495.650806 390.04 
L 495.650806 388.130115 
L 492.930434 388.130115 
z
" clip-path="url(#p83457029e5)" style="fill: #ffa500"/>
   </g>
   <g id="patch_167">
    <path d="M 495.650806 390.04 
L 498.371178 390.04 
L 498.371178 384.576624 
L 495.650806 384.576624 
z
" clip-path="url(#p83457029e5)" style="fill: #008000"/>
   </g>
   <g id="patch_168">
    <path d="M 498.371178 390.04 
L 501.09155 390.04 
L 501.09155 387.371593 
L 498.371178 387.371593 
z
" clip-path="url(#p83457029e5)" style="fill: #008000"/>
   </g>
   <g id="patch_169">
    <path d="M 501.09155 390.04 
L 503.811921 390.04 
L 503.811921 387.579516 
L 501.09155 387.579516 
z
" clip-path="url(#p83457029e5)" style="fill: #008000"/>
   </g>
   <g id="patch_170">
    <path d="M 503.811921 390.04 
L 506.532293 390.04 
L 506.532293 387.451993 
L 503.811921 387.451993 
z
" clip-path="url(#p83457029e5)" style="fill: #008000"/>
   </g>
   <g id="patch_171">
    <path d="M 506.532293 390.04 
L 509.252665 390.04 
L 509.252665 387.425958 
L 506.532293 387.425958 
z
" clip-path="url(#p83457029e5)" style="fill: #008000"/>
   </g>
   <g id="patch_172">
    <path d="M 509.252665 390.04 
L 511.973037 390.04 
L 511.973037 387.269861 
L 509.252665 387.269861 
z
" clip-path="url(#p83457029e5)" style="fill: #008000"/>
   </g>
   <g id="patch_173">
    <path d="M 511.973037 390.04 
L 514.693409 390.04 
L 514.693409 387.556479 
L 511.973037 387.556479 
z
" clip-path="url(#p83457029e5)" style="fill: #008000"/>
   </g>
   <g id="patch_174">
    <path d="M 514.693409 390.04 
L 517.413781 390.04 
L 517.413781 386.317166 
L 514.693409 386.317166 
z
" clip-path="url(#p83457029e5)" style="fill: #008000"/>
   </g>
   <g id="patch_175">
    <path d="M 517.413781 390.04 
L 520.134153 390.04 
L 520.134153 387.294447 
L 517.413781 387.294447 
z
" clip-path="url(#p83457029e5)" style="fill: #008000"/>
   </g>
   <g id="patch_176">
    <path d="M 520.134153 390.04 
L 522.854525 390.04 
L 522.854525 387.64865 
L 520.134153 387.64865 
z
" clip-path="url(#p83457029e5)" style="fill: #008000"/>
   </g>
   <g id="patch_177">
    <path d="M 522.854525 390.04 
L 525.574897 390.04 
L 525.574897 387.842489 
L 522.854525 387.842489 
z
" clip-path="url(#p83457029e5)" style="fill: #008000"/>
   </g>
   <g id="patch_178">
    <path d="M 525.574897 390.04 
L 528.295269 390.04 
L 528.295269 388.063469 
L 525.574897 388.063469 
z
" clip-path="url(#p83457029e5)" style="fill: #ffa500"/>
   </g>
   <g id="patch_179">
    <path d="M 528.295269 390.04 
L 531.01564 390.04 
L 531.01564 387.614392 
L 528.295269 387.614392 
z
" clip-path="url(#p83457029e5)" style="fill: #008000"/>
   </g>
   <g id="patch_180">
    <path d="M 531.01564 390.04 
L 533.736012 390.04 
L 533.736012 387.223581 
L 531.01564 387.223581 
z
" clip-path="url(#p83457029e5)" style="fill: #008000"/>
   </g>
   <g id="patch_181">
    <path d="M 533.736012 390.04 
L 536.456384 390.04 
L 536.456384 385.834344 
L 533.736012 385.834344 
z
" clip-path="url(#p83457029e5)" style="fill: #008000"/>
   </g>
   <g id="patch_182">
    <path d="M 536.456384 390.04 
L 539.176756 390.04 
L 539.176756 387.602227 
L 536.456384 387.602227 
z
" clip-path="url(#p83457029e5)" style="fill: #008000"/>
   </g>
   <g id="patch_183">
    <path d="M 539.176756 390.04 
L 541.897128 390.04 
L 541.897128 386.985411 
L 539.176756 386.985411 
z
" clip-path="url(#p83457029e5)" style="fill: #008000"/>
   </g>
   <g id="patch_184">
    <path d="M 541.897128 390.04 
L 544.6175 390.04 
L 544.6175 385.951146 
L 541.897128 385.951146 
z
" clip-path="url(#p83457029e5)" style="fill: #008000"/>
   </g>
   <g id="patch_185">
    <path d="M 544.6175 390.04 
L 547.337872 390.04 
L 547.337872 386.686138 
L 544.6175 386.686138 
z
" clip-path="url(#p83457029e5)" style="fill: #008000"/>
   </g>
   <g id="patch_186">
    <path d="M 547.337872 390.04 
L 550.058244 390.04 
L 550.058244 386.792498 
L 547.337872 386.792498 
z
" clip-path="url(#p83457029e5)" style="fill: #008000"/>
   </g>
   <g id="patch_187">
    <path d="M 550.058244 390.04 
L 552.778616 390.04 
L 552.778616 386.855623 
L 550.058244 386.855623 
z
" clip-path="url(#p83457029e5)" style="fill: #008000"/>
   </g>
   <g id="patch_188">
    <path d="M 552.778616 390.04 
L 555.498988 390.04 
L 555.498988 387.010164 
L 552.778616 387.010164 
z
" clip-path="url(#p83457029e5)" style="fill: #008000"/>
   </g>
   <g id="patch_189">
    <path d="M 555.498988 390.04 
L 558.21936 390.04 
L 558.21936 386.648859 
L 555.498988 386.648859 
z
" clip-path="url(#p83457029e5)" style="fill: #008000"/>
   </g>
   <g id="patch_190">
    <path d="M 558.21936 390.04 
L 560.939731 390.04 
L 560.939731 387.12446 
L 558.21936 387.12446 
z
" clip-path="url(#p83457029e5)" style="fill: #008000"/>
   </g>
   <g id="patch_191">
    <path d="M 560.939731 390.04 
L 563.660103 390.04 
L 563.660103 387.312532 
L 560.939731 387.312532 
z
" clip-path="url(#p83457029e5)" style="fill: #008000"/>
   </g>
   <g id="patch_192">
    <path d="M 563.660103 390.04 
L 566.380475 390.04 
L 566.380475 387.896288 
L 563.660103 387.896288 
z
" clip-path="url(#p83457029e5)" style="fill: #ffa500"/>
   </g>
   <g id="patch_193">
    <path d="M 566.380475 390.04 
L 569.100847 390.04 
L 569.100847 387.098234 
L 566.380475 387.098234 
z
" clip-path="url(#p83457029e5)" style="fill: #008000"/>
   </g>
   <g id="patch_194">
    <path d="M 569.100847 390.04 
L 571.821219 390.04 
L 571.821219 387.810989 
L 569.100847 387.810989 
z
" clip-path="url(#p83457029e5)" style="fill: #008000"/>
   </g>
   <g id="patch_195">
    <path d="M 571.821219 390.04 
L 574.541591 390.04 
L 574.541591 386.158629 
L 571.821219 386.158629 
z
" clip-path="url(#p83457029e5)" style="fill: #008000"/>
   </g>
   <g id="patch_196">
    <path d="M 574.541591 390.04 
L 577.261963 390.04 
L 577.261963 386.844176 
L 574.541591 386.844176 
z
" clip-path="url(#p83457029e5)" style="fill: #008000"/>
   </g>
   <g id="patch_197">
    <path d="M 577.261963 390.04 
L 579.982335 390.04 
L 579.982335 387.53792 
L 577.261963 387.53792 
z
" clip-path="url(#p83457029e5)" style="fill: #008000"/>
   </g>
   <g id="patch_198">
    <path d="M 579.982335 390.04 
L 582.702707 390.04 
L 582.702707 385.525086 
L 579.982335 385.525086 
z
" clip-path="url(#p83457029e5)" style="fill: #008000"/>
   </g>
   <g id="patch_199">
    <path d="M 582.702707 390.04 
L 585.423079 390.04 
L 585.423079 385.545755 
L 582.702707 385.545755 
z
" clip-path="url(#p83457029e5)" style="fill: #008000"/>
   </g>
   <g id="patch_200">
    <path d="M 585.423079 390.04 
L 588.14345 390.04 
L 588.14345 387.599314 
L 585.423079 387.599314 
z
" clip-path="url(#p83457029e5)" style="fill: #008000"/>
   </g>
   <g id="patch_201">
    <path d="M 588.14345 390.04 
L 590.863822 390.04 
L 590.863822 385.023723 
L 588.14345 385.023723 
z
" clip-path="url(#p83457029e5)" style="fill: #008000"/>
   </g>
   <g id="patch_202">
    <path d="M 590.863822 390.04 
L 593.584194 390.04 
L 593.584194 386.718891 
L 590.863822 386.718891 
z
" clip-path="url(#p83457029e5)" style="fill: #008000"/>
   </g>
   <g id="patch_203">
    <path d="M 593.584194 390.04 
L 596.304566 390.04 
L 596.304566 386.669101 
L 593.584194 386.669101 
z
" clip-path="url(#p83457029e5)" style="fill: #008000"/>
   </g>
   <g id="patch_204">
    <path d="M 596.304566 390.04 
L 599.024938 390.04 
L 599.024938 385.88292 
L 596.304566 385.88292 
z
" clip-path="url(#p83457029e5)" style="fill: #008000"/>
   </g>
   <g id="patch_205">
    <path d="M 599.024938 390.04 
L 601.74531 390.04 
L 601.74531 386.911238 
L 599.024938 386.911238 
z
" clip-path="url(#p83457029e5)" style="fill: #008000"/>
   </g>
   <g id="patch_206">
    <path d="M 601.74531 390.04 
L 604.465682 390.04 
L 604.465682 385.775783 
L 601.74531 385.775783 
z
" clip-path="url(#p83457029e5)" style="fill: #008000"/>
   </g>
   <g id="patch_207">
    <path d="M 604.465682 390.04 
L 607.186054 390.04 
L 607.186054 387.65845 
L 604.465682 387.65845 
z
" clip-path="url(#p83457029e5)" style="fill: #008000"/>
   </g>
   <g id="patch_208">
    <path d="M 607.186054 390.04 
L 609.906426 390.04 
L 609.906426 380.340142 
L 607.186054 380.340142 
z
" clip-path="url(#p83457029e5)" style="fill: #008000"/>
   </g>
   <g id="patch_209">
    <path d="M 609.906426 390.04 
L 612.626798 390.04 
L 612.626798 386.262007 
L 609.906426 386.262007 
z
" clip-path="url(#p83457029e5)" style="fill: #008000"/>
   </g>
   <g id="patch_210">
    <path d="M 612.626798 390.04 
L 615.347169 390.04 
L 615.347169 386.425229 
L 612.626798 386.425229 
z
" clip-path="url(#p83457029e5)" style="fill: #008000"/>
   </g>
   <g id="patch_211">
    <path d="M 615.347169 390.04 
L 618.067541 390.04 
L 618.067541 387.142977 
L 615.347169 387.142977 
z
" clip-path="url(#p83457029e5)" style="fill: #008000"/>
   </g>
   <g id="patch_212">
    <path d="M 618.067541 390.04 
L 620.787913 390.04 
L 620.787913 383.238111 
L 618.067541 383.238111 
z
" clip-path="url(#p83457029e5)" style="fill: #008000"/>
   </g>
   <g id="patch_213">
    <path d="M 620.787913 390.04 
L 623.508285 390.04 
L 623.508285 387.329789 
L 620.787913 387.329789 
z
" clip-path="url(#p83457029e5)" style="fill: #008000"/>
   </g>
   <g id="patch_214">
    <path d="M 623.508285 390.04 
L 626.228657 390.04 
L 626.228657 387.473199 
L 623.508285 387.473199 
z
" clip-path="url(#p83457029e5)" style="fill: #008000"/>
   </g>
   <g id="patch_215">
    <path d="M 626.228657 390.04 
L 628.949029 390.04 
L 628.949029 387.463251 
L 626.228657 387.463251 
z
" clip-path="url(#p83457029e5)" style="fill: #008000"/>
   </g>
   <g id="patch_216">
    <path d="M 628.949029 390.04 
L 631.669401 390.04 
L 631.669401 387.648004 
L 628.949029 387.648004 
z
" clip-path="url(#p83457029e5)" style="fill: #008000"/>
   </g>
   <g id="patch_217">
    <path d="M 631.669401 390.04 
L 634.389773 390.04 
L 634.389773 385.755976 
L 631.669401 385.755976 
z
" clip-path="url(#p83457029e5)" style="fill: #008000"/>
   </g>
   <g id="patch_218">
    <path d="M 634.389773 390.04 
L 637.110145 390.04 
L 637.110145 383.003901 
L 634.389773 383.003901 
z
" clip-path="url(#p83457029e5)" style="fill: #008000"/>
   </g>
   <g id="patch_219">
    <path d="M 637.110145 390.04 
L 639.830517 390.04 
L 639.830517 387.708242 
L 637.110145 387.708242 
z
" clip-path="url(#p83457029e5)" style="fill: #008000"/>
   </g>
   <g id="patch_220">
    <path d="M 639.830517 390.04 
L 642.550888 390.04 
L 642.550888 386.579757 
L 639.830517 386.579757 
z
" clip-path="url(#p83457029e5)" style="fill: #008000"/>
   </g>
   <g id="patch_221">
    <path d="M 642.550888 390.04 
L 645.27126 390.04 
L 645.27126 387.718897 
L 642.550888 387.718897 
z
" clip-path="url(#p83457029e5)" style="fill: #008000"/>
   </g>
   <g id="patch_222">
    <path d="M 645.27126 390.04 
L 647.991632 390.04 
L 647.991632 387.612968 
L 645.27126 387.612968 
z
" clip-path="url(#p83457029e5)" style="fill: #008000"/>
   </g>
   <g id="patch_223">
    <path d="M 647.991632 390.04 
L 650.712004 390.04 
L 650.712004 387.529041 
L 647.991632 387.529041 
z
" clip-path="url(#p83457029e5)" style="fill: #008000"/>
   </g>
   <g id="patch_224">
    <path d="M 650.712004 390.04 
L 653.432376 390.04 
L 653.432376 387.754886 
L 650.712004 387.754886 
z
" clip-path="url(#p83457029e5)" style="fill: #008000"/>
   </g>
   <g id="patch_225">
    <path d="M 653.432376 390.04 
L 656.152748 390.04 
L 656.152748 382.619527 
L 653.432376 382.619527 
z
" clip-path="url(#p83457029e5)" style="fill: #008000"/>
   </g>
   <g id="patch_226">
    <path d="M 656.152748 390.04 
L 658.87312 390.04 
L 658.87312 387.479391 
L 656.152748 387.479391 
z
" clip-path="url(#p83457029e5)" style="fill: #008000"/>
   </g>
   <g id="patch_227">
    <path d="M 658.87312 390.04 
L 661.593492 390.04 
L 661.593492 387.471615 
L 658.87312 387.471615 
z
" clip-path="url(#p83457029e5)" style="fill: #008000"/>
   </g>
   <g id="patch_228">
    <path d="M 661.593492 390.04 
L 664.313864 390.04 
L 664.313864 388.034296 
L 661.593492 388.034296 
z
" clip-path="url(#p83457029e5)" style="fill: #ffa500"/>
   </g>
   <g id="patch_229">
    <path d="M 664.313864 390.04 
L 667.034236 390.04 
L 667.034236 387.469903 
L 664.313864 387.469903 
z
" clip-path="url(#p83457029e5)" style="fill: #008000"/>
   </g>
   <g id="patch_230">
    <path d="M 667.034236 390.04 
L 669.754607 390.04 
L 669.754607 388.100159 
L 667.034236 388.100159 
z
" clip-path="url(#p83457029e5)" style="fill: #ffa500"/>
   </g>
   <g id="patch_231">
    <path d="M 669.754607 390.04 
L 672.474979 390.04 
L 672.474979 387.360241 
L 669.754607 387.360241 
z
" clip-path="url(#p83457029e5)" style="fill: #008000"/>
   </g>
   <g id="patch_232">
    <path d="M 672.474979 390.04 
L 675.195351 390.04 
L 675.195351 386.612348 
L 672.474979 386.612348 
z
" clip-path="url(#p83457029e5)" style="fill: #008000"/>
   </g>
   <g id="patch_233">
    <path d="M 675.195351 390.04 
L 677.915723 390.04 
L 677.915723 387.200748 
L 675.195351 387.200748 
z
" clip-path="url(#p83457029e5)" style="fill: #008000"/>
   </g>
   <g id="patch_234">
    <path d="M 677.915723 390.04 
L 680.636095 390.04 
L 680.636095 387.511084 
L 677.915723 387.511084 
z
" clip-path="url(#p83457029e5)" style="fill: #008000"/>
   </g>
   <g id="patch_235">
    <path d="M 680.636095 390.04 
L 683.356467 390.04 
L 683.356467 386.414502 
L 680.636095 386.414502 
z
" clip-path="url(#p83457029e5)" style="fill: #008000"/>
   </g>
   <g id="patch_236">
    <path d="M 683.356467 390.04 
L 686.076839 390.04 
L 686.076839 388.312602 
L 683.356467 388.312602 
z
" clip-path="url(#p83457029e5)" style="fill: #ffa500"/>
   </g>
   <g id="patch_237">
    <path d="M 686.076839 390.04 
L 688.797211 390.04 
L 688.797211 386.812785 
L 686.076839 386.812785 
z
" clip-path="url(#p83457029e5)" style="fill: #008000"/>
   </g>
   <g id="patch_238">
    <path d="M 688.797211 390.04 
L 691.517583 390.04 
L 691.517583 384.991964 
L 688.797211 384.991964 
z
" clip-path="url(#p83457029e5)" style="fill: #008000"/>
   </g>
   <g id="patch_239">
    <path d="M 691.517583 390.04 
L 694.237955 390.04 
L 694.237955 387.645171 
L 691.517583 387.645171 
z
" clip-path="url(#p83457029e5)" style="fill: #008000"/>
   </g>
   <g id="patch_240">
    <path d="M 694.237955 390.04 
L 696.958326 390.04 
L 696.958326 386.856943 
L 694.237955 386.856943 
z
" clip-path="url(#p83457029e5)" style="fill: #008000"/>
   </g>
   <g id="patch_241">
    <path d="M 696.958326 390.04 
L 699.678698 390.04 
L 699.678698 387.135535 
L 696.958326 387.135535 
z
" clip-path="url(#p83457029e5)" style="fill: #008000"/>
   </g>
   <g id="patch_242">
    <path d="M 699.678698 390.04 
L 702.39907 390.04 
L 702.39907 385.622703 
L 699.678698 385.622703 
z
" clip-path="url(#p83457029e5)" style="fill: #008000"/>
   </g>
   <g id="patch_243">
    <path d="M 702.39907 390.04 
L 705.119442 390.04 
L 705.119442 389.735791 
L 702.39907 389.735791 
z
" clip-path="url(#p83457029e5)" style="fill: #ff0000"/>
   </g>
   <g id="patch_244">
    <path d="M 705.119442 390.04 
L 707.839814 390.04 
L 707.839814 387.001124 
L 705.119442 387.001124 
z
" clip-path="url(#p83457029e5)" style="fill: #008000"/>
   </g>
   <g id="matplotlib.axis_1">
    <g id="xtick_1">
     <g id="line2d_1">
      <defs>
       <path id="mf685fa0d63" d="M 0 0 
L 0 3.5 
" style="stroke: #000000; stroke-width: 0.8"/>
      </defs>
      <g>
       <use xlink:href="#mf685fa0d63" x="50.87" y="390.04" style="stroke: #000000; stroke-width: 0.8"/>
      </g>
     </g>
     <g id="text_1">
      <!-- 0 -->
      <g transform="translate(47.68875 404.638438) scale(0.1 -0.1)">
       <defs>
        <path id="DejaVuSans-30" d="M 2034 4250 
Q 1547 4250 1301 3770 
Q 1056 3291 1056 2328 
Q 1056 1369 1301 889 
Q 1547 409 2034 409 
Q 2525 409 2770 889 
Q 3016 1369 3016 2328 
Q 3016 3291 2770 3770 
Q 2525 4250 2034 4250 
z
M 2034 4750 
Q 2819 4750 3233 4129 
Q 3647 3509 3647 2328 
Q 3647 1150 3233 529 
Q 2819 -91 2034 -91 
Q 1250 -91 836 529 
Q 422 1150 422 2328 
Q 422 3509 836 4129 
Q 1250 4750 2034 4750 
z
" transform="scale(0.015625)"/>
       </defs>
       <use xlink:href="#DejaVuSans-30"/>
      </g>
     </g>
    </g>
    <g id="xtick_2">
     <g id="line2d_2">
      <g>
       <use xlink:href="#mf685fa0d63" x="186.888595" y="390.04" style="stroke: #000000; stroke-width: 0.8"/>
      </g>
     </g>
     <g id="text_2">
      <!-- 50 -->
      <g transform="translate(180.526095 404.638438) scale(0.1 -0.1)">
       <defs>
        <path id="DejaVuSans-35" d="M 691 4666 
L 3169 4666 
L 3169 4134 
L 1269 4134 
L 1269 2991 
Q 1406 3038 1543 3061 
Q 1681 3084 1819 3084 
Q 2600 3084 3056 2656 
Q 3513 2228 3513 1497 
Q 3513 744 3044 326 
Q 2575 -91 1722 -91 
Q 1428 -91 1123 -41 
Q 819 9 494 109 
L 494 744 
Q 775 591 1075 516 
Q 1375 441 1709 441 
Q 2250 441 2565 725 
Q 2881 1009 2881 1497 
Q 2881 1984 2565 2268 
Q 2250 2553 1709 2553 
Q 1456 2553 1204 2497 
Q 953 2441 691 2322 
L 691 4666 
z
" transform="scale(0.015625)"/>
       </defs>
       <use xlink:href="#DejaVuSans-35"/>
       <use xlink:href="#DejaVuSans-30" transform="translate(63.623047 0)"/>
      </g>
     </g>
    </g>
    <g id="xtick_3">
     <g id="line2d_3">
      <g>
       <use xlink:href="#mf685fa0d63" x="322.90719" y="390.04" style="stroke: #000000; stroke-width: 0.8"/>
      </g>
     </g>
     <g id="text_3">
      <!-- 100 -->
      <g transform="translate(313.36344 404.638438) scale(0.1 -0.1)">
       <defs>
        <path id="DejaVuSans-31" d="M 794 531 
L 1825 531 
L 1825 4091 
L 703 3866 
L 703 4441 
L 1819 4666 
L 2450 4666 
L 2450 531 
L 3481 531 
L 3481 0 
L 794 0 
L 794 531 
z
" transform="scale(0.015625)"/>
       </defs>
       <use xlink:href="#DejaVuSans-31"/>
       <use xlink:href="#DejaVuSans-30" transform="translate(63.623047 0)"/>
       <use xlink:href="#DejaVuSans-30" transform="translate(127.246094 0)"/>
      </g>
     </g>
    </g>
    <g id="xtick_4">
     <g id="line2d_4">
      <g>
       <use xlink:href="#mf685fa0d63" x="458.925785" y="390.04" style="stroke: #000000; stroke-width: 0.8"/>
      </g>
     </g>
     <g id="text_4">
      <!-- 150 -->
      <g transform="translate(449.382035 404.638438) scale(0.1 -0.1)">
       <use xlink:href="#DejaVuSans-31"/>
       <use xlink:href="#DejaVuSans-35" transform="translate(63.623047 0)"/>
       <use xlink:href="#DejaVuSans-30" transform="translate(127.246094 0)"/>
      </g>
     </g>
    </g>
    <g id="xtick_5">
     <g id="line2d_5">
      <g>
       <use xlink:href="#mf685fa0d63" x="594.94438" y="390.04" style="stroke: #000000; stroke-width: 0.8"/>
      </g>
     </g>
     <g id="text_5">
      <!-- 200 -->
      <g transform="translate(585.40063 404.638438) scale(0.1 -0.1)">
       <defs>
        <path id="DejaVuSans-32" d="M 1228 531 
L 3431 531 
L 3431 0 
L 469 0 
L 469 531 
Q 828 903 1448 1529 
Q 2069 2156 2228 2338 
Q 2531 2678 2651 2914 
Q 2772 3150 2772 3378 
Q 2772 3750 2511 3984 
Q 2250 4219 1831 4219 
Q 1534 4219 1204 4116 
Q 875 4013 500 3803 
L 500 4441 
Q 881 4594 1212 4672 
Q 1544 4750 1819 4750 
Q 2544 4750 2975 4387 
Q 3406 4025 3406 3419 
Q 3406 3131 3298 2873 
Q 3191 2616 2906 2266 
Q 2828 2175 2409 1742 
Q 1991 1309 1228 531 
z
" transform="scale(0.015625)"/>
       </defs>
       <use xlink:href="#DejaVuSans-32"/>
       <use xlink:href="#DejaVuSans-30" transform="translate(63.623047 0)"/>
       <use xlink:href="#DejaVuSans-30" transform="translate(127.246094 0)"/>
      </g>
     </g>
    </g>
    <g id="text_6">
     <!-- Peak ID -->
     <g transform="translate(361.251406 418.316562) scale(0.1 -0.1)">
      <defs>
       <path id="DejaVuSans-50" d="M 1259 4147 
L 1259 2394 
L 2053 2394 
Q 2494 2394 2734 2622 
Q 2975 2850 2975 3272 
Q 2975 3691 2734 3919 
Q 2494 4147 2053 4147 
L 1259 4147 
z
M 628 4666 
L 2053 4666 
Q 2838 4666 3239 4311 
Q 3641 3956 3641 3272 
Q 3641 2581 3239 2228 
Q 2838 1875 2053 1875 
L 1259 1875 
L 1259 0 
L 628 0 
L 628 4666 
z
" transform="scale(0.015625)"/>
       <path id="DejaVuSans-65" d="M 3597 1894 
L 3597 1613 
L 953 1613 
Q 991 1019 1311 708 
Q 1631 397 2203 397 
Q 2534 397 2845 478 
Q 3156 559 3463 722 
L 3463 178 
Q 3153 47 2828 -22 
Q 2503 -91 2169 -91 
Q 1331 -91 842 396 
Q 353 884 353 1716 
Q 353 2575 817 3079 
Q 1281 3584 2069 3584 
Q 2775 3584 3186 3129 
Q 3597 2675 3597 1894 
z
M 3022 2063 
Q 3016 2534 2758 2815 
Q 2500 3097 2075 3097 
Q 1594 3097 1305 2825 
Q 1016 2553 972 2059 
L 3022 2063 
z
" transform="scale(0.015625)"/>
       <path id="DejaVuSans-61" d="M 2194 1759 
Q 1497 1759 1228 1600 
Q 959 1441 959 1056 
Q 959 750 1161 570 
Q 1363 391 1709 391 
Q 2188 391 2477 730 
Q 2766 1069 2766 1631 
L 2766 1759 
L 2194 1759 
z
M 3341 1997 
L 3341 0 
L 2766 0 
L 2766 531 
Q 2569 213 2275 61 
Q 1981 -91 1556 -91 
Q 1019 -91 701 211 
Q 384 513 384 1019 
Q 384 1609 779 1909 
Q 1175 2209 1959 2209 
L 2766 2209 
L 2766 2266 
Q 2766 2663 2505 2880 
Q 2244 3097 1772 3097 
Q 1472 3097 1187 3025 
Q 903 2953 641 2809 
L 641 3341 
Q 956 3463 1253 3523 
Q 1550 3584 1831 3584 
Q 2591 3584 2966 3190 
Q 3341 2797 3341 1997 
z
" transform="scale(0.015625)"/>
       <path id="DejaVuSans-6b" d="M 581 4863 
L 1159 4863 
L 1159 1991 
L 2875 3500 
L 3609 3500 
L 1753 1863 
L 3688 0 
L 2938 0 
L 1159 1709 
L 1159 0 
L 581 0 
L 581 4863 
z
" transform="scale(0.015625)"/>
       <path id="DejaVuSans-20" transform="scale(0.015625)"/>
       <path id="DejaVuSans-49" d="M 628 4666 
L 1259 4666 
L 1259 0 
L 628 0 
L 628 4666 
z
" transform="scale(0.015625)"/>
       <path id="DejaVuSans-44" d="M 1259 4147 
L 1259 519 
L 2022 519 
Q 2988 519 3436 956 
Q 3884 1394 3884 2338 
Q 3884 3275 3436 3711 
Q 2988 4147 2022 4147 
L 1259 4147 
z
M 628 4666 
L 1925 4666 
Q 3281 4666 3915 4102 
Q 4550 3538 4550 2338 
Q 4550 1131 3912 565 
Q 3275 0 1925 0 
L 628 0 
L 628 4666 
z
" transform="scale(0.015625)"/>
      </defs>
      <use xlink:href="#DejaVuSans-50"/>
      <use xlink:href="#DejaVuSans-65" transform="translate(56.677734 0)"/>
      <use xlink:href="#DejaVuSans-61" transform="translate(118.201172 0)"/>
      <use xlink:href="#DejaVuSans-6b" transform="translate(179.480469 0)"/>
      <use xlink:href="#DejaVuSans-20" transform="translate(237.390625 0)"/>
      <use xlink:href="#DejaVuSans-49" transform="translate(269.177734 0)"/>
      <use xlink:href="#DejaVuSans-44" transform="translate(298.669922 0)"/>
     </g>
    </g>
   </g>
   <g id="matplotlib.axis_2">
    <g id="ytick_1">
     <g id="line2d_6">
      <defs>
       <path id="m66d07c796f" d="M 0 0 
L -3.5 0 
" style="stroke: #000000; stroke-width: 0.8"/>
      </defs>
      <g>
       <use xlink:href="#m66d07c796f" x="50.87" y="390.04" style="stroke: #000000; stroke-width: 0.8"/>
      </g>
     </g>
     <g id="text_7">
      <!-- 0 -->
      <g transform="translate(37.5075 393.839219) scale(0.1 -0.1)">
       <use xlink:href="#DejaVuSans-30"/>
      </g>
     </g>
    </g>
    <g id="ytick_2">
     <g id="line2d_7">
      <g>
       <use xlink:href="#m66d07c796f" x="50.87" y="336.421617" style="stroke: #000000; stroke-width: 0.8"/>
      </g>
     </g>
     <g id="text_8">
      <!-- 20 -->
      <g transform="translate(31.145 340.220836) scale(0.1 -0.1)">
       <use xlink:href="#DejaVuSans-32"/>
       <use xlink:href="#DejaVuSans-30" transform="translate(63.623047 0)"/>
      </g>
     </g>
    </g>
    <g id="ytick_3">
     <g id="line2d_8">
      <g>
       <use xlink:href="#m66d07c796f" x="50.87" y="282.803234" style="stroke: #000000; stroke-width: 0.8"/>
      </g>
     </g>
     <g id="text_9">
      <!-- 40 -->
      <g transform="translate(31.145 286.602453) scale(0.1 -0.1)">
       <defs>
        <path id="DejaVuSans-34" d="M 2419 4116 
L 825 1625 
L 2419 1625 
L 2419 4116 
z
M 2253 4666 
L 3047 4666 
L 3047 1625 
L 3713 1625 
L 3713 1100 
L 3047 1100 
L 3047 0 
L 2419 0 
L 2419 1100 
L 313 1100 
L 313 1709 
L 2253 4666 
z
" transform="scale(0.015625)"/>
       </defs>
       <use xlink:href="#DejaVuSans-34"/>
       <use xlink:href="#DejaVuSans-30" transform="translate(63.623047 0)"/>
      </g>
     </g>
    </g>
    <g id="ytick_4">
     <g id="line2d_9">
      <g>
       <use xlink:href="#m66d07c796f" x="50.87" y="229.184851" style="stroke: #000000; stroke-width: 0.8"/>
      </g>
     </g>
     <g id="text_10">
      <!-- 60 -->
      <g transform="translate(31.145 232.984069) scale(0.1 -0.1)">
       <defs>
        <path id="DejaVuSans-36" d="M 2113 2584 
Q 1688 2584 1439 2293 
Q 1191 2003 1191 1497 
Q 1191 994 1439 701 
Q 1688 409 2113 409 
Q 2538 409 2786 701 
Q 3034 994 3034 1497 
Q 3034 2003 2786 2293 
Q 2538 2584 2113 2584 
z
M 3366 4563 
L 3366 3988 
Q 3128 4100 2886 4159 
Q 2644 4219 2406 4219 
Q 1781 4219 1451 3797 
Q 1122 3375 1075 2522 
Q 1259 2794 1537 2939 
Q 1816 3084 2150 3084 
Q 2853 3084 3261 2657 
Q 3669 2231 3669 1497 
Q 3669 778 3244 343 
Q 2819 -91 2113 -91 
Q 1303 -91 875 529 
Q 447 1150 447 2328 
Q 447 3434 972 4092 
Q 1497 4750 2381 4750 
Q 2619 4750 2861 4703 
Q 3103 4656 3366 4563 
z
" transform="scale(0.015625)"/>
       </defs>
       <use xlink:href="#DejaVuSans-36"/>
       <use xlink:href="#DejaVuSans-30" transform="translate(63.623047 0)"/>
      </g>
     </g>
    </g>
    <g id="ytick_5">
     <g id="line2d_10">
      <g>
       <use xlink:href="#m66d07c796f" x="50.87" y="175.566468" style="stroke: #000000; stroke-width: 0.8"/>
      </g>
     </g>
     <g id="text_11">
      <!-- 80 -->
      <g transform="translate(31.145 179.365686) scale(0.1 -0.1)">
       <defs>
        <path id="DejaVuSans-38" d="M 2034 2216 
Q 1584 2216 1326 1975 
Q 1069 1734 1069 1313 
Q 1069 891 1326 650 
Q 1584 409 2034 409 
Q 2484 409 2743 651 
Q 3003 894 3003 1313 
Q 3003 1734 2745 1975 
Q 2488 2216 2034 2216 
z
M 1403 2484 
Q 997 2584 770 2862 
Q 544 3141 544 3541 
Q 544 4100 942 4425 
Q 1341 4750 2034 4750 
Q 2731 4750 3128 4425 
Q 3525 4100 3525 3541 
Q 3525 3141 3298 2862 
Q 3072 2584 2669 2484 
Q 3125 2378 3379 2068 
Q 3634 1759 3634 1313 
Q 3634 634 3220 271 
Q 2806 -91 2034 -91 
Q 1263 -91 848 271 
Q 434 634 434 1313 
Q 434 1759 690 2068 
Q 947 2378 1403 2484 
z
M 1172 3481 
Q 1172 3119 1398 2916 
Q 1625 2713 2034 2713 
Q 2441 2713 2670 2916 
Q 2900 3119 2900 3481 
Q 2900 3844 2670 4047 
Q 2441 4250 2034 4250 
Q 1625 4250 1398 4047 
Q 1172 3844 1172 3481 
z
" transform="scale(0.015625)"/>
       </defs>
       <use xlink:href="#DejaVuSans-38"/>
       <use xlink:href="#DejaVuSans-30" transform="translate(63.623047 0)"/>
      </g>
     </g>
    </g>
    <g id="ytick_6">
     <g id="line2d_11">
      <g>
       <use xlink:href="#m66d07c796f" x="50.87" y="121.948084" style="stroke: #000000; stroke-width: 0.8"/>
      </g>
     </g>
     <g id="text_12">
      <!-- 100 -->
      <g transform="translate(24.7825 125.747303) scale(0.1 -0.1)">
       <use xlink:href="#DejaVuSans-31"/>
       <use xlink:href="#DejaVuSans-30" transform="translate(63.623047 0)"/>
       <use xlink:href="#DejaVuSans-30" transform="translate(127.246094 0)"/>
      </g>
     </g>
    </g>
    <g id="ytick_7">
     <g id="line2d_12">
      <g>
       <use xlink:href="#m66d07c796f" x="50.87" y="68.329701" style="stroke: #000000; stroke-width: 0.8"/>
      </g>
     </g>
     <g id="text_13">
      <!-- 120 -->
      <g transform="translate(24.7825 72.12892) scale(0.1 -0.1)">
       <use xlink:href="#DejaVuSans-31"/>
       <use xlink:href="#DejaVuSans-32" transform="translate(63.623047 0)"/>
       <use xlink:href="#DejaVuSans-30" transform="translate(127.246094 0)"/>
      </g>
     </g>
    </g>
    <g id="text_14">
     <!-- Phe-Reverse Labelled volume / Control volume -->
     <g transform="translate(18.702813 325.499844) rotate(-90) scale(0.1 -0.1)">
      <defs>
       <path id="DejaVuSans-68" d="M 3513 2113 
L 3513 0 
L 2938 0 
L 2938 2094 
Q 2938 2591 2744 2837 
Q 2550 3084 2163 3084 
Q 1697 3084 1428 2787 
Q 1159 2491 1159 1978 
L 1159 0 
L 581 0 
L 581 4863 
L 1159 4863 
L 1159 2956 
Q 1366 3272 1645 3428 
Q 1925 3584 2291 3584 
Q 2894 3584 3203 3211 
Q 3513 2838 3513 2113 
z
" transform="scale(0.015625)"/>
       <path id="DejaVuSans-2d" d="M 313 2009 
L 1997 2009 
L 1997 1497 
L 313 1497 
L 313 2009 
z
" transform="scale(0.015625)"/>
       <path id="DejaVuSans-52" d="M 2841 2188 
Q 3044 2119 3236 1894 
Q 3428 1669 3622 1275 
L 4263 0 
L 3584 0 
L 2988 1197 
Q 2756 1666 2539 1819 
Q 2322 1972 1947 1972 
L 1259 1972 
L 1259 0 
L 628 0 
L 628 4666 
L 2053 4666 
Q 2853 4666 3247 4331 
Q 3641 3997 3641 3322 
Q 3641 2881 3436 2590 
Q 3231 2300 2841 2188 
z
M 1259 4147 
L 1259 2491 
L 2053 2491 
Q 2509 2491 2742 2702 
Q 2975 2913 2975 3322 
Q 2975 3731 2742 3939 
Q 2509 4147 2053 4147 
L 1259 4147 
z
" transform="scale(0.015625)"/>
       <path id="DejaVuSans-76" d="M 191 3500 
L 800 3500 
L 1894 563 
L 2988 3500 
L 3597 3500 
L 2284 0 
L 1503 0 
L 191 3500 
z
" transform="scale(0.015625)"/>
       <path id="DejaVuSans-72" d="M 2631 2963 
Q 2534 3019 2420 3045 
Q 2306 3072 2169 3072 
Q 1681 3072 1420 2755 
Q 1159 2438 1159 1844 
L 1159 0 
L 581 0 
L 581 3500 
L 1159 3500 
L 1159 2956 
Q 1341 3275 1631 3429 
Q 1922 3584 2338 3584 
Q 2397 3584 2469 3576 
Q 2541 3569 2628 3553 
L 2631 2963 
z
" transform="scale(0.015625)"/>
       <path id="DejaVuSans-73" d="M 2834 3397 
L 2834 2853 
Q 2591 2978 2328 3040 
Q 2066 3103 1784 3103 
Q 1356 3103 1142 2972 
Q 928 2841 928 2578 
Q 928 2378 1081 2264 
Q 1234 2150 1697 2047 
L 1894 2003 
Q 2506 1872 2764 1633 
Q 3022 1394 3022 966 
Q 3022 478 2636 193 
Q 2250 -91 1575 -91 
Q 1294 -91 989 -36 
Q 684 19 347 128 
L 347 722 
Q 666 556 975 473 
Q 1284 391 1588 391 
Q 1994 391 2212 530 
Q 2431 669 2431 922 
Q 2431 1156 2273 1281 
Q 2116 1406 1581 1522 
L 1381 1569 
Q 847 1681 609 1914 
Q 372 2147 372 2553 
Q 372 3047 722 3315 
Q 1072 3584 1716 3584 
Q 2034 3584 2315 3537 
Q 2597 3491 2834 3397 
z
" transform="scale(0.015625)"/>
       <path id="DejaVuSans-4c" d="M 628 4666 
L 1259 4666 
L 1259 531 
L 3531 531 
L 3531 0 
L 628 0 
L 628 4666 
z
" transform="scale(0.015625)"/>
       <path id="DejaVuSans-62" d="M 3116 1747 
Q 3116 2381 2855 2742 
Q 2594 3103 2138 3103 
Q 1681 3103 1420 2742 
Q 1159 2381 1159 1747 
Q 1159 1113 1420 752 
Q 1681 391 2138 391 
Q 2594 391 2855 752 
Q 3116 1113 3116 1747 
z
M 1159 2969 
Q 1341 3281 1617 3432 
Q 1894 3584 2278 3584 
Q 2916 3584 3314 3078 
Q 3713 2572 3713 1747 
Q 3713 922 3314 415 
Q 2916 -91 2278 -91 
Q 1894 -91 1617 61 
Q 1341 213 1159 525 
L 1159 0 
L 581 0 
L 581 4863 
L 1159 4863 
L 1159 2969 
z
" transform="scale(0.015625)"/>
       <path id="DejaVuSans-6c" d="M 603 4863 
L 1178 4863 
L 1178 0 
L 603 0 
L 603 4863 
z
" transform="scale(0.015625)"/>
       <path id="DejaVuSans-64" d="M 2906 2969 
L 2906 4863 
L 3481 4863 
L 3481 0 
L 2906 0 
L 2906 525 
Q 2725 213 2448 61 
Q 2172 -91 1784 -91 
Q 1150 -91 751 415 
Q 353 922 353 1747 
Q 353 2572 751 3078 
Q 1150 3584 1784 3584 
Q 2172 3584 2448 3432 
Q 2725 3281 2906 2969 
z
M 947 1747 
Q 947 1113 1208 752 
Q 1469 391 1925 391 
Q 2381 391 2643 752 
Q 2906 1113 2906 1747 
Q 2906 2381 2643 2742 
Q 2381 3103 1925 3103 
Q 1469 3103 1208 2742 
Q 947 2381 947 1747 
z
" transform="scale(0.015625)"/>
       <path id="DejaVuSans-6f" d="M 1959 3097 
Q 1497 3097 1228 2736 
Q 959 2375 959 1747 
Q 959 1119 1226 758 
Q 1494 397 1959 397 
Q 2419 397 2687 759 
Q 2956 1122 2956 1747 
Q 2956 2369 2687 2733 
Q 2419 3097 1959 3097 
z
M 1959 3584 
Q 2709 3584 3137 3096 
Q 3566 2609 3566 1747 
Q 3566 888 3137 398 
Q 2709 -91 1959 -91 
Q 1206 -91 779 398 
Q 353 888 353 1747 
Q 353 2609 779 3096 
Q 1206 3584 1959 3584 
z
" transform="scale(0.015625)"/>
       <path id="DejaVuSans-75" d="M 544 1381 
L 544 3500 
L 1119 3500 
L 1119 1403 
Q 1119 906 1312 657 
Q 1506 409 1894 409 
Q 2359 409 2629 706 
Q 2900 1003 2900 1516 
L 2900 3500 
L 3475 3500 
L 3475 0 
L 2900 0 
L 2900 538 
Q 2691 219 2414 64 
Q 2138 -91 1772 -91 
Q 1169 -91 856 284 
Q 544 659 544 1381 
z
M 1991 3584 
L 1991 3584 
z
" transform="scale(0.015625)"/>
       <path id="DejaVuSans-6d" d="M 3328 2828 
Q 3544 3216 3844 3400 
Q 4144 3584 4550 3584 
Q 5097 3584 5394 3201 
Q 5691 2819 5691 2113 
L 5691 0 
L 5113 0 
L 5113 2094 
Q 5113 2597 4934 2840 
Q 4756 3084 4391 3084 
Q 3944 3084 3684 2787 
Q 3425 2491 3425 1978 
L 3425 0 
L 2847 0 
L 2847 2094 
Q 2847 2600 2669 2842 
Q 2491 3084 2119 3084 
Q 1678 3084 1418 2786 
Q 1159 2488 1159 1978 
L 1159 0 
L 581 0 
L 581 3500 
L 1159 3500 
L 1159 2956 
Q 1356 3278 1631 3431 
Q 1906 3584 2284 3584 
Q 2666 3584 2933 3390 
Q 3200 3197 3328 2828 
z
" transform="scale(0.015625)"/>
       <path id="DejaVuSans-2f" d="M 1625 4666 
L 2156 4666 
L 531 -594 
L 0 -594 
L 1625 4666 
z
" transform="scale(0.015625)"/>
       <path id="DejaVuSans-43" d="M 4122 4306 
L 4122 3641 
Q 3803 3938 3442 4084 
Q 3081 4231 2675 4231 
Q 1875 4231 1450 3742 
Q 1025 3253 1025 2328 
Q 1025 1406 1450 917 
Q 1875 428 2675 428 
Q 3081 428 3442 575 
Q 3803 722 4122 1019 
L 4122 359 
Q 3791 134 3420 21 
Q 3050 -91 2638 -91 
Q 1578 -91 968 557 
Q 359 1206 359 2328 
Q 359 3453 968 4101 
Q 1578 4750 2638 4750 
Q 3056 4750 3426 4639 
Q 3797 4528 4122 4306 
z
" transform="scale(0.015625)"/>
       <path id="DejaVuSans-6e" d="M 3513 2113 
L 3513 0 
L 2938 0 
L 2938 2094 
Q 2938 2591 2744 2837 
Q 2550 3084 2163 3084 
Q 1697 3084 1428 2787 
Q 1159 2491 1159 1978 
L 1159 0 
L 581 0 
L 581 3500 
L 1159 3500 
L 1159 2956 
Q 1366 3272 1645 3428 
Q 1925 3584 2291 3584 
Q 2894 3584 3203 3211 
Q 3513 2838 3513 2113 
z
" transform="scale(0.015625)"/>
       <path id="DejaVuSans-74" d="M 1172 4494 
L 1172 3500 
L 2356 3500 
L 2356 3053 
L 1172 3053 
L 1172 1153 
Q 1172 725 1289 603 
Q 1406 481 1766 481 
L 2356 481 
L 2356 0 
L 1766 0 
Q 1100 0 847 248 
Q 594 497 594 1153 
L 594 3053 
L 172 3053 
L 172 3500 
L 594 3500 
L 594 4494 
L 1172 4494 
z
" transform="scale(0.015625)"/>
      </defs>
      <use xlink:href="#DejaVuSans-50"/>
      <use xlink:href="#DejaVuSans-68" transform="translate(60.302734 0)"/>
      <use xlink:href="#DejaVuSans-65" transform="translate(123.681641 0)"/>
      <use xlink:href="#DejaVuSans-2d" transform="translate(185.205078 0)"/>
      <use xlink:href="#DejaVuSans-52" transform="translate(221.289062 0)"/>
      <use xlink:href="#DejaVuSans-65" transform="translate(286.271484 0)"/>
      <use xlink:href="#DejaVuSans-76" transform="translate(347.794922 0)"/>
      <use xlink:href="#DejaVuSans-65" transform="translate(406.974609 0)"/>
      <use xlink:href="#DejaVuSans-72" transform="translate(468.498047 0)"/>
      <use xlink:href="#DejaVuSans-73" transform="translate(509.611328 0)"/>
      <use xlink:href="#DejaVuSans-65" transform="translate(561.710938 0)"/>
      <use xlink:href="#DejaVuSans-20" transform="translate(623.234375 0)"/>
      <use xlink:href="#DejaVuSans-4c" transform="translate(655.021484 0)"/>
      <use xlink:href="#DejaVuSans-61" transform="translate(710.734375 0)"/>
      <use xlink:href="#DejaVuSans-62" transform="translate(772.013672 0)"/>
      <use xlink:href="#DejaVuSans-65" transform="translate(835.490234 0)"/>
      <use xlink:href="#DejaVuSans-6c" transform="translate(897.013672 0)"/>
      <use xlink:href="#DejaVuSans-6c" transform="translate(924.796875 0)"/>
      <use xlink:href="#DejaVuSans-65" transform="translate(952.580078 0)"/>
      <use xlink:href="#DejaVuSans-64" transform="translate(1014.103516 0)"/>
      <use xlink:href="#DejaVuSans-20" transform="translate(1077.580078 0)"/>
      <use xlink:href="#DejaVuSans-76" transform="translate(1109.367188 0)"/>
      <use xlink:href="#DejaVuSans-6f" transform="translate(1168.546875 0)"/>
      <use xlink:href="#DejaVuSans-6c" transform="translate(1229.728516 0)"/>
      <use xlink:href="#DejaVuSans-75" transform="translate(1257.511719 0)"/>
      <use xlink:href="#DejaVuSans-6d" transform="translate(1320.890625 0)"/>
      <use xlink:href="#DejaVuSans-65" transform="translate(1418.302734 0)"/>
      <use xlink:href="#DejaVuSans-20" transform="translate(1479.826172 0)"/>
      <use xlink:href="#DejaVuSans-2f" transform="translate(1511.613281 0)"/>
      <use xlink:href="#DejaVuSans-20" transform="translate(1545.304688 0)"/>
      <use xlink:href="#DejaVuSans-43" transform="translate(1577.091797 0)"/>
      <use xlink:href="#DejaVuSans-6f" transform="translate(1646.916016 0)"/>
      <use xlink:href="#DejaVuSans-6e" transform="translate(1708.097656 0)"/>
      <use xlink:href="#DejaVuSans-74" transform="translate(1771.476562 0)"/>
      <use xlink:href="#DejaVuSans-72" transform="translate(1810.685547 0)"/>
      <use xlink:href="#DejaVuSans-6f" transform="translate(1849.548828 0)"/>
      <use xlink:href="#DejaVuSans-6c" transform="translate(1910.730469 0)"/>
      <use xlink:href="#DejaVuSans-20" transform="translate(1938.513672 0)"/>
      <use xlink:href="#DejaVuSans-76" transform="translate(1970.300781 0)"/>
      <use xlink:href="#DejaVuSans-6f" transform="translate(2029.480469 0)"/>
      <use xlink:href="#DejaVuSans-6c" transform="translate(2090.662109 0)"/>
      <use xlink:href="#DejaVuSans-75" transform="translate(2118.445312 0)"/>
      <use xlink:href="#DejaVuSans-6d" transform="translate(2181.824219 0)"/>
      <use xlink:href="#DejaVuSans-65" transform="translate(2279.236328 0)"/>
     </g>
    </g>
   </g>
   <g id="patch_245">
    <path d="M 50.87 390.04 
L 50.87 26.88 
" style="fill: none; stroke: #000000; stroke-width: 0.8; stroke-linejoin: miter; stroke-linecap: square"/>
   </g>
   <g id="patch_246">
    <path d="M 709.2 390.04 
L 709.2 26.88 
" style="fill: none; stroke: #000000; stroke-width: 0.8; stroke-linejoin: miter; stroke-linecap: square"/>
   </g>
   <g id="patch_247">
    <path d="M 50.87 390.04 
L 709.2 390.04 
" style="fill: none; stroke: #000000; stroke-width: 0.8; stroke-linejoin: miter; stroke-linecap: square"/>
   </g>
   <g id="patch_248">
    <path d="M 50.87 26.88 
L 709.2 26.88 
" style="fill: none; stroke: #000000; stroke-width: 0.8; stroke-linejoin: miter; stroke-linecap: square"/>
   </g>
   <g id="text_15">
    <!-- Red: 8, orange: 25, Green: 209 -->
    <g transform="translate(302.533437 40.534175) scale(0.1 -0.1)">
     <defs>
      <path id="DejaVuSans-3a" d="M 750 794 
L 1409 794 
L 1409 0 
L 750 0 
L 750 794 
z
M 750 3309 
L 1409 3309 
L 1409 2516 
L 750 2516 
L 750 3309 
z
" transform="scale(0.015625)"/>
      <path id="DejaVuSans-2c" d="M 750 794 
L 1409 794 
L 1409 256 
L 897 -744 
L 494 -744 
L 750 256 
L 750 794 
z
" transform="scale(0.015625)"/>
      <path id="DejaVuSans-67" d="M 2906 1791 
Q 2906 2416 2648 2759 
Q 2391 3103 1925 3103 
Q 1463 3103 1205 2759 
Q 947 2416 947 1791 
Q 947 1169 1205 825 
Q 1463 481 1925 481 
Q 2391 481 2648 825 
Q 2906 1169 2906 1791 
z
M 3481 434 
Q 3481 -459 3084 -895 
Q 2688 -1331 1869 -1331 
Q 1566 -1331 1297 -1286 
Q 1028 -1241 775 -1147 
L 775 -588 
Q 1028 -725 1275 -790 
Q 1522 -856 1778 -856 
Q 2344 -856 2625 -561 
Q 2906 -266 2906 331 
L 2906 616 
Q 2728 306 2450 153 
Q 2172 0 1784 0 
Q 1141 0 747 490 
Q 353 981 353 1791 
Q 353 2603 747 3093 
Q 1141 3584 1784 3584 
Q 2172 3584 2450 3431 
Q 2728 3278 2906 2969 
L 2906 3500 
L 3481 3500 
L 3481 434 
z
" transform="scale(0.015625)"/>
      <path id="DejaVuSans-47" d="M 3809 666 
L 3809 1919 
L 2778 1919 
L 2778 2438 
L 4434 2438 
L 4434 434 
Q 4069 175 3628 42 
Q 3188 -91 2688 -91 
Q 1594 -91 976 548 
Q 359 1188 359 2328 
Q 359 3472 976 4111 
Q 1594 4750 2688 4750 
Q 3144 4750 3555 4637 
Q 3966 4525 4313 4306 
L 4313 3634 
Q 3963 3931 3569 4081 
Q 3175 4231 2741 4231 
Q 1884 4231 1454 3753 
Q 1025 3275 1025 2328 
Q 1025 1384 1454 906 
Q 1884 428 2741 428 
Q 3075 428 3337 486 
Q 3600 544 3809 666 
z
" transform="scale(0.015625)"/>
      <path id="DejaVuSans-39" d="M 703 97 
L 703 672 
Q 941 559 1184 500 
Q 1428 441 1663 441 
Q 2288 441 2617 861 
Q 2947 1281 2994 2138 
Q 2813 1869 2534 1725 
Q 2256 1581 1919 1581 
Q 1219 1581 811 2004 
Q 403 2428 403 3163 
Q 403 3881 828 4315 
Q 1253 4750 1959 4750 
Q 2769 4750 3195 4129 
Q 3622 3509 3622 2328 
Q 3622 1225 3098 567 
Q 2575 -91 1691 -91 
Q 1453 -91 1209 -44 
Q 966 3 703 97 
z
M 1959 2075 
Q 2384 2075 2632 2365 
Q 2881 2656 2881 3163 
Q 2881 3666 2632 3958 
Q 2384 4250 1959 4250 
Q 1534 4250 1286 3958 
Q 1038 3666 1038 3163 
Q 1038 2656 1286 2365 
Q 1534 2075 1959 2075 
z
" transform="scale(0.015625)"/>
     </defs>
     <use xlink:href="#DejaVuSans-52"/>
     <use xlink:href="#DejaVuSans-65" transform="translate(64.982422 0)"/>
     <use xlink:href="#DejaVuSans-64" transform="translate(126.505859 0)"/>
     <use xlink:href="#DejaVuSans-3a" transform="translate(189.982422 0)"/>
     <use xlink:href="#DejaVuSans-20" transform="translate(223.673828 0)"/>
     <use xlink:href="#DejaVuSans-38" transform="translate(255.460938 0)"/>
     <use xlink:href="#DejaVuSans-2c" transform="translate(319.083984 0)"/>
     <use xlink:href="#DejaVuSans-20" transform="translate(350.871094 0)"/>
     <use xlink:href="#DejaVuSans-6f" transform="translate(382.658203 0)"/>
     <use xlink:href="#DejaVuSans-72" transform="translate(443.839844 0)"/>
     <use xlink:href="#DejaVuSans-61" transform="translate(484.953125 0)"/>
     <use xlink:href="#DejaVuSans-6e" transform="translate(546.232422 0)"/>
     <use xlink:href="#DejaVuSans-67" transform="translate(609.611328 0)"/>
     <use xlink:href="#DejaVuSans-65" transform="translate(673.087891 0)"/>
     <use xlink:href="#DejaVuSans-3a" transform="translate(734.611328 0)"/>
     <use xlink:href="#DejaVuSans-20" transform="translate(768.302734 0)"/>
     <use xlink:href="#DejaVuSans-32" transform="translate(800.089844 0)"/>
     <use xlink:href="#DejaVuSans-35" transform="translate(863.712891 0)"/>
     <use xlink:href="#DejaVuSans-2c" transform="translate(927.335938 0)"/>
     <use xlink:href="#DejaVuSans-20" transform="translate(959.123047 0)"/>
     <use xlink:href="#DejaVuSans-47" transform="translate(990.910156 0)"/>
     <use xlink:href="#DejaVuSans-72" transform="translate(1068.400391 0)"/>
     <use xlink:href="#DejaVuSans-65" transform="translate(1107.263672 0)"/>
     <use xlink:href="#DejaVuSans-65" transform="translate(1168.787109 0)"/>
     <use xlink:href="#DejaVuSans-6e" transform="translate(1230.310547 0)"/>
     <use xlink:href="#DejaVuSans-3a" transform="translate(1293.689453 0)"/>
     <use xlink:href="#DejaVuSans-20" transform="translate(1327.380859 0)"/>
     <use xlink:href="#DejaVuSans-32" transform="translate(1359.167969 0)"/>
     <use xlink:href="#DejaVuSans-30" transform="translate(1422.791016 0)"/>
     <use xlink:href="#DejaVuSans-39" transform="translate(1486.414062 0)"/>
    </g>
   </g>
   <g id="text_16">
    <!-- Phe-Reverse Labelled Volume relative to Control Volume (median normalized) -->
    <g transform="translate(146.545 20.88) scale(0.12 -0.12)">
     <defs>
      <path id="DejaVuSans-56" d="M 1831 0 
L 50 4666 
L 709 4666 
L 2188 738 
L 3669 4666 
L 4325 4666 
L 2547 0 
L 1831 0 
z
" transform="scale(0.015625)"/>
      <path id="DejaVuSans-69" d="M 603 3500 
L 1178 3500 
L 1178 0 
L 603 0 
L 603 3500 
z
M 603 4863 
L 1178 4863 
L 1178 4134 
L 603 4134 
L 603 4863 
z
" transform="scale(0.015625)"/>
      <path id="DejaVuSans-28" d="M 1984 4856 
Q 1566 4138 1362 3434 
Q 1159 2731 1159 2009 
Q 1159 1288 1364 580 
Q 1569 -128 1984 -844 
L 1484 -844 
Q 1016 -109 783 600 
Q 550 1309 550 2009 
Q 550 2706 781 3412 
Q 1013 4119 1484 4856 
L 1984 4856 
z
" transform="scale(0.015625)"/>
      <path id="DejaVuSans-7a" d="M 353 3500 
L 3084 3500 
L 3084 2975 
L 922 459 
L 3084 459 
L 3084 0 
L 275 0 
L 275 525 
L 2438 3041 
L 353 3041 
L 353 3500 
z
" transform="scale(0.015625)"/>
      <path id="DejaVuSans-29" d="M 513 4856 
L 1013 4856 
Q 1481 4119 1714 3412 
Q 1947 2706 1947 2009 
Q 1947 1309 1714 600 
Q 1481 -109 1013 -844 
L 513 -844 
Q 928 -128 1133 580 
Q 1338 1288 1338 2009 
Q 1338 2731 1133 3434 
Q 928 4138 513 4856 
z
" transform="scale(0.015625)"/>
     </defs>
     <use xlink:href="#DejaVuSans-50"/>
     <use xlink:href="#DejaVuSans-68" transform="translate(60.302734 0)"/>
     <use xlink:href="#DejaVuSans-65" transform="translate(123.681641 0)"/>
     <use xlink:href="#DejaVuSans-2d" transform="translate(185.205078 0)"/>
     <use xlink:href="#DejaVuSans-52" transform="translate(221.289062 0)"/>
     <use xlink:href="#DejaVuSans-65" transform="translate(286.271484 0)"/>
     <use xlink:href="#DejaVuSans-76" transform="translate(347.794922 0)"/>
     <use xlink:href="#DejaVuSans-65" transform="translate(406.974609 0)"/>
     <use xlink:href="#DejaVuSans-72" transform="translate(468.498047 0)"/>
     <use xlink:href="#DejaVuSans-73" transform="translate(509.611328 0)"/>
     <use xlink:href="#DejaVuSans-65" transform="translate(561.710938 0)"/>
     <use xlink:href="#DejaVuSans-20" transform="translate(623.234375 0)"/>
     <use xlink:href="#DejaVuSans-4c" transform="translate(655.021484 0)"/>
     <use xlink:href="#DejaVuSans-61" transform="translate(710.734375 0)"/>
     <use xlink:href="#DejaVuSans-62" transform="translate(772.013672 0)"/>
     <use xlink:href="#DejaVuSans-65" transform="translate(835.490234 0)"/>
     <use xlink:href="#DejaVuSans-6c" transform="translate(897.013672 0)"/>
     <use xlink:href="#DejaVuSans-6c" transform="translate(924.796875 0)"/>
     <use xlink:href="#DejaVuSans-65" transform="translate(952.580078 0)"/>
     <use xlink:href="#DejaVuSans-64" transform="translate(1014.103516 0)"/>
     <use xlink:href="#DejaVuSans-20" transform="translate(1077.580078 0)"/>
     <use xlink:href="#DejaVuSans-56" transform="translate(1109.367188 0)"/>
     <use xlink:href="#DejaVuSans-6f" transform="translate(1170.025391 0)"/>
     <use xlink:href="#DejaVuSans-6c" transform="translate(1231.207031 0)"/>
     <use xlink:href="#DejaVuSans-75" transform="translate(1258.990234 0)"/>
     <use xlink:href="#DejaVuSans-6d" transform="translate(1322.369141 0)"/>
     <use xlink:href="#DejaVuSans-65" transform="translate(1419.78125 0)"/>
     <use xlink:href="#DejaVuSans-20" transform="translate(1481.304688 0)"/>
     <use xlink:href="#DejaVuSans-72" transform="translate(1513.091797 0)"/>
     <use xlink:href="#DejaVuSans-65" transform="translate(1551.955078 0)"/>
     <use xlink:href="#DejaVuSans-6c" transform="translate(1613.478516 0)"/>
     <use xlink:href="#DejaVuSans-61" transform="translate(1641.261719 0)"/>
     <use xlink:href="#DejaVuSans-74" transform="translate(1702.541016 0)"/>
     <use xlink:href="#DejaVuSans-69" transform="translate(1741.75 0)"/>
     <use xlink:href="#DejaVuSans-76" transform="translate(1769.533203 0)"/>
     <use xlink:href="#DejaVuSans-65" transform="translate(1828.712891 0)"/>
     <use xlink:href="#DejaVuSans-20" transform="translate(1890.236328 0)"/>
     <use xlink:href="#DejaVuSans-74" transform="translate(1922.023438 0)"/>
     <use xlink:href="#DejaVuSans-6f" transform="translate(1961.232422 0)"/>
     <use xlink:href="#DejaVuSans-20" transform="translate(2022.414062 0)"/>
     <use xlink:href="#DejaVuSans-43" transform="translate(2054.201172 0)"/>
     <use xlink:href="#DejaVuSans-6f" transform="translate(2124.025391 0)"/>
     <use xlink:href="#DejaVuSans-6e" transform="translate(2185.207031 0)"/>
     <use xlink:href="#DejaVuSans-74" transform="translate(2248.585938 0)"/>
     <use xlink:href="#DejaVuSans-72" transform="translate(2287.794922 0)"/>
     <use xlink:href="#DejaVuSans-6f" transform="translate(2326.658203 0)"/>
     <use xlink:href="#DejaVuSans-6c" transform="translate(2387.839844 0)"/>
     <use xlink:href="#DejaVuSans-20" transform="translate(2415.623047 0)"/>
     <use xlink:href="#DejaVuSans-56" transform="translate(2447.410156 0)"/>
     <use xlink:href="#DejaVuSans-6f" transform="translate(2508.068359 0)"/>
     <use xlink:href="#DejaVuSans-6c" transform="translate(2569.25 0)"/>
     <use xlink:href="#DejaVuSans-75" transform="translate(2597.033203 0)"/>
     <use xlink:href="#DejaVuSans-6d" transform="translate(2660.412109 0)"/>
     <use xlink:href="#DejaVuSans-65" transform="translate(2757.824219 0)"/>
     <use xlink:href="#DejaVuSans-20" transform="translate(2819.347656 0)"/>
     <use xlink:href="#DejaVuSans-28" transform="translate(2851.134766 0)"/>
     <use xlink:href="#DejaVuSans-6d" transform="translate(2890.148438 0)"/>
     <use xlink:href="#DejaVuSans-65" transform="translate(2987.560547 0)"/>
     <use xlink:href="#DejaVuSans-64" transform="translate(3049.083984 0)"/>
     <use xlink:href="#DejaVuSans-69" transform="translate(3112.560547 0)"/>
     <use xlink:href="#DejaVuSans-61" transform="translate(3140.34375 0)"/>
     <use xlink:href="#DejaVuSans-6e" transform="translate(3201.623047 0)"/>
     <use xlink:href="#DejaVuSans-20" transform="translate(3265.001953 0)"/>
     <use xlink:href="#DejaVuSans-6e" transform="translate(3296.789062 0)"/>
     <use xlink:href="#DejaVuSans-6f" transform="translate(3360.167969 0)"/>
     <use xlink:href="#DejaVuSans-72" transform="translate(3421.349609 0)"/>
     <use xlink:href="#DejaVuSans-6d" transform="translate(3460.712891 0)"/>
     <use xlink:href="#DejaVuSans-61" transform="translate(3558.125 0)"/>
     <use xlink:href="#DejaVuSans-6c" transform="translate(3619.404297 0)"/>
     <use xlink:href="#DejaVuSans-69" transform="translate(3647.1875 0)"/>
     <use xlink:href="#DejaVuSans-7a" transform="translate(3674.970703 0)"/>
     <use xlink:href="#DejaVuSans-65" transform="translate(3727.460938 0)"/>
     <use xlink:href="#DejaVuSans-64" transform="translate(3788.984375 0)"/>
     <use xlink:href="#DejaVuSans-29" transform="translate(3852.460938 0)"/>
    </g>
   </g>
  </g>
 </g>
 <defs>
  <clipPath id="p83457029e5">
   <rect x="50.87" y="26.88" width="658.33" height="363.16"/>
  </clipPath>
 </defs>
</svg>
